<mxfile host="app.diagrams.net" modified="2023-05-28T09:13:17.126Z" agent="Mozilla/5.0 (Windows NT 10.0; Win64; x64) AppleWebKit/537.36 (KHTML, like Gecko) Chrome/113.0.0.0 Safari/537.36" etag="VLTq8iQ65tqkDD6zmXOL" version="21.3.4" type="github">
  <diagram name="Page-1" id="GJ5piuG5fn9w75JkjtIA">
    <mxGraphModel dx="2385" dy="1440" grid="1" gridSize="10" guides="1" tooltips="1" connect="1" arrows="1" fold="1" page="1" pageScale="1" pageWidth="827" pageHeight="1169" math="0" shadow="0">
      <root>
        <mxCell id="0" />
        <mxCell id="1" parent="0" />
        <mxCell id="BE3_SHiMCwZjSVx6Z5An-5" value="" style="shape=flexArrow;endArrow=classic;html=1;rounded=0;" edge="1" parent="1">
          <mxGeometry width="50" height="50" relative="1" as="geometry">
            <mxPoint x="190" y="155" as="sourcePoint" />
            <mxPoint x="668" y="155" as="targetPoint" />
          </mxGeometry>
        </mxCell>
        <mxCell id="BE3_SHiMCwZjSVx6Z5An-17" value="&lt;b style=&quot;border-color: var(--border-color); font-size: 13px; background-color: rgb(251, 251, 251);&quot;&gt;Step1:&lt;/b&gt;&amp;nbsp;Deploy orcp inscripition,supply 100 billion" style="edgeLabel;html=1;align=center;verticalAlign=middle;resizable=0;points=[];fontSize=13;" vertex="1" connectable="0" parent="BE3_SHiMCwZjSVx6Z5An-5">
          <mxGeometry x="0.0818" y="-2" relative="1" as="geometry">
            <mxPoint x="-17" y="-17" as="offset" />
          </mxGeometry>
        </mxCell>
        <mxCell id="BE3_SHiMCwZjSVx6Z5An-7" value="" style="shape=image;verticalLabelPosition=bottom;labelBackgroundColor=default;verticalAlign=top;aspect=fixed;imageAspect=0;image=data:image/png,iVBORw0KGgoAAAANSUhEUgAAAegAAAGdCAYAAADZv+B+AAAgAElEQVR4nOzdd3xTVRvA8V+bpkmTznQzyiqrlNECgiwZMkVEEBkiMl+hgODEzVKcoCBTBBSRIaIsEZBRZYksC7VsuiilpZS2dLdp3j9qAyFllUACPN/Px89r7r3nnid5bZ57nnPujZ3BYDAghBBCCJtib+0AhBBCCGFOErQQQghhgyRBCyGEEDZIErQQQghhgyRBCyGEEDZIErQQQghhgyRBCyGEEDZIErQQQghhgyRBCyGEEDZIErQQQghhgyRBCyGEEDZIErQQQghhgyRBCyGEEDZIErQQQghhgyRBP8ASE8/zwUef0K5DFyoH1mb1mnXWDkkIIcQtcrB2AOLuiImN5eVXx3HonwhrhyKEEKIMrJqgDQaIjovnt9/DOXUmBkdHR8KG9KdSxfLWDOuBsHVbOIf+iaBP7168/NIofHy8sbOzs3ZYQgghbpFVEnReXj77/znC1j92czH1kjVCeKDl5eURGxtHlcqVeeH55/D19bF2SEIIIW6TVeag/9r/Dz/+8iupl9KoXSOQvj2fRK1WWSOUB5LBYECv1xMQUAE/P19rhyOEEKIMrDKCrlMrkBOnatCudXOqBFQk7myCNcIQQgghbJZVErSXp45hL/SxRtdCCCHEfUFus3pA6YuKrB2CEEKIOyAJ+gGTX1DAjl272bFjFzWqV0er0Vo7JCGEEGUg90E/IM6ciWbkmFc4evQY7u5uPNGlM/8bOhhHR6W1QxNCCFEGMoJ+ABUUFJKfn09hYaG1QxFCCFFGkqAfEFWrVuG3db9w5NA+xowOY8Nvm5j3zQLy8wusHZoQQogykAT9gHFxcaZv71481qoFx4+f4FKaPAhGCCHuR5KgH0BKpRIPd3fS0jPIysyydjhCCCHKQBK0EEIIYYOssoo7Nj6B2QuWkJubZ7Zv2qwFxn/v3L41ndq1upehCSGEEDZBRtBCCCGEDbLKCLpSxfJ8MmGcNboWQggh7gsygn4A2SsUqNVqLqZc5PLly9YORwghRBlIgn4AOSqV1KgeSPKFC0z/ajbRMTEYDAZrhyWEEOI2SIJ+QLVt25r2j7djW/gftHm8M1WqB7F6zTprhyWEEOIWSYJ+QHl7efHxlEmMe/0VqlWtYu1whBBC3CY7g9Q+hRBCCJsjI2ghhBDCBkmCFkIIIWyQJGghhBDCBkmCFkIIIWyQJGghhBDCBkmCFkIIIWyQJGghhBDCBkmCFkIIIWyQJGghhBDCBkmCFkIIIWyQJGghhBDCBkmCFkIIIWyQJGghhBDCBkmCFkIIIWyQJGghhBDCBkmCFkIIIWyQJGghhBDCBkmCFmXy6pKJ6IYGUfeNtpxOiiU7L4fe04ejGxpE108HkJGTaZF+tkbuRDc0CN3QIJbtXg3AvK1L0A0NImBUY/afOWyRfsrq/Rmr0YaE0bDHJGISLpKTm8/gtxehDQmj98tzyczOtWp8D5qdB06iDQlDGxLGL1sOArB49W60IWFUbjeOiGPxVo5QCMuRBC3KxFXtAoDGUYOLk9Zkn1alwcFeYZF+nBzVqJQqAHxcvUz2OTooUf+3z1pctE7F/+vshIvWNBatkwp7e/kTsySVoxJnrRoAbw8Xk31OKiVqldIaYQlxVzhYs/OYuLNs+D2c09GxFBbq0WqcaBRSj87tW+Oktu4Xr7gxPw8fk9calRMVPP0t3o+rkwtalRN5BXnGbYG+lS3eT1n5el2TJNSOVPDzsFI01pOTm89Pmw8wb/kfHDoah1qlpFPLYF4f0on6NStgZ2dn1sZgMBBx/CyfLdjIxh2R5OYVEFyjPP2fbMrgni3QOpl/B7g6q9G5asjMulKZqFrR+66+NyGsxSoJuqjIwO/bd7Bx6x8UFRmM27Oyc/hj116OnTzNiwP74ql7+L7o7jferjrUSrXJNn8PX5wc1ddpUTbOai1uGleTbTpnd7xddRbtp6x8PV1QOZr+Ofn7uOP0EIzoEpIuMWLiErbuOWrclptXwOoth9i4I5Kv3u1H3yceMUnSBoOBJWv/YvQHSyko1Bu3R55I4M2pq9h54BRfvdcPH53pBVAJb50LLlrT/8a8PJzxcNOWerwQ9yOrJOhT0TH8Hr4TR0dHnn6iA41D6wHw77GTLF+1jqTkFHbvPciTndtZIzxxC/zcikctV5ezS8reCnv7UkdMZeGmccFF7czl3ExjObuk7G2H5fopKx9d8UXD1eXskrK3vZ2d1eO72woK9Uz79ne27jnK0F4teXNYF/y93UhNz+LzhZuYvngLc5Ztp02TWvh7uxnb7Y+M5c1pq9BqVEwZ+zTPdm6MylHJiZgkXvl4BevDI2hQuyJvDOmEQnFlmsBFq8bdVQMZ2cZydknZW6FQYP+Af97i4WKVCbLqVavQsW0rhg/qR9PGISgUChQKBfXq1OKRhvUBOBMTR25e3k3OJKzFWW0+Urm27H21V5dMpNqYZhyJP0bcxQRGLnybyqMfQTc0iBYTuvPH0b8wGAxm7VRKRxwdHE22lZS9b0av17N0+Y882rIN69ZvKPX8d6q0Muy1Ze9rFRUZ2LrnKN3CvsKz6Ri0IWE06f0hX363hbTL2WbH5+QWMPidRbQe8BkplzLJyslj6qLNVH38Tdwbj6Zb2FccOhp33f5SLmXy5XdbaNL7Q7QhYXg2HcNzr89n18FTJhWsslA6KHhlYHu+fKsP08b1NiZhnZuWUc+1pV7NChyMiuN0XLKxTX5BIQt/3klaRjZTxj7NgO7NcFI7Ym9vR62qfsx8rx9B1cqxcuN+4s+nmvTnqHRA5WhalSgpewvxoLEz3I1vrTsQEXmUhUtWUrVSRV4c3A+1SuaiHwSvLpnIovAVvPnUKL7940fOpyWb7HdyVPNd2HQeD25psT7PJpxjzMuvceDgIRqGhjD9i8+pUL6cxc5fFpnZuUycuY7Zy7aXur9RcGXmT36BGpV9jdtycgsYOXkJ+47EMP3tPnz6zUZ2HDhp0i6wkg8/fjGcmlX8TLbvOniKoe9+S1yiaaIDaFy3Cj9NH4GXh7MF3pm5krhXbNjHpm9epkXD6gDEJKTQY/RstE6O/PjlCJORtV5fxNL1e3lz2irSMrJZNSOMTi2D70p8Qtg6m1timph0AQCloxKFhVYCC9vx8ZqZ5Bfms3D4NJLnHSZu5j4GtOpFTn4uMzcu4rKFbs+yRQaDgVWbDjB72XYaBVdm+3evk7F/JpcPzOLQL+Pp1DKY/ZExzFyylfyCQrP28Ymp9H55Hidikpgz4XlS9nxJ4o6p9HniEU7FJrN22z8mx5+Jv8DYKcuJS0xlUI8WRK6fRObBWWTsn0nEmgl0bhWMvf3dKwln5eQRczYFZ63aZNR7LjmdM/EXqF8rAE/3K5WYjMwc3vhsJcMnfE9aRnElIfFC2l2LTwhbZ1MJOisrmyNRx7Gzs6NRg7oolVZdZC7uAj93H355ZQHdG3XCQeGAs1rLu0+PoV5AEJFnjxGbkmCxvvz9fOnZozv+/n4MHNCf8uUsv8r8dpxPyeCbn3bg7+PO9Hf68ki9KigU9tjb21Gjsi8z3ulL/VoV2bAjkhMxSWbtCwr1uGjVLJwyiAFPPYqT2hFXZycGPd0cpYOCEzFJ5OYXAMUXAys37Sfq9DleG9yR6W/3oUp5L+zs7FAo7AkM8GHc0M7o7uKiqv2RMRyMiqNtk1rUrnZlZJ9fUEhBoR6dmwbH//7Go06f45kxc5i74g/6dW3CtDd7AxB9NuWuxSeErbOZBK3X6/nl182cTUikWpVK1AuuZe2QxF0wpvNQ6gbUNtnmoXWjdvnqpGamkZR+wWJ9KRQK+vV5lj07tvNk1y5WX7AVfTaFIycSaN8siKBq5hcL5Xzcaf1ITRKT0zgZa56gAWa825fWj9Q02eatc8Hf2w19URGGouJt6Zk57DpwCn8fd3p1amSy0OpeiDp9jnFTf0KrUTGyXxucNVdWXMedu2j896IiA+u2R9D1xRkc+DeWKS/3YNb7z1En0LpTEULYApsYohYVGdi8fSf7Dx3By1NHv2eelLnnh4jCXoFGVfwFnpzx4I6Yki6mU1Cox9vD2ThyvJqdnR21/ptDvpxZ+hPI3F3MF0PVrOLH0Q0fmGxLSc0kOiGFCr4e+Hm5mbW5kcWrdzNi4pJS980Z358B3ZvdsH1C0iVe+WgFsQkX+erdfjQPDTTZ7+NZvPL9cnYeE2etZfriLfh7u7Fm1iiahwZiZ2dHZrYsEBXC6glar9ezYXM4W//cjc7DjSHPPyv3Pz/EPJ0f3P/vc3IL7llf+qIiCq+6v/heiUlIYcg733Lg31g+e70X/bo2MatcOGuKL76/XvEHAJ1aBvPFW30I8L9yT3vJ3HOVCqZPjxPiYWLVBF1S1t65Zz+eOg9eHNgXH29Pa4YkrCA7L4ezFxNRKVWl3r71oChJQKnp2eQXFJqNog0GA8eizwNXRpll5enujK+XGxmZOWRm597WSu0B3ZvddJRcmhMxSQx77zsijsUz/e0+PP9Us1IXofl5uVG1ojfxiamMGfA4bw7rjJP6yq10+QWF/H0kBqWDguqVfM3aC/GwsNocdH5BAUt/WsuO3fvw8fYkbMhzkpwfUlEJJ/j79CEqe1Ww6GM878V90Lejgp8HNav4sXVPFKdik832R59N4fddUQRW8jG7Xep2uTqrCa5enuPR59m4I/Kuv/fIkwn0GjuHyJMJzP6vDH69FeJ+3q4EVy+PSqWkTZNaJskZIOp0Ir/vjqJujfJUC7j+vfW3S6/XM2/+Aho2ac7UL2aQnZ1jsXMLcTdYJUHn5OTy3bKf2X/oCBXK+TFi8HNS1n5IJKQmcikrHYBCfSE7ju0lbOHbpGdfZmDr3vi4Wa6kmXg+iVU/ryYx8TzfLl5CwrlEi527LCr66ejQvA5xiamMmLiEvw9Ho9cXUVRk4J9j8YyavJSo0+fo0+URk3JvWTgqHXiqXQOUDgre+fIXPp7/G4kX0jEYDBQVGTgdf4FPvvmN1PSsO35fuw6eoteYOaRcymTuhOfNHut5LWeNmhe6NyMvr4DXP13Jtr3HjJ/DviMxjPlwGYnJaQx9piV+XndWSbhabGwcq9eu5+LFVL6aNYc/d+y02LmFuBusUuLe+dd+IqOOA3D23HkmfDy91ONC6tVhYL+e9zI0cZfN3LSImZsWmW1/oVUvBrR8xgoR3TsKhT1jX3icqNPn2LrnKG1e+MzsmBe6N2N0/7YWWXXdtkktJozqxoSZa/lgzno+mLPeZH/julUY0vPOHgyTmp7F+zNWGx+EMvCthQx8a6HZcQH+OlbPGmWsDLRvFsRrQzry0bwNPDl8htnxYX3b0LNjQ4uuvHdzdyOgYgWOHj0GwImTJ+nUsb3Fzi+EpVklQeuLiqzRrbABKqXK+MtUTo5qmgaGMrrTYFrVboq9nWULOiX3QZ9LTLSJ+6CheP512dT/sXDVTpas+4vIEwkoHRQ8GlKN0c+15fFmQaWu8C4LhcKeMQMep3WTWsxb8QebdkSSdDEDd1cNbZvU4tXBHU0eFFIWRUUG9GV4XKhCYc/b/3uCR+tX4/NFm9hz6DQAoUEBvDywAx1b1LHY51DCU6fjheef49ChCJIvWO52PiHuFpt71Kd4MJU86vOjvm/zYrv+1g5HPKQSz5/npbGvsW//AebPm0X7dm2tHZIQ12X126yEEOJuKyoqIikpmYXfLWbf/gN07PA4oSENrB2WEDckCVoI8UA7cyaakWNeMc49N2oYyrjXXsFTZxu/JS7E9UiCFkI88BQKBY+1akmP7t1o/3g7NJqb/1ypENYmCVoI8UCrWrUK61f/ZO0whLhtskhMCCGEsEE282tWQgghhLhCErQQQghhgyRBCyGEEDZIErQQQghhgyRBCyGEEDZIErQQQghhgyRBCyGEEDZIErQQQghhgyRBCyGEEDZIErQQQghhgyRBCyGEEDZIErQQQghhgyRBCyGEEDZIErQQQghhgyRBCyGEEDZIErQQQghhgyRBCyGEEDZIErQok1eXTEQ3NIi6b7TldFIs2Xk59J4+HN3QILp+OoCMnEyL9pedl8NL372H3/D6vPTde2Tn5Vj0/PO2LkE3NIh5W5fcVkwl7/nxD3tzKSud5IwUmrzbFd3QIEYseAt9kd6icd6O49Hnqd3lXbQhYXy2YCMAOw+cRBsShjYkjI07Iq0W270kn4O4X0mCFmXiqnYBQOOowcVJa7JPq9LgYK8otV1EbBT9Z43m7eUf3VZ/Z5Lj2HBoK/mFBWw4tJUzyXFlC9yCFPYKtCoNAJ7OHqgcHE32a1RqFNf5HO4FlaMDTurimHw9Xc32O2tU9zokq5DPQdyvHKzVccrFVH4P30XUsZNkXM7Ezs4OD3dXmjYKoVXzJjip5Y/Glvl5+Ji81qicqODpf9N2f506yIZDWxnUuvdt9VfVJ4AuIe34cc9auoS0o6pPwG21vxtUSkc8nN1MtjmrtFT2rsDJ82esFNVVsWjUuDo7mWzz1rkQ4K8jLjHVSlHde/I5iPuVVRJ0bl4eP/y4hjOx8cZtBoOB1EvpbPg9nIOH/2X4oH54uLvd4CzCFni76lAr1Sbb/D18cXJUX6dF2WhUTsx4YTIzXphs0fNais7ZA5XSkbyCfOO2ar6VrRiRKZ9rRo4V/DzQuWuvc/SDSz4HcT+x2ghap3OnUWg9QuvVwclJjV6v59iJ0/y4egPnky5w+N/jPNb8EWuFJ27Cz80bMC1nl5S9Ffb22NnZWS22e8nf3Re4Us6+uuxtzfI2gFrlYCzplpRxS8q9Obn5KOwfjhku+RzE/coqCVqtUvF876dNtikUCurUrkGTs+fYtPVPcnJzrRGauEXOavNRx7VlbyheSDVo7sv8fuRPk+2LwlewKHyFybb2dVuxaPgXaFRON2x77XHXk5yRwjfblrLyr3XEpiSgVDjwaI1GjO08lFa1m2Jvd/Mv5ss5mby5bArLdq+mbsVafD/qKwI8yxv3uzg5mxxfWtn7euLi4pkweQpOajUTxr+Dt5fXLbW7VQp7BVqN6bx4Sbk3Jzf/Oq0gv6CQ1VsPMXdZOAejiuf6Q4MCGNSzBc90aGiczy2x88BJOg79gjnj+/P8U49yMCqWibPW8ee+E+jctIzq35YRfVqbtQMoKjKw55/TzF0ezra9x0jLyCawkg+Dnm5B/25N8fJwNutn5nv96NPlEZb9+jfzfvyDyBMJVPDz4LXBHXmhezMclaZfa2X9HISwNquNoEtjMEBubh4ATmrLlkiFZbULbkHqN1Em215s158X2/W3UkSmwqN2M/Tr10jNTDNuK9AX8ufRv0i8lMy6N77Fx/XGCTEnP5f3V37Gst2raVilHt+O+JLyOj+TY0p7z1P7j2dq//E3jfH3rdvYtj0cgNDQBgwZ9MKtvr1b4qRWsvDDQSz8cJBxm5eHM+GLX79um+TUy4yevJT14REm2/cejmbv4WjWbz/MV+/1w0fnYtb2dPwFFq/ezZgpyykoLF69nnQxg/emryYvv5A3hnRCobhyUZSZncvEmeuYvWy7yXlOxSbzzpc/o3PTMKB7M7N+DkbFsfvQaZau32vcdvb8JcZOWU7KpUyzfsryOQhhC2wmQefk5PLX/kPs+fsg1apU4pHQetYOSViARuXEijFzja/nbV3CW8umMKh175smsWvbbo3cSa8v/3fTPk+ej+alb98jNTON7o068c7TL1HVpxL6Ij2nk2NZuvOXm46eC/WFTP75C777cyXNajRiwYtT8f2vrP+g0uuLmPXDNtaHR9CpZTAfvdKTwAAfDAYDB/6N5fXPVrI+PIJH6lXhlYHtzaYxZi/dTkGhnk4tg/lg7NNUreDNtr3HeOHNBazcuJ++TzxC5fLFF0UGg4F5K/5k9rLtBPjr+OjVnnRsXgcntSNpl7P5c98JiooMpca5cNVOlA4K3h3RlZH92uCsUbM+PIIRE5ewYNVOnmxTn+Dq5UttK8T9xKoJOiLyKAuXrDS+tre3p9kjoXTr/DgqlXk5TIibMRgMLNmxirOpiQxp05eP+ryFg6L4P3MHhQM1/asxsddrNzxHob6Q91d+xtwt39/V5Ny+XVt27f4LJ7Wabk8+YfHz366jZxL5Yf1e6teqyIx3+lLe1+O/PXY8Uq8K09/pyzNj5rB6y0H6dW2Cv7dpKT87N58Xujfj09efwVlTXAFrHhJIxxZ1+HnzQc4lpxsTdEzCRRav2U2Av45VM8IICixnPI+7i4ZubRtcN06lg4Kv3u1H/25NjRcJT7apz9EziUyatY6D/8ZKghYPBJsZQQMUFRWxa+8Bki6k8Hzvp3FzNS+jCXEjadkZ7DqxDzeNC88172FMzreqUF/Ip+tmM3/bUtoFt2DOkI/xctHdlVgDAiqycP6cu3Lusjh8/CyJyWkM69WScj7uZvurV/KleUggG3dGcvb8JbME3bllMFNe6WFMzlBcXq7g60FBoZ6ioiLj9n+OxXEqNpnR/dtRs4rptMHN9OgQyjMdG5mM4O3s7KhfsyIAp+KSb+t8Qtgqqybo+sG1mf7x+wAUFBQSHRfPL+s2cfJ0DIuX/8KwF3qjVsn90OLWJaVd4OzFRHxcvSmn873t9iv/Ws/RhBME+lbmi+cn3LXkbIsSki4B4O/lVuoqfK2TI5XK6cjMyiUvv8Bsv6uLEyql0mz7pJe6M+ml7ibbjpxIACComr/JfPGdKFmhnZqeTX5BodliMSHuNzZzf4FS6UCNalUYMaQ/Pl6eRMfGcSYm/uYNhbhKYZGewqLCMrfv1bQrQ9r05XjiaV5f+gGXLfzIUluWk2eedO+WwsK79whUV2c1Sgfr3uImhCXYTIIu4azV4ufrjV5fREHBvfvCEA8GHzdPPJ11ZOdnczkn67bbOygceOup0XSs35pNEeF8+Mt0k4ePPMgql/MEildelyYrJ5/Yc6l461xw0d7ZXRaBAT437KsszsRfAMDDVfPQ3IcvHmw2l6Azs7I4n3QBZ60Gby9Pa4cjLEz535xwdl7uXfkhCTcnV+pUqEFC6nnWHNiEwVD6SuAbcXFy5vPn3qduxVp8ve0HJq6aSqG+7KPy64mLi2fwsBGMHP0yF1JSLH7+21W7WjmctWo27ogk8UK62f6oU+fYsieKoGrlqOh/Z6X/kr5+2XLIWFq/ExmZOWz48whKBwWPNqh2x+e72t/79tOuQxcGDxtBdEyMRc8txI3YTILOzcvjxOlo5n27jOSUi9SpXQNfb8s+uEFYX61ygaiUKtYe2MSPf62z+OhUpXSkZ5MuKOwVfLJmJu+t/IyE1PMYDAaKDEWcSDzD+JWfk3L5xs9gLq/zY+agD/Fz92H+tqUsDF9RpmR/IyX3Qf/620bWrvvVoucui9rV/GjbpBZ/RZxh1OQfOBGTRFGRAb2+iG17jxE2cQlZ2Xn079YUndudPR6zpK+IY/EMensR4X8fJ7+g+CIoMzuXtdv+YfWWQ6W2TbmUSeKFNIqKDBgMBhKSLvHejNWs2x5Bjw6hNKxjuUes5ubmsmbtek6fiWbb9nC++/4H8kuZfxfibrDKKorY+ARmL1hifCjJ1ezs7KhXpxZPP9HBYotHhO1oUKkO7eo0Z8M/2xi58G1GLnzbuO/aJ4RFxh+n+9RBJg8bAfj9yJ9UGNnQ+Hrl2K9pF9zC+Lpjvda83GUYX2yYz+zN3zJ787cm7av7VWVkx4E3jbVuQG2+GDCBwXNf4Z0VHwMwrG2/B7Z86qxRM35kN07FJrNxR6TZzzAqHRSMG9aZ3p0bW6SviaOf4lxyGrsOnuKJF6ebHTNnfOkPvdm65yh1u5nfQ9+0flXeD3sSJ7X5QrWyUiqVBARUNL6Ojo4hKzsLR0fzVe5CWJrNZECtVkO9OrV4afhABvd/FicneZLYg0ijcmLu0E8Y120klbzuzr2qJfPIG8Z9z5Oh7XH973GcTo5q2gQ1Y+agD/B2ubXpk471WrNw+DQcHZRMXDWVzUf+sFic7du1pW2b1jzRuZNN3AcNUKuqH7/OG8Obwzob71lWq5R0fzyEX+eNYdzQzha7cK5R2ZcNX49h2pu9aVKvinFhV3CN8nz8ak96dmxYajuN2tF4rNJBQZN6VZg74XnWzhltjNlSFAoFPbo/RdvWj1n0vELcCjuDpet2QghxF5Q8i7t3l8bMeq+/RUfKN6LX6/l06hfM+3oBQwa9wLg3XsWxlNvJhLA0uVFQCCGu4/Lly2zZup3163+jfLlydO7UQZKzuGckQQshxDVyc3OZ/OHH/LCs+BfX3N3dmDzhfRqGhlg5MvEwkQQthBDXUSeoNp06tqdnj+6U8/e3djjiISMJWgghrqFWq/lw8gRrhyEecrJITAghhLBBNnOblRBCCCGukAQthBBC2CBJ0EIIIYQNkgQthBBC2CBJ0EIIIYQNkgQthBBC2CBJ0EIIIYQNkgQthBBC2CBJ0EIIIYQNkgQthBBC2CBJ0EIIIYQNkgQthBBC2CBJ0EIIIYQNkgQthBBC2CBJ0EIIIYQNkgQthBBC2CBJ0EIIIYQNkgQtyuTVJRPRDQ2i7httOZ0US3ZeDr2nD0c3NIiunw4gIyfzum1PJJ6hxYTuVB79CMt2ry5T/8kZKTR5tyuBY5sRGX/cZF9k/HECxzZDNzSIiT9NA2Br5E50Q4PQDQ1izf5NZerTUt6fsRptSBihPSYRk5BCTm4Bg99ZhDYkjN4vzyMzO9ci/RyPPk/tLu+iDQnjswUbAdh54CTakDC0IWFs3BFpkX6EEHeHJGhRJq5qFwA0jhpcnLQm+7QqDQ72iuu23R61m6izJ8jIyWT1vo1k5+VYNDYnRzVOjmoA/Dx8zPY7q7Vm2+4lF21xbK7OTjhr1Cb7tBpHFDf47G6HytEBJ7UjAL6ermb7nTUqi/QjhLg7HKwdQInft+/k183bMRgMVK1UkRcH90Otki8QW3Vt4tOonKjg6X9LbdsENSOoQg3OXjxH98ad0Pn8g1cAACAASURBVKicLBqbi5MWjaPGZJuvmzc6Z3dSM9Ms2ldZXJssndRKKvh63LSdwWDg6OlEZv6wjRW/7cNH58LqWaOoWcWv1OOdNWpcnU0/W2+dCwH+OuISU8v+BoQQ94RNJOiExCTCd+3FYDBYOxRxm7xddaiVpqNAfw9f4wi2NDX8q7JzQtlK27fLz83b5LWH1h0fN6970vfN+Hq6olaZ/gn6ebmZbcvJzWfrX0eZ8f1Wdh08Vaa+fK65KKjg54HO3bqVBCHEjVm9xJ1fUMDa37aQk5NDcO0a1g5H3KKSxHd1Obuk7K2wt8fOzs5qsamVarxddcCVcnZJ2dvODuywXmxwJVleXc4uKXs7KMw/u407I+n98jz+PhzN0F4tWTUjjAB/3U37UascjKP1knJ2Sdnb3s4Ohb3V//yFEDdg9RH0nr8PcvzkGULr1aFOUA0ij56wdkjiFpQ2j1vafG+JyPjjdJ86yKzE/FHft3mxXf8b9pWZm8Wszd+yfPdqYlMSUNgr8HHzIiXjIi5OzmbHO9gr0KpMS9wlZe+c/JsvwDp8JJL3xk+iYWgIr70yFo3GsiX40uZ+S5sjLtG0fjWG92nNkJ4tqF3NnxMxSbfUj8JegVbjeE3fxWXvnNz82wtaCHHP2RmsWFdOvnCRmfMX4+CgIGzI8yQknmfhkpUyB/0AKmuCjow/Rr+vRnI2NbHU/Tpnd1a/uojgijUtEmd+QQGffDqVBYu+A2D+vFm0b9fWIue2lOPR5+k+cibADeeghRD3N6vVuPR6PWt/20JmVhadH2+Nl+fNF8mI+1dwxZqc+nI3qd9EkfpNFINa975pm4uZl3h58QQS05IZ0OoZjny6jYvz/yV53mF+f2c5fu7XH7ELIcT9zmol7n0HDxN59ASh9eoQWr+OtcIQNmzz4T84EH2Ypxt35pO+76JSFpdrHRQOVPQsh4vamYuZll2N7KhU8lS3ruw/cJCGoSE0f/RRi55fCCFulVUSdMrFS2zevgOdhxtdOrRBobDMfZ/iwWEwGNh76hAA3Rp2MCbne6Fe3WDW/PzjPetPCCFKc89L3Hq9ng2bt5OWniGlbXFdOfm5JF5KwkPrTlXfStYORwgh7rl7nqD/iTxKxL9HaRAcJKVtcVO2cFuUEEJYwz0vcR/59ziFhXoORERyIKL0ZwGfiY1n3PhPABjcvxf1g2vfyxCFjbC3tyc9+zIXMy+Z7cvJyyW3wDLPrBZCCFskTyoQNkmjcqKWfyD6Ij37Tv9jsu9yTiZvLp9C/MVzd6Xvw0ciearHs0z64COysy37nPD7yd/79tOuQxcGDxtBdEyMtcMR4qFzz0fQA/v1ZGC/nqXui4g8KvdBC6N2dVswd+v3LAxfTuNqDWhRszEnz0fz2pJJ7D11CEcHpcX7zC8oYM3a9UQcPkLE4SM8+mgTm7sP+l7Izc1lzdr1nD4Tzekz0QQEVODtcW/g6Gj5z1wIUTqrP0lMPBzmbV3CW8ummG1/a9kU4/bqflVZ98a3+LgWPyu7cdUGdGnQll/2/cbTUwcb2ygVDnzc922izp5gzQHr/nTkvVDyYJLSfuAitMck47/PGd+fAd2bWaRPpVJJQEBF4+vo6BiysrNwdHS3yPmFEDcnJW5hs1RKR2YO+pBXnngRVydnFPYKGlapx5rXFjG4dR/uxtqxkvug69ery+CBAx7a+6AVCgU9uj9F29aPWTsUIR5aVn3UpxDCdun1ej6d+gXzvl7AkEEvMO6NV3FUSolbiHtFStxCCDOXL19my9btrF//G+XLlaNzpw6SnIW4xyRBCyGMcnNzmfzhx/ywbAUA7u5uTJ7wPg1DQ6wcmRAPH0nQQggzdYJq06lje3r26E45f39rhyPEQ0nmoIUQQggbJKu4hRBCCBskCVoIIYSwQZKghRBCCBskCVoIIYSwQZKghRBCCBskCVoIIYSwQZKghRBCCBskCVoIIYSwQZKghRBCCBskCVoIIYSwQZKghRBCCBskCVoIIYSwQZKghRBCCBskCVoIIYSwQZKghRBCCBskCVoIIYSwQZKghRBCCBskCVoIIYSwQZKgRZm8umQiuqFB1H2jLaeTYsnOy6H39OHohgbR9dMBZORkWjvEu+7q9/z4h725lJVOckYKTd7tim5oECMWvIW+SG+1+I5Hn6d2l3fRhoTx2YKNAOw8cBJtSBjakDA27oi0WmziwXX1f2NX/7PzwMkbtnt/xmq0IWGE9phETEIKObkFDH5nEdqQMHq/PI/M7Nx79A5shyRoUSauahcANI4aXJy0Jvu0Kg0O9gprhHVPKewVaFUaADydPVA5OJrs16jUKKz4OagcHXBSF8fk6+lqtt9Zo7rXIYnriDp1juHjv+eDueutHYrVuGjVALg6O+GsUZvs02ocrfq3ZC0O1ug0Ny+PeQuXciY2/rrHhNSrw8B+Pe9hVOJ2+Hn4mLzWqJyo4OlvpWisQ6V0xMPZzWSbs0pLZe8KnDx/xkpRXRWLRo2rs5PJNm+dCwH+OuISU6/bLr+gkC27o5i74g92HTxFbl4BwTXK0//Jpgzu2QKtk2lif3/GaqYu2myyzd1VQ6M6lXnp+Xa0aVILe3u7G/Y1b8Wf7P83hrSMbHw9XenYMpihz7QgpHal67a9Fcejz9N95Eyz9+vr6UrLRjX437OteLRBtTvqwxL2R8bw/do9vDqog1XjsIQWDauTdWg2ADm5BYycvIQVG/bdtN21F5FOaiUVfD3uSoz3CxlBizvi7apDrTS92vX38MXJUX2dFg8mnbMHKqXpCLqab2UrRWPO55ovvwp+HujctWbHZWTm8NIHy+g1di5b9xwlN68AgMgTCbw5dRV9X/2a8ynpN+0vLSObLXui6Bb2FVO+/hW9vsjsmISkSzwzZg69xs5ly54o0jKyAUi6mMHi1bvp//o3nIxNKsvbvamkixn8tGk/HYZMY9znPz2U5VNb5evpilplOnb083Iz2/YwsOo7VqtVhA3pT6WK5a0ZhigDPzdvwLScXVL2VtjbY2dn3RHJveLv7gtcKWdfXfa2dklOrXIwjkpKytklZe+c3HwU9qbX53p9EVMXbeb7tXtoHhrIh2N70LBOJQAO/BvLO1/+zNY9R5ky91c+H/csjkrTr49N37xMi4bVgeJEv+jnXYz/ag1fLdnG448G0bR+VeOxyamXGfbeYv7Yd5xqFb359PVePNa4Jk5qJfkFhZyISWLlxv1mMZZV47pV+Gn6CLw8nDEYDFxMy2LRzzv5eP5vzF62nbo1yjOgezOL9CXKpuQi8upydknZ20Hx8HynXO3huyQRFuGsNh99XVv2vtqrSyayZv8mVr+6CGe1hkmrvmDT4XDyCwtoUKkOk599nSaBoWZ/hDn5uWw6HM634T/yT2wkGTmZODmqaRoYyptPjaJR1frGNskZKTz56UAqe1fgoz5vMW7Zh+w4tpcuDdox/YVJHIyJZPg3b5CRk8kHz45j4GPPmvRXZChiU0Q40379msNxURQZDAT6Vub1J0fQrWEHHBTmfy4uTs4mr0sre19PXFw8EyZPwUmtZsL4d/D28rqldrdKYa9AqzEd1ZeUvXNy882OP3omkR/W76V+rYosmjKI8leVFxvXrcyiKYPoNXYuKzbup9+TTU0S7rVcnZ0Y0bc1x6LPs3j1bo6ePmdy/Joth/hj33Ga1q/Kd58MMSllOiodCK5enuDqd+fC3c7ODi8PZ14b3BEXrZpXP/mRX/84Qo8Ooca5z50HTtJx6BfMGd+f5596lINRsUyctY4/951A56ZlVP+2jOjT2jjHXyK/oJDVWw8xd1k4B6PiAAgNCmBQzxY806Gh8fjrlX6nLtpsNl3Qu0tjZr3XHye10mR7dEIK0xZt5tfwwyRdzMDX05UnWtdjZL+21Krqd933n3IpkyVr/2LZhr1EnkhArVLSqWUwYX3blFruT754mXkrwlm+YR8xCSm4u2po26QWYf3a0LR+VYslztLWRJS2duJhIglalEm74BakfhNlsu3Fdv15sV3/67ZJz77Mkh0/8dPfv5KamWbcfiD6MH2/CmPl2K9pVLW+SZt3f/yEReErTLbl5OeyPWo3O4//zYyBH9D70W4m+/MK8nn/p8/ZGrkTgHUHf+eRwBBmb/6WpPQUAKZtmEer2k2p5ls8QizUFzJh1TTmbfneZOX18cTTDP36NYY//jyTer1ulqRLe89T+49nav/x1/0cSvy+dRvbtocDEBragCGDXrhpm9vhpFay8MNBLPxwkHGbl4cz4YtfL/X43/48QmJyGuOGdDJJziXK+3rQ/8mmvP7ZSnbsP3HDBA3Fidbbo/gCJuXSlVX9qelZ/LLlEADD+7S22jyjnZ2d8SIg6WIGuXmFOGtMjzkdf4HFq3czZspyCgr1xmPfm76avPxC3hjSCYWieJSfnHqZ0ZOXsj48wuQcew9Hs/dwNOu3H+ar9/rho3O5o7gNBgM/bTrA2I+WG6cFSuJauGonP/9+kC/f6sMzHRuaJc9dB08x9N1vTebkc/MKWL3lEAlJacYqw42OT8vI5uffD7JuewQTRnVjdP92xs/gTlw9d11iQPdmD3VlQ+agxT2jL9Lz9bYfAFgxZi4p8yOJ+jycdsEtSM++zE9/ma9gdde48c7TYzj00WaS5x0m9ZsoTnyxkwGtelGgL2T+th+4lGU6J/rXqQPsOXGADeO+Z8bAyeiL9ExcNY0a/lX59/Nw2tdtRULqeWIuXFmkuP7QFuZt+Z4qPgGsf2MxKfMjSZ53mDWvLSLQrwrzty1l/aEtd/cDsqLc/AJOxCThrFXToHbAdY+rV7MCALHnUskvKLzhOTMyczgRUzyHHFjpSnUlPjGVqNPnqFezAs1DAy0Q/Z1T2NuVulBs9tLtjJmynE4tg4lYM4HLB2axZvZo3F01rNy4n/jzxYlLry9i1g/bWB8eQaeWwRz6ZTyXD8wiY/9Mtn/3Oo2CK7M+PILv1+zBYDAYL56yDs0m69Bs5owvvsh7dVAH47aSfxZ+OMhk9Hz0dCLvz1hdHN/7z5G0axpZh2YTH/4Z747oSlZ2Hp9+s5Hosykm7+VM/AXGTllOXGIqg3q0IHL9JDIPFscYsWYCnVsFm3wGiRfSeX/GahIvpPPuiK7Eh39G1qHZJO2axuz3n0OrUfHZwk3GSoGwPKuOoHNz85g2awEA9vZ2uLm6UqNaZdq2aoafr7c1QxN3iZ+7DytemkPdgNrG1y8+/jzhUXuIvhBPdl4OGtWVlcfv9Rhrdg4vFx1vPTWK3Sf2cfZiIklpF/DQXikr5xcWMLDVEzSu1oCsvBzj9rFdhuHv7mO22vxyTibfhv+Is1rD7MFTjKN4e4U9LWs14auBH9Dry/+xdv9mOtdva7YYrKzat2vLrt1/4aRW0+3JJyxyzrLKzsnnTPwFfHQueLhqrntcySrw7Nw89HoDKM2PMRgMnEtO49MFG1m3PYLHGtekeWh14/7LWblcSL3MY41r4uZy/b7uNoPBwK5Dp4DiOWq3a1a8A2Tn5vNC92Z8+vozxvJ385BAOraow8+bD3IuOZ3K5b1MpgdmvNP3qgqEHY/Uq8L0d/ryzJg5rN5ykH5dm+DvfWvTINfS64tYvGYPcYmpTB33LAO6NzOOknVuWt4Y0olL6VnMWrqdrXuOUrWit/G9rty0n6jT53htcEfeD3vSOOpVKOwIDPBh3NDOJn2t3x7BXxFnGNmvjUmlwFmjZkD3ZuTkFfDqJz+yavMBQoMCLDKKFqZspsRdVGTgUlo6ew9EcCAikmee6sKjjUOsHZawsFEdBxmTcwk/Nx/cNLdX9rOzs8MOewqLCim85mEgzmotzzR90mSRVoe6rWhctUGp50pIPc+xc6doWKUetctVN9tfxaci/u6+/Hv2BOk5GfgoLTNXHBBQkYXz51jkXHeqqMiAvsiAp7sz7jdI0DfScegXZtuahwby5dt9TMq6Z+IvAMWJwd4KC38MBgPnUzJYsGoHny/YhL+PO32eeKTUBNO5ZTBTXulhcl9uye0/BYV6ioqKV6cfPn6WxOQ0hvVqSTkfd7PzVK/kS/OQQDbujOTs+UtlTtDpmTnsOxJNYCUfOrYINithKxT2dHmsHrOWbifi+FnyCwpxVDqQnpnDrgOn8Pdxp1enRjdNprn5Bfx9JBpnrZoeHRqaHW9nZ0erxjWo4OdB1KlzXM7Oxd2KF1sPKqskaLVKxZgRg0y2FRQUEh0Xz5oNWzibkMj6TdsIqFCO8v6+1ghR3CW3u7I5ryCfDf9sZfbv3xF19gQ5+aa3w+iczb8MHR2UqJWmC068XHXXHfkmZaRwMfMS2/7dRcVRja4bS3W/G8+5PgiSUtK5mJZpMg9ZVoN6NOeDsU+bfXGXrNbV6w0UGQx33M+t2Hckmkpt3zDb7uvpytcTn6f+f6X7a7m6OKFSmpcJJr3UnUkvdTe+Tki6BIC/l1upi6a0To5UKqcjMyuXvPyCsr4NMjJzuJSRjYer1rjC+Vr+3m5mVY6U1EyiE1Ko4OuBn9fNLw5y8wpISslA56q5bkXFR+eKv7c7GVm5FBaa30Yn7pzNjKCVSgdqVKvCoH49+errxaSlZ5ByMVUS9EPsck4m//vmDTZFhN/Vfgr1hVZ9JKct0DqpqFrRi5iEFOO9z6VJvJBOXGIqXR6rh6PS9GKr5DarxAvpvDV1FYt+3kVefiFfvNXbZATq6uyE0kHBmfhksnLy0DpZZsrgdgTXKE/fLk3o362pRS5Gcm7wmVlSYWGRcbHa7dAXFVF4G+2Kigxk5eTddj/CsmwmQZfQarW4u7mSlp5h7VCElf157C+2HNmBztmdz557jy4N2hlHwSW3VF3MvP4TsW6Vr5s3Omd3Glapx6LhX5jMgT8s1CoHKvrpuJB6mYhj8dSvVdHsGIPBwN7DxU9Iq1+zwnXLpP7ebnz0ak/iz6eydP1eHqlbhWHPtjLuL+fjRtWK3hw5kUDEsXjaNwu6O2/qKlffB303VC7nCRSvpC5NVk4+sedS8da5XHfkeyvcXTV4ujuTkZlDZnZuqe+ntIsoT3dnfL3cbtjuak4qRyqV9yTy1DkyMkt/iEtyagaJF9JoUCvgoXyIyL1gc7P6iUnJnE++gKOjEmet+b224uGx4+he9EV6uoa2p3ujTiYlan1RkcVGveV1flT2rsiR+GMkXEq0yDlvRVxcPIOHjWDk6Je5kJJy8wZ3kZ2dHS0aVkfpoOC71btJvGD+tLCjZxJZun4vgZV8aNmoxg3P5+/txvA+rQFYvMb0fOV83GkRGkhBoZ6pCzfd0pPJbF3tauVw1qrZuCOy1M8u6tQ5tuyJIqhaOSr668z2OzgUJ9KsnPxSn7pWwtVZTXD18hyPPs8ffx/HcM0UQX5BIT9vPgBA0/pVjRdRV7fbuCPSrN21nNRKalf1JzMrl/XhEWYxGQwGfvuzeD49tE6A2eNf77Xs7BwmffARDRo1ZckPy9HrH4yKmM0k6MysbHbu2c/875aTm5tH/eDaVA6QJ4w9zAK8i+cF95/+h+OJp4HisvfKv9bTdvIznEmOtUg/7hpXuoS043xaMs/NHM3mw3+Q/d/q70J9ISfPRzP55y9ZuusXi/RXouQ+6F9/28jadb9a9Nxl0aReFTq1DOaviDOMmvwDJ2KSiheP6Yv4+3A0IyYs4VRsMgOeakbl8p43PV+7R2vT7tHaHIyKY/32K/cGOyodGN6nNQH+OnYcOMmAcQsI//u48bat/IJC/jkWz7ipP3EqNvmuvV9Lql3Nj7ZNapX62W3be4ywiUvIys6jf7em6NzMBx7VK/nirFWzfMPfrN3+z3VvYXNUOvBUuwYoHRS8/eUvLF692/iY0vMp6Yz/ai2L1+zhscY1eeyRmqW2e+fLX/h4/m8kXkjHYDBQVGTgdPwFPvnmN1LTs4xtOreqi7+PO9MXb+HTBRuN+zIyc5i1dDtT5v1KYCUfurcLsfpTvqKOHmXht4tJS0tnxszZREb+a9V4LMUqdYn0jMt8MXshl9LMrzTt7OxoWD+YXk91QaF4+H69RFzROqgZfu4+RCWcpNn7pg8j8XXzopJXBS7n3vnPWtrZ2TGsTT/2nf6HTRHh9JkxotTjPur79h33ZctcnZ2YMOopTsddYOOOyFJ/jjKsbxte7N3qlr6QdW5awvq24c99J1i8Zjdd29Q3rl4OCizHnAnPM/jtRew6eIonXpxu1j7AX8fgHi3u/I3dA84aNeNHduNUbHKpn53SQcG4YZ3p3blxqe2Dq5ene7sQlqzdQ//XvzHZd+2TxNo2qcW4YZ35ZP5vhE36gbBJP5gcH1StHNPe7G32QJS2TWoxYVQ3Jsxcywdz1vPBHNPnDjSuW4UhPVsaX9cJLMek0U8x+oOlpR7v6+nK9Lf7UrOK6VPLSvvxFDBd5X+9p6OVlZeXJyEN6nPonwiSL1wgOiaW+vXrWeTc1mQzI2itVkPD+sG88dL/eL5PD1Sqe79wRNiWoPLV+enl+bSq3RTlf0/wquRVnnHdRrJn0jraBje3WF8uTs58O/xLFrw4lYZV6hn7c3VyplWtpiwcPo0BLZ+xWH9QfB902zateaJzJ6vfB12iVlU/fps/lg/H9iC4RnEFS61S0rV1fdbPfYlPXnvG7KcAb+SxxjXp0SHUbBQN0PqRmvy98l0+HNuDkNoBKP8r81Yu78Xgni1Y8cVwqle6fxaJ1qrqx6/zxvDmsM5ULl98K55apaT74yH8Om8M44Z2vu68vZNaybQ3n+XjV3saP/frUSjsGTe0M6tmhNHu0dqoVcVJLrCSDx+O7cFv88eW+qhPhcKeMQMeJ/z7NxjQvZnxMZrurhp6tA/ly7f74HnVD6jY2dnR94lH2Prta/RoH2q8/c7X05XXBndk++LXaX3VKN2aKgUEMKB/P2uHYXF2hptNRgghhBA2LuroMYaPfIncnFwWzp9DcHAda4d0x2xmBC2EEELcLr1ez5noGOZ+/Q1xcfF07tSBwMBq1g7LImRtvBBCiPvS/gMHeab3c8bXT3TuxKiRw1GrH4zfo5cELYQQ4r7l7u5G80cf5dlePXi0aVMcHS2z8MwWyBy0EEIIYYNkDloIIYSwQZKghRBCCBskCVoIIYSwQZKghRBCCBskCVoIIYSwQZKghRBCCBskCVoIIYSwQZKghRBCCBskCVoIIYSwQZKghRBCCBskCVoIIYSwQZKghRBCCBskCVoIIYSwQZKghRBCCBskCVoIIYSwQZKghRBCCBskCVoIIYSwQZKghRBCCBskCVqUyatLJqIbGkTdN9pyOimW7Lwcek8fjm5oEF0/HUBGTqbVYouMP07g2GbohgYx8adpAGyN3IluaBC6oUGs2b/JarEBvD9jNdqQMEJ7TCImIYWc3AIGv7MIbUgYvV+eR2Z27i2fK+VSJq0HfEbtLu9yPPr8XYz6+nYeOIk2JMzsn50HTlolnmsdjz5P7S7vog0J47MFGwHTmDfuiLRyhEKUThK0KBNXtQsAGkcNLk5ak31alQYHe4U1wgLAyVGNk6MaAD8PH7P9zmqt2bZ7yUVbHJursxPOGrXJPq3GEYUVP7sHkcrRASe1IwC+nq5m+501qnsdkhC3xMHaAeQXFHAo4l92/rWfCxdTyckpHj2E1KvDwH49rRyduJ5rE59G5UQFT38rRWPKxUmLxlFjss3XzRudszupmWlWiuqqWK5JEk5qJRV8PawUzZ1r0bA6WYdmA5CTW8DIyUtYsWGflaO6wlmjxtXZyWSbt86FAH8dcYmpVopKiJuzaoKOiTvL4uW/cDH1kjXDEHfA21WHWmk6CvT38DWOYK3Nz83b5LWH1h0fNy8rRWPK19MVtcr0T9DPy81sm7Acn2sujir4eaBzt25FRYjrsdo3QdzZc3z97TKyc3IJrFqZju1aElChHGqVlJvuByWJ7+pydknZW2Fvj52dndViUyvVeLvqOHn+jLGcXVL2zsnPxQ7rxQZXksTV5eySsreDwrqf3YNIrXIwVi1KytklZe+c3HwU9jLTJ2yTVRK0Xq9n87YdZOfk0vnxx+jQthXynXR/KW0et7T53qsVGYrYFBHOtF+/5nBcFAX6Qip5ladX0ycZ0f4FPLRuJsdvjdxJry//xwe9xzHosd4sDF/ON9t+IDYlAQ+tO2M6D+HFds+jUjqatHOwV6BVmZa4S8reOfk3X4B1+Egk742fRMPQEF57ZSwajdNN29yO0uY8S5sbvVZWTh4LV+1kybq/iDyRgNJBQZUKXsQlpuKjc7mlNu6uGto3C+LNYV2oVdXP5NiS8vTJmCRWfTWS1LQsPp6/gd93R5GVnUenlsFMHP0UNav4ldrX7SoqMrB97zGmf7+FXQdPkZtXQHCN8vTt0oSBPZrh7nLl/8PIkwl0HzULV62an78Ko3J58ypIxLF4nho5k6Bq5Vjy2VB0bsX/jSrsFWg1pv+NlJS9c3LzLfJehLgb7AwGg+Fedxobn8DsBUuoWL4c/xvYB0el8l6HIO6xyzmZvLlsCst2ry51f6BfFb4b8SW1y1c3bitJ0N0bdSKnIJdNEeFm7cI6DGTiM69abGFVfkEBn3w6lQWLvgNg/rxZtG/X1iLnvhPHzpzn+Te+Ier0uVL3B/jrWD1rlEnyPJ+Szv/eX8zWPUfNjnd31bDk06G0aVLLuK0kQe85dJrhfVrz6YKNpGVkm7QLrOTDj18Mv26SvnoOetM3L9OiYfVSj8vMzmXizHXMXra91P2Ngiszf/IL1KjsC0B+QSFjpixn8erdfPvRYHp1amTWZvbS7bz+2Uq+fKsPw55tVep5hbifWKW2ExOXQG5uHjUDq0hyfggYDAZ+2PULy3avJtCvCmteW0TyvMOkzI9k18Q1NAkM5dT5aD5fP5e8AvMRzer9G9lyZAejOg7izPQ9pMyPZN7QT3FyVPPDzlUciTtmhXd176SmZ/HG5ys5GZvES88/zqnNbehiJgAAIABJREFUH5F5cBYZ+2eyZ/nbBFYyr1zo9UVMW7SZrXuOMrRXS05t/oisQ7NJ2jWN2e8/B8A7X/5CQpL5+o+4xFTe/uJnAgN8CF/8BpcPzCJ6yyf06tiIU7HJLPp5F3p9UZnfj8FgYNWmA8xetp1GwZXZ/t3rZOyfyeUDszj0y3g6tQxmf2QMM5dsJb+gEABHpQNPtW0AwLa9x4zbS6RdzmbjjkgC/HW0alyjzLEJYUusUuKOO5sAgKOjktW//k5EZBSX0jIwGAy4ujjTtHEIjz/WHJXK8SZnEveDhNREFoYvw03jwuzBU2hUtb5xX+3y1Zk37BOenjqEbf/u5GjCSRpUrmPSXmGv4MPebzKsbT/j/OwzTZ4gMv4YX21ayN7Th8zalJWjUslT3bqy/8BBGoaG0PzRRy1y3jvxx77jbN1zlCE9WzBxdDcclcV/tgqFHeV83PFw1ZKUkm7S5uiZRH7ecogn29Rn8kvdjauYnTVqBnRvRkZWLm9OXcXfR6J5upQV5C0bVufbjwfj51U87eDj6cL4Ud04dCyOvw+f4VJGNl4ezmV6P+dTMvjmpx34+7gz/Z2+NKhV0bivRmVfZrzTl15j57JhRyT/6/0YwdXLA1C/VkVCgwII33uM6LMpJqP4Y2fOs/dIND3ah1Klgm0sAhTiTlllBF1y9f3zuk1s37GH1EvplFTaMy5nsnnbDuZ9u8x4y5W4v51OjiM6OZ5WtZpSt2Jts/0VdeVoWasJ6dmXOXrO/OEWbes0p3+LHiaLp+zs7AitUheAE4mnLRpvvbrBrPn5R95/9y2Lzz/fLoPBwL4jMQB0eayeMTnfzOHjZ0lMTqNjizpmtxjZ2dkRUjsAgENRcaW2f3dEV2NyLuGtc6ZWFX8SL6RzMa3sD6KJPpvCkRMJtG8WRFA181vzyvm40/qRmiQmp3EyNsm43c/Lla5t6hOXmMreiDPG7QaDgf+3d+dhUdXfA8ffwzDMMMO+CAgigivigruoqbnvZJqm/qzMFm2xsr1MU6tvi5VmZmVZZpaZ5pZp5r4v4Ea4gQgqCrKvA8Mwvz+I0RFMRXRGO6/n8Xnk3jn3Hj7KHO65n/uZLfuOU1RkYHCPFtc9RkLYOqv+T3Z3c6VH1440C2uEk06L0WjkwOFYlq1aS3xCInujD9O5QxtrpiiqQXLmBYylRrxcPCpM6IKyglF+7/lGViArn6iWmZdNkaG40mPf6fRFJVxIyybA153Amh7XHReXlArA09MW8fS0RdWSS/lkq4ycAnLyqv7Lc0p6NoYSI97uTpUWU4VCQcN/ro5zLzuPQqGgd8cwvvhpM39si2FwzxY4aTVk5hSwZe8JIsLr0rJx7SrnJYStserzBff170mHti1x0pXN1lQqlbQKb0KPrh0BSEg8Y830RDW5npnTN8NF64yD/d09l8FOobihx4FKSoy3LBc3Z8cKs6JvRKHeUOXYkEBv2jcPYV/MaU6fSwcgNi6ZnQfiuK97uHnmthB3A6tcQbu5lj0SkpWdW+l+D3c3AAoKCzEYSlBJy+qOVtsrALj6la7JZOLoubLW9pULi/ybuJSy1q+71vWufXZYYVf2XHlZWzm/wn59saHSR4XqBpZNHPti8ihGR0ZUSy75hUWcPpuGzlGNVlP1Ah3oV9YJyMguoNhQUuEq2mQyceyfdcWvXFjESathcI8WrNx4kK37TtAo2I/Vmw9T29+T7hGhVc5JCFtklSvooMAAFAoFx07EYzRa/qZvMpWtMAbg6e4mxfkuEORdC38PX7Ye282x5LgK++NSTrMxZju+bjUIDaj8sZwrZeVnsyrqT5R2Sjo0bF2t+R4+EsOgwQ8wdfp7FBQUVuuxb5TGQUX9IB8MJUYOHrW8X1z2qNJKYk6eqxDXKKQmTjoNuw6dqjDjuar2x5wmOjaJ5o1q4ePpeu2AqwjwdadBHV827IolLjG1wv6Es2ms3xFL3do1Kn2cq0OLujRtEMDqzYc5euo8O6JP0qllffx93Kqc07/Zu28/3Xr2Zcxj40g4ffqWnEOIylilQAcHBeLt6cHRE3Es/309+fllz1oWFRWzcdtOtu7ci0ajpl3rcGukJ6pZkHcAXRt3ICMvi8e+foltx/ZQYiyh1FTK/lOHeOyrlzibcZ7BbfoSXKPiPcSMvCzOZV6g1FSKyWQiKf0cL/44jZ0n9nNv4w5E1Kv4TGxVFRsMrFi5mkOHj/DtdwvYsWtXtR27qjq1qo+TTsOXv2xh54F4jMZS4pJSGfvm9yxZu7/Sq9kGdXzo2qYBC5bv5IX//UJcUqp5cmah3sDuQ6d4ZcavlRZIgNPJ6eZWdLGhhDVbDvP8ez+jVqsYPSgCR03VbynU8vWgZ4fGJJ3PYNzbC9l7OAGjsZTSUhMHj53h6WmLiI1PZnjfNuar7cv5eLrQuXUDdh6I45Pv1nPkxDkGdWt+SyaH6fV6VqxcTfypBDZu2sz3P/xIcXHVW/RC3AirXJ66ODvRu0dnFi1Zwdade9m6c69lUvZKene7h8AAf2ukJ6qZ0k7JKwOe4ujZk0QlHGbQR49UeM2Alj15ZcD4ShcciUo4TNs3+1XYHupfj3eHv4ZWbd2Z1rdai9BAhvVuxTdLt9NjzAzzdo1axZzJo4iNT2bpuiiLGBcnR956agBHT51n/rLtzF+2vcJxA/08GDO4Y6XnfOKtBTzx1gKLbSp7JR++NJROVyw+8tas5cyY/2eFY/Qa+4n578P6tubzSaNw1KhQKu147qHuxMYns2HXUbo+9GGF2IciI3hm1L0olRWvIZRKOyK7hzP/tx38vGYvnVs3uGWTw1QqFYGBlx4DS0g4TX5BPg4Ot+ZqXYjLWa1/3LJZGH41vFm+Zj3xCYmUlBhxUKkIDgpkUN/u1PTzsVZq4hbw9/Dlt4nf8Pmf3/HzzuUkpp1DaaekcUB9JvQZS9/m3a46C9vBXoWxtBRjqRGlnZK6PkE80mU4IzpEVvtHR9ric9AOKnvef3EIQQFezF64kYzsfO5pXZ/JTw2gRWhtJn+2otK40JCabJj/IgtX7uanNXuIOVHWCq8f5EPPjo0Z2b8d9WpX/nPmpNOQl182uc/H04V+XZoybngXGoX4Vcv9fl8vV36a8XiFpUvbh4fwzMh76R4R+q9XxGH1atKldQNWbz5E5zb1cXfRXvW1N0OpVDI4chB79uxj4+Ytt+QcQlyNVZb6FOJ6lC/12aPJPcx/8pO7/krZ2q53mU5bkJGdz6iX5nEiMYXls58yL2ZyKxiNRj6Y8QlffvUNjz7yEK+8PFFWQBS3hXyMixDijmIymfjlj31s2XecIT1b0ij41n0OeW5uLitX/c7q1X/gX7MmfXr3lOIsbhuZIi2EuGPk5BUyf9kOJn+2gtCQmjz+wD2V3qe+WXq9nmnv/I8ff1oMgJubK9OmvEXLFjJxVdw+UqCFEDZvwfKdjHt7oflrH08XPnx5KMG1rv+5+apoHNqI3r16cP/gSGr63bordSEqIwVaCHHHKJ+w9sIjPalTyWdCVxeNRsM706bcsuMLcT1kkpgQQghhg2SSmBBCCGGDpEALIYQQNkgKtBBCCGGDpEALIYQQNkgKtBBCCGGDpEALIYQQNkgKtBBCCGGDpEALIYQQNkgKtBBCCGGDpEALIYQQNkgKtBBCCGGDpEALIYQQNkgKtBBCCGGDpEALIYQQNkgKtBBCCGGDpEALIYQQNkgKtBBCCGGDpECLKpm48G08xobS5OV7iU9JpKCokGEzn8RjbCj9PxhNTmGetVO8IZfn3/2dYWTmZ5Oak0bbN/vjMTaUcd+8hrHUaLX8tkedRBc+Hl34eH77KxqABct3ogsfT1C3Vzh07IzVchPicoV6A2PemI8ufDwDx31GVm4BaZl5dBn9Ibrw8Ux8/xeMxlJrp3lHkAItqsRF4wyA1kGLs6POYp9OrcXeTmmNtKpMaadEp9YC4OnkjtrewWK/Vq1BacXvSe2gwkmnAcDb3dlin6NahUatskZaQlSgVCrQatQAeHk4oVZZ/t/UOTqgVErpuR72t/uE+qIivvx2EacSr/0bf3jTxjw84v7bkJW4Ub7uNSy+1qodCfD0s1I2N0+tcsDdydVim5NaR5B3ACcvnLJSVpe4OGnwcNGSl683bwuu5X1dsYnJ6Xzz6za+WbqdrJwC1s17no4t61319aWlJjbtOcZH89ex60A8AC1CA3nywS5EdgvHQVXxbaMqMSaTiUPHz/LhN2tZuy0GfZGBsPr+jBrQjjH3d0TnqK40v9T0XL5cvJn5y3aQkp6Dj6cL/bo05YVHelLH36vSmPzCIr5dup15v24jLjEVNxct97ZtyMQxvWjWIACFQiHjcJVxuNEYB5U9Hq5ai206RzXBtbzYdySh0rxE5W57gRZ3F28XDzQqjcU2P3cfHB00V4mwfR5O7qhVDhQZis3bQnyCrJjRJd4ezjjrLMfWy90Jd1fLLobRWMqug/HM/nEja7fFYCi5vva80VjKe1+v4b0v11hs33M4gT2HE9j34GkmPz0AJ63mpmJMJhMLV+7mmemLLHKLOXGOV2csZXtUHJ9NGkEND8tuQWx8Mg9O/Iq4xFTztpT0HL5dup2/dsYyb/rDdGhR1yLmQlo2D7/6LduiTpq3ZeUUsGx9NBv3HOPT14YzpFdLi0Ij41D1mMu5u+hwUCkpNlz63uoEVP7Lg6jothdojVrNhHGPXHV/scHANz/8wsn4BJo2bngbMxM3wte17Ort8nZ2edtbaWd31R9YW+bn5gNcamdf3va2ZnsbwFmnwc1FCzkF5nZ2edtbqVRid8V4R8cmcf+EL8jL1zOgazOeHN6FSTN/Izo26V/Ps2LjQT76Zh2Bfh588tpwekSEAmVFZsI7P/H1kq2EhwYyon/bm4rZH5PIqx8vRadV8+5z9/FAn9aoHVScOJ3CC/9bzOrNh2jeqBYvP9rb3A7NyM7n1RlLiUtMZezQTrz6WF/8vF3JyM7n0+/XM+uHDbwz93e++98Yc0ErNpTw7tzf2RZ1kt6dwnj/xSGE1PImv7CIn37fy6szljJ97mqaNgigQR1fGYfLxqGqYwfg61XWjSpvZytLS81tb6WdtLevl82NVNyp08SdOk3tAH9CG9a9doCwCieNrsK2K9ve5b7csBCPsaH8FbONRTt+I2RCBCETIvgrZhu5hXk8+92beD/ehL7vj+JcxgWL2MJiPcv3ryXyozEEPdMGj7Gh+I9vwf0fj2Vf/EFMJpP5tSaTiY/XfIXH2FA6vz24wrFMJhNz//oBj7GhdJk6hJTsixb7nR2dLL6urO19NUlnzjLmsXGMf+Y50tLTryvmRjio7FE7WN7LK297V6ZRiC+P3t+RtV8/z6KPHiesnj9K5b//kpGRnc+8JdtQq1V8NmkkvTuFlb25Ku2ICA9hzuRR6LRqfv59L1m5BVWOKTaU8O2ysnb7u8/dx+jICBw1DtjZKWgY7MvsSSMIDanJkrX7OXMhw5zfhl1H2bDrKEN7teKd5+7Dz7vs38bDVceb4/ozelB7tuw7zo7oS1d70bFJLF67n3bNgpk9aSR1A2ugUChw0moYO6QTrz/Rj7jEVFZuPCjjcMU4VCWmnJPWsi1fWdtbXJtNtbiLDQY2bt2NyWSiU0QbNOrK770I6+sW1pGMebEW257oNoonuo26asyuE1F8u/knsgtyAZi3cRF/Hd7Kwu3LANh9Mpp5GxcxecgL5pg3f3mf+ZsXWxynsFjPptidbD++l1kPT2dY+4EAKBQKHus6gn3xB1l3aDOf/zmfqUNfwl5Z9t88KuEw76+cja9bDT57eBo+rpb3cCvLf8aoycwYNfma47H+rw1s3LQZgBbhzRk75uFrxtwIL3cnNi94yWJbgzq+HF0zvdLXO2k1vPv84Bs6R3zSRaJiE7m3bUPaNatjsa9QX8zG3UfJLyji8ImzJJ5Lx62htkoxyalZ7Dl0ihahgfTsGFahtbwjOo7ki1lk5RRw7NQFgvy9KDaUsGXfCVT2SkYObGfRJgb4Oy6ZQ8fPArA9Ko6BXZujVNqxbf8J8vL1DO/bxlzIyp25kMnOA3FA2ZVsXoEeJ61GxuGfcahKTLnRkRGMjoywiJn6bCRTn41EXD+bKtAn4hI4dToRfz9fGtUPsXY6oprNWf89ka168+Z9Exg5+2k2x+5EaadkwfiZaBw0PDhrPLHnTlBQVIhW7QiAm9aVN+6bwJA2/fD38MVeaU9abgbTf5vJgq1L+Hrjj/Rs2hl3XdkbiLOjE68PeoZDibF8v3UJnUPb06tpF7Lys5ny6wzy9AW8NuhZwmrJ7ZMrnUxMIS9fT4vQQIs32/MXs3nu3Z9ZvfkQABczcsnMKahyTHJqNqfOXGTUwPZ4ul3qxOTkFfL27JXMXbzlsuNkAZBXUMTR+GSCa3lTr/alTk1pqYkla/fzwvuLyfrn+GmZeeiLS1AqFZw4nYKTTkPzRoHmGJPJxI7oOB6b9D1J5zP+ySmTAr0BJ61GxkFvwN5eWaWxE9XLZlrc+qIiNmzeQWmpiU7tW+PoKP/Ydxud2pGnej6Mu84VH1cviksMdA/rRI8mnfF1rYGr1rlCzKTBzzGx3xPU9g4wXwl7OXvw2qCnqesbxNn086RkWbaqmwQ24t3hr1JcYmDa0k84k57MZ+vms/PEfh7u/ABjugyr9nvkPbp3496uXejbpxeRgwZU67Fvl6JiAwA+ni7ApTfjXo9+zLrtMbw4phcvjukFQFJyepVjig0lGEqMeLhqzbOaY+OTGTLhC+Yu3sKI/m35+NVhACScTQOgxFhKsaEEFydHcyHIySvk1Rm/8sTkBdT0duPbdx6hQR1fEpPTKdQXYzSaKDYY8XDR4uKkMZ971g8bGPTUbIqKS5g75f/o3LoBaZl5ZGbnyzj8Mw5VHTtRvWzmCjr2WByJZ89Ry9+PJqENrJ2OuAV6NOlMI/+65tnRapWax7qNRK1yuEZkRQqFAgV2lJSWUFLJAiL9w7vz2L0jmPvXDwz55HHOZiTTpFZDnuvzmLnQV6fAWgF8+/UX1X7c26m8CEDZm/H3v+3k1Y+X4urkyJdTRzO0VysWrtx10zHlBQrKrvx+33KYCe/8RHZeIe8+P5hxD3Zh72HLx3Eys/NJy8zD55/JR3FJqTw7/Se27DvO4B4t+OCloajslXzx82ZzTKG+mMTLzpWanssbny5j0eo9dGhRl09fH04df2827T1GwtlLv+TJOFR97ET1sokCrS8qYtvOvXL1fJe7crEPndoRN+2/T8IqMhSz5uAG5qz/ntizJygs1lvs93ByqzTOXmnPhD5j2XkiisNJsbhqnZnxf5Px9/Ct9PXi0szblPQcnpr6I4tW76FVWBBfTBlFaEhNoKzFerMxNf65yswtKOLtz1cyc8Ff+Hm7suLzp+nQoi4KhaJCTPksdqPRyKpNB5k2ZzUZ2flMmxDJ0yPvxUFlT3JqFkXFBvNkOo3aHh9PF1LSstl9MJ7ZP24iNj6ZJ4d1ZvLTA3FxciSvQE9+QbHFuWQcqj52onrZRIE+HHOMhKSzcvUsLOQW5vH4vJdZd2jztV9ciRKjkRJjWesxT1/AifOnaBXcrDpTvKuUz7ydMnslAGOHdmLyUwPx+OcZa5PJxNmUTAACa3redMxX/9xj7d0pjE9eG06gn4c5l/J7ruXPzJbPYt93JIHo2EUE+nnw68xxdGvfyHy7Iiu3gIzsfNo1CymbDa1QoNM6kHQ+g/FTf8TNRcvcKf/HiP5tzY8sFegNJKdmWjxLLuOgK3vEsApjJ6qX1Qt0YaGebbv2AcjVs7Cw9dhu/jqyDQ8nNz4cOYm+zbuZ2+GpOWkM+OBh0vMyKo3NLczjxR+ncvz8KcZ0Gc6agxuZ/ttMmtRqSJPARrfz27hj1K3tg8peiVJpx4cvDeWhyAiLJRkzcwo4ePQMgX4e5lm9VYnx9XIluJY3Z85nMGF0d159rA+Omku3OYoNJew9chqVvZJ6tcueTXfSqalXuwb7jiTQuXUD5kweSdAVq2X9fTKZsxcyCerriVajQqFQmF8TGlKTuW+PomVjywVnTp25yInEVPp1boLzP/d0ZRw0OGpUVRo7Ub2sPknsUMxRzpw7L1fPooJtR/dgLDXSv0UPIlv1trhXbSwtveqHV5hMJn7c8RvrDm1mYMueTB36Es/2fpQLWalMXfYJubfggzxu9XPQt0OdAC+a1PenhoczHVrUrbBe8t7DCew8EEfzRoH4+7hVOcbX24Wwev6o1Sq6tm1oUZQAYuPPs35nLE3q+xMSWDZTWeOgok2TsseX2jUPppavh0VMTl4hS/+MQmWvpGPLeuaryfbNQ1DZK2nSwJ/QEH+LGKOxlGV/RpGXr6d9sxAcNSoZh8vGoSox1eHUqQSGDBvJoMEPcODgoWo77p3IqgU6P7+Abbv3A3L1LCoK9A4AYH/8QY6fL1vXOLcwjyW7V3PvtCGcSk2sNO7PI1uYtuwTAjz8eHXQ02jVjgxvP5CI+q3YELOd91fNqfZPpip/DnrNH+tYvmJVtR77dvH1cmHkgHYknc/g+fcWc/DYGUpLTRiNpazdFsPz7/2MWq3i0SGdzDOIqxLjpNXwUGQERUUGXvpgCRv3HMNoLKW01MS+I6eZ8M5PnE/NYuyQTvh6uZjz69u5Cc0a1mLmgr/44ufN5OQVAmWPMk2atZxVmw4R2S2c9s2DzTFtm9ahd6cwlv0ZzdQ5q7iQlg2UFbIPvlnLV79spV2zYPp3vXTrQ8ah6jHVYfWaP9gfFc2hw0eY+9U8srNzqvX4dxKrtriPxB7nXPIF/Gv60rjh1RfvF/9NXUIj8HWrQey5k0S8NdBin4+rF7W9AsjVW14Nn8u4wLSln1BcYuDVQU9Tz7fsasNN58qUIRMZ+unjzN/8M50atqFX0y637Xu53dIy8xgy4YtKP5yg19hPzH+f+EhP8+IRCoWCUQPbEfV3Ytls3Qffs4hT2SuZ8vRAura51OmqSgxAj4hQXny0F+99uYYBT86qkOP4B7ty/xVrPPv7uPPOc/cx6uV5vPLRr7zy0a8WMa3Cgnj9yX4Wz+O6ODny1lMDOHrqPLN++ItZP/xlERPo58HUZyMtFuKQcah6THWoExSETqcjPz+fpDNnSU9Px9XV5dqBdyHllClTpljjxDm5eSz+7XfyCwrp16MLwUGB1w4Sd6SohMNsiNlGeFAYvZp2wWAsYcX+dZzPSmF4RCQ1XL1IzUnn510rqOnuQ2Sr3qjsVXi7eNK1cQfiUk6TnHmBUlMptb38ebL7aL549H+cyUjmeHK8+Ri5hXk88/2b7D4ZTWSr3rzUfxz2ly1v6efmQ64+n23H9hCdcIQ+zbviqq2eH3wvLy8Sk87QqFEDxj35GFqtdZc1LNAX88va/SSnZv3r6yLCQ+ja9tKiLQ4qe3p3CqNhsC9JyRlcSMtGo1bRPSKUWW+MYGjvVhXat1WJsbNT0LFFPdo3D+FcahbJqVko7exoHRbEjFeG8fiweyq0fKGslTy4ZwsK9QZOn0tDX2QgyN+LZ0d3438Th1DLz6NCjLeHM/f3aImjWsXJxFTyC4vw8XThocgIZr05gib1AyrEyDhUPeZm1QoI4EJKCjF/x+Lt7UW/Pr1wd3ev9vPcCRSmyxczFkIIIaxswcJFvDVlGn379OL9d6fh7FxxEaP/AqvP4hZCCCEA9Ho9e/bu46fFS9DpdPTp1fM/W5xBCrQQQggbMGv2HD7+9DMAdDodzz49jr59elk5K+uSAi2EEMImhATXoWvXzgx/YCghwXXuyM+Vr05yD1oIIYSwQVZfqEQIIYQQFUmBFkIIIWyQFGghhBDCBkmBFkIIIWyQFGghhBDCBkmBFkIIIWyQFGghhBDCBkmBFkIIIWyQFGghhBDCBkmBFkIIIWyQFGghhBDCBkmBFkIIIWyQFGghhBDCBkmBFkIIIWyQFGghhBDCBkmBFkIIIWyQFGghhBDCBkmBFkIIIWyQFGhRJRMXvo3H2FCavHwv8SmJFBQVMmzmk3iMDaX/B6PJKcyzeH3MmePUfS4Cj7GhFn++3LDwus5XUFTIs99PwvfJZjz7/SQKigqr9fu5PP/u7wwjMz+b1Jw02r7ZH4+xoYz75jWMpcZqPeeN2B51El34eHTh4/ntr2gAFizfiS58PEHdXuHQsTNWy02IyxXqDYx5Yz668PEMHPcZWbkFpGXm0WX0h+jCxzPx/V8wGkutneYdQQq0qBIXjTMAWgctzo46i306tRZ7O2W1nu9UahJrDmyguMTAmgMbOJWaVK3HV9op0am1AHg6uaO2d7DYr1VrUFbz93Qj1A4qnHQaALzdnS32OapVaNQqa6QlRAVKpQKtRg2Al4cTapXl/02dowNKpZSe62FvrROXlpqIOXqcvzbv4Nz5C5SUGLGzU+Dt5UnXju1oGd4EB5W86dgqX/caFl9r1Y4EePpd9fVhtRoQ9+lO89cTF77N/M2Lr/t8wTUC6RvejV92raRveDeCawTeeNL/Qq1ywN3J1WKbk1pHkHcAJy+cqtZzVYWLkwYPFy15+XrztuBa3tcVm5iczje/buObpdvJyilg3bzn6diy3lVfX1pqYtOeY3w0fx27DsQD0CI0kCcf7EJkt3AcVBXfNqoSYzKZOHT8LB9+s5a122LQFxkIq+/PqAHtGHN/R3SO6krzS03P5cvFm5m/bAcp6Tn4eLrQr0tTXnikJ3X8vSqNyS8s4tul25n36zbiElNxc9Fyb9uGTBzTi2YNAlAoFDIOVxmHG41xUNnj4aq12KZzVBNcy4t9RxIqzUtUzioF2mg08tPSVeyLPmyxvbTUREpqGj8vW83xuFOMGDpIirSN83bxQKPSWGzzc/fB0UFzlYiq0aodmfXQNGY9NK1aj1sZDyd31CoHigzF5m0hPkG3/LzXw9vDGWed5dh6uTvh7mrZxTAaS9l1MJ7ZP25k7bYYDCWcLlWRAAAgAElEQVTX1543Gkt57+s1vPflGovtew4nsOdwAvsePM3kpwfgpNXcVIzJZGLhyt08M32RRW4xJ87x6oylbI+K47NJI6jhYdktiI1P5sGJXxGXmGrelpKew7dLt/PXzljmTX+YDi3qWsRcSMvm4Ve/ZVvUSfO2rJwClq2PZuOeY3z62nCG9GppUWhkHKoeczl3Fx0OKiXFhkvfW52Ayn95EBVZpc9wPC6B6EMx6LSOPPp/D/DxO28w839v8dG01xk2uD8ODipijp4gMemcNdIT18HXtezq7fJ2dnnbW2lnd9UfWFvm5+YDXGpnX972tmZ7G8BZp8HNRWvRzi5veyuVSuyuGO/o2CTun/AFqzYdonenMH7/cgItQq/ddVix8SAffbOOQD8Pls4aT87+2eTsn836bycSGlKTr5dsZeXGQzcdsz8mkVc/XopOq2bOWyNJ2/UpuVGfE7X0LTq3bsDqzYf45tdtFvcqM7LzeXXGUuISUxk7tBNxf75H/oE5nNn8IRMf6cn5i9m8M/d3UjNyzTHFhhLenfs726JO0rtTGIdWTCEv+nNSdnzMp68PR19kYPrc1Zw4nSLjcMU4VHXsAHy9yrpR5e3sy9veSjtpb18vq4xU0tlkjMZSWjZvQtPGDVEqy978VCp72rZsTv2QOhgMJRQUVu9EIFF9nDS6CtuubHvfrMsnbl3+Z9jMJyudJFY+qWvYzCc5lZLI0E8fx/fJZoyZ+wK5hXlsObqbRhPvwX98C+ZvXozJZLKId3Z0svi6srb31SSdOcuYx8Yx/pnnSEtPr/o3fRUOKnvUDpbdpPK2d2Uahfjy6P0dWfv18yz66HHC6vmbf86uJiM7n3lLtqFWq/hs0kh6dwr7583VjojwEOZMHoVOq+bn3/eSlVtQ5ZhiQwnfLitrt7/73H2MjozAUeOAnZ2ChsG+zJ40gtCQmixZu58zFzLM+W3YdZQNu44ytFcr3nnuPvy8y/5tPFx1vDmuP6MHtWfLvuPsiL50tRcdm8Titftp1yyY2ZNGUjewBgqFAiethrFDOvH6E/2IS0xl5caDMg5XjENVYso5aS3b8pW1vcW1WaXF7VvDC4VCQdLZZPILCtFpHc37MrOyOZ+SipNOi7eXpzXSE9ehW1hHMubFWmx7otsonug2ykoZXVJkKOatXz9iQ8x2AFZFr6dN3XDm/PkdKdlpAHy85kvuadSOEJ/a5rjK8p8xajIzRk2+5jnX/7WBjZs2A9AivDljxzxcXd8OUNbG3rzgJYttDer4cnTN9Epf76TV8O7zg2/oHPFJF4mKTeTetg1p16yOxb5CfTEbdx8lv6CIwyfOknguHbeG2irFJKdmsefQKVqEBtKzY1iF1vKO6DiSL2aRlVPAsVMXCPL3othQwpZ9J1DZKxk5sJ1Fmxjg77hkDh0/C8D2qDgGdm2OUmnHtv0nyMvXM7xvG3MhK3fmQiY7D8QBZVeyeQV6nLQaGYd/xqEqMeVGR0YwOjLCImbqs5FMfTYScf2sUqAb1g8hpE5t4k6dZvpHs+nXoystmjXmeNwpVq3dSEZmNn26d8bPp3qvyMSdRat2ZPGEueavN8RsZ+inj18zbndcFDq1jjWv/EBcymme/W4Sby/9mA71W7Hu9Z947vu3WH9kK6cvnrEo0P91JxNTyMvX0yI00OLN9vzFbJ5792dWby5rz17MyCUzp6DKMcmp2Zw6c5FRA9vj6XapE5OTV8jbs1cyd/GWy46TBUBeQRFH45MJruVNvdqX3hdKS00sWbufF95fTNY/x0/LzENfXIJSqeDE6RScdBqaN7rU3jeZTOyIjuOxSd+TdD7jn5wyKdAbcNJqZBz0BuztlVUaO1G9rNLi1qjVPP7QcCLatECv17NkxRpem/oh3y1aSmlpKY/+3wP0vPce7sDbmMIGFJcYGNq2H61DmpvvKwM81/cx/Nxq/Ots86rq0b0b93btQt8+vYgcNKDaj387FBUbAPDxdAEuvRn3evRj1m2P4cUxvXhxTC8AkpLTqxxTbCjBUGLEw1VrntUcG5/MkAlfMHfxFkb0b8vHrw4DIOFsWcejxFhKsaEEFydHcyHIySvk1Rm/8sTkBdT0duPbdx6hQR1fEpPTKdQXYzSaKDYY8XDR4uKkMZ971g8bGPTUbIqKS5g75f/o3LoBaZl5ZGbnyzj8Mw5VHTtRvax2t16lUhFUuxYajeVvXfn5BSRfSKXUiotCiDubk0bHkHYDLCZ29WxyD62Dm9+ycwbWCuDbr79gzmef4uV5Z96aKS8CUPZmPG/JNgaO/4y8giK+nDqayU8NJOSKR7uqElNeoKDsym/VpkP0f2IWUX8n8u7zg/n8rZE0rlvTIiYzO5+0zEuL38QlpTL8ha/4fNEmBnRtxsovnqFb+0a4OF26XVaoLybxsnOlpufy1NQfef2TZbRsXJvVXz7LkF6t8PV2kXG4YhyqOnaielntMavFv/3O3qhDqNUOjBgykLrBtVm6ci2xx+NY8+cmLqal8+D9A645sUWIKznYq9CoLCepeLl4oFY5XCVCwKWZtynpOTw19UcWrd5Dq7AgvpgyitCQskKRV1B00zE1/rnKzC0o4u3PVzJzwV/4ebuy4vOn6dCiLgqFokJM+Sx2o9HIqk0HmTZnNRnZ+UybEMnTI+/FQWVPcmoWRcUG82Q6jdoeH08XUtKy2X0wntk/biI2Ppknh3Vm8tMDcXFyJK9AT35BscW5ZByqPnaielmlQEcdjGFv1CG0jhoee2g4dWrXAuCxhx5k594olq1ay/4DR6gfUoc2LZtZI0Uh/nPKZ95Omb0SgLFDOzH5qYF4/POMtclk4mxKJgCBNT1vOuarf+6x9u4UxievDSfQz8OcS/k91/JnZstnse87kkB07CIC/Tz4deY4urVvZJ5clZVbQEZ2Pu2ahZTNhlYo0GkdSDqfwfipP+LmomXulP9jRP+25pWsCvQGklMzLZ4ll3HQlT1iWIWxE9Xrthdoo7GUQzFHMZlMNAtrZC7OAAoFtGvVnJjYE8QeP8nxuFNSoIW4TerW9kFlr0SptOPDl4byUGSExZKMmTkFHDx6hkA/D/Os3qrE+Hq5ElzLmzPnM5gwujuvPtYHR82l7kaxoYS9R06jsldSr3bZHAInnZp6tWuw70gCnVs3YM7kkQRdsVrW3yeTOXshk6C+nmg1KhQKhfk1oSE1mfv2KFo2tlxw5tSZi5xITKVf5yY4/3NPV8ZBg6NGVaWxE9Xrtt+DLjGWUKgva9s4OztV2K9UKlGrpRUp7iy3+jno26FOgBdN6vtTw8OZDi3qVlgvee/hBHYeiKN5o0D8fdyqHOPr7UJYPX/UahVd2za0KEoAsfHnWb8zlib1/QkJLJuprHFQ0aZJ2eNL7ZoHU8vXwyImJ6+QpX9GobJX0rFlPfPVZPvmIajslTRp4E9oiL9FjNFYyrI/o8jL19O+WQiOGpWMw2XjUJWY6nDqVAJDho1k0OAHOHDw0LUD7mK3vUCrHRyoExgAwI49Uew/cASDoQQAg6GEXXujOXoiDoVCQYO6wbc7PSGqpPw56DV/rGP5ilXWTqdKfL1cGDmgHUnnM3j+vcUcPHaG0lITRmMpa7fF8Px7P6NWq3h0SCfzDOKqxDhpNTwUGUFRkYGXPljCxj3HMBpLKS01se/IaSa88xPnU7MYO6QTvl6XJiH17dyEZg1rMXPBX3zx82Zy8soWqzl/MZtJs5azatMhIruF0775pfeNtk3r0LtTGMv+jGbqnFVcSMsGygrZB9+s5atfttKuWTD9u17q1Mk4VD2mOqxe8wf7o6I5dPgIc7+aR3Z2TrUe/06iMF25nNJtkJ6RyZff/URKalql+xUKBW1aNmPYff1kkthd4ssNC3ntp3f/9TX1fINZ9fJ31HApa63FnDlO5IxHyMjL+te4Jc99RbewjqTmpDHgg4dJz8tg+cT5hNVqYH52+pEuw8wLjpR/UEd5XHX4Zv73THvnfwC8+for1b5QyY1Ky8xjyIQvrvnhBBMf6WmxeERegZ7n31vMotV7KrxWZa9kytMDeWZUN4srxKrEXG3d6nLjH+xaYd1qgE17jjHq5XnmZ30v1yosiK+nPUT9IB+L7ZWtW10u0M+j0nWrZRyqHnOzVq1ew6tvvEV+fj6NGjXk85kfExxc59qBdyHllClTptzuk2odHWkV3hQHlYqMrGyKioowmcBBpSK4Tm0i+/Xg3nsiKrSJxJ0rKuEwG2K2/etrPJ3cGdEh0rz+dWpOOj/vWkFhsf5f4x5oN4DgGoHkFxXw047lFBYXMjwikhquXiSkJrFk9yrCg8Lo1bQLAH8e3sLB03+b46qDl5cXiUlnaNSoAeOefAyt1rrLGhboi/ll7X6SU//9l5uI8BC6tm1o/tpBZU/vTmE0DPYlKTmDC2nZaNQqukeEMuuNEQzt3arCz2VVYuzsFHRsUY/2zUM4l5pFcmoWSjs7WocFMeOVYTw+7J4KLV8oayUP7tmCQr2B0+fS0BcZCPL34tnR3fjfxCHU8vOoEOPt4cz9PVriqFZxMjGV/MIifDxdeCgygllvjqBJ/YAKMTIOVY+5WbUCAriQkkLM37F4e3vRr08v3N3dq/08dwKrXEELIYQQV7Ng4SLemjKNvn168f6703B2dr520F3Iap8HLYQQQlxOr9ezZ+8+flq8BJ1OR59ePf+zxRmkQAshhLABs2bP4eNPPwNAp9Px7NPj6Nunl5Wzsi4p0EIIIWxCSHAdunbtzPAHhhISXOeO/Fz56iT3oIUQQggbJNOkhRBCCBskBVoIIYSwQVKghRBCCBskBVoIIYSwQVKghRBCCBskBVoIIYSwQVKghRBCCBskBVoIIYSwQVKghRBCCBskBVoIIYSwQVKghRBCCBskBVoIIYSwQVKghRBCCBskBVoIIYSwQVKghRBCCBskBVoIIYSwQVKghRBCCBskBVoIIYSwQVKgRZVMXPg2HmNDafLyvcSnJFJQVMiwmU/iMTaU/h+MJqcwz2q5xZw5Tt3nIvAYG8rbv34MwIaY7XiMDcVjbCgr9q+zWm4Ab81aji58PC0GT+X0uTQK9QbGvDEfXfh4hj3/JXkF+n+NLy01sSM6jv97eR7+nV9EFz4eXfh4GvV9k+MJF24qt+1RJ83Hu/zP9qiTN3Xc6nJ5fr/9FQ3AguU70YWPJ6jbKxw6dsbKGQpRfeytnYC4M7lonAHQOmhxdtRZ7NOptdjbKa2RFgCODhocHTQA+LrXqLDfSaOrsO12ctaV5ebi5IiTVmOxT6d1QPkvY2cymfhx1W6emb4IQ4nxluZpi9QOKpx0GvLy9Xi7O1vsc1Sr0KhVVspMiOpntQJtMsHJ+ARWr9vIufMXKCkx4uLsRHjTxvTp0QVHjdpaqYnrcGXh06odCfD0s1I2lpwddWgdtBbbfFy98XByIyMvy0pZXZaLp4vF144aFQE+7tcVm5icziffr0enVfPuc/fxQJ/WOGocqi23ji3rkX9gDgCFegNPTVvI4jX7qu34N8vFSYOHi5a8/EtdhuBa3lbMSIhbxyoF2mg0svi339kbdQiTyWTenpObx5Yde/j72EnGPzoST4/re9MS1uPt4oFGZXkV6OfuY76CtTZfV8s3b3edGzVcvayUjSUfTxc0assfQV8v1wrbLnf2QibHEy7w5PAujBrYHqXyv3mXytvD2dyJKOfl7oS7q3W7I0JUJ6sU6H3Rh9kbdQhXF2ceiOxLw/oh2NkpuZiWzs/LVhOfkMia9ZsZMWTQf/YNyNaVF77L29nlbW+lnR0KhcJquWlUGrxdPDh54ZS5nV3e9i4s1qPAerkB1PjnCvrydnZ5sbFX/vvYXczMLYt1dPhP/mw46zS4uWghp8Dczi5veyuVSuys+P9OiOp22wt0UXExe6MPY2enYGhkXxo3qm/eV8Pbk1EPDOLzeT9wIi6BjMwsvL08bneK4jpUdh+3svu95SYufJv5mxfz3oOv80S3URb7Ys4cJ3LGI7Ss05T5T36CVu14xf5jfPz7V6w7vJnC4ooTqDyc3Fg+cT5htRoAYG+nRKe2bHGXt70ri7/S4SMxTJo8lZYtwnnxhefQah2vGXMjnLQVb99c2fa+mty8a+dfzmgsZdfBeH5cvYet+05w+lwaGrWKDi3qMuH/utO1bUPs7KqnoJWWmti05xgzf/iLHdFx6IsM1K1dg0fu68ioge3wcneqEGMymTh0/Cwzvl3Hxj3HyMopIKy+P0880JkH+7WptHXvoLJH7WB5n7m87S3E3ea2F2i9voiMzCycnZzw9/OpsN/dzY2Amr4cijnGhdSLUqBtVLewjmTMi7XY9kS3URWK781ad3gzY+a+cF2FtZxW7cjiCXMtttVw8WLP9NXXjC02GFixcjWHDh/h0OEjtG/flh7d7r3hvP/N5fd5y42OjGB0ZESF1x5PuEDkU7NJOp9hsX3G/D+ZMf9Pi20TH+nJ1GcjzV//uGo3495eaPEafZGBDbuOsnXfCaY8PYgJo7vddLfDaCzlva/X8N6Xayy2xyWm8sany8jIzrPIC8qK80+/7+WZ6YvQFxnM22NOnOOZ6YvYdTCeT14bVmESnZe7E5sXvGSxrUEdX46umX5T34MQtui2F2g7OzscVCoysrJIS8/E3c3VYr9CAX6+Phw8cpQLKRdpEtrgdqcobERabgbvLZ9NcYmBNwc/x2NdR+Ck0XEmI5mJP7zNhpjtPN/3cd68b4JVW+q2SqNR8doTfRnepw2BNT1wUNmTV6Bn4crdvDpjKQtW7CSye3OC/G/unvzRU+f57redtGsWzOdvjaJ+kA92dgqycgvYHnWSsxcyK8QcOn6Wtz5bQQ0PZz55bTg9IkJRKBTEJaXy2sdLWbR6Dy0b1+aJYZ3l31b8Z932Au2k0xFQ05eUi2ksW7WWB4cMJKCmHwqFgvSMTHbtjWb77v0AGEtLb3d6woacOH+K4+fj6dyoHU/cOwqdpqyNGejpz1v3v0B0Qgx74qLJ1efj4lixhVoVDioVgwb2Z39UNC1bhNOhfftqOW5VXXl1uGD5Tsa9vbDC1XJlHujdusI2J62G/xsUwa6Dp1ix4QDJqdk3XaCzcgo4n5rFgK7NqFe7hrlt7uaspX+XZhVebzSW8vPve0nLyOXnj5+gd6cw8776QT7MfONB7n9mDmu2HGF4vza4OUv7Wvw33fYCrVBAz26dSEg6S/KFVGbMnne7UxB3gSJDMQaj4dovrIKmTcJYseyXW3JsW2CnUKBUKjCUGCmthl+Ca9ZwIzSkJvOXbkfn6MC44V2oWcPtqle+2XmF7DuSQJP6/rRoXLvCfk9XJxrXq8muA/GkpOVIgRb/WVaZxe1bw5tnHn+INes3EXP0BIWFeuzsFHh7edK+dThnzp0n6mAMbq7XN3FG3J0CPWtSy9OPLUd38+XGheYW96nURN75bSZ5+nxa1mmKs5UXHrFVpaUmdh2M56tftrJt/wlS0nNuyXmCa3nz6evDGfvmd3zy3Xo++W494Y0CGTGgLYN7tMDXy/I2VkZWPqkZuZw6c5E63V656nED/WT+ifhvs9pCJR7urox6oGKLzmgs5duFv6BS2ePp7maFzIStCPCsyePdRvHyj9OZvuxTpi/71GJ/k1oNebzbKLlHWYmrTdy6VTq0qMv+pZNYseEgP6zcxa4D8bz0wRImzVzOhy8N5aHICPNjYcbSUkr+g6ugCXGjbG6pzwspqSQknsHd1RWfGraxoIS4tUyYuGy9GrOk9HN8sX4Bbeu2wNPZnU1/76CwWI+vWw0eumcoT/V82OrLdtqq8olbbi5a3n3uPu7v1dI8I/pWrRCmc1Qzon9bRvRvS05eIYv/2MeU2SuZNGs5zRvWMrezPd2c8PFyxcfLlV9njqv0ESwhhI0V6PyCQpauWkt+QSHtW7fAxVl+cO8W5YuY5F7xIRrnMi7wwoIpZOZXXILzj4ObSEhN4r3hr9Gzaefbkifc+uegb4fDx89yPjWLIb1aMaR3a3SOl54pNpYaMRhu7RWsi5MjY4d0IuFsGjMX/MWxhAvmAu3ipCGsnj9L1u0nLilVCrQQV2H1pYhKS01kZGazadtu3vt4DvEJSYTUqU33Lh2snZqoRvVrBgOwZPdqjp2Lw2QycfTcSUbOfpqohMOVxlzITAVgzcGNnMu4QGZ+tsXSsLfC5c9Bf/vdAnbs2nVLz3er1KxRdnvo4LEk/j55DpPJRLGhhM17jzP4mTksWx9dbeda+mcUM+b/ScLZNIoNJUDZz/XxhBT2HDqFk05DvdqX1jxwUNnTv0tTiooMPPLatyzfcICs3AJz3LmULL77bSczF/xVbTkKcSeyyhV0dk4un8z5lsys7Ar7GtWvy4NDBuDoaBtrOYvqcW/jDjQNDOVwUiwRkweat6uU9jzb+1FWR1d8M+7Xojs/bP+VBVuXsGDrEot9SjsldX2CGN/zIR5oNxC1qvo+MOJuEFq3Jp1bN2DLvuN0fehDi30+ni60bVqHPYcTKsS9NWt5hQVQAHqN/cT892F9W/P5pFE4aspW9MovKOKtWct5a9bySnN57Ym+tAgNtNjWIyKUFx/txXtfrmHki19XGjfxkZ7//k0KcZezeovbzk6Bq4sL9UOC6NCuFYEB/sicn7uPj6s33437hJd+nMbWo7spNZloWzecyfe/QG2vAP44uKlCTOOA+nQP68Qvu1fh5+6DTq0lNfsiOYV5GEuNHD8fz4Tv3+LouZNMHfoS9sqb/+9sa89BV1UND2e+eedh/vf1Gn5dF0VWTgFB/l4M79uasUPvYf2Ovyst0FVxf6+W2NsrWbxmH/v/Pk1WTgFuLlrubduQJ4d3oX3zkApLiiqVdrz+eD+6tmnI3J83m5f6dHPR0qpxEMP6tqZ/l6bVkp8QdyqF6Vb3DIWoAmOpkcm/zmDOn9/x+L0jeXvoSxZXySXGEn7ZvYqJC6fi5ezO8onzCfGp+EytEELcqax+D1qIyqTnZbL+8FZctc4Mj4is0MK2V9rTJLARWgdHDCUlGEpuzaIlQghhLVKghU2yU9ihUirJLshl9p/zOX3xDKWmslWvSowlRCUc5uUfp5OZn0Wz2qEEevlbOWMhhKhe0uIWNslkMvH1xkW8sfh/GEuv/khQXd86fD/uUxr517uN2QkhxK0nBVrYLJPJxOGko8z8Yx574g9wPjMFAEcHDaEB9RnefhDD2g+UxUqEEHclKdBCCCGEDZJ70EIIIYQNkgIthBBC2CAp0EIIIYQNkgIthBBC2CAp0EIIIYQNkgIthBBC2CAp0EIIIYQNkgIthBBC2CAp0EIIIYQNkgIthBBC2CAp0EIIIYQNkgIthBBC2CAp0EIIIYQNkgIthBBC2CAp0EIIIYQNkgIthBBC2CAp0EIIIYQNkgJ9F9kfFU1Q3UZ0uKcbr7w+iaNHj2EymaydlhBCiCqQAn0XOpeczOJffmXsE08RFX3A2ukIIYSoAvvqOlCxwUDUgSOs37yD9IxMgmvX4okxI9Co1VeNycjMZs36TRw6cpRigwEHlYrgoEAG9e1OTT+f6krtP6NVyxacjjtKdnYO879fwKezPuePtX/StGkTHFQqa6cnhBDiBtx0gc7IzGLj1l3siz6MvqjouuMSEs/w9fc/k19QaN5WbDBw7GQ8p788y8ihg2jauOHNpvef5OrqwoPDH2DP3n3ExceTn5+Pg5ubtdMSQghxA26qQBsMJfy8bDXHT57CQaWiR9eOGAwlbN6++1/jcnLz+GnpKvILCmlUvy5DBvXGy9ODnNw8lq1ax8Ejsaz6YwO1/P1wd3O9mRT/s1xdXAiuU4ez585ZOxUhhBBVcFMFWqWyp02LZri7udK3RxdcXZxZu2HrNeOiDh4hJTWNoMAAHnpwMI6OGgBcnJ0YMXQghXo9x07Ec/jv43Tu0OZmUhRCCCHuSDc9SaxVeBMevH8Ari7O1/V6g6GEoyfiUSgUdGjb0lycyyUknuFCykUATsSdwmgsvdkUhRBCiDtOtU0Su16Fej1p6RnotI4E+PuZt5eWmti0bRdr1m+ipMQIQF5+AcUGA47Kq080E/8uLy+f/PwC3OUetBBC3FFu+2NWRqMRo7EUlUqFTusIQH5BId8u/IVVazeg0WgY2Kc7Tjot2Tm5FBcX3+4U7woajYYG9esRFX2AX5cuIzs7x9opCSGEuAG3/Qo6JzcPfVERjpqy1vbZc+f5/qdlpKalU7uWP6OHD0alsmfbrn23O7W7zv2DI0lLT+e7BQv5dNbnAPy6+EdatWxh5cyEEEJcy20v0FpHRxxUKkwmEzv2RLFp6y4MJSV0bNeKQf164KBScTEtA6PRiFKpvN3p3VWUSiVubm7otDqysrKtnY4QQogbcNsLtIODCqVSSWZWNus2bEWjUTPyvkG0Cm+KQlH2mvyCAoqLDfj6uOHg4HC7U7xrbN6yjanT3+O5Z5/i0UcextnZydopCSGEuE63vUBrNGo83N3IzMqmhpcnj4waSk3fGhavSUg8g76oCE93t39diUxcXbHBwL79UbRv14YHhz8gxVkIIe4wt32SmNrBgTqBAQAE1qqJj7eXxf78/AL2H4xBoVDQsH6I+apa3JhSoxG9Xo+Dg4N0IYQQ4g5klQ/LaNuqOa4uzkQfimHlH+vJzy8AIC09gx8WL+fsufPUruVPk9AG1khPCCGEsLqbbnGv3bCVP9ZvrrD9VOIZXpn8PlDW1h7/6Chq1/IHoIa3J4P69WDRkhVs3r6Hzdv3WMS6ubpw/8DeFRYxEUIIIf4rbvs96HItm4XhV8Ob5WvWE5+QSEmJEUdHDc3DGtHnn2VDhRBCiP+qmy7QvbvdQ+9u91QptqafD+MfHXWzKQghhBB3Havcgxa3XmGhnrPnklHaKbFTyD+zEELcaeSd+y6UnZ3D9z8sZMvWbTRs2AAnJ521UxJCCHGDrHYPWlS//VHRDBk20hscWm0AAACtSURBVPy1f82a9O7VQ1ZkE0KIO5AU6LuQf82adOwYwZiHR9Ogfj1rpyOEEKIKFCaTyWTtJIQQQghhSe5BCyGEEDZICrQQQghhg6RACyGEEDZICrQQQghhg6RACyGEEDZICrQQQghhg6RACyGEEDZICrQQQghhg6RACyGEEDZICrQQQghhg6RACyGEEDZICrQQQghhg6RACyGEEDZICrQQQghhg6RACyGEEDbo/wEZkhNi6jU2VQAAAABJRU5ErkJggg==;imageBorder=default;dashed=1;perimeterSpacing=0;" vertex="1" parent="1">
          <mxGeometry x="680.04" y="110" width="106.34" height="90" as="geometry" />
        </mxCell>
        <mxCell id="BE3_SHiMCwZjSVx6Z5An-8" value="" style="shape=flexArrow;endArrow=classic;html=1;rounded=0;exitX=0.875;exitY=-0.183;exitDx=0;exitDy=0;exitPerimeter=0;" edge="1" parent="1" source="BE3_SHiMCwZjSVx6Z5An-3">
          <mxGeometry width="50" height="50" relative="1" as="geometry">
            <mxPoint x="248" y="177" as="sourcePoint" />
            <mxPoint x="670" y="250" as="targetPoint" />
          </mxGeometry>
        </mxCell>
        <mxCell id="BE3_SHiMCwZjSVx6Z5An-10" value="&lt;font style=&quot;font-size: 13px;&quot;&gt;&lt;b style=&quot;font-size: 13px;&quot;&gt;Step2: &lt;/b&gt;Inscribe all $orcp token to official addr&lt;/font&gt;" style="edgeLabel;html=1;align=center;verticalAlign=middle;resizable=0;points=[];fontSize=13;" vertex="1" connectable="0" parent="BE3_SHiMCwZjSVx6Z5An-8">
          <mxGeometry x="-0.1414" y="3" relative="1" as="geometry">
            <mxPoint x="9" y="4" as="offset" />
          </mxGeometry>
        </mxCell>
        <mxCell id="BE3_SHiMCwZjSVx6Z5An-11" value="" style="shape=image;verticalLabelPosition=bottom;labelBackgroundColor=default;verticalAlign=top;aspect=fixed;imageAspect=0;image=data:image/png,iVBORw0KGgoAAAANSUhEUgAAAckAAAEpCAYAAAD4e9nzAAAgAElEQVR4nOzdd3xTVRvA8V+bZjTpTCer7FXK3kvZS1QUkSEiILwMRVRUcCGgggsVRIbIEFFARFkie8iWUizUllU6oJSW0pbSnaZ5/8AWYhpGDSTA8/18/Lxvzr3nnieXNk/Oc8+9dTKZTCaEEEIIYcHZ3gEIIYQQjkqSpBBCCGGFJEkhhBDCCkmSQgghhBWSJIUQQggrJEkKIYQQVkiSFEIIIayQJCmEEEJYIUlSCCGEsEKSpBBCCGGFJEkhhBDCCkmSQgghhBWSJIUQQggrJEkKIYQQVkiSFEIIIayQJCmEEEJYIUlSCCGEsEKSpBBCCGGFJEkhhBDCCkmSD6jExAt8MO1jOnbpQaVqtVm9Zp29QxJCCIfjYu8AxN0XGxfHK+PGc+SvcHuHIoQQDs1hk6TJBDHxZ/l9y05On4lFpVIx+vmBVKxQzt6h3fO2bd/Jkb/C6de3D6+89CL+/n44OTnZOywhhHA4Dpck8/LyCf3rGNt27eNSapq9w7nv5OXlERcXT+VKlXju2WcICPC3d0hCCOGwHO6a5IHQv/jp199ITUundo1q9O/9KBqN2t5h3TdMJhNGo5GgoPIEBgbYOxwhhHBoDjeTrFOrGidP16Bju9ZUDqpA/LkEe4ckhBDiAeVwSdLXR8/w5/rZOwwhhBDC8cqt4s4zFhbaOwQhhLgnSJJ8gOQbDOzeu4/du/dSo3p1dFqdvUMSQgiH5nDlVmF7Z87E8MLYV4mKOo6XlyeP9OjO/4YNRaVS2js0IYRwaDKTfMAYDAXk5+dTUFBg71CEEMLhSZJ8AFSpUpnf1/3KsSOHGDtmNBt+38S8bxeQn2+wd2hCCOHQJEk+QNzd3ejftw8PP9SGEydOkpYuD2sQQogbkST5gFEqlXh7eZF+OYOszCx7hyOEEA5NkqQQQghhhcOtbo07m8DsBUvJzc2z2Pb51wuK/3/3zu3o1vGhuxmaEEKIB4zMJIUQQggrHG4mWbFCOT6eNN7eYQghhBAyk3zQOCsUaDQaLqVc4sqVK/YORwghHJokyQeMSqmkRvVqJF+8yIyvZhMTG4vJZLJ3WEII4ZAkST6AOnRoR+dOHdm+cxftO3WncvVgVq9ZZ++whBDC4UiSfAD5+fry0dQpjH/9VapWqWzvcIQQwmE5maTWJoQQQpRIZpJCCCGEFZIkhRBCCCskSQohhBBWSJIUQgghrJAkKYQQQlghSVIIIYSwQpKkEEIIYYUkSSGEEMIKSZJCCCGEFZIkhRBCCCskSQohhBBWSJIUQgghrJAkKYQQQlghSVIIIYSwQpKkEEIIYYUkSSGEEMIKSZJCCCGEFZIkhc2NWzoZ/bBg6r7RgeikOLLzcug7YyT6YcH0/GQQGTmZNhlnW8Qe9MOC0Q8LZtm+1QDM27YU/bBggl5sSuiZozYZp7QmzlyNruFoGj85hdiES+Tk5jP0rUXoGo6m7ytzyczOtWt895s9h0+hazgaXcPR/Lo1DIAlq/ehaziaSh3HE378rJ0jFPciSZLC5jw07gBoVVrcXXVm23RqLS7OCpuM46rSoFaqAfD38DXbpnJRovlnm72461yv/q+bK+4681h0rmqcneXXz5bUKiVuOg0Aft7uZttc1Uo0aqU9whL3OBd7B2BNbPw5NmzZSXRMHAUFRnRaV5o0rEf3zu1w1dj3w0/cWKC3v9lrrdqV8j5lbD6Oh6s7OrUreYa84rZqAZVsPk5pBfj+64Nao6J8oLedorGfnNx8ft58mHnLd3EkKh6NWkm3tiG8/nw36tcsj5OTk0Ufk8lE+IlzfLpgIxt3R5CbZyCkRjkGPtqCob3boHO1/AzwcNOg99CSmXVthl6lgt8dfW/i/udwSbKw0MSWHbvZuG0XhYWm4vas7Bx27T3I8VPRjBjcHx/9g/dhc6/x89CjUWrM2sp4B+Cq0ljpUTpuGh2eWg+zNr2bF34eepuOU1oBPu6oVea/amX8vXB9AGY2CUlpjJq8lG37o4rbcvMMrN56hI27I/jqnQH0f6SZWaI0mUwsXXuAMR/8iKHAWNwecTKBCdNXsefwab56dwD+evMvIUX89O6468x/xny93fD21JW4vxA34nBJ8nRMLFt27kGlUvHEI11o2qgeAH8fP8XyVetISk5h38EwHu3e0c6RCmsCPa9+e7++tFpUglU4O5c4cygNT6077ho3ruRmFpdWi0qwTthunNLy119N3NeXVotKsM5OTnaP704zFBj5fPEWtu2PYliftkwY3oMyfp6kXs7is4WbmLFkK3OW7aB981qU8fMs7hcaEceEz1eh06qZ+vITPN29KWqVkpOxSbz60QrW7wynQe0KvPF8NxSKayVrd50GLw8tZGQXl1aLSrAKhQLn+/x8izvD4S6KVK9Sma4dHmLkkAG0aNoQhUKBQqGgXp1aNGtcH4AzsfHk5uXd5EjCXtw0lt/Y/12Cvd64pZOpOrYVx84eJ/5SAi8sfItKY5qhHxZMm0m92BV1AJPJZNFPrVShclGZtRWVYG/GaDTy4/KfaNm2PevWbyjx+P9VSSXBf5dg/62w0MS2/VE8NvorfFqMRddwNM37fsiX320l/Uq2xf45uQaGvr2IdoM+JSUtk6ycPKYv2kyVThPwajqGx0Z/xZGoeKvjpaRl8uV3W2ne90N0DUfj02Isz7w+n71hp80qOaWhdFHw6uDOfPlmPz4f37c4Eeo9dbz4TAfq1SxPWGQ80fHJxX3yDQUs/GUP6RnZTH35CQb1aoWrRoWzsxO1qgQy690BBFcty8qNoZy9kGo2nkrpglplPjsvKsEKUVpOpjvx6XCHhEdEsXDpSqpUrMCIoQPQqOXa5P1g3NLJLNq5ggmPv8jiXT9xIT3ZbLurSsN3o2fQKaStzcY8l3Cesa+8xuGwIzRu1JAZX3xG+XJlbXb80sjMzmXyrHXMXrajxO1NQiox//3nqFEpoLgtJ9fAC+8v5dCxWGa81Y9Pvt3I7sOnzPpVq+jPT1+MpGblQLP2vWGnGfbOYuITzZMNQNO6lfl5xih8vd1s8M4sFcW9YsMhNn37Cm0aVwcgNiGFJ8fMRueq4qcvR5nNMI3GQn5cf5AJn68iPSObVTNH061tyB2JT4giDjeTvJHEpIsAKFVKFDZaISkcx0drZpFfkM/CkZ+TPO8o8bMOMeihPuTk5zJr4yKu2OjWEUdkMplYtekws5ftoElIJXZ89zoZobO4cvhrjvz6Ht3ahhAaEcuspdvINxRY9D+bmErfV+ZxMjaJOZOeJWX/lyTunk6/R5pxOi6Ztdv/Mtv/zNmLvDx1OfGJqQx5sg0R66eQGfY1GaGzCF8zie4PheDsfOfKk1k5ecSeS8FNpzGb/Z1PvsyZsxepXysIH69rFYmMzBze+HQlIyd9T3rG1Rl14sX0OxafEEXumSSZlZXNscgTODk50aRBXZRKh7ucKv6jQC9/fn11Ab2adMNF4YKbRsc7T4ylXlAwEeeOE5eSYLOxygQG0PvJXpQpE8jgQQMpV9b2q29vx4WUDL79eTdl/L2Y8XZ/mtWrjELhjLOzEzUqBTDz7f7Ur1WBDbsjOBmbZNHfUGDEXadh4dQhDHq8Ja4aFR5urgx5ojVKFwUnY5PIzTcAVxPyyk2hREaf57WhXZnxVj8ql/PFyckJhcKZakH+jB/WHf0dXOgSGhFLWGQ8HZrXonbVazPcfEMBhgIjek8tqn9+xyOjz/PU2DnMXbGLAT2b8/mEvgDEnEu5Y/EJUeSeSJJGo5Fff9vMuYREqlauSL2QWvYOSdwBY7sPo25QbbM2b50ntctVJzUznaTLF202lkKhYEC/p9m/eweP9uxh90U0MedSOHYygc6tggmuapmwy/p70a5ZTRKT0zkVZ5kkAWa+0592zWqatfnp3Snj54mxsBBT4dW2y5k57D18mjL+XvTp1sRs8cvdEBl9nvHTf0anVfPCgPa4aa+tRI0/f6n4/xcWmli3I5yeI2Zy+O84pr7yJF9PfIY61exbFhcPFoefjhUWmti8Yw+hR47h66NnwFOPyrXIB4jCWYFWffVDNDnj/p05JF26jKHAiJ+3W/EM6npOTk7U+uea4pXMkp/U4+VuuUClZuVAojZ8YNaWkppJTEIK5QO8CfT1tOhzI0tW72PU5KUlbpvz3kAG9Wp1w/4JSWm8Om0FcQmX+OqdAbRuVM1su7/P1RXBV7LzmPz1WmYs2UoZP0/WfP0irRtVw8nJicxsWbQn7h6HTpJGo5ENm3ey7Y996L09ef7Zp+X+yAeYj9v9+2+fk2u4a2MZCwspuO7+w7slNiGF599ezOG/4/j09T4M6NncYgbvpr36BfibFbsA6NY2hC/e7EdQmWv3vBZdi6xc3vwpS0LcCQ6bJItKrHv2h+Kj92bE4P74+/nYOyxxl2Xn5XDuUiJqpbrEW0vuF0VJIPVyNvmGAovZpMlk4njMBeDabKu0fLzcCPD1JCMzh8zs3NtawTqoV6ubzhZLcjI2ieHvfkf48bPMeKsfzz7eqsSFQYG+nlSp4MfZxFTGDurEhOHdcdVcu80n31DAn8diUbooqF4xwKK/ELbmkNck8w0Gfvx5Lbv3HcLfz4fRzz8jCfIBFZlwkj+jj1DJt7xNHzl3N+6TvB3lA72pWTmQbfsjOR2XbLE95lwKW/ZGUq2iv8WtHLfLw01DSPVynIi5wMbdEXf8vUecSqDPy3OIOJXA7H9KstZWzgb6eRBSvRxqtZL2zWuZJUiAyOhEtuyLpG6NclQNsn7v7e0yGo3Mm7+Axs1bM/2LmWRn59js2OLe5nBJMicnl++W/ULokWOULxvIqKHPSIn1AZGQmkha1mUACowF7D5+kNEL3+Jy9hUGt+uLv6ftymuJF5JY9ctqEhMvsHjJUhLOJ9rs2KVRIVBPl9Z1iE9MZdTkpfx5NAajsZDCQhN/HT/Li+//SGT0efr1aGZWeiwNldKFxzs2QOmi4O0vf+Wj+b+TePEyJpOJwkIT0Wcv8vG3v5N6Oes/v6+9YafpM3YOKWmZzJ30rMUj6P7NTavhuV6tyMsz8PonK9l+8HjxeTh0LJaxHy4jMTmdYU+1JdD3v82orxcXF8/qteu5dCmVr76ewx+799js2OLe5nDl1j0HQomIPAHAufMXmPTRjBL3a1ivDoMH9L6boYk7bNamRczatMii/bmH+jCo7VN2iOjuUSicefm5TkRGn2fb/ijaP/epxT7P9WrFmIEdbLIatUPzWkx68TEmzVrLB3PW88Gc9Wbbm9atzPO9/9vDG1IvZzFx5urihxUMfnMhg99caLFfUBk9q79+sXiG3LlVMK8935Vp8zbw6MiZFvuP7t+e3l0b23RFsqeXJ0EVyhMVdRyAk6dO0a1rZ5sdX9y7HC5JGgsL7R2CsBO1Ul38Fz1cVRpaVGvEmG5Deah2C5ydbFv0KLpP8nxiokPcJwlXr8ctm/4/Fq7aw9J1B4g4mYDSRUHLhlUZ80wHOrUKLnHla2koFM6MHdSJds1rMW/FLjbtjiDpUgZeHlo6NK/FuKFdzW7mL43CQhPGUjzaTqFw5q3/PULL+lX5bNEm9h+JBqBRcBCvDO5C1zZ1bHYeivjo9Tz37DMcORJO8kXb3Wok7n331GPpxP2p6LF00/q/xYiOA+0djnhAJV64wEsvv8ah0MPMn/c1nTt2sHdIwgE43ExSCCHupsLCQpKSkln43RIOhR6ma5dONGrYwN5hCQchSVII8cA6cyaGF8a+WnwtsknjRox/7VV89I7xt0iF/UmSFEI80BQKBQ8/1JYnez1G504d0Wpv/qfWxINDkqQQ4oFVpUpl1q/+2d5hCAcmC3eEEEIIKxzuYQJCCCGEo5AkKYQQQlghSVIIIYSwQpKkEEIIYYUkSSGEEMIKSZJCCCGEFZIkhRBCCCskSQohhBBWSJIUQgghrJAkKYQQQlghSVIIIYSwQpKkEEIIYYUkSSGEEMIKSZJCCCGEFZIkhRBCCCskSQohhBBWSJIUQgghrJAkKWxu3NLJ6IcFU/eNDkQnxZGdl0PfGSPRDwum5yeDyMjJtOl42Xk5vPTduwSOrM9L371Ldl6OTY8/b9tS9MOCmbdt6W3FVPSeO33Yl7SsyyRnpND8nZ7ohwUzasGbGAuNNo3zdpyIuUDtHu+gaziaTxdsBGDP4VPoGo5G13A0G3dH2C22u0nOg7gZSZLC5jw07gBoVVrcXXVm23RqLS7OihL7hcdFMvDrMby1fNptjXcmOZ4NR7aRX2Bgw5FtnEmOL13gNqRwVqBTawHwcfNG7aIy265Va1BYOQ93g1rlgqvmakwBPh4W29206rsdkl3IeRA342LvAEqScimVLTv3Enn8FBlXMnFycsLby4MWTRryUOvmuGrkB9eRBXr7m73Wql0p71Pmpv0OnA5jw5FtDGnX97bGq+IfRI+GHflp/1p6NOxIFf+g2+p/J6iVKrzdPM3a3NQ6KvmV59SFM3aK6rpYtBo83FzN2vz07gSV0ROfmGqnqO4+OQ/iZhwuSebm5fHDT2s4E3e2uM1kMpGadpkNW3YSdvRvRg4ZgLeX5w2OIhyBn4cejVJj1lbGOwBXlcZKj9LRql2Z+dz7zHzufZse11b0bt6olSryDPnFbVUDKtkxInP+/5pBlQ/0Ru+ls7L3/UvOgyiJwyVJAL3eiyaN6tGoXh1cXTUYjUaOn4zmp9UbuJB0kaN/n+Dh1s3sHaawItDTDzAvrRaVYBXOzjg5OdkttrupjFcAcK20en0J1p6lVgCN2qW4vFhUUiwqPebk5qNwfjCuxMh5EDfjcElSo1bzbN8nzNoUCgV1ateg+bnzbNr2Bzm5uXaKTtwKN43lt+9/l2Dh6uKWIXNfYcuxP8zaF+1cwaKdK8zaOtd9iEUjv0Crdr1h33/vZ01yRgrfbv+RlQfWEZeSgFLhQssaTXi5+zAeqt0CZ6ebfzheyclkwrKpLNu3mroVavH9i18R5FOueLu7q5vZ/iWVYK2Jjz/LpPen4qrRMOm9t/Hz9b2lfrdK4axApzW/TlpUeszJzbfSC/INBazedoS5y3YSFnn12m+j4CCG9G7DU10aF1/fK7Ln8Cm6DvuCOe8N5NnHWxIWGcfkr9fxx6GT6D11vDiwA6P6tbPoB1BYaGL/X9HMXb6T7QePk56RTbWK/gx5og0DH2uBr7ebxTiz3h1Avx7NWPbbn8z7aRcRJxMoH+jNa0O78lyvVqiU5h95pT0P4sHhcEnSGpMJcnPzAHDV2LZcJ2yrY0gbUr+NNGsb0XEgIzoOtFNE5nZG7mPYN6+Rmple3GYwFvBH1AES05JZ98Zi/D1unJRy8nOZuPJTlu1bTePK9Vg86kvK6QPN9inpPU8f+B7TB7530xi3bNvO9h07AWjUqAHPD3nuVt/eLXHVKFn44RAWfjikuM3X242dS1632ic59Qpj3v+R9TvDzdoPHo3h4NEY1u84ylfvDsBf727RN/rsRZas3sfYqcsxFFxd1Zt0KYN3Z6wmL7+AN57vhkJx7YtJZnYuk2etY/ayHWbHOR2XzNtf/oLeU8ugXq0sxgmLjGffkWh+XH+wuO3chTRenrqclLRMi3FKcx7Eg+WeSJI5ObkcCD3C/j/DqFq5Is0a1bN3SMIGtGpXVoydW/x63ralvLlsKkPa9b1pIvl3320Re+jz5f9uOuapCzG8tPhdUjPT6dWkG28/8RJV/CtiLDQSnRzHj3t+veksssBYwPu/fMF3f6ykVY0mLBgxnYB/Ssz3K6OxkK9/2M76neF0axvCtFd7Uy3IH5PJxOG/43j905Ws3xlOs3qVeXVwZ4uS+uwfd2AoMNKtbQgfvPwEVcr7sf3gcZ6bsICVG0Pp/0gzKpW7+sXEZDIxb8UfzF62g6AyeqaN603X1nVw1ahIv5LNH4dOUlhoKjHOhav2oHRR8M6onrwwoD1uWg3rd4YzavJSFqzaw6Pt6xNSvVyJfYUoicMmyfCIKBYuXVn82tnZmVbNGvFY906o1ZalGSFuxmQysXT3Ks6lJvJ8+/5M6/cmLoqrvwIuChdqlqnK5D6v3fAYBcYCJq78lLlbv7+jCbJzxw7s3XcAV42Gxx59xObHv11RZxL5Yf1B6teqwMy3+1MuwPufLU40q1eZGW/356mxc1i9NYwBPZtTxs+8rJydm89zvVrxyetP4aa9Wglq3bAaXdvU4ZfNYZxPvlycJGMTLrFkzT6CyuhZNXM0wdXKFh/Hy13LYx0aWI1T6aLgq3cGMPCxFsWJ+tH29Yk6k8iUr9cR9necJElxWxw2Sf5bYWEhew8eJuliCs/2fQJPD8uSjhA3kp6dwd6Th/DUuvNM6yeLE+StKjAW8Mm62czf/iMdQ9ow5/mP8HXX35FYg4IqsHD+nDty7NI4euIcicnpDO/TlrL+Xhbbq1cMoHXDamzcE8G5C2kWSbJ72xCmvvpkcYKEq6XO8gHeGAqMFBYWFrf/dTye03HJjBnYkZqVzUvYN/Nkl0Y81bWJ2UzWycmJ+jUrAHA6Pvm2jieEwybJ+iG1mfHRRAAMhgJi4s/y67pNnIqOZcnyXxn+XF80arlfUty6pPSLnLuUiL+HH2X1Abfdf+WB9UQlnKRaQCW+eHbSHUuQjighKQ2AMr6eJa5O1rmqqFhWT2ZWLnn5BovtHu6uqJVKi/YpL/Viyku9zNqOnUwAILhqGbPrh/9F0crV1MvZ5BsKLBbwCGHNPbG+Wal0oUbVyox6fiD+vj7ExMVzJvbszTsKcZ2CQiMFhQWl7t+nRU+eb9+fE4nRvP7jB1yx8eP1HFlOnmXiu1MKCu7c4/o83DQoXex7+424t9wTSbKIm05HYIAfRmMhBsPd+6UV9wd/Tx983PRk52dzJSfrtvu7KFx48/ExdK3fjk3hO/nw1xlmDwi4n1Uq6wNcXZFakqycfOLOp+Knd8dd999Wn1cL8r/hWKVx5uxFALw9tA/MfbrCNu6pJJmZlcWFpIu46bT4+frYOxxhY8p/rhFm5+XekYd/e7p6UKd8DRJSL7Dm8CZMppJXSN6Iu6sbnz0zkboVavHN9h+YvGo6BcbSz06tiY8/y9Dho3hhzCtcTEmx+fFvV+2qZXHTadi4O4LEi5cttkeePs/W/ZEEVy1LhTL/rQxdNNavW48Ul3n/i4zMHDb8cQyli4KWDar+5+Nd789DoXTs0oOhw0cRExtr02MLx3BPJMncvDxORscwb/EyklMuUad2DQL8bHtztbC/WmWroVaqWXt4Ez8dWGfzWZpaqaJ38x4onBV8vGYW7678lITUC5hMJgpNhZxMPMN7Kz8j5cqNn9lZTh/IrCEfEujlz/ztP7Jw54pSJdwbKbpP8rffN7J23W82PXZp1K4aSIfmtTgQfoYX3/+Bk7FJFBaaMBoL2X7wOKMnLyUrO4+Bj7VA7/nfHuVWNFb48bMMeWsRO/88Qb7h6heRzOxc1m7/i9Vbj5TYNyUtk8SL6RQWmjCZTCQkpfHuzNWs2xHOk10a0biO7R4HmJuby5q164k+E8P2HTv57vsfyC/heqy4tznc1eu4swnMXrC0+MEB13NycqJenVo88UgXm13QF46jQcU6dKzTmg1/beeFhW/xwsK3irf9+0k6EWdP0Gv6ELMHAgBsOfYH5V9oXPx65cvf0DGkTfHrrvXa8UqP4XyxYT6zNy9m9ubFZv2rB1bhha6Dbxpr3aDafDFoEkPnvsrbKz4CYHiHAfdtKc9Nq+G9Fx7jdFwyG3dHWPwJKaWLgvHDu9O3e1ObjDV5zOOcT05nb9hpHhkxw2KfOe+V/GCKbfujqPuY5T22LepXYeLoR3HVWC4eKi2lUklQUIXi1zExsWRlZ6FSWa7+FfeueyLT6HRa6tWpxUsjBzN04NO4usoTd+5HWrUrc4d9zPjHXqCi7525l63ouuKG8d/zaKPOePzz6DhXlYb2wa2YNeQD/NxvrZTftV47Fo78HJWLksmrprP52C6bxdm5Ywc6tG/HI927OcR9kgC1qgTy27yxTBjevfieRo1aSa9ODflt3ljGD+tusy+vNSoFsOGbsXw+oS/N61UuXmwTUqMcH43rTe+ujUvsp9WoivdVuihoXq8ycyc9y9o5Y4pjthWFQsGTvR6nQ7uHbXpc4VicTLauEwkhxF1W9OzWvj2a8vW7A206Y7wRo9HIJ9O/YN43C3h+yHOMf2McqhJudRH3LocrtwohxL3gypUrbN22g/Xrf6dc2bJ079ZFEuR9SJKkEELchtzcXN7/8CN+WHb1L9V4eXny/qSJNG7U0M6RiTtBkqQQQpRCneDadOvamd5P9qJsmTL2DkfcIZIkhRDiNmg0Gj58f5K9wxB3iSzcEUIIIay4J24BEUIIIexBkqQQQghhhSRJIYQQwgpJkkIIIYQVkiSFEEIIKyRJCiGEEFZIkhRCCCGskCQphBBCWCFJUgghhLBCkqQQQghhhSRJIYQQwgpJkkIIIYQVkiSFEEIIKyRJCiGEEFZIkhRCCCGskCQphBBCWCFJUgghhLBCkqSwuXFLJ6MfFkzdNzoQnRRHdl4OfWeMRD8smJ6fDCIjJ9Nq35OJZ2gzqReVxjRj2b7VpRo/OSOF5u/0pNrLrYg4e8JsW8TZE1R7uRX6YcFM/vlzALZF7EE/LBj9sGDWhG4q1Zi2MnHmanQNR9PoySnEJqSQk2tg6NuL0DUcTd9X5pGZnWvX+ARm/yaPjfqK9CvZpKRl0m7Qp+gajmbcxz9hNBbaO0xhI5Ikhc15aNwB0Kq0uLvqzLbp1FpcnBVW++6I3EfkuZNk5GSy+tBGsvNybBqbq0qDq0oDQKC3v8V2N43Oou1uctddjc3DzRU3rcZsm06rQnGDcyfuDoXCCa1GDYCv3g21Umm2XeeqQqGQj9b7hYu9A7gVW3bs4bfNOzCZTFSpWIERQwegUavtHZaw4t/JR6t2pbxPmVvq2z64FcHla3Du0nl6Ne2GVjwe2DAAACAASURBVO1q09jcXXVoVVqztgBPP/RuXqRmptt0rNII8PEwe+2qUVI+wPuGfQoLTez/K5q5y3ey/eBx0jOy0aiVtG5UjZF9H6ZTq2BUSvNf9YzMHJb99icrNvxJWGQ8hgIjITXK0b9HcwY+1gJfb7cbjhl3/hI/rDvI5r1/c+zkOXLzDASV0bP66xepWTnQar/k1CsMnrCQXYeuzvA3ffsKbRpXv+FYObkGXp62nKVr9wMw572BDOrVymz7C+8vZcWGQzc8DsC4IV2Y8lIvs7aYhBQ+X7SZ33YeJelSBpXK+dKvR1NG9G2Hv4+7xTFUShf0nuY/QzpXNVUq+HLoWMxNYxD3FodPkgmJSezcexCTyWTvUMRt8vPQo1Gaz4bKeAcUz+RKUqNMFfZMKl2Z9XYFevqZvfbWeeHv6XtXxr6ZAB8PNGrzX89AX0+LNqOxkGnzNzBt3gaz9tw8A9v2R7FtfxSvDO7MxNGPmiXKzxZuYvqizWZ9Ik4m8PbJX/hh3QGWTf8f1SpazrTzDQXMWbaTKbPXkZtnuK33ZDKZ+H7N/uIEeat+332MFRv+vK0+txrPst/+ZMwHP5q9l9iEFD6a/zs/bz7Msun/I7hqWavH8PbQoVIqyDcYi9sql3eMnyFhGw6dJPMNBtb+vpWcnBxCatcgIuqkvUMSt6Ao+VxfWi0qwSqcnXFycrJbbBqlBj8PPacunCkurRaVYHPyc3HCfrEB+P8zk7y+tFpUgnVRWJ67sMh4vlq6nWoV/Zk9cSAt6ldBoXAm31DAlr2RjJ22nKVrD9CnaxPq16pQ3M/Hy425k57lkXb10HvqKCw0cTo+mTc/X8XG3RH8ujWM15/vZjaW0VjI9EWb+WDOeqpW8OP157vRtU0Ivt5uODvf/LyFRsTx+eLNdGoZjAkT2/ZH3bTPmbMXmTZvA43rVMTfx52128Mt9nHVKFn44RAWfjikxGPkGwp47eOfWLExlA4tahe3h584x8Sv1uCvd2f6+KeLZ9ypl7P48rstzPx+G58t3MTX7w7EVWNeUg309QSulVYVhYXFJViFs5Ra7ycOnST3/xnGiVNnaFSvDnWCJUneK0q6rlfS9b8iEWdP0Gv6EIty57T+bzGi48AbjpWZm8XXmxezfN9q4lISUDgr8Pf0JSXjEu6uliVDF2cFOrV5qayoBJuTf/NFMUePRfDue1No3Kghr736MlqtbcvBblrLywj/LsFeLyr6PJlZuQz9Xw9aN6pW3K5SutCtbQiPH2zA3OU7uZJl/t7GDupk9trZ2YkalQIYM7AjG3dHWOwPcOxUAgtW7aFt4+os/mhocaK4FamXs3h/zjo8dBreGdWTOct33LRPvqGAL7/bQvyFVH74dDh/3OYMtEj48XOs2hLGIw/XpXm9KsXta7f/RWJyOounDaXHw/WK2/WeOt783yOcS0pj+4HjnIy9YPYFAyz/nUoqwYr7g8MmyeSLl9i2ax96b096dGlPQuIFe4ckblHHkDakfhtp1jai48CbJrzbFXH2OAO+eoFzqYnFbcZCI4lpSVb7aNWurBg716zN38OXgx+sv+l4+QYDa9auJ/zoMcKPHqNly+Z07tih9G+gBG0aVyfryGyztkG9Wpldg7telQp+KF0UhEXGk5GZg4fbtaSdnHqFv6LiqVk5kPKBN76uWaRo9WzR7LWIyWTi1y1hXMnKZdKYx28rQZpMJn76/RDb9kcxe+IzBFe7tevT2w8cZ8ma/Ywd1In2zWqWKknmGwpY+MseCoyFDHq8VfGMMCfXQGxCCuUDvalT3bKc6qpR0rZxdVZsOMTfp89bJMmS/k2mvNTL4nqnuPc5ZF3AaDSy9vetZGZl0b1TO3x9bu0XXNybQirU5PSX+0j9NpLUbyMZ0q7vTftcykzjlSWTSExPZtBDT3Hsk+1cmv83yfOOsuXt5QR6WZ+53k8a16lE3x7N+HlTKG0GfMTa7X+RmZ3LH6EneW7CAg7/Hccrz3WmYlmfGx4n31DAtv1RTJ61jraNq/Ps4y3Ntl/OzOFIZDwh1cpSo1LAbcUYfuIcny3aTJ+uTejdtTHOTjf/2ElISmPK7HU0rlORkf3alXq1aFhkPL9sCaND81o0CalY3F60QvXchTTiz6eW2Ld6xavv83R8cqnGFvcHh5xJHgo7SkTUSRrVq0Oj+nXsHY5wQJuP7uJwzFGeaNqdj/u/g1qpAsBF4UIFn7K4a9y4lFnyh19pqZRKHn+sJ6GHw2jcqCGtW7a8eac7zFWj5Ms3+1ItyI+P5v9O/3HfFG9rWrcyG755mZYNqpR4HfhEzAV6vTCL+MRr52l0//a8OaIHek/zknlKaiYxCSk0Cq5IaEQsv249wqbdESRdysDLQ0vnVsFMGN6DWlXMV7ZmZObw0TcbUCqceWNYN9y0GnJyb7zgx2gsZMaSrUSfvcgPnw6njN+tz1qvl5Nr4JufdpGXZ2Bo7zZmt9SolC40q1uJRb/sYdo3G9B76mhcpyIKhTOpl7PYtj+KzxZevWe2oMBobQjxAHC4JJlyKY3NO3YXl1kVCrkvTJgzmUwcPH0EgMcadylOkHdDvbohrPnlp7s23q1Qq5TUr1WBcv5eRJ+9WNwef/4S0WeTaV6vMgrFrS1Imr1sBydjk5jxdj8qlbu2StNYWEhBgZGfN4Xy86ZQsz7pGdms3BjKln2RLP1kGO2b1wKulWjX7Qhn9sRnqF311sqsO/48wXdr9jOy78O0b1bzlvqU5ODRM/y26xjdH6pLywZVLLb36tSQLfsi+WVLGO2f+7TU44j7m0OVW41GIxs27yD9coaUWYVVOfm5JKYl4a3zokpAxZt3uI8ZjYV8/O3vPP3yXAwFRlbNHE30lmmM6PswqZezGPne90ybv6HEJ8DUrBxI1IYPyDoym4zQWYSvmcSQJ9uwdX8koyf/QHLqFYs+GrWSVwZ3JnzNJDJCZ5F1ZDbRW6bx4jMdSM/I5ovFW0i/kg1AVHQiH83/vbjMeiurmhMvXmbavN8IqVb2P5VZc3INLFmzr8RZZBEPN1fmTn6Wj8b1JqRGOQCULgqa16vM5xP68tU7AwBu6/qruP841Ezyr4gowv+OokFIsJRZxU05OWH3WzbsbfvB43w8/3cqlvMxu6dv+vin6dCiFiPe+57PFmyieb0qdG4VbPU4CoUz1YL8+XzC0xgLC1myeh97w07xRKdGZvs93rEBb4/oaXZLRKCvJ+OHd+fYyQROxSWRlJKBi8KZL77bAlBcZr0Zo7GQBat2E3H6/H8qswLsCTvFL5vDrM4ii+hc1YwZ2JExAztabJv949UVuFUq+FlsEw8Oh0qSx/4+QUGBkcPhERwOjyhxnzNxZxn/3scADB3Yh/ohtUvcT9zfnJ2duZx9hUuZaRbbcvJyyTXc/884NRoL2bg7AkOBkYGPtjC76d3JyYnubevydPemfLNiF/v/ir5hkiyiUrrQKDiIJav3cSXz2jl012nw8tCSkppJnsFgcd+gq1pFoJ8HhyPjyMjMBdLZc/gU8YmpNO3zgdXxug77AoC+PZoyZUwvtu6LIjMrl8dHf2W1z6jJSxk1eSlN61bm5xmjLJ4OlJmdy8JVewCsziJvJvVyFut3HqVaRf8bPkFI3P8cqtwqxK3Qql2pVaYaxkIjh6L/Mtt2JSeTCcuncvbS+Tsy9tFjETz+5NNM+WAa2dm2fa7s7TIYjWRkXo2hpMfIKRTOuJdw3+WN5BsKCIuMx02nofZ1SdfbQ0ftqmU4evIc0fEXLfqlXs7k+JkLlPP3wk9/40fa3Wl7Dp/m9z+sX4u8mXxDAbN+2M6uQyfo3rYuQWX0No3vz0OhdOzSg6HDRxETG2vTYwvbc6iZ5OABvRk8oHeJ28Ijoli4dKU8u1UA0LFuG+Zu+56FO5fTtGoD2tRsyqkLMby2dAoHTx9B5aK8+UFu0924T/J2aFRKmtWtzI/rDzL7x50ElfGhbZPqqJQu5BsK2LovkpUbQ1G6KGjZoOoNj5VvKCD+fCpf/bCNZesP0rdHM0Kqlyve7qpR0r1tXVZsOMQbn65k+oS+1KtRHicniD1/iYkzVhN+/Czjh3enQqAehcKZqA0lzyCvf9bqv5/dunPJ61ZjnDhzNdMXbbZ4duv1MjJzWPzrXuD2ZpEmk4m0jGwO/x3HF4u3sOvQCdo2rs7Lz3Wy6cPKc3NzWbN2PdFnYog+E0NQUHneGv8GKpXtf16FbThUkhQPpnnblvLmsqkW7W8um1rcXj2wCuveWIy/x9UVl02rNKBHgw78euh3npg+tLiPUuHCR/3fIvLcSdYctu+fvbobHu1Qn3U7w9m2P4rHSihRKl0UjB/enQ7/rDgFSEnL5Kmxc6w+jPvJzo14f2wvi5Jq94dCGNCzOT+uP0jr/tMs+vVsV/8/LbaxhX1Hotm4O4JubUNoXq/yDfe90YPRu7UN4Ys3+9l80Y5SqSQo6NqDCWJiYsnKzkKl8rLpOMJ2JEmKe5JaqWLWkA+p7B/Et9t/ICsvhwYV6/D+06/TvFojXvthis3HdMT7JAN9PVk2/X/8sjmM79fu5/DfceTmGQjw8aBr2xAGPtqClg2q3vTZqpXK+fJQ0xo33N9Nq+Hric/QuXUwM5ds40hUPEoXBY2CgxjZvx29Oja0+Gsjd1Pq5SxmL7u62GbwE63Nnj50M0oXBTUrB9KueU2e6tKExnUq3tLzaG+XQqHgyV6Pc/DgIbbv3GXz4wvbczLJn9cQQoi7xmg08sn0L5j3zQKeH/Ic498Yh0op5VZHJTNJIYS4S65cucLWbTtYv/53ypUtS/duXSRBOjhJkkIIcYfl5uby/ocf8cOyFQB4eXny/qSJNG7U0M6RiZuRJCmEEHdJneDadOvamd5P9qJsmVt7TJ+wL7kmKYQQQlghDxMQQgghrJAkKYQQQlghSVIIIYSwQpKkEEIIYYUkSSGEEMIKSZJCCCGEFZIkhRBCCCskSQohhBBWSJIUQgghrJAkKYQQQlghSVIIIYSwQpKkEEIIYYUkSSGEEMIKSZJCCCGEFZIkhRBCCCskSQohhBBWSJIUQgghrJAkKYQQQlghSVLY3Lilk9EPC6buGx2IToojOy+HvjNGoh8WTM9PBpGRk2m32CLOnqDay63QDwtm8s+fA7AtYg/6YcHohwWzJnST3WIDmDhzNbqGo2n05BRiE1LIyTUw9O1F6BqOpu8r88jMzrXpeEZjIbN/3IFPi7E8+8a3pKTZ79/menf7PAhhjSRJYXMeGncAtCot7q46s206tRYXZ4U9wgLAVaXBVaUBINDb32K7m0Zn0XY3ueuuxubh5oqbVmO2TadVobDxuUvLyOanjaHk5hn4ZUsYx88k2vT4RfYcPkXfV+bx4/qDt7T/3T4PQljjYu8A/i03L495C3/kTNxZq/s0rFeHwQN638WoxO34d/LRql0p71PGTtGYc3fVoVVpzdoCPP3Qu3mRmplup6iui8XHw+y1q0ZJ+QDvOzaet4eWp7s14djJc/R4qC61qtyZf6fNe/9m/c5wHnm47i3tf7fPgxDWOFySFPcPPw89GqX5LKCMd0DxTM7eAj39zF5767zw9/S1UzTmAnw80KjNfz0DfT0t2v4rhcKZ0QPaM3pAe5se11bu1nkQwhqH/UnTaNSMfn4gFSuUs3co4jYVJZ/rS6tFJViFszNOTk52i02j1ODnoefUhTPFpdWiEmxOfi5O2C82AP9/ZlDXlxSLSo8uCvueu7tJzoNwFHJNUthcSdf1Srr+d71CUyG//7Wdzh/2I2BEPfTDgmk4oTNTV88kLeuyxf5Fi21mb/mOnPxcvt68mIYTOqMfFkzVsa2YuXEBeYZ8i34uzgp0avNya0klWGuOHovg8SefZsoH08jOzrmlPrfDTau2aPt36bHIiZgL1O7xDhNnruZkbBI9/jcDnxZj+fjb38k3FPDzpsNU6TSBmt3f5o/Qk2Z9ixbGXP9fu0GfWl24U7RwpmifoyfO8czr8/FpMRafFmMZPGEhMQkpxfunpGXSbtCnxceevmgzAKMmL7UYd+LM1f/pPAhxJznsTFLcuzqGtCH120izthEdBzKi48AS97+Sk8mEZVNZts/8wzIuJYHP1s9ldegmvhv1JbXLVbfoGxodzu7jB9kUvrO4LS0rnUk/Tyc54xKTnxpntshDq3Zlxdi5Zsfw9/Dl4Afrb/q+8g0G1qxdT/jRY4QfPUbLls3p3LHDTfvdjjaNq5N1ZLZZ26BerRjUq5XVPhfTMpk4czW7Dp0AYOnaAwT6ePDWl7+SnpENwGcLNlGvZnm83G/ty4A1SSmXmfn9Vhas2lN8bICVm0I5GZfEyi9HUs4G1w5Lcx6EuBNkJinsymQy8cPeX1m2bzXVAiuz5rVFJM87Ssr8CPZOXkPzao04fSGGz9bPLXFmuDp0I1uP7ebFrkM4M2M/KfMjmDfsE1xVGn7Ys4pj8cft8K7urp83hpKQlMbf66cw8YVHOZuYymufrGTYU205uXEqzetV5lRcEkkpGcV9przUi6wjs8k6MpuwXyYSVEZ/S2PFJ6YyfdFmqgX58+fKd8gM+5rwNZNoUb8K4cfPsuvQ1Rmrr7cbO5e8XjzGuCFdAJjz3sDitqL/przUy/YnRQgbcdiZZG5uHp9/vQAAZ2cnPD08qFG1Eh0eakVggN9Neot7RUJqIgt3LsNT687soVNpUqV+8bba5aozb/jHPDH9ebb/vYeohFM0qFTHrL/CWcGHfScwvMOA4utUTzV/hIizx/lq00IORh+x6FNaKqWSxx/rSejhMBo3akjrli1tctz/Kjs3n+F9HqJSOV/K+HpiKDBSsZwPg59ojd5TR6XyviRetCxZl1bbxtVZ/NFQAn09AagW5M9zvVpxIPzMHbuFRAh7uSdmkoWFJtLSL3PwcDiffvUN+w8dsXdIwkaik+OJST7LQ7VaULdCbYvtFfRlaVurOZezrxB1/pTF9g51WjOwzZNmCzmcnJxoVPnqrQYnE6NtGm+9uiGs+eUnJr7zJlqtq02PXVr1apanU6tgs7YBPZtTqZzPHRlvwv96FCfIIlUqyBdXcX9yuJmkRq1m7KghZm0GQwEx8WdZs2Er5xISWb9pO0Hly1KuTICdohS2cj7tAsZCI74eetRKlcV2Jyen4muRt/OknqLFQ2mZl8kz5Jd47PuFWqVEpTT/VS7j63nHVoC6KO6J79ZC2MQ98dOuVLpQo2plhgzojZenB5mZWaRcSrV3WMIGcvLv7OPFPLTuqFyUd3QMIcT9655IkkV0Oh1enrIM/H5S0bc8cG3G928mk4mohKtl1n/f/H8jp5NiAfDW3rkZlRDi/ndPJcnEpGQuJF9EpVLiprPvMzaFbVTyq0A5fSB/HD/A8fOnLbafTople8QeAr38CS5veQtISdKzLrPu8GYUzgpa12pq03jv9H2S9ysXl6u34WRm593xsbKzc5jywTQaNGnB0h+WYzQa7/iY4v51TyTJzKxs9uwPZf53y8nNzaN+SG0qBcmTeO4HlfzK075Oa1Iz0xk+/3V2Hz9IgbGAQlMhoWfCGf7N65xLTeTJZj2o4l/Ron9qZjoJaRcoNBViMpmIv5TAaz+8z76ToXSo05pW1ZvYLNbr75NcuHgJe/fvt9mx73d1a1z9fZ330y72hp3GaCy8Y2NFRkWxcPES0tMvM3PWbCIi/r5jY4n7n8Mt3LmccYUvZi8kLd1yybqTkxON64fQ5/EeKBTyVwDuBwpnBeMffYGoc6c4HHOUxz8bYrHPo427MP7R0SX+5YfDMUdp/s4jFu3B5aoztd+baNWOsQLVkaSkZfLU2DkcOhZj1h6fmErFDm8Uv57z3kCb3bzfulF1Hm5ak12HTtDl+c/Nto0b0sWm90r6+vrQsEF9jvwVTvLFi8TExlG/fj2bHV88WBwuSZZEp9NSq1oVOrVrTZnAAOQS0/2lnD6QX8ct4OvNi1m+bzVxKQkonBXUKV+Dsd2H0aNBR6urU1UuSoyFhRgLjSicFVQLqMSQdv0Y0LqXzf/slaPeJ3kv8Ne7s3jaUOat2MnyDYeIve4RdrZWMSiIQQMHcOSv8Ds2hnhwOJlMJpO9gxDidm2L2EOfL/9H57oPsWjkFzJjFGYio44z8oWXyM3JZeH8OYSE2OaBEuLBc09ckxRCiFthNBo5ExPL3G++JT7+LN27daFatar2Dkvcw+6JcqsQQtxM6OEwnur7TPHrR7p348UXRqLROMbfLxX3JkmSQoj7hpeXJ61btuTpPk/SskULVCp5kIT4byRJCiHuC00aN+Kv0AP2DkPcZ2ThjhBCCGGFLNwRQgghrJAkKYQQQlghSVIIIYSwQpKkEEIIYYUkSSGEEMIKSZJCCCGEFZIkhRBCCCskSQohhBBWSJIUQgghrJAkKYQQQlghSVIIIYSwQpKkEEIIYYUkSSGEEMIKSZJCCCGEFZIkhRBCCCskSQohhBBWSJIUQgghrJAkKWxu3NLJ6IcFU/eNDkQnxZGdl0PfGSPRDwum5yeDyMjJtHeIt+X6+Dt92Je0rMskZ6TQ/J2e6IcFM2rBmxgLjXaLb8/hU+gajkbXcDS/bg0DYMnqfegajqZSx/GEHz9rt9iEuF5OroGhby9C13A0j436ivQr2aSkZdJu0KfoGo5m3Mc/YTQW2jtMM5Ikhc15aNwB0Kq0uLvqzLbp1FpcnBX2CKtYniGfrzYtpPPUfkScPXHT/RXOCnRqLQA+bt6oXVRm27VqDQo7vie1SombTgOAn7e72TZXtRKNWmmPsISwoFA4odWoAfDVu6FWmv9s6lxVKBSOlZZc7B3AjeQbDBwJ/5s9B0K5eCmVnJxcABrWq8PgAb3tHJ2wJtDb3+y1Vu1KeZ8ydorG0uWcDJbu/oVLmam3tL9aqcLbzdOszU2to5JfeU5dOHMnQrwtHm4a9B5aMrNyi9uqVPC7pb5x5y+x4OfdLFi1h/SMbDZ9+wptGle3un9hoYkdB4/z2aJN7D8SDUCj4CBG9m9Hr44NUSktP1JK08dkMhF+4hyfLtjIxt0R5OYZCKlRjoGPtmBo7zboXNUlxpd86QrzVuxk0S97SbqUQYCPB4+0q8erQ7pQuZxviX2ycvJYuGoP3/68m9NxyXh5aOnQvBbjhnalfs3yODk5yXmwch5ut49K6YLeU2vWpnNVU6WCL4eOxZQYl705bJKMjT/HkuW/cik1zd6hiFLy89CjUWrM2sp4B+Cq0ljp4fj0bt6olSryDPnFbVUDKtkxomv89O6468zPra+3G96e5rN5o7GQ/X9FM+uH7WzcHYGh4NZKxUZjIdPmb2DavA1m7QePxnDwaAyH+sfy3ouP4qbV/Kc+JpOJpWsPMOaDH81iiziZwITpq9hz+DRfvTsAf735rDky+jz9x33D6bjk4rakSxksXLWHrfsi+faDwbRuVM2sz4WUywyesJDdh08Vt6VnZPPLljC2HzzOl2/246mujc0+7OU8lL7P9bw9dKiUCvIN195b5fIlJ3B7cqx57T/iz53nm8XLSE1Lp1qVSrww/Fk+njyeGR9NZMZHE2UW6eACPa/OYq4vrRaVYBXOzlZ/aRxZGa8A4Fpp9foSrD1LrQDuOg1eHlqz0mpRCVahUOD8r/MdFhlP77FzWLcjnG5tQ/ht3lgaBQfddJw12//iswWbCCqjZ9XM0WSEziIjdBZbFo4juGpZ5q/8g7Xbw/9zn9CIOCZ8vgqdVs3sic+Qsv9Lrhz+msOrJvJw05qs3xnOgp93m127Sr2cxYTpqzgdl8ywPm05vXkaWUdmc3bnp4wb0oXEi5f5cO5vJKdeKe6Tbyhg6tzf2H34FN3ahhC+ZhKZYV+TtPdzvnyrH7l5Bj6Yu56TsUlyHv51Hkp77gACfa9WZYpKq9eXYBXOjpeSHC4io9HI5u27yc7JpXunh3lx+CBqVK2MRl1yWUE4HjeNzqLt3yXYf0tMT2b6b/NoM6kXASPqoR8WTM1X2zJh2VQupCeb7Rtx9gTVXm7FuKWTiUo4RbspTxEwoh7vrfyM/AIDP+z5hUpjmlF1bCu2RuwGYFvEHvTDgtEPC6bWqw9x6sIZUjPTeWjyE8XtRf9ti9hjEZ+7q5vZ65JKsNbEnz3H0OGjGD3mZVIuXbqlPrdDpXRBrTK/tlNUgi1J7aqBPN+7DRvnv8KPn/2PkOrlUChunOhTL2fx7crdqNVKvnr3Gbq1DfnnA86ZVg2rMvu9gei0apb/9ifpV7JL3SffUMDCX66Wfqe+/ASDerXCVaPC2dmJWlUCmfXuAIKrlmXlxlDOXrhWLt+2P4pt+6Po07UJH778BGX8rv7b6D11vDOqJ4Meb8muQyfYG3Zt1hMWGc+KjaG0qF+FWe8+Q7Ugf5ycnHDTahj2VFveGvEIp+OSWbv9LzkP/zoPpelTxE1r/lleUgnWkThcufXc+QucOhNLtSqVaP9QS+7BSccDr2NIG1K/jTRrG9FxICM6Dixx/+SMFHp9NtTi+t7FjEt8s20pm8J38vMr86kaUNFse0pGKq//8D5H46+OtWL/Wsp4B/D+L1+Qk3/1+txHa2bRuHK9//yeSop/+sD3mD7wvZv23bJ1G9t37ASgUcMGDBs6+D/Hcz1fbzd2LnndrK1m5UCiNnxQ4v5uWg1TX3nytsaIjr/I4cg4OjSvRYv6lc225eTms/1AFFnZeRw9eY64hEt41dKWqs/55HQOhp+hUXAQXdqEWJQ594ad5vzFdNIzsjl+5gKVyvmSbyhg16GTKF0UPPNYC7OSJcDfp88TfuIcAHsOn+ax9g1QKJzZHXqSzKxc+vVoVpxMipy9kMa+I6eBqzO6zOxc3LQaOQ//nIfS9CkyqFcrBvVqZdZnyku9mPJSLxyRwyXJ2PgEcnPzqFmtMiqlrMp7UIRUqMmbvV6kba3m6HVemDARee4kI78dT2TCKZbuXsV7T71q1mfT0Z0E+Zbj0Ie/1H78HgAADZ1JREFUs+SPlcze8h2Tfv6MgW1681L35+n75UhiL54lIfWCWeJOzkjh0U8GcykzldXjFhFSoaY93vI95VRcEplZuTQKDjL7wEu8eJmXpy5n/c6rpcKLqVdIy8gudZ/zyZc5c/YiAx9riY/XtYpERmYOk2etZe6KXdcdJx2AzOw8oqLPU6WCH9UrXqtYFBaaWLkxlFc/XkH6P8dPScskN78AhcKJk7FJuOk0NKh9rdRsMpnYG3aa4e9+R3xi6j8xpZGda8BNq5HzkGvAxUVRqnN3r3K4JBl/LgEAlUrJ6t+2EB4RSVp6BiaTCQ93N1o0bUinh1ujVqtuciRxr/D38GXBiOlmbU44EVKhFhN7v0q/maM4nnia7LwctGrX4n3yCww8334AVQMqUlYfiLHQiJ+HDyM6DcTXTU+QbzkuXrF9efN2de7Ukb37DqDRqOn1+KP2DqdU8vINAAT4eABXPxD3HYlm1KTviU9M5bWhXQH4bOEm4s9fKnWffEMBhgIjek9t8WrPyOjzvDx1OXvDTjOgZ3OahFTi1Y9WEHMuBYACYyH5hgI83FyLP4wzMnP4YM56vvnpD6pXDODz8X35+NvfiTt/iZzcfFw1KvINRvQeWjzcNMVjz1m2kymz1+Hp5srcSc+y7Lc/iTl3kbTLWfjr3eU8XM5C56ou1bm7Vzlckiy6CP3Luk0W2zKuZLJ5+26iY+IZPqgvrq737rcTcWuKFsUUFlreYFzRtzw9GnQwa+vTvCfVAioXl1sdQVCF8iycP8feYfwnRR/EcPUD8btf9zHh81V4urkyb8og+nRtwv/bufeoKMs8DuBfmCsXgRAUmERguCqIICqgZEaW61qHTPNa5m5Wlpu5nW5mR1YrWztt5intupUZmpXHW2XmnV1NFDRghRTkDkoIDM7ADMMw+8fIrARvtoi978D3898485z5+Rzh6/O8z/PbtPPYdY/pCAnAtgL6+nAulry8GTp9C15ZOg2LZt+KrNzOVwUadAbUNegx+MqBkKLyWjzx0mYcPvETpk2Kx5qnZ0Ahl2HDlkP2MS3GVpRd9V21ly7jhbXbkLH7OMbFh2LtslkI1vjiYFYhSip/5jxcNQ89nTtHJbmQ7HCTlycmTRyP2OgouLu5wmKx4FTuGWzbtQfFJWXIysnFhHFjxC6TekltUx0+OJCBbVnfoqyu8jd1sFHKlVApOu8oBHj7OeTpWanrOJF48VITHl/5GTJ2H0dCdBA2pM/DMG0AANt23/WOGXRltXW52YS/vb0Tb27cB39fT+x4ezHGxYfCycmpy5iO070WiwW7Dp7GqvW7Ua8zYNWSNCyeexuUCjmqaxthajXbDzipVXIMHuiBi3U6/HC6GG99dhBniqvx6MwJWLH4bni4u0DfbIShubXTd3Eeej53jkqyIXnP1DsQGx1lfy2TyZAQF4PLej22f/09SsoqGJJ9RF55AWauW9TlFCtJR8eJxPS3dgIAHpqRghWP3w3vK3cwrVYrKi/a7jQHBgy87jHvXXnmNjklGm88PwuB/t72WjqewXXcqes43XsirwQ5ZzIQ6O+NL99chNSkKPt/mBovN6NeZ0BirNZ2StTJCW6uSpTX1OOxlZ/By8MV76TfjzlTx9o7vjQbzaiubeh015Tz4Ga7/tSDuXNUkgtJL0/b3nWj7nK373vf5AUAaG5pgdncBkU3XSrIcVjaLXj/YAYuNNZibGg8/nH/CkQEaOHsZPth25//L8xY+7DIVVLo0MFQyGWQyZzx2tMzMD8tuVP7sIamZpwuqECgv7f9tGNPxvj5eCJkiC8qauqx5IHb8dzCP8BF/b/dglZzG7LySqGQyxA21HZ31d1NhbChg3AirwQTRkdg/Yq5CPpFV5n/nKtG5YUGBE0ZCFe1Ak5OTvbPDNMG4J2/zcOo4Z2bQpyv+Blny2rxxwkxGHDlGR/nQQ0XtaJHc+eoJHdPMijQ1sqo8GwxLJbOW25Wq60TDwAMvMmLAdkHNBh0yDmfCwBYOmUhojRh9oAEgNa23t+ycXZyhkImQ2ubGUaz6doDrtONvif5ewi+2Qcx4RoM8h6AcfGhXfprZuWW4OipIoyMCoRmsFePx/j5eiA6TAOVSoGJYyM7BQMAnCmuwfdHzyAmXANtoO0Ep1qpwJgY29WKxJEhGOLn3WlMk74FX+3NhkIuw/hRYfZVVdJILRRyGWIiNBim1XQaY7G0Y9vebOgNRiTFauGiVnAerpqHnoxxVJILyZCgQPgO9EbB2SJs//p7GAy2I8smUysOZB7FkaNZUKtVSBwdJ3Kl1BtcFGr4edl+yL85fQB6owFWqxVV9RewfOsaPLjhyV7/zgFqd4T7a6E3GvD3nW+h/FIVrFZrr39Ph457kt98+x2279h1w77nRvLz8cDcuxJRXlOPpas/x+nCCrS3W2GxtGNPZj6Wrt4ClUqBP09PsZ+s7MkYd1c15qclw2Qy4+k1X+DA8UJYLO1ob7fiRF4plry8GTW1jXhoegr8fDzs9U2ZEIPYyCF4c+M+bNhyCE36FgC2axYvrtuOXQd/RFpqHJJGhtjHjB0RjMkp0di2Nwcr1+/ChTodAFuYrPlwD97begSJsSGYOjGW8/CLeejJGEflZL2Rvx16KPvHfGR8sQNt3fSUlMtlmHrnbbh1PBsN9BUfHtyM5za/0u1hnQh/LS7oajFGG4ePHn0DrioX5Ff8hLTXF2Cguzd2PfMxBnn44N39m/D85lewevYyPJI6D82mFix4ZymyS3K7vQu5Lz8T89cv6fYU7BdPvofU6PG99/f76BOsevlVAMDyZc/2ejOB/1ddgx7Tl2y4ZkPppxbc0emCt77ZiKWrP0fG7uNdPquQy5C++G78ZV5qp5VST8YI9Tnt8NjsiV36nALAweOFmPfMB/a7gFdLiA7C+6vmIzxocKc/767PaYdAf+9u+5xyHno+xhHJ0tPT08Uu4pcC/AYhJioCdfUN0DU1ob3dCqVCgTBtMBbMnY4RwyMZkH3IyKDhCPIdgoKqc2gw6KCQyREXFI3X5i7Hk1MWYlf2Pni5eSAtYTIUcgVqmy5hy7EdcFW6YM64NLipXJFdkov9+Zm4PSYFCSEjYLa0YcfJ71DTeBGzktMwyLPzs5lg30DcEpWIqvoaXNT9jDZLm/29+xLvQsiga/cy/a18fHxQVl6BqKgILHp0IVxdxW3B1WxsxdY9J1Fd2/irn0uO02Li2Ej7a6VCjskp0YgM8UN5dT0u1OmgVilwe/IwrHthDmZMTuiyldiTMc7OThgfH4akkVpU1TaiurYRMmdnjI4OwuvPzsTDM2/psv0I2LY1p90RjxajGaVVdTCazAjS+OCJB1Lx6lPTMcTfu8sYX+8BuHfSKLioFDhXVgtDiwmDB3pgfloy1i2fg5jwm7uM4Tz0fIwjkuRKkoiISAok90ySiIhIKhiSREREAhiSREREAhiSREREAhiSREREAhiSREREAhiSREREAhiSREREAhiSREREAhiSREREAhiSREREAhiSREREAhiSREREAhiSREREAhiSREREAhiSREREAhiSREREAhiSREREAhiSREREAhiSREREAhiSREREAhiSREREAhiS/cTJ7BwEhUZh3C2peHbZiygoKITVahW7LCIiSWNI9jNV1dX4fOuXeOiRx5Gdc0rscoiIJE0udgFXM5pMePefGThfVnHNz8aNGI4H59z7O1TVNySMikdpUQF0uiZ89MlGrF33Nr7dsxcjRsRAqVCIXR4RkSRxJdnPeHp6YPas+5CUOAZFxcUwGAxil0REJFmSWkmqVSosWbRA8P1WsxkffroV54pLMGJ45O9YWd/i6eGBkOBgVFZViV0KEZGkOdRKsuh8KYrOl2LozRoMiwwVuxwiIurjHCYkW81mHDjyA6xWK1KSx0CtUoldEhER9XEOE5Jni0pwvrQMGn8/RIVrxS6nT9DrDTAYmsUug4hIshwiJI0mE/Yf+jfa261ISRoNFxe12CU5NLVajYjwMGTnnMKXX22DTtckdklERJLkECF5prAIZZVVGKLxR8ywCLHL6RPunZaGJxYvwscbNyF21FgEhUbhZHaO2GUREUmK5EPSaDIh82gWV5G9TCaTwcvLC26ubmKXQkQkWZIPydz8QpSUV3IV2csOHc7EypdWY8b0e5B36gRKiwqQMCpe7LKIiCRF0iHZ0mJE5rETAMBVZC9qNZtx4mQ2khLHYPas+zBggLvYJRERSZKkQ/LH/AJUVNVwFdnL2i0WGI1GKJVKKJVKscshIpIsyYakwdCMzB9OAuAqkoiIxCHZkMw78xOqqi9AE+CH4ZFhYpdDRET9kCRDsumyHgcyjwEAUhIT4ObmKnJFRETUH0mqwXkHjwHuWPbXx8Qug4iI+jlJriTpxmppMaKyqhoyZxmcnfhPgIhICH9D9jM6XRM++XQTDh/JRGRkBNzd2UyAiEiIJLdbqfedzM7B9Jlz7a81AQGYfOckyGQyEasiIpI2hmQ/owkIwPjxyfjTgw8gIpynhomIfo2T1Wq1il0EERGRFPGZJBERkQCGJBERkQCGJBERkQCGJBERkQCGJBERkQCGJBERkQCGJBERkQCGJBERkQCGJBERkQCGJBERkQCGJBERkQCGJBERkQCGJBERkQCGJBERkYD/Aghp1hn9ZW/ZAAAAAElFTkSuQmCC;imageBorder=default;dashed=1;" vertex="1" parent="1">
          <mxGeometry x="680.04" y="220" width="108.38" height="70.43" as="geometry" />
        </mxCell>
        <mxCell id="BE3_SHiMCwZjSVx6Z5An-12" value="&lt;font style=&quot;font-size: 16px;&quot;&gt;User&lt;/font&gt;" style="shape=umlActor;verticalLabelPosition=bottom;verticalAlign=top;html=1;outlineConnect=0;strokeWidth=2;" vertex="1" parent="1">
          <mxGeometry x="130" y="330" width="30" height="50" as="geometry" />
        </mxCell>
        <mxCell id="BE3_SHiMCwZjSVx6Z5An-15" value="" style="shape=flexArrow;endArrow=classic;html=1;rounded=0;" edge="1" parent="1">
          <mxGeometry width="50" height="50" relative="1" as="geometry">
            <mxPoint x="170" y="350" as="sourcePoint" />
            <mxPoint x="670" y="350" as="targetPoint" />
          </mxGeometry>
        </mxCell>
        <mxCell id="BE3_SHiMCwZjSVx6Z5An-16" value="&lt;font style=&quot;font-size: 13px;&quot;&gt;&lt;b style=&quot;font-size: 13px;&quot;&gt;Step3: &lt;/b&gt;Transfer $10 to Official DAO as GAS fee, submit Bitcoin Addr and Verify&lt;/font&gt;" style="edgeLabel;html=1;align=center;verticalAlign=middle;resizable=0;points=[];fontSize=13;" vertex="1" connectable="0" parent="BE3_SHiMCwZjSVx6Z5An-15">
          <mxGeometry x="-0.1414" y="3" relative="1" as="geometry">
            <mxPoint x="25" y="-15" as="offset" />
          </mxGeometry>
        </mxCell>
        <mxCell id="BE3_SHiMCwZjSVx6Z5An-21" value="" style="shape=flexArrow;endArrow=classic;html=1;rounded=0;" edge="1" parent="1">
          <mxGeometry width="50" height="50" relative="1" as="geometry">
            <mxPoint x="670" y="390" as="sourcePoint" />
            <mxPoint x="170" y="390" as="targetPoint" />
          </mxGeometry>
        </mxCell>
        <mxCell id="BE3_SHiMCwZjSVx6Z5An-22" value="&lt;font style=&quot;font-size: 13px;&quot;&gt;&lt;b style=&quot;font-size: 13px;&quot;&gt;Step4: &lt;/b&gt;&lt;span style=&quot;font-size: 13px;&quot;&gt;Distribute 1,000,000 $orcp token to user, i&lt;/span&gt;ncluding 2 bitcoin on-chain txs&lt;/font&gt;" style="edgeLabel;html=1;align=center;verticalAlign=middle;resizable=0;points=[];fontSize=13;" vertex="1" connectable="0" parent="BE3_SHiMCwZjSVx6Z5An-21">
          <mxGeometry x="-0.1414" y="3" relative="1" as="geometry">
            <mxPoint x="-31" y="-21" as="offset" />
          </mxGeometry>
        </mxCell>
        <mxCell id="BE3_SHiMCwZjSVx6Z5An-27" value="" style="shape=flexArrow;endArrow=classic;html=1;rounded=0;" edge="1" parent="1">
          <mxGeometry width="50" height="50" relative="1" as="geometry">
            <mxPoint x="196" y="622.5" as="sourcePoint" />
            <mxPoint x="676" y="622.5" as="targetPoint" />
          </mxGeometry>
        </mxCell>
        <mxCell id="BE3_SHiMCwZjSVx6Z5An-28" value="&lt;font style=&quot;font-size: 13px;&quot;&gt;&lt;b style=&quot;font-size: 13px;&quot;&gt;Step6: &lt;/b&gt;Incentivize global developers to build orc20&#39;s infrastructure&lt;/font&gt;" style="edgeLabel;html=1;align=center;verticalAlign=middle;resizable=0;points=[];fontSize=13;" vertex="1" connectable="0" parent="BE3_SHiMCwZjSVx6Z5An-27">
          <mxGeometry x="-0.1414" y="3" relative="1" as="geometry">
            <mxPoint x="30" y="-11" as="offset" />
          </mxGeometry>
        </mxCell>
        <mxCell id="BE3_SHiMCwZjSVx6Z5An-30" value="" style="group" vertex="1" connectable="0" parent="1">
          <mxGeometry x="92" y="591" width="130" height="80" as="geometry" />
        </mxCell>
        <mxCell id="BE3_SHiMCwZjSVx6Z5An-25" value="" style="shape=image;verticalLabelPosition=bottom;labelBackgroundColor=default;verticalAlign=top;aspect=fixed;imageAspect=0;image=data:image/png,iVBORw0KGgoAAAANSUhEUgAAAgAAAAIACAYAAAD0eNT6AAAACXBIWXMAAAsTAAALEwEAmpwYAAAAAXNSR0IArs4c6QAAAARnQU1BAACxjwv8YQUAAD8LSURBVHgB7d17rGxnXf/xD6eHlnJrC7SAYM9TuZRb6KmAeCF2IX+AILS/KEaiOCM0ATWxQCJiSNxTjCAqtGCi4Q/dU4IRidBWQlTQzBANEAr0NBTaJpS1jqW0tMVzSm3T0sv+7e/MnnNm77MvM3vP86zvs9b7lXzZZ1/o3jPr8nyf73NZjxKAHITVOH0twtTXzIG1j5PvT39Pm3xvFtXUv4+uxcbvHZ76/OiGqATAtUcJQJ0mDbqFNeTnrMZpU1+bt+H2ZJIITJKC61bjiMaJg31+SOsTCwAJkQAA8YXVOKjjDfyBtc9zbtwXZZIkWFhiUGqcKEwSBACRkAAAixN0vKE/uBb2tbY38nthSUClcVIw+TeJAbAAJADA/CZl+wtEQ1+HSXXAkoJJxWAoAHMhAQB2Zg38dGN/UPDo0FoMdbxiAGALJADAetaLtwb+otU4T8fH6pGfSaXgixonBUw6BKaQAKDtrHEv1mLSy0dzTScEFiQEaC0SALTNdA+fBh+ThOAqMY8ALUMCgDaYjOFfJEr62N5Q42TAkgLmEKDRSADQRNO9/At14q54wCwqjROCK0R1AA1EAoCmsEbfGvyO6OVj8WyuwFDHqwOVgMyRACBn1shbg28NfyEgneFq9EUygIyRACA3NPrwZiiSAWSIBAA5oNFHLoYaJwNXiyWGcI4EAJ4Vq3HJ2kfG9JGbvsaJwFUCHCIBgDeFxkv23iEafTRDpXFl4FIxRABHSADgASV+tMVQDBHACRIA1KnQ8aV79PbRJtb429AAVQHUhgQAqU2v1y8EYKhxVeAKAQmRACAVa/htQh9j+8DmKjFXAECDFKtx5WqsEAQxcyyLB1UhMioAiKVYjSVR5o+lmvp4VMcnlB3e5Gcmpn9uO2Gbzw9s+NrpaxGEGIZieACRkABgkSaz+a3MH4TdqKbi7tUo1z5OvjZrI16H6WTAPlqycMbax8nX6NXuTrUaPZEIYIFIALAIjO/PzhrvSuNHzR6e+vfk620QtD4hOG/q35w/26s0TgTYdhh7RgKAvaDh35o16NawX6dxL94+VuKmvZPppOCctY8kBieqdHxooBKwCyQA2A0a/vUqjRv7oca9+kPiprxoQeNEYJIcHBTDTKYSiQB2iQQA86DhX9+zH64FO7rVw87BQuNk4AK1u1JQiUQAQAR2U7UZ/UeU11KqRUSp8ZIsS3yYwOafHaOuxktP7dh5P79inK9LojoCYI/a2PDba13WuBEJQu6Cxseyr3YlBKXGK3IAYG5dtaPht9c40LiHH4SmswqBHWs75jmcnyQCAJIpVuNa5XWT281N8fK118okxnYr1I7qQCkSAQBbKNTsXtFA9PKxvaDmVwcG4hoAsMZ6wJcpr5vYvI0+vXzMK2g8DGbnUA7n+ryxLBIBoNWW1Lxx/oFo9LFYQc1MBkqN7wEAWqRQs8Y8B6LRRxpBzUsGSjE/AGi8oObcuEqN90Sn0UddgsbnoJ2LOVwzO8WyGBYAGmlJ+Zf77e+fzN4HPCk0Xk3QhCG1JQFohEL591AGosSPPNg52lX+S2lLsfMlkK3cZ/fT20furAHtK++qwLIYFgCycpHyvelYz4nePpokaFwVKJXXtTiJUkwSBNwLyneS30D09tF8hcYPKsrlupyOZVENAFyyXnNuvf5JmZ+xRrRN0Hh4IKfr1aIU1QDAjaD8ev3W8PdEmR8IynMp4bKoBgC1ym2sn4Yf2FpXeSUC9rd2BCApa0BzGkcsxY0CmFVXeSUCy6IaACRRKJ+bg/2dHQHYja7yutYLAYgml3X9djPoCMAidJVPIrAkAAsVlMfOYjbG3xGAGLrKIxGwvzEIwJ7lsLyPyX1AOl35TwTsnvAOAdiVHLbypeEH6hE0vvY83x8slsX9AZhLkP8MnwsbqF+Q/w2FSjEkAMzEe8l/IGb7At4E+d4QjCEBYBveS/6laPgB77ryXT28TADWCfI7y59xfiA/Pfm8n0w6E0EARr1qryX/gbhQgVwF+Z0fUIqKIlrOxvu5OAHE1JXfYYElAS1j5fRl+bwge6LcDzRRTz7vOcwLQGsE+RzvH4hyP9B0QT6rAaW4/6DhDsrfxcfyHKB97Jr3NveoFEkAGqojfxfcQFxwQFsF+ZskaPfIiwQ0yJL8XWT0+gGYrvxVJpcENIC3zX0GotcPYL0gfzsJMjkQ2bKZ9J4uKHr9AHbibW7AlWJVEjIT5Gum/7Wi1w9gNkG+hgRKcf9CJoJ8XTyXCwDm15Of+1gpkgA452mZn/0dhQBg9wr5uqcdFOBQIT9jZ4ybAViUID/LBe0eSxIAVzrycXFYMNEPQAw9+bnPdQQ44OWBPqXIjAHEFeRnSIDODmq1JB8XwkCU/AGkETQeZvRw71sSUAM78TxcAD0BQHo9+bgHLglIyE64uk96mwxTCADqY/v2lyIJQEvYiVb3yc7GPgC8CCIJQAvYCVb3Sd4X4/0AfLF7Ul8kAWgoO7HqPrl7AgC/eiIJQMPYCVXnCW3j/V0BgH82L6DuTdGWBCyAnUh1nsilWN8PIC9B9c8LWBKwB3YC1XkCM9kPQK6CSAKQKTtx6jxx2c8fQO7sHlb3pkFLAuZQ9/a+PMIXQJP0VO89lW2DMZOO6j1RewKA5ump3ntrR8A2bLJdnScoWSqAJrN7XJ332ELAJqzxr2vpCsv8ALRFV/Xea1lVhXWC6putygkJoG3q7HCVYnUV1gTV1/jb76XxB9BGQfXee4PQarZEhRMQAOoRVN892PZZYal1i9W1PrUUjT8AmKD6koCB0EqXicYfADwIqi8JuExolSXR+AOAJ0H1JQFLQivYk6po/AHAn6D6koCO0GhB9Sw9KUXjDwCzCKonCWBJdoMF1XNS0fgDwHyCuF9jgTiZACAfQfXct1ke2DB1zPgvReMPAHsRVE8SsCw0wpJo/AEgV0H1JAE8nC1zhdKfNDaRJAgAsCh1PTugELIUlD5rZBYpAMRRRxJAhy5TpdKeKBZdAQBi6Sr9fZ1JgZmpY9If40UAEJ/da1Pf39kuOBOXKP3J0RMAIJWe0t/n6eQ5F5R+jKgnAEBqlyvtvZ75AI7ZGE2ptCfElQIA1CX1I91LMR/Apb44EQCgTewebJP0Ut77mQ/gTOpx/1KUggDAg6D01V/mAzgRlHbcn3EgAPAl9R4BtANOlEp30C0uEgDAm67StgXXCrVaUtoD3hMAwKue0rYJzAeoSaG0B3pZAADv+krbNhRCUkFpS//2u5jxDwD+pV4ZQPuQWF9pD24QACAXQWknBbInTCJdpTuoFkz6A4D8FKKtaJSgtKX/ngAAueopXXvB0sDI+kp3MCnpAED+BkrXbgyEKLpKdxBLkckBQBOkfk4MuwQuWFDaAxgEAGgK2ykwVfvBUMCC9ZXu4PUEAGga65mnakcGwkJ0le6gLQsA0FQpHx/MqoA9CkpX+i9F2QYAmizlfIAjYoOgPekrXbZWCADQdIXStSs8K2CXUk7a6AkA0BaXK137UghzK5Xm4JQCALRNqucF0MbMaUlpDgzLNQCgnYLSPS+gJ8wkKM0BsWDDBgBor1RLA+lszqivNAdkIABA21lbQJvjQFdpDkQpsjEAQNqhgELYkjXMKQ5CRwAAjKUaCiiFTS0pzQFYFgAA6w2Upg3qCesEpen9MxEDALCZoDRDAewQuEFfaTIvZv0DALaSaiiAHQLXBKV5w0sBALC9gdK0SYWQ7M0OAgBge0Fp2qSBWq6rNG90TwAAzKanNG1ToRo9SvUqFb9nXq3GOUITnb5FzKpa+3h0LSoBwPg+Ys8KCIrr0Gqcr5rsV326SlOW7wm5Cho/FfKAxkncaWuf76axn0e1FpYUHNY4Ub1u7fNDAtB0dq3/juKX6e1+1lmNK1SDOisAKXr/fY0PInwLGpfCJo39Qfmes2FJQKVxUjD5N4kB0DyWABSKy5KNc9Y+tkJXacZXguCN9dov0vh53HZxpdqCM3YcWXs9l6+9viAAuQtKc4/qqSWC0mz60xM8sAa/q3HDmOK4ewobQ1wWCQGQs57i3ytasznQkuK/maVQp0Lj4zxQ2gY3h4TgcrH+F8iJNcyl4t8fekos9RyAoHGjEBRXVzVNqmgpu0Bs3N56uh2xzeUsqtUYrsbVq3GVgGYo5CvBtYZ7EW1BofgTAhs/F2BJ8bOo2AcJxxUa92ibMo5fV9j7tywqA8jfQL6urY4WJ8Vr66mhgtKUUYIQU6FxIkejHydKjZOBICAvQf6up6DFKaTof29j5wIsKf6btyzEYCfkJWJMP3XYnIGOgDx05e/6WbS+FP3v7qlhguj95yiI3r6HKEVVAP4N5Ou6eYcWzzpDse+HjasCLCn+we4Ji1KI3r7XuFLMFYA/Qf6ulaA4elL0v72nhgiK3/svRe9oEQrR8OcSpRgegB9d+bo+YpT/J6gCzKGr+Ae7I+xFVzT8uUYpzn/UbyBf10VPcfUk5f4akigV/waI3SnUvt35mhqlSARQD+uperseDiouqgAz6Cr+ge4I8ypEj7+pUYprAml15e8aSKErKfZriTGRMRk7EE040E1hWfFA6S9IIn0MxLwYpGETUz2d+5crnVJxX0upTHUV/0B3hFlYGekypb8QifpjWSQCiKeN5f9pXcV/PYUyNFDcN6UUZmEb+LCOv91RKvNSItyy5394O9dTKxX3NQ2UGcvAYh/ojrCdQpT7ifVRimoAFqsvX+f4stLrKv7rKpSRvuLfyLA5yv3ETmHnB09sxCJ4qy4WqkepuK/rSmUiKP5B7gibKcSyPmK2KMWOgtgbyv/HdRX/9WWRtPfV3IPsFb1+YrdBNQC71Zevc3lZ9YpdDekpA6XivgkdYZrNt4j9nhPNjlLMDcD87LzxdB4XqldPcV+f+42Buop/o8JxNsN/hSAWFEsCZlPI17lbqn4pdgfsyLGB4r74nmDsRIv9XhPtDJtsFARsry9f5+2yfOgp7uscyKmg+Ac5CIUo+RNxo1TazVSQHztHPJ2zF8qHFFWAQg71FfdFLwuU/ImUsSTgRIV8nadH5IttRRzz9abc6ngmKbKeoPZilj9RV7BKABv15escXZYvsTfCczcZsKu4L/gqtVdYjWuV/qIiiEmUYvgNx9n54On89FL+nzZQ3Nfsamvv2C+2UDuxxI/wEqVIAuCv/L8inwrFfc0DOREU/8bTRrbLFg/xITyFnY92XqK9Yo9vzxueq8OxK7d7nqi7T3vXU1w9tY9N9rPlWIy9whM7H+28XBLaylu53fMe+VcoLhfJeKm4PY6gdrGb6wpBOI8loW1SPOV13vDcSYo9Ob721Q+xHwaxrHZZUvoLiCB2G0tCm1D+n1/s96xQjfqK++LatBkJy/yIHGNZaAtvq5E68q9Q3PegtiGQ0xX3hV2r9lhW+ouHIBYVy0LTBfk774LyMFC892BPewLsZRJg7AkI7nY7imRZ430UgFx1RRLQdN5WfwxXo1IerlY81vh3VQO3WU1G7Ka5QhANiWWhqSj/717syYADJRbEjWSvGPMnmhjLQtME+TvPgvISezLgrjrMux0CKBRX7PWTdVuSs60cgQXpitUBTVPIl6HyKf9PxF6x0FVCA8XLZEo1m90cVwii4bEkNMVAvs6tjvJUKt57MlAiQXEPbk/NtaT0FwtB1BVLQu6C/J1XQXnqKe77kmTeXFeK+iKCmin2pkkE4TE6Qs668nU+5bw8PPbS+STDygMp2gsYqJlsQyMe7EO0Mey8b9OGXk0zkK/zKfe5UzHfz4EiC1K0P96io+YJ4pG+RLujFI8SzlGQv3MpKG+WwMR8f+YaBph3FUChuL6oZrGDMRA3P7Rb0Pg64OmWeSnkyyHlN/t/o77immvDpnkTgJiPghwq/4O7ka39DAIQNN77AvnoyJeYO+qlclTjti6WqMcs5ji2t5Ntr5ZUT4mMIDzHkpCD2BPWdhNNmUsScxgg2i66hRTtj7YIao5C6S8OgsglCsG7rnydM6WaI3ZyVWhG8wwBdBXPUM0p/wexHSqwHXuEaRA8izncuxtNKP9PxB4GiPLgJsvAYmUsHTWHt4dmEITHGAheUf6PL+YwQKkFO6h4f6xFUDMsKf2FQRC5BpMCffK2aVmp5omdZIVZ/ohZhwAKxTNUM8r/liT1BGBW1gsqBG+ilJD3YKjmcTEMMGsCEHM8qAljO0HjcU0A81kW+wN44238v6lPh43Z9i30GNZeqnCur/RlMYJoSiwLXlD+Tyco3vs203LAWSoAheKplH/5vyseeALsRVf+ys5tRfk/nUrx2j9r/HecODlLAhDzhBgqb0FsbAIswrIYCvDgAvnS1PL/RMxhgB3b7v3aWcwTIveD2xPrmRfqrLPO0m7ce++9o4j1O+644w4hKmv8LZl+p1CXQr7uZ5WaXQEwV63GJYpjx7b7UTt83y7KI4pnp9/vWSHWMi/ct7/9bZ199tma1wc+8AH92Z/92Y4/F0LQ9ddfr3kcPnxYL3zhC4UkXqnm3/S96svXcGZ/NX5HzWZtbKl41a8zNF5xsKmdKgCF4hkqb0xciuDUU0/V4x73OM3r0Y9+9Mw/O+9//7GPfayQjF1X52ubmxai8Vb+v0rNZ+e5PeWwUBx2TLccZthpDkCheHJe/melyiAAixY03h8AaRXydU+zhrFJ2/9uJ+brfOV239wpAYiZEQ6VpyA2/AFisjHRIKTUlS9t6P1PxHyt27bh2yUAMy0j2KVK47JHjnoCEJPdexhiS4vyf30qxRvysjZ8y/kF+3b4P8YyVJ4KseYfSKEQ2wSnUshfxaUt5f+JmK93y7Z8uwSgUDxD5YleCZAOe2yk4W3zn7Y1/maoeLY8vtslADFLQl9UfrpiXBJIqRAVtxS87f3fxueqDBXPeVt9o44hgEp5bv9LbwRIryd2CIzJ7vNBvrSxAlApXrs49xDAthMH9ug65acrev9AHYJYFhhTV75Y49/WPSBiVca3nNC/XQIQS47lHXr/QH1sWSBVgDi8zf5v82PVY66MKzb74r55fnhBcqsAdEXvH6iTNf5UARYvKG5nbzdynB+2KEPFs+k8gH3z/PACTLY9zAm9f6B+VAEWz+Ojfyu1l7WNMfcDOEHqIYDcGv+u6P0DHlAFWDxvKyz6Qqw2ctN5fZslAIXiya28Q+8f8CPWY1PbKIjyv0cxh8jDxi9slgDEPCmuVT66ovcPeGI9GPYFWIxCvgzV7vL/xFDxFBu/sFkCEBRPThkevX/An66wCJT/fRoqnhPm9u2b5YcWpFI+6zsL0fsHPCrEMwL2Ksjfe0j5f8zayEpxnFDdTzkEkNPyv64AeEV1bm8K+WIT3yphItZEwLDxCxsTgJg7AOayAiCIcUbAs0IsCdwLb/e3K4RpMXcEDNNf2JgABMWTywTArgB4x5LA3QnyVwG4SphWKZ51Q/z7N3wz5gqAXIYA6P1v4lGPetS2319ZWVHs37Gdpz71qXr5y1+uk08+WaeccsooHvOYx4w+P+mkk7Rv375RnH767juO9vct4nViIWxJYE+YVyFfKP+fKGa1/JzpTzbecW0f5hi7Q9nEhjPkn732Nu9FvSlr+P7yL/9SRVEcawAfeeSRTT8+/PDDo5/Z+HHy/WnWIJtJQ71//3699KUv1W5s1zDvJbEw99xzj6655hrdeuutuvHGG/Wd73xHt99+u77//e/rtttu07333ivU4pWKO2u6iQbylQRcKhK5zRxRnGGu/mr8zuSTjRWAoDhyGf/3tjWmG+eee65e8pKXyKu9NvLbecITnqBf+qVfOvb5dLLxwx/+UDfddJO++tWv6ktf+pJuvvlmXX/99XrwwQeF6Gwy4FCYlTUohXyh/L85azMLLd62Vf6VSHG5/AuK9/qzjtXGdeWzn/3sCra3WuUYffze97638rnPfW7l7W9/+8ozn/nMrI51hsFkwNl15evYlcJWrM2M8Z4fmf4l05MAY47/V/KvELAHkyrEM57xDL32ta/V3/zN34yGDP7zP/9Tb3zjG/XoRz9aWLiuMKsL5cvVwlYqxbFuJcC+Dd+IJYchgI6ABbKE4HGPe9xo+OBTn/qUbrnlFr3nPe/Z00REnMBbo+aVnXTehjj7wlZitpnHVgKkqgB4TwCCqAAgMlup8IEPfEBlWeqP//iP9RM/8RPCnhViGGAWhXyplN/TYVOqFM+xlQDTCUBQHEflfwvgQkAiVgF4//vfr6985SujoQHsWVfYibfe/1DYTqV47WaY/GM6ATigOCj/A5v4yZ/8ydHQwMc//nE9+clPFnaNYYCdeXuP2P1vZ5XiCJN/pKgA3C3fgqgAoEZvfvOb9W//9m96znOeI+xKIYYBtmO9f0/vTyUqALOItXnepnMAguLwXgEoBNTMNkD6/Oc/P5ongF1hD4+tUf7PU6U4jiWD+6a+ECtD9P4MAMqHcCGEoMFgoKc//enC3EgAtnaBfKH8P5tKcRxr7ycJQMwVAN6HAAoBTjz/+c/XX//1Xwtz89bIeVEo7kPe5lWJCsCsYlbPg/3PdAUglkp+FWLsEM786q/+qn73d39XmIvHbW496MqXoTCrmKvnRpP+J88CCIqnkl+FMBN7EI7tcb8d2/jGHuxj49i2AU7M/fmb7n3ve99oYqDtGYCZFaKB2chbZYS9/2dXKZ51TwXsKc6+w97H/weqZw/sRsfTnva0lU6ns3LNNdeseGX79k/27vfq0ksvzeq4O4iBMK2Qr+NzRJhXqTjHYvR8nkkXLdZjgIcaP7LTqxUhqre97W26/PLLR5WBmD7zmc/o05/+tB566CE98MAD+vGPfzwKexyxfc2ezmd78VucccYZOuuss0bx+Mc/Xmeeeaae/exn61nPepZWkxc3lYujR4+Onitw3333CTOxkuk58r/xWCp9+drjpK+pR9FiJgPFqVT3NXUs7JfEyDKW5VeherLg1sVv/dZvrcTW6/Xm/rvsKYcWk89POeWUlXPPPXfl9a9//crf//3fr9x55521Vgnsd1988cWuj63DKISJUr6ODSuu5tdXnGMxsP947EmAh+VXzJUPmPKJT3xCw+FQ3qy2saOYsMrBTTfdpM9+9rN6y1veMtqr3x7k88///M9abYyVmlUi3vSmNzGXYj5c12OFfM3+Nzz9b35RtwPeN/1JBJ5LcRcIyfT7/XWNbQ5s2MASF9uv30rxtmVv6tfwspe9jH0B5lMIxtu+CDT+u1MpjnX7AMSqAJTyqxCSufnmm5Wz22+/XZ1OR6973ev0ve99T6nYHAXbIAgzI7Ef81Zuv1LYjVid6GMJQFA8XjcBCmL9f1L33nuvmuBf//Vf9epXv1p33XWXUrDy/8tf/nJhZnZdB7WbDYME+UIFYHcqxRMsAWjjJkCME2LXvv3tb6vb7SqV5z3vecwDmE+hduvKF2v8WZmxO5XiOT12AuD1oJMAYE8+97nP6R//8R+Vgi1PxFzafn17Gwah/L97MdvQ1iYA5wnYoz/8wz/U//3f/yk2W42AuQS1V5C/BOiLwm7FbEOjDgFU8isI2CPbHtk2IIrtKU95SnYrKGrW5gTf46N/K2EvKkUScxKg5zEfhgCwEF/4wheiN86PfexjhbkEtXeSb0e+9AWvwj7Fw/g/Gu9rX/uaYqP3vytB7RNE+b+JKkUSexmgR0HAgnz3u99VbD/60Y9YBTC/Nib6hXwZivL/IsTqTB+IWQGo5BMVACyMPXDo/vvvV0w/+MEPhLkFtQ/l/2aKtp+OJQAH1C5BwILs379/9ITBmGznQYYB5tbG+1ohXyj/+3ZGzAqA1wcBte3GgIgOHDigk046STEdOnRImFtQuxTyxU7aSliESnGcFjMB8IotgLEwtklPzPF56/l/9atfFeYW1C7eyv9XCO7F3gjIoyBgQYqiUEwPPfSQrr/+emFubbqvBfmrAFwleNe6jYBOFxUALMjTnvY0vfWtb1VMX/7yl3X4sNfRNNfadK0X8oXy/2JViqRtQwA0/liYiy++WGeddZZi+tjHPsYEwN1ry/XurfzPk/8y0bYEIAhYAHtE75/8yZ8oJttq+N///d+FXQtqPktyCvlC+T8TbdwICNiT173udaMtgGMv//urv/or/fCHPxR2Laj5vO39X2k8BAD/Tm/bRkBBwC6dcsop+vCHP6yrr75aT3jCExTTDTfcoOXlZQE7uFC+UP5fvFg7AZ6+X+3CHADsys/93M/pox/9qF760pcqtkceeURve9vbdPfd0TYAa4umX+/2+rxVAPrCokV7rg4JALCNV73qVXrnO9+pV77ylcmeyvfud79b//Vf/yXsWdOv90K+VKL8n5W2JQDAls4444zRuv5zzz131OBbr//xj3980gfx/Pmf/7k+9KEPCZiBt97/UMgKFQA0gi3He9GLXjTaOMfi4YcfHn193759Ovnkk0e9d2vMn/jEJ47i1FNPHX1ujf5P/dRPjWb1P/vZzx79f+p48t4DDzygD37wg1paWhIWpunbfnsb/2f3vwytRIpC/vQV7/US28T555+/sjq2vZKC/Z7VBGAUk99pHycx/XOp/qbt3HPPPSvdbjer45lJLKu5rPfv6b0uhVgKRTpuDAGgcawHv7EXv1mvvo6e/kb//d//rd/7vd/TN7/5TQFzoPyPPWvjw4CA2tn6/t/8zd/UL/7iL9L4YzcukC+U/zNEBQCogc1B+P3f/309/elPH834v+aaa9jyF7Mq5GtPk0pUALIUMwE4TQA2ZZMSf/7nf34U1vB/4xvf0Mc//nF96lOf0u233y5gG135MhSyZEMAsTYZOEMAdmRzEV7ykpfoIx/5iG666abRMsAzzzxTwBa8lf/Z+z+uoEhiJgAA5mRLFN/1rnfplltuGS0J9DBREa4U8lX+t/aD7X/zVDEJEHDInjvQ6/VGQwPPfe5zBazpyhd6/xlrWwJQCcjIwYMHR6sEXvva1wpza+LDFCj/Y2FiJgBBAPbMdjL8l3/5F733ve8V5tK04c1C/u6rlP/jC4rjqCUAlQC4dtJJJ+l973uf3v72twut5W3zHxr/vB1lCADIhD3X4G//9m9HDyrCTCo1i7e9/68Usmb7AMQqkx0QkNgjjzxy7IFA0w8Gsq9P7N+/fzTJztbiW6Nqpjfh8T7z/pOf/KRe8IIXjHYTRGscFOX/tgqKxBKAJk6U2UolNJKtob/88suPJQDW6G+VAFg5ffoJgfYkQQt7MuBpp52mJz3pSXrxi1+sF77whTr77LNH/x9PSYH9rR/72Mf0a7/2a8K2KjVHV75Y488S8rxVMXcC9LgRUCU00tGjR1VV1Tz/l2M96BtuuOGE71mDb1WBZz3rWXre856nV7/61XrDG96gAwd8FLZe85rX6BWveMXoYUJoBW+z/yn/pxPtphNzEiBbASNbkyGBm2++WZ/73Of0B3/wB6P1+C972ctG6/MPHTpU6979j3vc4/Tud79b2FalZggaDwF48kUhd4fbtgywErBLP/7xj/W1r31Nl1566SgRuOiii/T1r39ddXn9618/Gg7Alio1g8dH/1ZCKqcrkjYuA6wE7JHNLbC1+S996Ut18cUX66677lId3vKWtwibatL4dEe+9IWUYiUAVRs3AmLiChbq7/7u73TBBReoLEulZvMAeF7Apg6pGYIo/7ddUBxHYlcAopUu9uA6AQv27W9/e7Q+/4477lBKP/MzPzN6gBBO0JTVTYV8GYoqakox29C7Yz8N0GMCQAUAURw+fFgXXnih7rnnHqXylKc8ZbRKASeo1AyU/9stZht6NHYCEORPU0qDcOgrX/mKlpeXlYqV/88991zhBJXyF+SvAkD5P62geKI/CyDIHxIARGXLBP/3f/9XKdhSRFYCbKoJ13khX+w9rYSUYlYAjk0CjFUFYAgArXPkyBFdccUVSsEqALZ7IU7QhATAW/k/zUmNaUFxjNrB2AlAkD+VSAIQ2ZVXptsozbYzZiXAOkeV/zUe5K8CcJWQWrQlgPY/+6Y/icBr14RhAET1rW99S3feeadSOPXUU4V1KP8vHuX/egTFsa4CcFhxBPnEUkBEZcMAd9+dZiXa5ImGOKYJ17e38j9P/qtHrOcAjG5ObRwCMFQAEN3999+vFGyLYqxTKW9W9i3kC+X/esQaAhi1gbGHAIJ8IgFAdKnG5e+77z5hndyvb297/1finlmXWLtArhsCqBRPkD+VmAiIiPbv359sdv6PfvSjWp9M6NBQebtQvlD+r0dQPKN9y1MkAF6XAlYCIjn77LP19Kc/XSmk3HkwA7n3VO1+6a0C0BfqEBTPujkAleLx9iCLCXa0QjT2qN4Uk/Os559qtUEmcr+uC/lSifJ/XWJ2ntfNAYi5bjbIJ05qRGEN/5vf/OZkcwDsQUQ4ZqC8eev9D4W6xBz/XzcHYPLFGGItY9grZrUiil//9V/X+eefrxTuvfdeffe73xWOyX0JoLfxf3b/q895iqOa/GM6AYjVI/Y6BMA8ACzc0572NL3//e9P1vv/5je/yRyA4yrlfU1b79/TnKlKVADqFOtcOLbvz77NvrhgQX4xuxULY43+hz/8YZ1zzjlK5atf/SorAI4bKm+U/zEtVue5mvxj32ZfXDDLYoJ8Yh4AFuKUU05Rv9/Xm970JqViDf+Xv/xl4Zjch/UukC+U/+tzuiI/B8CkSABMkE/MA8Ce2Xj/ddddp9/+7d9WSrb+//Of/7xwTM7j/4V83ScrUQGoU8yh82Md3xRzAIzneQBDIbrHPOYxjXti3U//9E/rE5/4hL7+9a/r3HPPVWpf+tKXdPQo+1mtGSrv8f+ufBkKdYrZZh67aeyf+mK19o0YZYcgv2zdcCFEdfDgwVHJOvckwJb4/fIv/7Le+ta36ld+5Vf06Ec/WnVZXl5m/P+43Nf/eyv/Ux2tV1A8xzr7+zd8o1KczCPWcoZFGK7GkhDNq171qqQz4xfB/lZrXG1L3wMHDugXfuEXRq/jNa95jc4888zaX8uNN96oK6+8Ujgm5warkK9OknUEmSBdr1ht5rpK/8YEwMbQYiQAXocAzFDxKh+N87rXvU4vf/nLd/y5k046SWeccYZe8YpX6DnPec5oCCC2SaO8Xa94s5+ZfM327n/+85+vF7/4xXruc5+rn/3Znx1t5/vUpz5Vj33sY+WJ9f4feughYaRS3hN6u/KF3n/9YrWZ61b7bUwA7CKK8RzqyUqASj7ZbNdLhG1ZQ/mOd7xj1BOe5WdTeuMb36gXvvCFo0ZxOh5++OFjPfmTTz551JBbMnL66afrKU95ik499VQ98YlPHH3dvj/p+XuuVtxyyy366Ec/KhwzVN4o/2NaUOTHAE9sNgQQy3nymwDYCU8CMIOzzjrLZeP4ghe8YBSL4H2o4r3vfa/uv/9+4Zicl6sV8jdHivJ/vWJWzK+d/mTj00piltHS7Y4yv6F4PPCOHv/4x+uZz3ymUJ/Pfvaz+uQnPykcUynvCoC3zX9o/OsXMwFYNwSwMQGoFK8hLOQbm17s4FnPepae9KQnCfX4n//5H11yySV68MEHhWOGypu3vf+ZWVq/WBMArW1f18nf7HmlleLwvBLAMO61A5scx7KzethchosvvlhlWQrr5Jy4W08vyBcqAPWLVQE4ocK/WQIQazetIN8z7Ydi84ttveQlL2ncZj65+KM/+iN94QtfENaplPc125Uv1vgzFFqvmFvnn9C2b5YAxJwH4G2260a5byYSlQ0BIC1byfCe97xHH/rQh4QT9JQ3b/dDyv/1KxRPtfELmyUAQ8XzSvl2ubAp6/k/4xnPENK5++679Ru/8Rv64Ac/KGwq54Q9yN/+KHSA6pfkGQATKecAGO/zAHg2wBZsnbyts0ca11xzzWgTpU9/+tPCpqxcXSlfHh/9Wwl1i1kVGm78wmYJwAkzBRfI846AE5cKJ3jRi15U6773bXHXXXfpXe9612i3xeuvv17YUu7Vuhgbru1FX/Ag2QRAs2+LH441EdAmOHhPAobKe1vRKKz3zwqAeO677z79xV/8hV72spfpsssu473eXqW8K3VBlP9xIjsnkuwAOLF/mx+OlaEW8t/AWnkxh2pFMs973vNYARCBbev7mc98ZjTOf9tttwkz6SlvhXwZivK/BzHbnOFmX9w/zw8viPd5AMbKi7Y1sOdli8lYw3/22WcLi2Eb+Vx11VX6h3/4B/3Hf/yH7r33XmFmNkSZe2+V8j82E3NTqLmr+kdWYyVC5LKTSU9xXn92sZoArNxwww0rmN8jjzwy+njHHXes/NM//dPKG97whpUnPOEJWR1/Z7GsvAX5e0+D4EGpOMf3yFa/cLua7kDxSlX2XIBKvlnv/4igM888c7QNbYpH+uZoZerpgda7v/POO0eT+b71rW/py1/+8mj//qqqhIXI4d6xna58JTE2HHu+ULegeJ3jobZYgr9/m/+TlQwKxVHIf9nJSo22zWhHLWdLAK1cvVennHLK6PG79iheSybs4UIW9jje0047bbTKYC/zDFYiPsZ38t+2jXmOHj2qH/zgB/r+97+vI0eOjD7/zne+oxtvvHHU6N9666164IEHjj1aGAvTV/5j1d7uJzwDxYdC8Ww5ZLbd3bLQuAoQQ381fkf+BeUzZOHepHGebhQnX9u/f7+e/OQnj3rMIQTNy9bLX3311Tr55JN10kknjWLy37aPk39b8vGnf/qnmoc19jY73zbmsfF625d/u9eEaHLv/Qf5u5/k/p42RV/xkkPr/Q81JyuBxxpzyqm0bknQCpEmyrJc2Y1er3fsv2FzFraK1eRiZV72N+X0HjY0lpW/rny9p9cKXpSKd5y3nMy+b+u/J+qGQDEfeLBobAyUGeuNbxXIVhOuw4584cl/PsR8KqS14Vs+4Gm7BMDEXG7jbSvMrQzFOBlQp77yL1Nbp6eQL1cJHhSKZ9s2fKcEYKh4Yq55XLSeANSlCb1/bx2eSux46kXMtnCw3TfrTABibnu4aNVqfEQAUuurGZPUvHV4KP/7USiePVUAYs8DyGm73Z62GUsBEEUTev92r/NWAegLHhSKZ9vxf7NTAmCYBzBmbyRVACAda/wr5a+QL5Uo/3vRVTw7tt2zJAAxJ4rkNA/A2DMCKgGIrVL+j/yd8NbRGQpeXKB4dmy7Z0kAdiwj7EFQXvtQ2/vwTgGIrafmDLl56+iwqsmHoLjt33CnH5glAYg5D8DkNAxgLKsaCkAsdr9pSiNl9zdPk50rcf/yImbbN5zlh2ZJAEzMGaO5DQOYHLYxBnL1/9QclP+xlZht30xt9qwJQMx5AIXyWQ44UYkdAoEYmjLxbyLmGO9uUP73ISju5NDhLD80awJQKe5F2VV+mBAILFalZm26VcjXHKdKVAC8KBRPpRmH7WdNAAzDAOvZ3AiGAoDFadr11JUvQ8GLmM+FGM76g/MkAAwDnGgo9gYAFqGv5jVQ3sr/7P3vQ1DcCsDMwzzzJAAxlwOarvLUE0MBwF5Uat7y2kK+yv9272b7Xx8KxWPHeTjrD8+TAMReDpjjMIBhKADYG7t+mrbNdle+0Pv3I2b5f66de+dJAEzMGaSF8hwGMEMxFADshs36H6p5KP9jM0FxKwBXzvPD8yYAsU+irvL1DrG/NjCPSs181HYhfzucUv73oVBcUSsAc40v7EKuwwATtoFJ00qZQAx2nbxSzeRt8x8afz9iz/6v5vh57df87GQqFEeh8TBAro1opfFkpmVhV77xjW/o9ttv17xuvfXWmX7uwQcf1Fe+8hXN47bbbhMWzipmlZrJW0dmrrIwogmKWwHoKwFroFciRk/5s02CVgiC2DSa8pS/zRyUv/c717lVTWNJb8zjHJTIQIr2Iko1w7Wq52InCM9Rqtm8Jf9M/vPDzv1Yx3mgXZh3DsBEzDGloPgTJVKw+QCVAExUau64/8QF8oXyvw+F4vbQ+0oo9jBAU0qEHsuBBFFX2PXQZEH+3vMgeNBXw47zQPFezBE1Z9wq9rgPQeQQdh00nbdrfSB4YG2ZtWnujvNuhwBMzGEAe8O6agarZvDoYLSZnf9Nnvg30ZEvfcEDWxYas0PbVw3cZjVO9VVPL4Ag6oy+2iHI33sfBA9iTwivrVp+peK+sELNYQeJlQFEm8LO97YsQevK13s/EDyIPQ9sWXuwlyEAE3v/e287au3FZOezSkDzVWrXzpgd+dIXPIg996X2ZZ4xhwGaNBlwIijuelCCqDtKtav8HOTvGAShbkFx28dSe7TXCoCJWQVo0mTAiUpUAtBcldp3fhfyxR5KVgl1KxS3AzuUA7HHOK5VMwVRCSCaFaXa2fMcyNdxaMOSyxzY9RDzOAc5MVDcF1qomYJIAohmRKl2Nv5B/o5FEOpWKO4xHmgBFjEEYGI/bnJJzVSJ4QDkr1J7z+NCvlD+9+ESxdWXI7H3BLBo8jaiQVQCiDyjVLt7nAP5Oh49oW5BcY/xwibHL6oCYEt9rlBcXTVXJSoByE+ldp+3dhMu5AtP/6tfT3HZMXa3vLZQJlmPY0FUAog8ohRjzV35OyaoV1D84xy0IIuqAJih4i5LsMa/6bNbK417VIcE+GXnJxUr6UL5EnsuFnbWUVxDOb7uuoqb+bShCmDsNcbeZpkgdhN2XrZle9/txH4k+m6i6Y9bzkGpuMe4I8dSTAbsqT16Sn8TIYitog1P9JuVbVPu6diUQt264hhHb7SOqF16Sn8zIYiNweYy6/Xl6/gsC3UrxTFOUhrrqF0KMTmQqCcs4S6EjWJXOueNQqhTV/GPcVAmYo9fl2qfIJIAIm2UYqb/Zij/YyM7BjGP8bIyUij+Sd9R+1h1xcZhVwgicvTFZL+t9OXrWC0Ldeoq/jHOboLnQHHfkFLtZeOxKwQRIay0zXj/9kr5OmaFUKfY58NAGSoU/8TvqL2CGBIgFhulWEq2k0L+jhnq01X8Y9xRpuzk5OSPhyEBYlFh5xEl/5315eu4LQt1KhX3+JbKWIpSdUfoimoAsbuwkr9NasNsSvk6ft52I2yTruIf344ylmJjoFL0XEyQv94J4TvY1W8+hXwdv7btieJNqbjHt1QD9BT/QugJE11RDSC2D3r9u9OXr+O4LNSlq/jHt6MGSFEFaMszAmYVRDWA2DwY69+9Ur6OJeX/egSl6f0HNURP8S+GnrCRzei2E2mFaH1cK5aL7UUhf8cU9VhS/GPbU4NQBaiXTcYslf4GRdQfrOtfDG+rba4S6hAU/9iWauAOnD3Ff+OWha0EMSzQtqDcvzilfB3bjlCHvuIf254aKEUVwKIQthNEItD0GIgNfRbJ3ktvx5jELr2g+Me1VIOfv9FT/DdwIMyiUPztmom0MRAJcAyU/2Hs+op9bHtqMKoA/hQiEcg9BuKcj8kmUHo63h0hta7iH9dSLXj6Zk9p3khKZPMpRCKQWwxEwx9bkL/jHoTUSsU/rj21QKoqQE/YDRvv7CvtDY2YLwai4U/F25M3B0JqS4p/XEu1KLHrKf4baklGEHYraJwI2Im5QtQedj73xDmdGuX/dgviuC5cqirAQFiErvzdCNsSg9W4RAxp1SHI3/kQhJT6in9MS7VQV2kumEJYlMnwgJ2wK0S0sOTYZp4XQp268nVeDISUukpzXDtqqRS9ylL0nmLoavw0uRViYTHQ+CE9nK8+2PHwdH50hJRKxT+mpVqsUJoLpyfEEjROBgZKezNsQhwRJX6vgvydL0FIZUlpjmlHLTcQF09TWCNmPdi+GCbYKqzRX9Y4aaLR96srX+fNtUIqQWmO6UA1e5TqVyjNGzFcjVcKKRVrcYHaPZ49XI0vrn0cCjmwORjnyY+PiB0AUymVpsN4zmpUQrKtNnkqWn2st1toPBxjCV+KVSB1xKSs31t7vfTygXzYcFyK+8SyHPBQATB2kywV/2Z5dDXOF1mXFwen4ry1jzk1mHY+HVqN69Y+TgJAfoLGQy2x70GVxtXoSjXbLx/sRmolriXFZQfWMi+GAnzYrMG0YzRJCM5Z+zj5Wh2O6nhDf1jjRPXw2ueVADRFT2k6IFfIyb3DSwVgItXYyzs1HnZAXuziDFMfw9rXD6x9DBt+dquLudrk34enPj+64SOAZusqTVm+0rhjg00USjdOGwQAaLugdKuWOsK2BkpzIAYCALRdqjZnWdhRULoZ4qwKAID2SjXr3yIIM+kpzQFhKAAA2ikoXWezJ8ylVJoDww5bANA+qdqYUphboTQHx+IyAQDaYknp2pe6ljBnL9UOgRaFAABNVyhdu7Is7Jqt4041RlOKbVsBoMmC0pb+g7AnFyldtnalAABN1Ve69qQjLMRA6Q4aSwMBoHmWlK4dWRYWJijt0+OYtAEAzRGUrv0oRel/4axnnvIAMh8AAPIXlG7c36IjRDFQuoM4EAAgdza3K1W7sSxEE5R2KGBJAIBc2T08VXtRitJ/dClXBVgUAgDkJnVb0RGSSFnS4XkBAJCXoLTj/stCMjZBL+XBvVZMCgSAHKRuH+x3BSGpQukOMBkeAOShr7RtQyHUIuWzAiyWBADwyu7RKduEnlArK8+nPOAdAQC8ST3prxRqF5R2aaD9LnYKBAA/gtK3A0FwIeUugZPMLwgAULegtJP+LHhmjDOp5wOwMgAA6pV6xr/FsuBOHScCjw8GgPqk3BPGohQdP7eC0o4DWVwmAEBqS0p7r2fcPwOp5wNYLAkAkIrdc1Pf5xn3z0Tq+QCcHACQxiVKf3+/XMiGjdGk3h/AoiMAQCx2j019Xy+F7ASlnw/AHgEAEIfdW1Pf00sx7p+tQmlPFpIAAFi8oPSNv0UhZK2OSYGlyBoBYBGC0i/xtugJjdAXSQAA5CaonsafSX8NUtekwFIkAQCwG0H1NP6l0DhB9Z1MQQCAWQVxv8aC1TGLlJMKAGYXVE/jz05/LdBV+hOLJAAAdhZUT+NvcZHQCj2RBACAJ0H1Nf49oVXq2C6YJAAAThRUX+PPjP+WGogkAADqFFRf488j3VusruWBJAEAUG/jb7/3dKHVguo9AYMAoH1sVRb3XtQuqL4TkWcHAGibupZk0/hjU3WekPZ7OwKA5rN7XZ33Wjpc2FShek7KSbxDANBcl6jeeyyNP7bVVb0n6JIAoHns3lbnvbUrYAZ1PEKYJABAU12meu+pVFcxl57qPWFtfSpLVADkzO5hdi+r817aE7ALPdV74pZitiqAPAXVt88KjT8WoieSAACYR51r/Gn8sVA91Xsi29IVnlQFIAcd1bfMj8YfUfRU7wltsSQA8MvuUXXfJ3sCIuip/pN7WUwOBOCL3ZPs3lT3/bEnIKKe6j/JSzEvAIAPQfVP9qPxRzI9+UgCmBcAoE6F6h/vp/FHcj3Vf9JbLAkA0rN7j4d7YE9ADXrycQHYRhtBABCfjfcP5OPe1xNQo7q3DZ5EKZIAAHF5WN8/Cbb3hQtd+bggLJYEAItX95P8pqMrwBHLjD1MhrFYFtUAAIvhYT//Sdg9thDgkKfymP0dhQBg9wr5uqcdFOBYkJ8LxmJJADC/uh/hu7HxDwIyEOQrCeDiATCrIB8b+0zC/pYgICOexs0sbOyMWbMAtmMT/bzMZbIYiK3PkbHL5edimlxQQQBwXJCftf2TuFxAA/Tk68IqNX5kJwB46/Vb9AQ0iO3b7+0iWxbVAKCtgvz1+u0e2RXQQEG+JgdOLjjmBgDt4rHXX4plfmi4IH9JwOTiCwLQZEH+ev0WzPRHq3ibHDiJJQFoGptJb9e2x3tOX8z0Rwv15POCLMUkQaApCvmsOlow/IhWK+T34lwWZTkgV0E+y/0W7OkPrAnymwRYLAlALiblfm+T/CbBeD+wCa/zAixKMSwAeFfId2fC7nGM9wNbsDExr5m7xUBk74A3hfyW+y1YbgzMKMh3Fm+xLBIBoG7Wm+7L972iFPcKYC45XNgWS+LiBlLzPs4/CUr+wB54HxKYZPgdAYgtl4afkj+wIEH+hwRIBIC4usrjPsAsfyCCnvxf/CQCwGJ1lUfDb8EjfIGICuVzM7C/syMAu9FVXtd6IQDRBeUxQZBEAJhfV/k0/BZXiol+QHJd5XWjsL+1IwAb5TK5bzrsb71IAGoTlFc1YJIILImJQkCODb/FQFy/gBtd5VUNmMSyuJGgfQ5qPGEut4af5X2AU0H5VQMmYeOIhYBmK+R7y97tYiCSdcC9rvKsBqzo+DyBIKAZrMx/icbr43O4BjcGY/1AZoLyrQZMbjrLGpdKgRwVyrPMPx1s5QtkzBrQUnnddDaG9Zw64kYE/ya9/YHyusY2RimG5IDG6CmvG9BmMakKFAJ8KZR/b39yjfUEoHGC8h4WmI5S455WEFCPyRI+Oxe9Xy+zxEBcT0DjddWcm9bkxtURNy/E15QS/3SUoqoGtE5PzUoESAYQQxMbfQvK/UDLBTVnWIBkAIvS1EZ/EszuB3BMUHNvdpNkgDkD2E5Qsxv9yXVQCAA20VXzhgU2RilWE2DcAy407g3bOeH9vN1LXCvOdwAz6qr5N8VJDDTu+bHpUPMFHe/l575kb5aw19gRAOxCV+1JBFZ0vDrQEcMFTRA0PoftmLahwZ9u+HtinB/AHgU1c8XArAmBPaioIyoEObBjZD38ZbXzfKXhx8weJWB2QePeVEft7R0fXY1Dq/HFtY/Dta8hvckYvsV5Gjf+bW347Bz8iMbzGTgfMRMSAOxGEInAtErjZOC6tY+H1r6GxQkaN/AHNG7wD4pzz9DwY9dIALAXQSQCW5lUCiwpKHU8OeAmvb2wFtajP0f07LdCw489IwHAIgSNe2VLIhHYySQxsI/TSUGl9lQNgsYN+qQXf2Dq3zT026Phx8KQAGDRuiIR2IvphOCwxpO6Dk997aj83vhPX4uwFqdp3Is/beprQdiNSuNG/wrR8GNBSAAQS1fjoYFCiKHS+mSgWvt4eMPPaJvPNzNpxKeFqX8f2PBzYZOfweIMV+PStY8AkBUr7faV11Iqgqg7bOlpISAiKgBIJWi8PvkC0VsENsP4PpIiAUAdumJ4AJgYalwlu1o0/EiIBAB1ChpXBS4Us7/RLtbQ24S+q8T4PmpCAgAPrPG/SFQF0HxDjRt9ZvOjdiQA8CaIuQJolsnYvjX8hwQ4QQIAzy7S8coAkBNr9IcaN/xDAQ6RACAHDBEgF0NR4kcmSACQm6BxEkAyAC+GotFHhkgAkLMgkgHUYygafWSOBABNETROAi5c+8iyQizS5CFOk6V7NPrIHgkAmqrQeMMhVhNgtyqNN+eZzN6n0UejkACgDex5BJYI2ETCQsDmJr18a/C/KJbsoeFIANBGhcbJgCUFB4U2s0beGnt6+WgdEgC0nc0VKNaChKD5Jg3+cC1o8NFaJADAepYQWBJQ6HhCwITCPE1K+teJHj5wAhIAYGcHdTwpOE9UCbw6NBWM4QM7IAEAdqfQOBk4R8eTAioFaVgvvtL6xr4SvXtgLiQAwOJYEhDWPp439W/szsaG/vDax0oA9owEAIhvUh2YVAwOaJwcBFE1OKrjY/XWwJeioQeSIAEA6jWZdGgfLTE4Q+NE4fS1CMo3SZg07tVa3K3jDfzka5TtgZqQAAB5CDqeFEwnB+bA1M9MTH5Gm3xvJ5OGe1q1yfcOb/hepfWNPgDH/j+CmS9xTGJMagAAAABJRU5ErkJggg==;" vertex="1" parent="BE3_SHiMCwZjSVx6Z5An-30">
          <mxGeometry x="47" width="36" height="36" as="geometry" />
        </mxCell>
        <mxCell id="BE3_SHiMCwZjSVx6Z5An-26" value="&lt;font face=&quot;Tahoma&quot; style=&quot;font-size: 18px;&quot;&gt;&lt;span style=&quot;font-size: 18px;&quot;&gt;&lt;span style=&quot;font-size: 18px;&quot;&gt;Official&lt;br&gt;Grant&lt;/span&gt;&lt;/span&gt;&lt;/font&gt;" style="text;html=1;strokeColor=none;fillColor=none;align=center;verticalAlign=middle;whiteSpace=wrap;rounded=0;spacing=0;spacingLeft=0;textOpacity=90;fontSize=18;" vertex="1" parent="BE3_SHiMCwZjSVx6Z5An-30">
          <mxGeometry x="31" y="43" width="70" height="37" as="geometry" />
        </mxCell>
        <mxCell id="BE3_SHiMCwZjSVx6Z5An-33" value="" style="group" vertex="1" connectable="0" parent="1">
          <mxGeometry x="100" y="137" width="112" height="72" as="geometry" />
        </mxCell>
        <mxCell id="BE3_SHiMCwZjSVx6Z5An-3" value="&lt;font size=&quot;1&quot; face=&quot;Tahoma&quot;&gt;&lt;span style=&quot;font-size: 18px;&quot;&gt;Official&lt;br&gt;Addr&lt;/span&gt;&lt;/font&gt;" style="text;html=1;strokeColor=none;fillColor=none;align=center;verticalAlign=middle;whiteSpace=wrap;rounded=0;spacing=0;spacingLeft=0;textOpacity=90;" vertex="1" parent="BE3_SHiMCwZjSVx6Z5An-33">
          <mxGeometry y="42" width="112" height="30" as="geometry" />
        </mxCell>
        <mxCell id="BE3_SHiMCwZjSVx6Z5An-1" value="" style="shape=image;verticalLabelPosition=bottom;labelBackgroundColor=default;verticalAlign=top;aspect=fixed;imageAspect=0;image=data:image/png,iVBORw0KGgoAAAANSUhEUgAAAgAAAAIACAYAAAD0eNT6AAAACXBIWXMAAAsTAAALEwEAmpwYAAAAAXNSR0IArs4c6QAAAARnQU1BAACxjwv8YQUAAD8LSURBVHgB7d17rGxnXf/xD6eHlnJrC7SAYM9TuZRb6KmAeCF2IX+AILS/KEaiOCM0ATWxQCJiSNxTjCAqtGCi4Q/dU4IRidBWQlTQzBANEAr0NBTaJpS1jqW0tMVzSm3T0sv+7e/MnnNm77MvM3vP86zvs9b7lXzZZ1/o3jPr8nyf73NZjxKAHITVOH0twtTXzIG1j5PvT39Pm3xvFtXUv4+uxcbvHZ76/OiGqATAtUcJQJ0mDbqFNeTnrMZpU1+bt+H2ZJIITJKC61bjiMaJg31+SOsTCwAJkQAA8YXVOKjjDfyBtc9zbtwXZZIkWFhiUGqcKEwSBACRkAAAixN0vKE/uBb2tbY38nthSUClcVIw+TeJAbAAJADA/CZl+wtEQ1+HSXXAkoJJxWAoAHMhAQB2Zg38dGN/UPDo0FoMdbxiAGALJADAetaLtwb+otU4T8fH6pGfSaXgixonBUw6BKaQAKDtrHEv1mLSy0dzTScEFiQEaC0SALTNdA+fBh+ThOAqMY8ALUMCgDaYjOFfJEr62N5Q42TAkgLmEKDRSADQRNO9/At14q54wCwqjROCK0R1AA1EAoCmsEbfGvyO6OVj8WyuwFDHqwOVgMyRACBn1shbg28NfyEgneFq9EUygIyRACA3NPrwZiiSAWSIBAA5oNFHLoYaJwNXiyWGcI4EAJ4Vq3HJ2kfG9JGbvsaJwFUCHCIBgDeFxkv23iEafTRDpXFl4FIxRABHSADgASV+tMVQDBHACRIA1KnQ8aV79PbRJtb429AAVQHUhgQAqU2v1y8EYKhxVeAKAQmRACAVa/htQh9j+8DmKjFXAECDFKtx5WqsEAQxcyyLB1UhMioAiKVYjSVR5o+lmvp4VMcnlB3e5Gcmpn9uO2Gbzw9s+NrpaxGEGIZieACRkABgkSaz+a3MH4TdqKbi7tUo1z5OvjZrI16H6WTAPlqycMbax8nX6NXuTrUaPZEIYIFIALAIjO/PzhrvSuNHzR6e+vfk620QtD4hOG/q35w/26s0TgTYdhh7RgKAvaDh35o16NawX6dxL94+VuKmvZPppOCctY8kBieqdHxooBKwCyQA2A0a/vUqjRv7oca9+kPiprxoQeNEYJIcHBTDTKYSiQB2iQQA86DhX9+zH64FO7rVw87BQuNk4AK1u1JQiUQAQAR2U7UZ/UeU11KqRUSp8ZIsS3yYwOafHaOuxktP7dh5P79inK9LojoCYI/a2PDba13WuBEJQu6Cxseyr3YlBKXGK3IAYG5dtaPht9c40LiHH4SmswqBHWs75jmcnyQCAJIpVuNa5XWT281N8fK118okxnYr1I7qQCkSAQBbKNTsXtFA9PKxvaDmVwcG4hoAsMZ6wJcpr5vYvI0+vXzMK2g8DGbnUA7n+ryxLBIBoNWW1Lxx/oFo9LFYQc1MBkqN7wEAWqRQs8Y8B6LRRxpBzUsGSjE/AGi8oObcuEqN90Sn0UddgsbnoJ2LOVwzO8WyGBYAGmlJ+Zf77e+fzN4HPCk0Xk3QhCG1JQFohEL591AGosSPPNg52lX+S2lLsfMlkK3cZ/fT20furAHtK++qwLIYFgCycpHyvelYz4nePpokaFwVKJXXtTiJUkwSBNwLyneS30D09tF8hcYPKsrlupyOZVENAFyyXnNuvf5JmZ+xRrRN0Hh4IKfr1aIU1QDAjaD8ev3W8PdEmR8IynMp4bKoBgC1ym2sn4Yf2FpXeSUC9rd2BCApa0BzGkcsxY0CmFVXeSUCy6IaACRRKJ+bg/2dHQHYja7yutYLAYgml3X9djPoCMAidJVPIrAkAAsVlMfOYjbG3xGAGLrKIxGwvzEIwJ7lsLyPyX1AOl35TwTsnvAOAdiVHLbypeEH6hE0vvY83x8slsX9AZhLkP8MnwsbqF+Q/w2FSjEkAMzEe8l/IGb7At4E+d4QjCEBYBveS/6laPgB77ryXT28TADWCfI7y59xfiA/Pfm8n0w6E0EARr1qryX/gbhQgVwF+Z0fUIqKIlrOxvu5OAHE1JXfYYElAS1j5fRl+bwge6LcDzRRTz7vOcwLQGsE+RzvH4hyP9B0QT6rAaW4/6DhDsrfxcfyHKB97Jr3NveoFEkAGqojfxfcQFxwQFsF+ZskaPfIiwQ0yJL8XWT0+gGYrvxVJpcENIC3zX0GotcPYL0gfzsJMjkQ2bKZ9J4uKHr9AHbibW7AlWJVEjIT5Gum/7Wi1w9gNkG+hgRKcf9CJoJ8XTyXCwDm15Of+1gpkgA452mZn/0dhQBg9wr5uqcdFOBQIT9jZ4ybAViUID/LBe0eSxIAVzrycXFYMNEPQAw9+bnPdQQ44OWBPqXIjAHEFeRnSIDODmq1JB8XwkCU/AGkETQeZvRw71sSUAM78TxcAD0BQHo9+bgHLglIyE64uk96mwxTCADqY/v2lyIJQEvYiVb3yc7GPgC8CCIJQAvYCVb3Sd4X4/0AfLF7Ul8kAWgoO7HqPrl7AgC/eiIJQMPYCVXnCW3j/V0BgH82L6DuTdGWBCyAnUh1nsilWN8PIC9B9c8LWBKwB3YC1XkCM9kPQK6CSAKQKTtx6jxx2c8fQO7sHlb3pkFLAuZQ9/a+PMIXQJP0VO89lW2DMZOO6j1RewKA5ump3ntrR8A2bLJdnScoWSqAJrN7XJ332ELAJqzxr2vpCsv8ALRFV/Xea1lVhXWC6putygkJoG3q7HCVYnUV1gTV1/jb76XxB9BGQfXee4PQarZEhRMQAOoRVN892PZZYal1i9W1PrUUjT8AmKD6koCB0EqXicYfADwIqi8JuExolSXR+AOAJ0H1JQFLQivYk6po/AHAn6D6koCO0GhB9Sw9KUXjDwCzCKonCWBJdoMF1XNS0fgDwHyCuF9jgTiZACAfQfXct1ke2DB1zPgvReMPAHsRVE8SsCw0wpJo/AEgV0H1JAE8nC1zhdKfNDaRJAgAsCh1PTugELIUlD5rZBYpAMRRRxJAhy5TpdKeKBZdAQBi6Sr9fZ1JgZmpY9If40UAEJ/da1Pf39kuOBOXKP3J0RMAIJWe0t/n6eQ5F5R+jKgnAEBqlyvtvZ75AI7ZGE2ptCfElQIA1CX1I91LMR/Apb44EQCgTewebJP0Ut77mQ/gTOpx/1KUggDAg6D01V/mAzgRlHbcn3EgAPAl9R4BtANOlEp30C0uEgDAm67StgXXCrVaUtoD3hMAwKue0rYJzAeoSaG0B3pZAADv+krbNhRCUkFpS//2u5jxDwD+pV4ZQPuQWF9pD24QACAXQWknBbInTCJdpTuoFkz6A4D8FKKtaJSgtKX/ngAAueopXXvB0sDI+kp3MCnpAED+BkrXbgyEKLpKdxBLkckBQBOkfk4MuwQuWFDaAxgEAGgK2ykwVfvBUMCC9ZXu4PUEAGga65mnakcGwkJ0le6gLQsA0FQpHx/MqoA9CkpX+i9F2QYAmizlfIAjYoOgPekrXbZWCADQdIXStSs8K2CXUk7a6AkA0BaXK137UghzK5Xm4JQCALRNqucF0MbMaUlpDgzLNQCgnYLSPS+gJ8wkKM0BsWDDBgBor1RLA+lszqivNAdkIABA21lbQJvjQFdpDkQpsjEAQNqhgELYkjXMKQ5CRwAAjKUaCiiFTS0pzQFYFgAA6w2Upg3qCesEpen9MxEDALCZoDRDAewQuEFfaTIvZv0DALaSaiiAHQLXBKV5w0sBALC9gdK0SYWQ7M0OAgBge0Fp2qSBWq6rNG90TwAAzKanNG1ToRo9SvUqFb9nXq3GOUITnb5FzKpa+3h0LSoBwPg+Ys8KCIrr0Gqcr5rsV326SlOW7wm5Cho/FfKAxkncaWuf76axn0e1FpYUHNY4Ub1u7fNDAtB0dq3/juKX6e1+1lmNK1SDOisAKXr/fY0PInwLGpfCJo39Qfmes2FJQKVxUjD5N4kB0DyWABSKy5KNc9Y+tkJXacZXguCN9dov0vh53HZxpdqCM3YcWXs9l6+9viAAuQtKc4/qqSWC0mz60xM8sAa/q3HDmOK4ewobQ1wWCQGQs57i3ytasznQkuK/maVQp0Lj4zxQ2gY3h4TgcrH+F8iJNcyl4t8fekos9RyAoHGjEBRXVzVNqmgpu0Bs3N56uh2xzeUsqtUYrsbVq3GVgGYo5CvBtYZ7EW1BofgTAhs/F2BJ8bOo2AcJxxUa92ibMo5fV9j7tywqA8jfQL6urY4WJ8Vr66mhgtKUUYIQU6FxIkejHydKjZOBICAvQf6up6DFKaTof29j5wIsKf6btyzEYCfkJWJMP3XYnIGOgDx05e/6WbS+FP3v7qlhguj95yiI3r6HKEVVAP4N5Ou6eYcWzzpDse+HjasCLCn+we4Ji1KI3r7XuFLMFYA/Qf6ulaA4elL0v72nhgiK3/svRe9oEQrR8OcSpRgegB9d+bo+YpT/J6gCzKGr+Ae7I+xFVzT8uUYpzn/UbyBf10VPcfUk5f4akigV/waI3SnUvt35mhqlSARQD+uperseDiouqgAz6Cr+ge4I8ypEj7+pUYprAml15e8aSKErKfZriTGRMRk7EE040E1hWfFA6S9IIn0MxLwYpGETUz2d+5crnVJxX0upTHUV/0B3hFlYGekypb8QifpjWSQCiKeN5f9pXcV/PYUyNFDcN6UUZmEb+LCOv91RKvNSItyy5394O9dTKxX3NQ2UGcvAYh/ojrCdQpT7ifVRimoAFqsvX+f4stLrKv7rKpSRvuLfyLA5yv3ETmHnB09sxCJ4qy4WqkepuK/rSmUiKP5B7gibKcSyPmK2KMWOgtgbyv/HdRX/9WWRtPfV3IPsFb1+YrdBNQC71Zevc3lZ9YpdDekpA6XivgkdYZrNt4j9nhPNjlLMDcD87LzxdB4XqldPcV+f+42Buop/o8JxNsN/hSAWFEsCZlPI17lbqn4pdgfsyLGB4r74nmDsRIv9XhPtDJtsFARsry9f5+2yfOgp7uscyKmg+Ac5CIUo+RNxo1TazVSQHztHPJ2zF8qHFFWAQg71FfdFLwuU/ImUsSTgRIV8nadH5IttRRzz9abc6ngmKbKeoPZilj9RV7BKABv15escXZYvsTfCczcZsKu4L/gqtVdYjWuV/qIiiEmUYvgNx9n54On89FL+nzZQ3Nfsamvv2C+2UDuxxI/wEqVIAuCv/L8inwrFfc0DOREU/8bTRrbLFg/xITyFnY92XqK9Yo9vzxueq8OxK7d7nqi7T3vXU1w9tY9N9rPlWIy9whM7H+28XBLaylu53fMe+VcoLhfJeKm4PY6gdrGb6wpBOI8loW1SPOV13vDcSYo9Ob721Q+xHwaxrHZZUvoLiCB2G0tCm1D+n1/s96xQjfqK++LatBkJy/yIHGNZaAtvq5E68q9Q3PegtiGQ0xX3hV2r9lhW+ouHIBYVy0LTBfk774LyMFC892BPewLsZRJg7AkI7nY7imRZ430UgFx1RRLQdN5WfwxXo1IerlY81vh3VQO3WU1G7Ka5QhANiWWhqSj/717syYADJRbEjWSvGPMnmhjLQtME+TvPgvISezLgrjrMux0CKBRX7PWTdVuSs60cgQXpitUBTVPIl6HyKf9PxF6x0FVCA8XLZEo1m90cVwii4bEkNMVAvs6tjvJUKt57MlAiQXEPbk/NtaT0FwtB1BVLQu6C/J1XQXnqKe77kmTeXFeK+iKCmin2pkkE4TE6Qs668nU+5bw8PPbS+STDygMp2gsYqJlsQyMe7EO0Mey8b9OGXk0zkK/zKfe5UzHfz4EiC1K0P96io+YJ4pG+RLujFI8SzlGQv3MpKG+WwMR8f+YaBph3FUChuL6oZrGDMRA3P7Rb0Pg64OmWeSnkyyHlN/t/o77immvDpnkTgJiPghwq/4O7ka39DAIQNN77AvnoyJeYO+qlclTjti6WqMcs5ji2t5Ntr5ZUT4mMIDzHkpCD2BPWdhNNmUsScxgg2i66hRTtj7YIao5C6S8OgsglCsG7rnydM6WaI3ZyVWhG8wwBdBXPUM0p/wexHSqwHXuEaRA8izncuxtNKP9PxB4GiPLgJsvAYmUsHTWHt4dmEITHGAheUf6PL+YwQKkFO6h4f6xFUDMsKf2FQRC5BpMCffK2aVmp5omdZIVZ/ohZhwAKxTNUM8r/liT1BGBW1gsqBG+ilJD3YKjmcTEMMGsCEHM8qAljO0HjcU0A81kW+wN44238v6lPh43Z9i30GNZeqnCur/RlMYJoSiwLXlD+Tyco3vs203LAWSoAheKplH/5vyseeALsRVf+ys5tRfk/nUrx2j9r/HecODlLAhDzhBgqb0FsbAIswrIYCvDgAvnS1PL/RMxhgB3b7v3aWcwTIveD2xPrmRfqrLPO0m7ce++9o4j1O+644w4hKmv8LZl+p1CXQr7uZ5WaXQEwV63GJYpjx7b7UTt83y7KI4pnp9/vWSHWMi/ct7/9bZ199tma1wc+8AH92Z/92Y4/F0LQ9ddfr3kcPnxYL3zhC4UkXqnm3/S96svXcGZ/NX5HzWZtbKl41a8zNF5xsKmdKgCF4hkqb0xciuDUU0/V4x73OM3r0Y9+9Mw/O+9//7GPfayQjF1X52ubmxai8Vb+v0rNZ+e5PeWwUBx2TLccZthpDkCheHJe/melyiAAixY03h8AaRXydU+zhrFJ2/9uJ+brfOV239wpAYiZEQ6VpyA2/AFisjHRIKTUlS9t6P1PxHyt27bh2yUAMy0j2KVK47JHjnoCEJPdexhiS4vyf30qxRvysjZ8y/kF+3b4P8YyVJ4KseYfSKEQ2wSnUshfxaUt5f+JmK93y7Z8uwSgUDxD5YleCZAOe2yk4W3zn7Y1/maoeLY8vtslADFLQl9UfrpiXBJIqRAVtxS87f3fxueqDBXPeVt9o44hgEp5bv9LbwRIryd2CIzJ7vNBvrSxAlApXrs49xDAthMH9ug65acrev9AHYJYFhhTV75Y49/WPSBiVca3nNC/XQIQS47lHXr/QH1sWSBVgDi8zf5v82PVY66MKzb74r55fnhBcqsAdEXvH6iTNf5UARYvKG5nbzdynB+2KEPFs+k8gH3z/PACTLY9zAm9f6B+VAEWz+Ojfyu1l7WNMfcDOEHqIYDcGv+u6P0DHlAFWDxvKyz6Qqw2ctN5fZslAIXiya28Q+8f8CPWY1PbKIjyv0cxh8jDxi9slgDEPCmuVT66ovcPeGI9GPYFWIxCvgzV7vL/xFDxFBu/sFkCEBRPThkevX/An66wCJT/fRoqnhPm9u2b5YcWpFI+6zsL0fsHPCrEMwL2Ksjfe0j5f8zayEpxnFDdTzkEkNPyv64AeEV1bm8K+WIT3yphItZEwLDxCxsTgJg7AOayAiCIcUbAs0IsCdwLb/e3K4RpMXcEDNNf2JgABMWTywTArgB4x5LA3QnyVwG4SphWKZ51Q/z7N3wz5gqAXIYA6P1v4lGPetS2319ZWVHs37Gdpz71qXr5y1+uk08+WaeccsooHvOYx4w+P+mkk7Rv375RnH767juO9vct4nViIWxJYE+YVyFfKP+fKGa1/JzpTzbecW0f5hi7Q9nEhjPkn732Nu9FvSlr+P7yL/9SRVEcawAfeeSRTT8+/PDDo5/Z+HHy/WnWIJtJQ71//3699KUv1W5s1zDvJbEw99xzj6655hrdeuutuvHGG/Wd73xHt99+u77//e/rtttu07333ivU4pWKO2u6iQbylQRcKhK5zRxRnGGu/mr8zuSTjRWAoDhyGf/3tjWmG+eee65e8pKXyKu9NvLbecITnqBf+qVfOvb5dLLxwx/+UDfddJO++tWv6ktf+pJuvvlmXX/99XrwwQeF6Gwy4FCYlTUohXyh/L85azMLLd62Vf6VSHG5/AuK9/qzjtXGdeWzn/3sCra3WuUYffze97638rnPfW7l7W9/+8ozn/nMrI51hsFkwNl15evYlcJWrM2M8Z4fmf4l05MAY47/V/KvELAHkyrEM57xDL32ta/V3/zN34yGDP7zP/9Tb3zjG/XoRz9aWLiuMKsL5cvVwlYqxbFuJcC+Dd+IJYchgI6ABbKE4HGPe9xo+OBTn/qUbrnlFr3nPe/Z00REnMBbo+aVnXTehjj7wlZitpnHVgKkqgB4TwCCqAAgMlup8IEPfEBlWeqP//iP9RM/8RPCnhViGGAWhXyplN/TYVOqFM+xlQDTCUBQHEflfwvgQkAiVgF4//vfr6985SujoQHsWVfYibfe/1DYTqV47WaY/GM6ATigOCj/A5v4yZ/8ydHQwMc//nE9+clPFnaNYYCdeXuP2P1vZ5XiCJN/pKgA3C3fgqgAoEZvfvOb9W//9m96znOeI+xKIYYBtmO9f0/vTyUqALOItXnepnMAguLwXgEoBNTMNkD6/Oc/P5ongF1hD4+tUf7PU6U4jiWD+6a+ECtD9P4MAMqHcCGEoMFgoKc//enC3EgAtnaBfKH8P5tKcRxr7ycJQMwVAN6HAAoBTjz/+c/XX//1Xwtz89bIeVEo7kPe5lWJCsCsYlbPg/3PdAUglkp+FWLsEM786q/+qn73d39XmIvHbW496MqXoTCrmKvnRpP+J88CCIqnkl+FMBN7EI7tcb8d2/jGHuxj49i2AU7M/fmb7n3ve99oYqDtGYCZFaKB2chbZYS9/2dXKZ51TwXsKc6+w97H/weqZw/sRsfTnva0lU6ns3LNNdeseGX79k/27vfq0ksvzeq4O4iBMK2Qr+NzRJhXqTjHYvR8nkkXLdZjgIcaP7LTqxUhqre97W26/PLLR5WBmD7zmc/o05/+tB566CE98MAD+vGPfzwKexyxfc2ezmd78VucccYZOuuss0bx+Mc/Xmeeeaae/exn61nPepZWkxc3lYujR4+Onitw3333CTOxkuk58r/xWCp9+drjpK+pR9FiJgPFqVT3NXUs7JfEyDKW5VeherLg1sVv/dZvrcTW6/Xm/rvsKYcWk89POeWUlXPPPXfl9a9//crf//3fr9x55521Vgnsd1988cWuj63DKISJUr6ODSuu5tdXnGMxsP947EmAh+VXzJUPmPKJT3xCw+FQ3qy2saOYsMrBTTfdpM9+9rN6y1veMtqr3x7k88///M9abYyVmlUi3vSmNzGXYj5c12OFfM3+Nzz9b35RtwPeN/1JBJ5LcRcIyfT7/XWNbQ5s2MASF9uv30rxtmVv6tfwspe9jH0B5lMIxtu+CDT+u1MpjnX7AMSqAJTyqxCSufnmm5Wz22+/XZ1OR6973ev0ve99T6nYHAXbIAgzI7Ef81Zuv1LYjVid6GMJQFA8XjcBCmL9f1L33nuvmuBf//Vf9epXv1p33XWXUrDy/8tf/nJhZnZdB7WbDYME+UIFYHcqxRMsAWjjJkCME2LXvv3tb6vb7SqV5z3vecwDmE+hduvKF2v8WZmxO5XiOT12AuD1oJMAYE8+97nP6R//8R+Vgi1PxFzafn17Gwah/L97MdvQ1iYA5wnYoz/8wz/U//3f/yk2W42AuQS1V5C/BOiLwm7FbEOjDgFU8isI2CPbHtk2IIrtKU95SnYrKGrW5gTf46N/K2EvKkUScxKg5zEfhgCwEF/4wheiN86PfexjhbkEtXeSb0e+9AWvwj7Fw/g/Gu9rX/uaYqP3vytB7RNE+b+JKkUSexmgR0HAgnz3u99VbD/60Y9YBTC/Nib6hXwZivL/IsTqTB+IWQGo5BMVACyMPXDo/vvvV0w/+MEPhLkFtQ/l/2aKtp+OJQAH1C5BwILs379/9ITBmGznQYYB5tbG+1ohXyj/+3ZGzAqA1wcBte3GgIgOHDigk046STEdOnRImFtQuxTyxU7aSliESnGcFjMB8IotgLEwtklPzPF56/l/9atfFeYW1C7eyv9XCO7F3gjIoyBgQYqiUEwPPfSQrr/+emFubbqvBfmrAFwleNe6jYBOFxUALMjTnvY0vfWtb1VMX/7yl3X4sNfRNNfadK0X8oXy/2JViqRtQwA0/liYiy++WGeddZZi+tjHPsYEwN1ry/XurfzPk/8y0bYEIAhYAHtE75/8yZ8oJttq+N///d+FXQtqPktyCvlC+T8TbdwICNiT173udaMtgGMv//urv/or/fCHPxR2Laj5vO39X2k8BAD/Tm/bRkBBwC6dcsop+vCHP6yrr75aT3jCExTTDTfcoOXlZQE7uFC+UP5fvFg7AZ6+X+3CHADsys/93M/pox/9qF760pcqtkceeURve9vbdPfd0TYAa4umX+/2+rxVAPrCokV7rg4JALCNV73qVXrnO9+pV77ylcmeyvfud79b//Vf/yXsWdOv90K+VKL8n5W2JQDAls4444zRuv5zzz131OBbr//xj3980gfx/Pmf/7k+9KEPCZiBt97/UMgKFQA0gi3He9GLXjTaOMfi4YcfHn193759Ovnkk0e9d2vMn/jEJ47i1FNPHX1ujf5P/dRPjWb1P/vZzx79f+p48t4DDzygD37wg1paWhIWpunbfnsb/2f3vwytRIpC/vQV7/US28T555+/sjq2vZKC/Z7VBGAUk99pHycx/XOp/qbt3HPPPSvdbjer45lJLKu5rPfv6b0uhVgKRTpuDAGgcawHv7EXv1mvvo6e/kb//d//rd/7vd/TN7/5TQFzoPyPPWvjw4CA2tn6/t/8zd/UL/7iL9L4YzcukC+U/zNEBQCogc1B+P3f/309/elPH834v+aaa9jyF7Mq5GtPk0pUALIUMwE4TQA2ZZMSf/7nf34U1vB/4xvf0Mc//nF96lOf0u233y5gG135MhSyZEMAsTYZOEMAdmRzEV7ykpfoIx/5iG666abRMsAzzzxTwBa8lf/Z+z+uoEhiJgAA5mRLFN/1rnfplltuGS0J9DBREa4U8lX+t/aD7X/zVDEJEHDInjvQ6/VGQwPPfe5zBazpyhd6/xlrWwJQCcjIwYMHR6sEXvva1wpza+LDFCj/Y2FiJgBBAPbMdjL8l3/5F733ve8V5tK04c1C/u6rlP/jC4rjqCUAlQC4dtJJJ+l973uf3v72twut5W3zHxr/vB1lCADIhD3X4G//9m9HDyrCTCo1i7e9/68Usmb7AMQqkx0QkNgjjzxy7IFA0w8Gsq9P7N+/fzTJztbiW6Nqpjfh8T7z/pOf/KRe8IIXjHYTRGscFOX/tgqKxBKAJk6U2UolNJKtob/88suPJQDW6G+VAFg5ffoJgfYkQQt7MuBpp52mJz3pSXrxi1+sF77whTr77LNH/x9PSYH9rR/72Mf0a7/2a8K2KjVHV75Y488S8rxVMXcC9LgRUCU00tGjR1VV1Tz/l2M96BtuuOGE71mDb1WBZz3rWXre856nV7/61XrDG96gAwd8FLZe85rX6BWveMXoYUJoBW+z/yn/pxPtphNzEiBbASNbkyGBm2++WZ/73Of0B3/wB6P1+C972ctG6/MPHTpU6979j3vc4/Tud79b2FalZggaDwF48kUhd4fbtgywErBLP/7xj/W1r31Nl1566SgRuOiii/T1r39ddXn9618/Gg7Alio1g8dH/1ZCKqcrkjYuA6wE7JHNLbC1+S996Ut18cUX66677lId3vKWtwibatL4dEe+9IWUYiUAVRs3AmLiChbq7/7u73TBBReoLEulZvMAeF7Apg6pGYIo/7ddUBxHYlcAopUu9uA6AQv27W9/e7Q+/4477lBKP/MzPzN6gBBO0JTVTYV8GYoqakox29C7Yz8N0GMCQAUAURw+fFgXXnih7rnnHqXylKc8ZbRKASeo1AyU/9stZht6NHYCEORPU0qDcOgrX/mKlpeXlYqV/88991zhBJXyF+SvAkD5P62geKI/CyDIHxIARGXLBP/3f/9XKdhSRFYCbKoJ13khX+w9rYSUYlYAjk0CjFUFYAgArXPkyBFdccUVSsEqALZ7IU7QhATAW/k/zUmNaUFxjNrB2AlAkD+VSAIQ2ZVXptsozbYzZiXAOkeV/zUe5K8CcJWQWrQlgPY/+6Y/icBr14RhAET1rW99S3feeadSOPXUU4V1KP8vHuX/egTFsa4CcFhxBPnEUkBEZcMAd9+dZiXa5ImGOKYJ17e38j9P/qtHrOcAjG5ObRwCMFQAEN3999+vFGyLYqxTKW9W9i3kC+X/esQaAhi1gbGHAIJ8IgFAdKnG5e+77z5hndyvb297/1finlmXWLtArhsCqBRPkD+VmAiIiPbv359sdv6PfvSjWp9M6NBQebtQvlD+r0dQPKN9y1MkAF6XAlYCIjn77LP19Kc/XSmk3HkwA7n3VO1+6a0C0BfqEBTPujkAleLx9iCLCXa0QjT2qN4Uk/Os559qtUEmcr+uC/lSifJ/XWJ2ntfNAYi5bjbIJ05qRGEN/5vf/OZkcwDsQUQ4ZqC8eev9D4W6xBz/XzcHYPLFGGItY9grZrUiil//9V/X+eefrxTuvfdeffe73xWOyX0JoLfxf3b/q895iqOa/GM6AYjVI/Y6BMA8ACzc0572NL3//e9P1vv/5je/yRyA4yrlfU1b79/TnKlKVADqFOtcOLbvz77NvrhgQX4xuxULY43+hz/8YZ1zzjlK5atf/SorAI4bKm+U/zEtVue5mvxj32ZfXDDLYoJ8Yh4AFuKUU05Rv9/Xm970JqViDf+Xv/xl4Zjch/UukC+U/+tzuiI/B8CkSABMkE/MA8Ce2Xj/ddddp9/+7d9WSrb+//Of/7xwTM7j/4V83ScrUQGoU8yh82Md3xRzAIzneQBDIbrHPOYxjXti3U//9E/rE5/4hL7+9a/r3HPPVWpf+tKXdPQo+1mtGSrv8f+ufBkKdYrZZh67aeyf+mK19o0YZYcgv2zdcCFEdfDgwVHJOvckwJb4/fIv/7Le+ta36ld+5Vf06Ec/WnVZXl5m/P+43Nf/eyv/Ux2tV1A8xzr7+zd8o1KczCPWcoZFGK7GkhDNq171qqQz4xfB/lZrXG1L3wMHDugXfuEXRq/jNa95jc4888zaX8uNN96oK6+8Ujgm5warkK9OknUEmSBdr1ht5rpK/8YEwMbQYiQAXocAzFDxKh+N87rXvU4vf/nLd/y5k046SWeccYZe8YpX6DnPec5oCCC2SaO8Xa94s5+ZfM327n/+85+vF7/4xXruc5+rn/3Znx1t5/vUpz5Vj33sY+WJ9f4feughYaRS3hN6u/KF3n/9YrWZ61b7bUwA7CKK8RzqyUqASj7ZbNdLhG1ZQ/mOd7xj1BOe5WdTeuMb36gXvvCFo0ZxOh5++OFjPfmTTz551JBbMnL66afrKU95ik499VQ98YlPHH3dvj/p+XuuVtxyyy366Ec/KhwzVN4o/2NaUOTHAE9sNgQQy3nymwDYCU8CMIOzzjrLZeP4ghe8YBSL4H2o4r3vfa/uv/9+4Zicl6sV8jdHivJ/vWJWzK+d/mTj00piltHS7Y4yv6F4PPCOHv/4x+uZz3ymUJ/Pfvaz+uQnPykcUynvCoC3zX9o/OsXMwFYNwSwMQGoFK8hLOQbm17s4FnPepae9KQnCfX4n//5H11yySV68MEHhWOGypu3vf+ZWVq/WBMArW1f18nf7HmlleLwvBLAMO61A5scx7KzethchosvvlhlWQrr5Jy4W08vyBcqAPWLVQE4ocK/WQIQazetIN8z7Ydi84ttveQlL2ncZj65+KM/+iN94QtfENaplPc125Uv1vgzFFqvmFvnn9C2b5YAxJwH4G2260a5byYSlQ0BIC1byfCe97xHH/rQh4QT9JQ3b/dDyv/1KxRPtfELmyUAQ8XzSvl2ubAp6/k/4xnPENK5++679Ru/8Rv64Ac/KGwq54Q9yN/+KHSA6pfkGQATKecAGO/zAHg2wBZsnbyts0ca11xzzWgTpU9/+tPCpqxcXSlfHh/9Wwl1i1kVGm78wmYJwAkzBRfI846AE5cKJ3jRi15U6773bXHXXXfpXe9612i3xeuvv17YUu7Vuhgbru1FX/Ag2QRAs2+LH441EdAmOHhPAobKe1vRKKz3zwqAeO677z79xV/8hV72spfpsssu473eXqW8K3VBlP9xIjsnkuwAOLF/mx+OlaEW8t/AWnkxh2pFMs973vNYARCBbev7mc98ZjTOf9tttwkz6SlvhXwZivK/BzHbnOFmX9w/zw8viPd5AMbKi7Y1sOdli8lYw3/22WcLi2Eb+Vx11VX6h3/4B/3Hf/yH7r33XmFmNkSZe2+V8j82E3NTqLmr+kdWYyVC5LKTSU9xXn92sZoArNxwww0rmN8jjzwy+njHHXes/NM//dPKG97whpUnPOEJWR1/Z7GsvAX5e0+D4EGpOMf3yFa/cLua7kDxSlX2XIBKvlnv/4igM888c7QNbYpH+uZoZerpgda7v/POO0eT+b71rW/py1/+8mj//qqqhIXI4d6xna58JTE2HHu+ULegeJ3jobZYgr9/m/+TlQwKxVHIf9nJSo22zWhHLWdLAK1cvVennHLK6PG79iheSybs4UIW9jje0047bbTKYC/zDFYiPsZ38t+2jXmOHj2qH/zgB/r+97+vI0eOjD7/zne+oxtvvHHU6N9666164IEHjj1aGAvTV/5j1d7uJzwDxYdC8Ww5ZLbd3bLQuAoQQ381fkf+BeUzZOHepHGebhQnX9u/f7+e/OQnj3rMIQTNy9bLX3311Tr55JN10kknjWLy37aPk39b8vGnf/qnmoc19jY73zbmsfF625d/u9eEaHLv/Qf5u5/k/p42RV/xkkPr/Q81JyuBxxpzyqm0bknQCpEmyrJc2Y1er3fsv2FzFraK1eRiZV72N+X0HjY0lpW/rny9p9cKXpSKd5y3nMy+b+u/J+qGQDEfeLBobAyUGeuNbxXIVhOuw4584cl/PsR8KqS14Vs+4Gm7BMDEXG7jbSvMrQzFOBlQp77yL1Nbp6eQL1cJHhSKZ9s2fKcEYKh4Yq55XLSeANSlCb1/bx2eSux46kXMtnCw3TfrTABibnu4aNVqfEQAUuurGZPUvHV4KP/7USiePVUAYs8DyGm73Z62GUsBEEUTev92r/NWAegLHhSKZ9vxf7NTAmCYBzBmbyRVACAda/wr5a+QL5Uo/3vRVTw7tt2zJAAxJ4rkNA/A2DMCKgGIrVL+j/yd8NbRGQpeXKB4dmy7Z0kAdiwj7EFQXvtQ2/vwTgGIrafmDLl56+iwqsmHoLjt33CnH5glAYg5D8DkNAxgLKsaCkAsdr9pSiNl9zdPk50rcf/yImbbN5zlh2ZJAEzMGaO5DQOYHLYxBnL1/9QclP+xlZht30xt9qwJQMx5AIXyWQ44UYkdAoEYmjLxbyLmGO9uUP73ISju5NDhLD80awJQKe5F2VV+mBAILFalZm26VcjXHKdKVAC8KBRPpRmH7WdNAAzDAOvZ3AiGAoDFadr11JUvQ8GLmM+FGM76g/MkAAwDnGgo9gYAFqGv5jVQ3sr/7P3vQ1DcCsDMwzzzJAAxlwOarvLUE0MBwF5Uat7y2kK+yv9272b7Xx8KxWPHeTjrD8+TAMReDpjjMIBhKADYG7t+mrbNdle+0Pv3I2b5f66de+dJAEzMGaSF8hwGMEMxFADshs36H6p5KP9jM0FxKwBXzvPD8yYAsU+irvL1DrG/NjCPSs181HYhfzucUv73oVBcUSsAc40v7EKuwwATtoFJ00qZQAx2nbxSzeRt8x8afz9iz/6v5vh57df87GQqFEeh8TBAro1opfFkpmVhV77xjW/o9ttv17xuvfXWmX7uwQcf1Fe+8hXN47bbbhMWzipmlZrJW0dmrrIwogmKWwHoKwFroFciRk/5s02CVgiC2DSa8pS/zRyUv/c717lVTWNJb8zjHJTIQIr2Iko1w7Wq52InCM9Rqtm8Jf9M/vPDzv1Yx3mgXZh3DsBEzDGloPgTJVKw+QCVAExUau64/8QF8oXyvw+F4vbQ+0oo9jBAU0qEHsuBBFFX2PXQZEH+3vMgeNBXw47zQPFezBE1Z9wq9rgPQeQQdh00nbdrfSB4YG2ZtWnujvNuhwBMzGEAe8O6agarZvDoYLSZnf9Nnvg30ZEvfcEDWxYas0PbVw3cZjVO9VVPL4Ag6oy+2iHI33sfBA9iTwivrVp+peK+sELNYQeJlQFEm8LO97YsQevK13s/EDyIPQ9sWXuwlyEAE3v/e287au3FZOezSkDzVWrXzpgd+dIXPIg996X2ZZ4xhwGaNBlwIijuelCCqDtKtav8HOTvGAShbkFx28dSe7TXCoCJWQVo0mTAiUpUAtBcldp3fhfyxR5KVgl1KxS3AzuUA7HHOK5VMwVRCSCaFaXa2fMcyNdxaMOSyxzY9RDzOAc5MVDcF1qomYJIAohmRKl2Nv5B/o5FEOpWKO4xHmgBFjEEYGI/bnJJzVSJ4QDkr1J7z+NCvlD+9+ESxdWXI7H3BLBo8jaiQVQCiDyjVLt7nAP5Oh49oW5BcY/xwibHL6oCYEt9rlBcXTVXJSoByE+ldp+3dhMu5AtP/6tfT3HZMXa3vLZQJlmPY0FUAog8ohRjzV35OyaoV1D84xy0IIuqAJih4i5LsMa/6bNbK417VIcE+GXnJxUr6UL5EnsuFnbWUVxDOb7uuoqb+bShCmDsNcbeZpkgdhN2XrZle9/txH4k+m6i6Y9bzkGpuMe4I8dSTAbsqT16Sn8TIYitog1P9JuVbVPu6diUQt264hhHb7SOqF16Sn8zIYiNweYy6/Xl6/gsC3UrxTFOUhrrqF0KMTmQqCcs4S6EjWJXOueNQqhTV/GPcVAmYo9fl2qfIJIAIm2UYqb/Zij/YyM7BjGP8bIyUij+Sd9R+1h1xcZhVwgicvTFZL+t9OXrWC0Ldeoq/jHOboLnQHHfkFLtZeOxKwQRIay0zXj/9kr5OmaFUKfY58NAGSoU/8TvqL2CGBIgFhulWEq2k0L+jhnq01X8Y9xRpuzk5OSPhyEBYlFh5xEl/5315eu4LQt1KhX3+JbKWIpSdUfoimoAsbuwkr9NasNsSvk6ft52I2yTruIf344ylmJjoFL0XEyQv94J4TvY1W8+hXwdv7btieJNqbjHt1QD9BT/QugJE11RDSC2D3r9u9OXr+O4LNSlq/jHt6MGSFEFaMszAmYVRDWA2DwY69+9Ur6OJeX/egSl6f0HNURP8S+GnrCRzei2E2mFaH1cK5aL7UUhf8cU9VhS/GPbU4NQBaiXTcYslf4GRdQfrOtfDG+rba4S6hAU/9iWauAOnD3Ff+OWha0EMSzQtqDcvzilfB3bjlCHvuIf254aKEUVwKIQthNEItD0GIgNfRbJ3ktvx5jELr2g+Me1VIOfv9FT/DdwIMyiUPztmom0MRAJcAyU/2Hs+op9bHtqMKoA/hQiEcg9BuKcj8kmUHo63h0hta7iH9dSLXj6Zk9p3khKZPMpRCKQWwxEwx9bkL/jHoTUSsU/rj21QKoqQE/YDRvv7CvtDY2YLwai4U/F25M3B0JqS4p/XEu1KLHrKf4baklGEHYraJwI2Im5QtQedj73xDmdGuX/dgviuC5cqirAQFiErvzdCNsSg9W4RAxp1SHI3/kQhJT6in9MS7VQV2kumEJYlMnwgJ2wK0S0sOTYZp4XQp268nVeDISUukpzXDtqqRS9ylL0nmLoavw0uRViYTHQ+CE9nK8+2PHwdH50hJRKxT+mpVqsUJoLpyfEEjROBgZKezNsQhwRJX6vgvydL0FIZUlpjmlHLTcQF09TWCNmPdi+GCbYKqzRX9Y4aaLR96srX+fNtUIqQWmO6UA1e5TqVyjNGzFcjVcKKRVrcYHaPZ49XI0vrn0cCjmwORjnyY+PiB0AUymVpsN4zmpUQrKtNnkqWn2st1toPBxjCV+KVSB1xKSs31t7vfTygXzYcFyK+8SyHPBQATB2kywV/2Z5dDXOF1mXFwen4ry1jzk1mHY+HVqN69Y+TgJAfoLGQy2x70GVxtXoSjXbLx/sRmolriXFZQfWMi+GAnzYrMG0YzRJCM5Z+zj5Wh2O6nhDf1jjRPXw2ueVADRFT2k6IFfIyb3DSwVgItXYyzs1HnZAXuziDFMfw9rXD6x9DBt+dquLudrk34enPj+64SOAZusqTVm+0rhjg00USjdOGwQAaLugdKuWOsK2BkpzIAYCALRdqjZnWdhRULoZ4qwKAID2SjXr3yIIM+kpzQFhKAAA2ikoXWezJ8ylVJoDww5bANA+qdqYUphboTQHx+IyAQDaYknp2pe6ljBnL9UOgRaFAABNVyhdu7Is7Jqt4041RlOKbVsBoMmC0pb+g7AnFyldtnalAABN1Ve69qQjLMRA6Q4aSwMBoHmWlK4dWRYWJijt0+OYtAEAzRGUrv0oRel/4axnnvIAMh8AAPIXlG7c36IjRDFQuoM4EAAgdza3K1W7sSxEE5R2KGBJAIBc2T08VXtRitJ/dClXBVgUAgDkJnVb0RGSSFnS4XkBAJCXoLTj/stCMjZBL+XBvVZMCgSAHKRuH+x3BSGpQukOMBkeAOShr7RtQyHUIuWzAiyWBADwyu7RKduEnlArK8+nPOAdAQC8ST3prxRqF5R2aaD9LnYKBAA/gtK3A0FwIeUugZPMLwgAULegtJP+LHhmjDOp5wOwMgAA6pV6xr/FsuBOHScCjw8GgPqk3BPGohQdP7eC0o4DWVwmAEBqS0p7r2fcPwOp5wNYLAkAkIrdc1Pf5xn3z0Tq+QCcHACQxiVKf3+/XMiGjdGk3h/AoiMAQCx2j019Xy+F7ASlnw/AHgEAEIfdW1Pf00sx7p+tQmlPFpIAAFi8oPSNv0UhZK2OSYGlyBoBYBGC0i/xtugJjdAXSQAA5CaonsafSX8NUtekwFIkAQCwG0H1NP6l0DhB9Z1MQQCAWQVxv8aC1TGLlJMKAGYXVE/jz05/LdBV+hOLJAAAdhZUT+NvcZHQCj2RBACAJ0H1Nf49oVXq2C6YJAAAThRUX+PPjP+WGogkAADqFFRf488j3VusruWBJAEAUG/jb7/3dKHVguo9AYMAoH1sVRb3XtQuqL4TkWcHAGibupZk0/hjU3WekPZ7OwKA5rN7XZ33Wjpc2FShek7KSbxDANBcl6jeeyyNP7bVVb0n6JIAoHns3lbnvbUrYAZ1PEKYJABAU12meu+pVFcxl57qPWFtfSpLVADkzO5hdi+r817aE7ALPdV74pZitiqAPAXVt88KjT8WoieSAACYR51r/Gn8sVA91Xsi29IVnlQFIAcd1bfMj8YfUfRU7wltsSQA8MvuUXXfJ3sCIuip/pN7WUwOBOCL3ZPs3lT3/bEnIKKe6j/JSzEvAIAPQfVP9qPxRzI9+UgCmBcAoE6F6h/vp/FHcj3Vf9JbLAkA0rN7j4d7YE9ADXrycQHYRhtBABCfjfcP5OPe1xNQo7q3DZ5EKZIAAHF5WN8/Cbb3hQtd+bggLJYEAItX95P8pqMrwBHLjD1MhrFYFtUAAIvhYT//Sdg9thDgkKfymP0dhQBg9wr5uqcdFOBYkJ8LxmJJADC/uh/hu7HxDwIyEOQrCeDiATCrIB8b+0zC/pYgICOexs0sbOyMWbMAtmMT/bzMZbIYiK3PkbHL5edimlxQQQBwXJCftf2TuFxAA/Tk68IqNX5kJwB46/Vb9AQ0iO3b7+0iWxbVAKCtgvz1+u0e2RXQQEG+JgdOLjjmBgDt4rHXX4plfmi4IH9JwOTiCwLQZEH+ev0WzPRHq3ibHDiJJQFoGptJb9e2x3tOX8z0Rwv15POCLMUkQaApCvmsOlow/IhWK+T34lwWZTkgV0E+y/0W7OkPrAnymwRYLAlALiblfm+T/CbBeD+wCa/zAixKMSwAeFfId2fC7nGM9wNbsDExr5m7xUBk74A3hfyW+y1YbgzMKMh3Fm+xLBIBoG7Wm+7L972iFPcKYC45XNgWS+LiBlLzPs4/CUr+wB54HxKYZPgdAYgtl4afkj+wIEH+hwRIBIC4usrjPsAsfyCCnvxf/CQCwGJ1lUfDb8EjfIGICuVzM7C/syMAu9FVXtd6IQDRBeUxQZBEAJhfV/k0/BZXiol+QHJd5XWjsL+1IwAb5TK5bzrsb71IAGoTlFc1YJIILImJQkCODb/FQFy/gBtd5VUNmMSyuJGgfQ5qPGEut4af5X2AU0H5VQMmYeOIhYBmK+R7y97tYiCSdcC9rvKsBqzo+DyBIKAZrMx/icbr43O4BjcGY/1AZoLyrQZMbjrLGpdKgRwVyrPMPx1s5QtkzBrQUnnddDaG9Zw64kYE/ya9/YHyusY2RimG5IDG6CmvG9BmMakKFAJ8KZR/b39yjfUEoHGC8h4WmI5S455WEFCPyRI+Oxe9Xy+zxEBcT0DjddWcm9bkxtURNy/E15QS/3SUoqoGtE5PzUoESAYQQxMbfQvK/UDLBTVnWIBkAIvS1EZ/EszuB3BMUHNvdpNkgDkD2E5Qsxv9yXVQCAA20VXzhgU2RilWE2DcAy407g3bOeH9vN1LXCvOdwAz6qr5N8VJDDTu+bHpUPMFHe/l575kb5aw19gRAOxCV+1JBFZ0vDrQEcMFTRA0PoftmLahwZ9u+HtinB/AHgU1c8XArAmBPaioIyoEObBjZD38ZbXzfKXhx8weJWB2QePeVEft7R0fXY1Dq/HFtY/Dta8hvckYvsV5Gjf+bW347Bz8iMbzGTgfMRMSAOxGEInAtErjZOC6tY+H1r6GxQkaN/AHNG7wD4pzz9DwY9dIALAXQSQCW5lUCiwpKHU8OeAmvb2wFtajP0f07LdCw489IwHAIgSNe2VLIhHYySQxsI/TSUGl9lQNgsYN+qQXf2Dq3zT026Phx8KQAGDRuiIR2IvphOCwxpO6Dk997aj83vhPX4uwFqdp3Is/beprQdiNSuNG/wrR8GNBSAAQS1fjoYFCiKHS+mSgWvt4eMPPaJvPNzNpxKeFqX8f2PBzYZOfweIMV+PStY8AkBUr7faV11Iqgqg7bOlpISAiKgBIJWi8PvkC0VsENsP4PpIiAUAdumJ4AJgYalwlu1o0/EiIBAB1ChpXBS4Us7/RLtbQ24S+q8T4PmpCAgAPrPG/SFQF0HxDjRt9ZvOjdiQA8CaIuQJolsnYvjX8hwQ4QQIAzy7S8coAkBNr9IcaN/xDAQ6RACAHDBEgF0NR4kcmSACQm6BxEkAyAC+GotFHhkgAkLMgkgHUYygafWSOBABNETROAi5c+8iyQizS5CFOk6V7NPrIHgkAmqrQeMMhVhNgtyqNN+eZzN6n0UejkACgDex5BJYI2ETCQsDmJr18a/C/KJbsoeFIANBGhcbJgCUFB4U2s0beGnt6+WgdEgC0nc0VKNaChKD5Jg3+cC1o8NFaJADAepYQWBJQ6HhCwITCPE1K+teJHj5wAhIAYGcHdTwpOE9UCbw6NBWM4QM7IAEAdqfQOBk4R8eTAioFaVgvvtL6xr4SvXtgLiQAwOJYEhDWPp439W/szsaG/vDax0oA9owEAIhvUh2YVAwOaJwcBFE1OKrjY/XWwJeioQeSIAEA6jWZdGgfLTE4Q+NE4fS1CMo3SZg07tVa3K3jDfzka5TtgZqQAAB5CDqeFEwnB+bA1M9MTH5Gm3xvJ5OGe1q1yfcOb/hepfWNPgDH/j+CmS9xTGJMagAAAABJRU5ErkJggg==;" vertex="1" parent="BE3_SHiMCwZjSVx6Z5An-33">
          <mxGeometry x="38" width="36" height="36" as="geometry" />
        </mxCell>
        <mxCell id="BE3_SHiMCwZjSVx6Z5An-34" value="" style="group" vertex="1" connectable="0" parent="1">
          <mxGeometry x="674" y="327" width="80" height="73" as="geometry" />
        </mxCell>
        <mxCell id="BE3_SHiMCwZjSVx6Z5An-19" value="" style="shape=image;verticalLabelPosition=bottom;labelBackgroundColor=default;verticalAlign=top;aspect=fixed;imageAspect=0;image=data:image/png,iVBORw0KGgoAAAANSUhEUgAAAgAAAAIACAYAAAD0eNT6AAAACXBIWXMAAAsTAAALEwEAmpwYAAAAAXNSR0IArs4c6QAAAARnQU1BAACxjwv8YQUAAD8LSURBVHgB7d17rGxnXf/xD6eHlnJrC7SAYM9TuZRb6KmAeCF2IX+AILS/KEaiOCM0ATWxQCJiSNxTjCAqtGCi4Q/dU4IRidBWQlTQzBANEAr0NBTaJpS1jqW0tMVzSm3T0sv+7e/MnnNm77MvM3vP86zvs9b7lXzZZ1/o3jPr8nyf73NZjxKAHITVOH0twtTXzIG1j5PvT39Pm3xvFtXUv4+uxcbvHZ76/OiGqATAtUcJQJ0mDbqFNeTnrMZpU1+bt+H2ZJIITJKC61bjiMaJg31+SOsTCwAJkQAA8YXVOKjjDfyBtc9zbtwXZZIkWFhiUGqcKEwSBACRkAAAixN0vKE/uBb2tbY38nthSUClcVIw+TeJAbAAJADA/CZl+wtEQ1+HSXXAkoJJxWAoAHMhAQB2Zg38dGN/UPDo0FoMdbxiAGALJADAetaLtwb+otU4T8fH6pGfSaXgixonBUw6BKaQAKDtrHEv1mLSy0dzTScEFiQEaC0SALTNdA+fBh+ThOAqMY8ALUMCgDaYjOFfJEr62N5Q42TAkgLmEKDRSADQRNO9/At14q54wCwqjROCK0R1AA1EAoCmsEbfGvyO6OVj8WyuwFDHqwOVgMyRACBn1shbg28NfyEgneFq9EUygIyRACA3NPrwZiiSAWSIBAA5oNFHLoYaJwNXiyWGcI4EAJ4Vq3HJ2kfG9JGbvsaJwFUCHCIBgDeFxkv23iEafTRDpXFl4FIxRABHSADgASV+tMVQDBHACRIA1KnQ8aV79PbRJtb429AAVQHUhgQAqU2v1y8EYKhxVeAKAQmRACAVa/htQh9j+8DmKjFXAECDFKtx5WqsEAQxcyyLB1UhMioAiKVYjSVR5o+lmvp4VMcnlB3e5Gcmpn9uO2Gbzw9s+NrpaxGEGIZieACRkABgkSaz+a3MH4TdqKbi7tUo1z5OvjZrI16H6WTAPlqycMbax8nX6NXuTrUaPZEIYIFIALAIjO/PzhrvSuNHzR6e+vfk620QtD4hOG/q35w/26s0TgTYdhh7RgKAvaDh35o16NawX6dxL94+VuKmvZPppOCctY8kBieqdHxooBKwCyQA2A0a/vUqjRv7oca9+kPiprxoQeNEYJIcHBTDTKYSiQB2iQQA86DhX9+zH64FO7rVw87BQuNk4AK1u1JQiUQAQAR2U7UZ/UeU11KqRUSp8ZIsS3yYwOafHaOuxktP7dh5P79inK9LojoCYI/a2PDba13WuBEJQu6Cxseyr3YlBKXGK3IAYG5dtaPht9c40LiHH4SmswqBHWs75jmcnyQCAJIpVuNa5XWT281N8fK118okxnYr1I7qQCkSAQBbKNTsXtFA9PKxvaDmVwcG4hoAsMZ6wJcpr5vYvI0+vXzMK2g8DGbnUA7n+ryxLBIBoNWW1Lxx/oFo9LFYQc1MBkqN7wEAWqRQs8Y8B6LRRxpBzUsGSjE/AGi8oObcuEqN90Sn0UddgsbnoJ2LOVwzO8WyGBYAGmlJ+Zf77e+fzN4HPCk0Xk3QhCG1JQFohEL591AGosSPPNg52lX+S2lLsfMlkK3cZ/fT20furAHtK++qwLIYFgCycpHyvelYz4nePpokaFwVKJXXtTiJUkwSBNwLyneS30D09tF8hcYPKsrlupyOZVENAFyyXnNuvf5JmZ+xRrRN0Hh4IKfr1aIU1QDAjaD8ev3W8PdEmR8IynMp4bKoBgC1ym2sn4Yf2FpXeSUC9rd2BCApa0BzGkcsxY0CmFVXeSUCy6IaACRRKJ+bg/2dHQHYja7yutYLAYgml3X9djPoCMAidJVPIrAkAAsVlMfOYjbG3xGAGLrKIxGwvzEIwJ7lsLyPyX1AOl35TwTsnvAOAdiVHLbypeEH6hE0vvY83x8slsX9AZhLkP8MnwsbqF+Q/w2FSjEkAMzEe8l/IGb7At4E+d4QjCEBYBveS/6laPgB77ryXT28TADWCfI7y59xfiA/Pfm8n0w6E0EARr1qryX/gbhQgVwF+Z0fUIqKIlrOxvu5OAHE1JXfYYElAS1j5fRl+bwge6LcDzRRTz7vOcwLQGsE+RzvH4hyP9B0QT6rAaW4/6DhDsrfxcfyHKB97Jr3NveoFEkAGqojfxfcQFxwQFsF+ZskaPfIiwQ0yJL8XWT0+gGYrvxVJpcENIC3zX0GotcPYL0gfzsJMjkQ2bKZ9J4uKHr9AHbibW7AlWJVEjIT5Gum/7Wi1w9gNkG+hgRKcf9CJoJ8XTyXCwDm15Of+1gpkgA452mZn/0dhQBg9wr5uqcdFOBQIT9jZ4ybAViUID/LBe0eSxIAVzrycXFYMNEPQAw9+bnPdQQ44OWBPqXIjAHEFeRnSIDODmq1JB8XwkCU/AGkETQeZvRw71sSUAM78TxcAD0BQHo9+bgHLglIyE64uk96mwxTCADqY/v2lyIJQEvYiVb3yc7GPgC8CCIJQAvYCVb3Sd4X4/0AfLF7Ul8kAWgoO7HqPrl7AgC/eiIJQMPYCVXnCW3j/V0BgH82L6DuTdGWBCyAnUh1nsilWN8PIC9B9c8LWBKwB3YC1XkCM9kPQK6CSAKQKTtx6jxx2c8fQO7sHlb3pkFLAuZQ9/a+PMIXQJP0VO89lW2DMZOO6j1RewKA5ump3ntrR8A2bLJdnScoWSqAJrN7XJ332ELAJqzxr2vpCsv8ALRFV/Xea1lVhXWC6putygkJoG3q7HCVYnUV1gTV1/jb76XxB9BGQfXee4PQarZEhRMQAOoRVN892PZZYal1i9W1PrUUjT8AmKD6koCB0EqXicYfADwIqi8JuExolSXR+AOAJ0H1JQFLQivYk6po/AHAn6D6koCO0GhB9Sw9KUXjDwCzCKonCWBJdoMF1XNS0fgDwHyCuF9jgTiZACAfQfXct1ke2DB1zPgvReMPAHsRVE8SsCw0wpJo/AEgV0H1JAE8nC1zhdKfNDaRJAgAsCh1PTugELIUlD5rZBYpAMRRRxJAhy5TpdKeKBZdAQBi6Sr9fZ1JgZmpY9If40UAEJ/da1Pf39kuOBOXKP3J0RMAIJWe0t/n6eQ5F5R+jKgnAEBqlyvtvZ75AI7ZGE2ptCfElQIA1CX1I91LMR/Apb44EQCgTewebJP0Ut77mQ/gTOpx/1KUggDAg6D01V/mAzgRlHbcn3EgAPAl9R4BtANOlEp30C0uEgDAm67StgXXCrVaUtoD3hMAwKue0rYJzAeoSaG0B3pZAADv+krbNhRCUkFpS//2u5jxDwD+pV4ZQPuQWF9pD24QACAXQWknBbInTCJdpTuoFkz6A4D8FKKtaJSgtKX/ngAAueopXXvB0sDI+kp3MCnpAED+BkrXbgyEKLpKdxBLkckBQBOkfk4MuwQuWFDaAxgEAGgK2ykwVfvBUMCC9ZXu4PUEAGga65mnakcGwkJ0le6gLQsA0FQpHx/MqoA9CkpX+i9F2QYAmizlfIAjYoOgPekrXbZWCADQdIXStSs8K2CXUk7a6AkA0BaXK137UghzK5Xm4JQCALRNqucF0MbMaUlpDgzLNQCgnYLSPS+gJ8wkKM0BsWDDBgBor1RLA+lszqivNAdkIABA21lbQJvjQFdpDkQpsjEAQNqhgELYkjXMKQ5CRwAAjKUaCiiFTS0pzQFYFgAA6w2Upg3qCesEpen9MxEDALCZoDRDAewQuEFfaTIvZv0DALaSaiiAHQLXBKV5w0sBALC9gdK0SYWQ7M0OAgBge0Fp2qSBWq6rNG90TwAAzKanNG1ToRo9SvUqFb9nXq3GOUITnb5FzKpa+3h0LSoBwPg+Ys8KCIrr0Gqcr5rsV326SlOW7wm5Cho/FfKAxkncaWuf76axn0e1FpYUHNY4Ub1u7fNDAtB0dq3/juKX6e1+1lmNK1SDOisAKXr/fY0PInwLGpfCJo39Qfmes2FJQKVxUjD5N4kB0DyWABSKy5KNc9Y+tkJXacZXguCN9dov0vh53HZxpdqCM3YcWXs9l6+9viAAuQtKc4/qqSWC0mz60xM8sAa/q3HDmOK4ewobQ1wWCQGQs57i3ytasznQkuK/maVQp0Lj4zxQ2gY3h4TgcrH+F8iJNcyl4t8fekos9RyAoHGjEBRXVzVNqmgpu0Bs3N56uh2xzeUsqtUYrsbVq3GVgGYo5CvBtYZ7EW1BofgTAhs/F2BJ8bOo2AcJxxUa92ibMo5fV9j7tywqA8jfQL6urY4WJ8Vr66mhgtKUUYIQU6FxIkejHydKjZOBICAvQf6up6DFKaTof29j5wIsKf6btyzEYCfkJWJMP3XYnIGOgDx05e/6WbS+FP3v7qlhguj95yiI3r6HKEVVAP4N5Ou6eYcWzzpDse+HjasCLCn+we4Ji1KI3r7XuFLMFYA/Qf6ulaA4elL0v72nhgiK3/svRe9oEQrR8OcSpRgegB9d+bo+YpT/J6gCzKGr+Ae7I+xFVzT8uUYpzn/UbyBf10VPcfUk5f4akigV/waI3SnUvt35mhqlSARQD+uperseDiouqgAz6Cr+ge4I8ypEj7+pUYprAml15e8aSKErKfZriTGRMRk7EE040E1hWfFA6S9IIn0MxLwYpGETUz2d+5crnVJxX0upTHUV/0B3hFlYGekypb8QifpjWSQCiKeN5f9pXcV/PYUyNFDcN6UUZmEb+LCOv91RKvNSItyy5394O9dTKxX3NQ2UGcvAYh/ojrCdQpT7ifVRimoAFqsvX+f4stLrKv7rKpSRvuLfyLA5yv3ETmHnB09sxCJ4qy4WqkepuK/rSmUiKP5B7gibKcSyPmK2KMWOgtgbyv/HdRX/9WWRtPfV3IPsFb1+YrdBNQC71Zevc3lZ9YpdDekpA6XivgkdYZrNt4j9nhPNjlLMDcD87LzxdB4XqldPcV+f+42Buop/o8JxNsN/hSAWFEsCZlPI17lbqn4pdgfsyLGB4r74nmDsRIv9XhPtDJtsFARsry9f5+2yfOgp7uscyKmg+Ac5CIUo+RNxo1TazVSQHztHPJ2zF8qHFFWAQg71FfdFLwuU/ImUsSTgRIV8nadH5IttRRzz9abc6ngmKbKeoPZilj9RV7BKABv15escXZYvsTfCczcZsKu4L/gqtVdYjWuV/qIiiEmUYvgNx9n54On89FL+nzZQ3Nfsamvv2C+2UDuxxI/wEqVIAuCv/L8inwrFfc0DOREU/8bTRrbLFg/xITyFnY92XqK9Yo9vzxueq8OxK7d7nqi7T3vXU1w9tY9N9rPlWIy9whM7H+28XBLaylu53fMe+VcoLhfJeKm4PY6gdrGb6wpBOI8loW1SPOV13vDcSYo9Ob721Q+xHwaxrHZZUvoLiCB2G0tCm1D+n1/s96xQjfqK++LatBkJy/yIHGNZaAtvq5E68q9Q3PegtiGQ0xX3hV2r9lhW+ouHIBYVy0LTBfk774LyMFC892BPewLsZRJg7AkI7nY7imRZ430UgFx1RRLQdN5WfwxXo1IerlY81vh3VQO3WU1G7Ka5QhANiWWhqSj/717syYADJRbEjWSvGPMnmhjLQtME+TvPgvISezLgrjrMux0CKBRX7PWTdVuSs60cgQXpitUBTVPIl6HyKf9PxF6x0FVCA8XLZEo1m90cVwii4bEkNMVAvs6tjvJUKt57MlAiQXEPbk/NtaT0FwtB1BVLQu6C/J1XQXnqKe77kmTeXFeK+iKCmin2pkkE4TE6Qs668nU+5bw8PPbS+STDygMp2gsYqJlsQyMe7EO0Mey8b9OGXk0zkK/zKfe5UzHfz4EiC1K0P96io+YJ4pG+RLujFI8SzlGQv3MpKG+WwMR8f+YaBph3FUChuL6oZrGDMRA3P7Rb0Pg64OmWeSnkyyHlN/t/o77immvDpnkTgJiPghwq/4O7ka39DAIQNN77AvnoyJeYO+qlclTjti6WqMcs5ji2t5Ntr5ZUT4mMIDzHkpCD2BPWdhNNmUsScxgg2i66hRTtj7YIao5C6S8OgsglCsG7rnydM6WaI3ZyVWhG8wwBdBXPUM0p/wexHSqwHXuEaRA8izncuxtNKP9PxB4GiPLgJsvAYmUsHTWHt4dmEITHGAheUf6PL+YwQKkFO6h4f6xFUDMsKf2FQRC5BpMCffK2aVmp5omdZIVZ/ohZhwAKxTNUM8r/liT1BGBW1gsqBG+ilJD3YKjmcTEMMGsCEHM8qAljO0HjcU0A81kW+wN44238v6lPh43Z9i30GNZeqnCur/RlMYJoSiwLXlD+Tyco3vs203LAWSoAheKplH/5vyseeALsRVf+ys5tRfk/nUrx2j9r/HecODlLAhDzhBgqb0FsbAIswrIYCvDgAvnS1PL/RMxhgB3b7v3aWcwTIveD2xPrmRfqrLPO0m7ce++9o4j1O+644w4hKmv8LZl+p1CXQr7uZ5WaXQEwV63GJYpjx7b7UTt83y7KI4pnp9/vWSHWMi/ct7/9bZ199tma1wc+8AH92Z/92Y4/F0LQ9ddfr3kcPnxYL3zhC4UkXqnm3/S96svXcGZ/NX5HzWZtbKl41a8zNF5xsKmdKgCF4hkqb0xciuDUU0/V4x73OM3r0Y9+9Mw/O+9//7GPfayQjF1X52ubmxai8Vb+v0rNZ+e5PeWwUBx2TLccZthpDkCheHJe/melyiAAixY03h8AaRXydU+zhrFJ2/9uJ+brfOV239wpAYiZEQ6VpyA2/AFisjHRIKTUlS9t6P1PxHyt27bh2yUAMy0j2KVK47JHjnoCEJPdexhiS4vyf30qxRvysjZ8y/kF+3b4P8YyVJ4KseYfSKEQ2wSnUshfxaUt5f+JmK93y7Z8uwSgUDxD5YleCZAOe2yk4W3zn7Y1/maoeLY8vtslADFLQl9UfrpiXBJIqRAVtxS87f3fxueqDBXPeVt9o44hgEp5bv9LbwRIryd2CIzJ7vNBvrSxAlApXrs49xDAthMH9ug65acrev9AHYJYFhhTV75Y49/WPSBiVca3nNC/XQIQS47lHXr/QH1sWSBVgDi8zf5v82PVY66MKzb74r55fnhBcqsAdEXvH6iTNf5UARYvKG5nbzdynB+2KEPFs+k8gH3z/PACTLY9zAm9f6B+VAEWz+Ojfyu1l7WNMfcDOEHqIYDcGv+u6P0DHlAFWDxvKyz6Qqw2ctN5fZslAIXiya28Q+8f8CPWY1PbKIjyv0cxh8jDxi9slgDEPCmuVT66ovcPeGI9GPYFWIxCvgzV7vL/xFDxFBu/sFkCEBRPThkevX/An66wCJT/fRoqnhPm9u2b5YcWpFI+6zsL0fsHPCrEMwL2Ksjfe0j5f8zayEpxnFDdTzkEkNPyv64AeEV1bm8K+WIT3yphItZEwLDxCxsTgJg7AOayAiCIcUbAs0IsCdwLb/e3K4RpMXcEDNNf2JgABMWTywTArgB4x5LA3QnyVwG4SphWKZ51Q/z7N3wz5gqAXIYA6P1v4lGPetS2319ZWVHs37Gdpz71qXr5y1+uk08+WaeccsooHvOYx4w+P+mkk7Rv375RnH767juO9vct4nViIWxJYE+YVyFfKP+fKGa1/JzpTzbecW0f5hi7Q9nEhjPkn732Nu9FvSlr+P7yL/9SRVEcawAfeeSRTT8+/PDDo5/Z+HHy/WnWIJtJQ71//3699KUv1W5s1zDvJbEw99xzj6655hrdeuutuvHGG/Wd73xHt99+u77//e/rtttu07333ivU4pWKO2u6iQbylQRcKhK5zRxRnGGu/mr8zuSTjRWAoDhyGf/3tjWmG+eee65e8pKXyKu9NvLbecITnqBf+qVfOvb5dLLxwx/+UDfddJO++tWv6ktf+pJuvvlmXX/99XrwwQeF6Gwy4FCYlTUohXyh/L85azMLLd62Vf6VSHG5/AuK9/qzjtXGdeWzn/3sCra3WuUYffze97638rnPfW7l7W9/+8ozn/nMrI51hsFkwNl15evYlcJWrM2M8Z4fmf4l05MAY47/V/KvELAHkyrEM57xDL32ta/V3/zN34yGDP7zP/9Tb3zjG/XoRz9aWLiuMKsL5cvVwlYqxbFuJcC+Dd+IJYchgI6ABbKE4HGPe9xo+OBTn/qUbrnlFr3nPe/Z00REnMBbo+aVnXTehjj7wlZitpnHVgKkqgB4TwCCqAAgMlup8IEPfEBlWeqP//iP9RM/8RPCnhViGGAWhXyplN/TYVOqFM+xlQDTCUBQHEflfwvgQkAiVgF4//vfr6985SujoQHsWVfYibfe/1DYTqV47WaY/GM6ATigOCj/A5v4yZ/8ydHQwMc//nE9+clPFnaNYYCdeXuP2P1vZ5XiCJN/pKgA3C3fgqgAoEZvfvOb9W//9m96znOeI+xKIYYBtmO9f0/vTyUqALOItXnepnMAguLwXgEoBNTMNkD6/Oc/P5ongF1hD4+tUf7PU6U4jiWD+6a+ECtD9P4MAMqHcCGEoMFgoKc//enC3EgAtnaBfKH8P5tKcRxr7ycJQMwVAN6HAAoBTjz/+c/XX//1Xwtz89bIeVEo7kPe5lWJCsCsYlbPg/3PdAUglkp+FWLsEM786q/+qn73d39XmIvHbW496MqXoTCrmKvnRpP+J88CCIqnkl+FMBN7EI7tcb8d2/jGHuxj49i2AU7M/fmb7n3ve99oYqDtGYCZFaKB2chbZYS9/2dXKZ51TwXsKc6+w97H/weqZw/sRsfTnva0lU6ns3LNNdeseGX79k/27vfq0ksvzeq4O4iBMK2Qr+NzRJhXqTjHYvR8nkkXLdZjgIcaP7LTqxUhqre97W26/PLLR5WBmD7zmc/o05/+tB566CE98MAD+vGPfzwKexyxfc2ezmd78VucccYZOuuss0bx+Mc/Xmeeeaae/exn61nPepZWkxc3lYujR4+Onitw3333CTOxkuk58r/xWCp9+drjpK+pR9FiJgPFqVT3NXUs7JfEyDKW5VeherLg1sVv/dZvrcTW6/Xm/rvsKYcWk89POeWUlXPPPXfl9a9//crf//3fr9x55521Vgnsd1988cWuj63DKISJUr6ODSuu5tdXnGMxsP947EmAh+VXzJUPmPKJT3xCw+FQ3qy2saOYsMrBTTfdpM9+9rN6y1veMtqr3x7k88///M9abYyVmlUi3vSmNzGXYj5c12OFfM3+Nzz9b35RtwPeN/1JBJ5LcRcIyfT7/XWNbQ5s2MASF9uv30rxtmVv6tfwspe9jH0B5lMIxtu+CDT+u1MpjnX7AMSqAJTyqxCSufnmm5Wz22+/XZ1OR6973ev0ve99T6nYHAXbIAgzI7Ef81Zuv1LYjVid6GMJQFA8XjcBCmL9f1L33nuvmuBf//Vf9epXv1p33XWXUrDy/8tf/nJhZnZdB7WbDYME+UIFYHcqxRMsAWjjJkCME2LXvv3tb6vb7SqV5z3vecwDmE+hduvKF2v8WZmxO5XiOT12AuD1oJMAYE8+97nP6R//8R+Vgi1PxFzafn17Gwah/L97MdvQ1iYA5wnYoz/8wz/U//3f/yk2W42AuQS1V5C/BOiLwm7FbEOjDgFU8isI2CPbHtk2IIrtKU95SnYrKGrW5gTf46N/K2EvKkUScxKg5zEfhgCwEF/4wheiN86PfexjhbkEtXeSb0e+9AWvwj7Fw/g/Gu9rX/uaYqP3vytB7RNE+b+JKkUSexmgR0HAgnz3u99VbD/60Y9YBTC/Nib6hXwZivL/IsTqTB+IWQGo5BMVACyMPXDo/vvvV0w/+MEPhLkFtQ/l/2aKtp+OJQAH1C5BwILs379/9ITBmGznQYYB5tbG+1ohXyj/+3ZGzAqA1wcBte3GgIgOHDigk046STEdOnRImFtQuxTyxU7aSliESnGcFjMB8IotgLEwtklPzPF56/l/9atfFeYW1C7eyv9XCO7F3gjIoyBgQYqiUEwPPfSQrr/+emFubbqvBfmrAFwleNe6jYBOFxUALMjTnvY0vfWtb1VMX/7yl3X4sNfRNNfadK0X8oXy/2JViqRtQwA0/liYiy++WGeddZZi+tjHPsYEwN1ry/XurfzPk/8y0bYEIAhYAHtE75/8yZ8oJttq+N///d+FXQtqPktyCvlC+T8TbdwICNiT173udaMtgGMv//urv/or/fCHPxR2Laj5vO39X2k8BAD/Tm/bRkBBwC6dcsop+vCHP6yrr75aT3jCExTTDTfcoOXlZQE7uFC+UP5fvFg7AZ6+X+3CHADsys/93M/pox/9qF760pcqtkceeURve9vbdPfd0TYAa4umX+/2+rxVAPrCokV7rg4JALCNV73qVXrnO9+pV77ylcmeyvfud79b//Vf/yXsWdOv90K+VKL8n5W2JQDAls4444zRuv5zzz131OBbr//xj3980gfx/Pmf/7k+9KEPCZiBt97/UMgKFQA0gi3He9GLXjTaOMfi4YcfHn193759Ovnkk0e9d2vMn/jEJ47i1FNPHX1ujf5P/dRPjWb1P/vZzx79f+p48t4DDzygD37wg1paWhIWpunbfnsb/2f3vwytRIpC/vQV7/US28T555+/sjq2vZKC/Z7VBGAUk99pHycx/XOp/qbt3HPPPSvdbjer45lJLKu5rPfv6b0uhVgKRTpuDAGgcawHv7EXv1mvvo6e/kb//d//rd/7vd/TN7/5TQFzoPyPPWvjw4CA2tn6/t/8zd/UL/7iL9L4YzcukC+U/zNEBQCogc1B+P3f/309/elPH834v+aaa9jyF7Mq5GtPk0pUALIUMwE4TQA2ZZMSf/7nf34U1vB/4xvf0Mc//nF96lOf0u233y5gG135MhSyZEMAsTYZOEMAdmRzEV7ykpfoIx/5iG666abRMsAzzzxTwBa8lf/Z+z+uoEhiJgAA5mRLFN/1rnfplltuGS0J9DBREa4U8lX+t/aD7X/zVDEJEHDInjvQ6/VGQwPPfe5zBazpyhd6/xlrWwJQCcjIwYMHR6sEXvva1wpza+LDFCj/Y2FiJgBBAPbMdjL8l3/5F733ve8V5tK04c1C/u6rlP/jC4rjqCUAlQC4dtJJJ+l973uf3v72twut5W3zHxr/vB1lCADIhD3X4G//9m9HDyrCTCo1i7e9/68Usmb7AMQqkx0QkNgjjzxy7IFA0w8Gsq9P7N+/fzTJztbiW6Nqpjfh8T7z/pOf/KRe8IIXjHYTRGscFOX/tgqKxBKAJk6U2UolNJKtob/88suPJQDW6G+VAFg5ffoJgfYkQQt7MuBpp52mJz3pSXrxi1+sF77whTr77LNH/x9PSYH9rR/72Mf0a7/2a8K2KjVHV75Y488S8rxVMXcC9LgRUCU00tGjR1VV1Tz/l2M96BtuuOGE71mDb1WBZz3rWXre856nV7/61XrDG96gAwd8FLZe85rX6BWveMXoYUJoBW+z/yn/pxPtphNzEiBbASNbkyGBm2++WZ/73Of0B3/wB6P1+C972ctG6/MPHTpU6979j3vc4/Tud79b2FalZggaDwF48kUhd4fbtgywErBLP/7xj/W1r31Nl1566SgRuOiii/T1r39ddXn9618/Gg7Alio1g8dH/1ZCKqcrkjYuA6wE7JHNLbC1+S996Ut18cUX66677lId3vKWtwibatL4dEe+9IWUYiUAVRs3AmLiChbq7/7u73TBBReoLEulZvMAeF7Apg6pGYIo/7ddUBxHYlcAopUu9uA6AQv27W9/e7Q+/4477lBKP/MzPzN6gBBO0JTVTYV8GYoqakox29C7Yz8N0GMCQAUAURw+fFgXXnih7rnnHqXylKc8ZbRKASeo1AyU/9stZht6NHYCEORPU0qDcOgrX/mKlpeXlYqV/88991zhBJXyF+SvAkD5P62geKI/CyDIHxIARGXLBP/3f/9XKdhSRFYCbKoJ13khX+w9rYSUYlYAjk0CjFUFYAgArXPkyBFdccUVSsEqALZ7IU7QhATAW/k/zUmNaUFxjNrB2AlAkD+VSAIQ2ZVXptsozbYzZiXAOkeV/zUe5K8CcJWQWrQlgPY/+6Y/icBr14RhAET1rW99S3feeadSOPXUU4V1KP8vHuX/egTFsa4CcFhxBPnEUkBEZcMAd9+dZiXa5ImGOKYJ17e38j9P/qtHrOcAjG5ObRwCMFQAEN3999+vFGyLYqxTKW9W9i3kC+X/esQaAhi1gbGHAIJ8IgFAdKnG5e+77z5hndyvb297/1finlmXWLtArhsCqBRPkD+VmAiIiPbv359sdv6PfvSjWp9M6NBQebtQvlD+r0dQPKN9y1MkAF6XAlYCIjn77LP19Kc/XSmk3HkwA7n3VO1+6a0C0BfqEBTPujkAleLx9iCLCXa0QjT2qN4Uk/Os559qtUEmcr+uC/lSifJ/XWJ2ntfNAYi5bjbIJ05qRGEN/5vf/OZkcwDsQUQ4ZqC8eev9D4W6xBz/XzcHYPLFGGItY9grZrUiil//9V/X+eefrxTuvfdeffe73xWOyX0JoLfxf3b/q895iqOa/GM6AYjVI/Y6BMA8ACzc0572NL3//e9P1vv/5je/yRyA4yrlfU1b79/TnKlKVADqFOtcOLbvz77NvrhgQX4xuxULY43+hz/8YZ1zzjlK5atf/SorAI4bKm+U/zEtVue5mvxj32ZfXDDLYoJ8Yh4AFuKUU05Rv9/Xm970JqViDf+Xv/xl4Zjch/UukC+U/+tzuiI/B8CkSABMkE/MA8Ce2Xj/ddddp9/+7d9WSrb+//Of/7xwTM7j/4V83ScrUQGoU8yh82Md3xRzAIzneQBDIbrHPOYxjXti3U//9E/rE5/4hL7+9a/r3HPPVWpf+tKXdPQo+1mtGSrv8f+ufBkKdYrZZh67aeyf+mK19o0YZYcgv2zdcCFEdfDgwVHJOvckwJb4/fIv/7Le+ta36ld+5Vf06Ec/WnVZXl5m/P+43Nf/eyv/Ux2tV1A8xzr7+zd8o1KczCPWcoZFGK7GkhDNq171qqQz4xfB/lZrXG1L3wMHDugXfuEXRq/jNa95jc4888zaX8uNN96oK6+8Ujgm5warkK9OknUEmSBdr1ht5rpK/8YEwMbQYiQAXocAzFDxKh+N87rXvU4vf/nLd/y5k046SWeccYZe8YpX6DnPec5oCCC2SaO8Xa94s5+ZfM327n/+85+vF7/4xXruc5+rn/3Znx1t5/vUpz5Vj33sY+WJ9f4feughYaRS3hN6u/KF3n/9YrWZ61b7bUwA7CKK8RzqyUqASj7ZbNdLhG1ZQ/mOd7xj1BOe5WdTeuMb36gXvvCFo0ZxOh5++OFjPfmTTz551JBbMnL66afrKU95ik499VQ98YlPHH3dvj/p+XuuVtxyyy366Ec/KhwzVN4o/2NaUOTHAE9sNgQQy3nymwDYCU8CMIOzzjrLZeP4ghe8YBSL4H2o4r3vfa/uv/9+4Zicl6sV8jdHivJ/vWJWzK+d/mTj00piltHS7Y4yv6F4PPCOHv/4x+uZz3ymUJ/Pfvaz+uQnPykcUynvCoC3zX9o/OsXMwFYNwSwMQGoFK8hLOQbm17s4FnPepae9KQnCfX4n//5H11yySV68MEHhWOGypu3vf+ZWVq/WBMArW1f18nf7HmlleLwvBLAMO61A5scx7KzethchosvvlhlWQrr5Jy4W08vyBcqAPWLVQE4ocK/WQIQazetIN8z7Ydi84ttveQlL2ncZj65+KM/+iN94QtfENaplPc125Uv1vgzFFqvmFvnn9C2b5YAxJwH4G2260a5byYSlQ0BIC1byfCe97xHH/rQh4QT9JQ3b/dDyv/1KxRPtfELmyUAQ8XzSvl2ubAp6/k/4xnPENK5++679Ru/8Rv64Ac/KGwq54Q9yN/+KHSA6pfkGQATKecAGO/zAHg2wBZsnbyts0ca11xzzWgTpU9/+tPCpqxcXSlfHh/9Wwl1i1kVGm78wmYJwAkzBRfI846AE5cKJ3jRi15U6773bXHXXXfpXe9612i3xeuvv17YUu7Vuhgbru1FX/Ag2QRAs2+LH441EdAmOHhPAobKe1vRKKz3zwqAeO677z79xV/8hV72spfpsssu473eXqW8K3VBlP9xIjsnkuwAOLF/mx+OlaEW8t/AWnkxh2pFMs973vNYARCBbev7mc98ZjTOf9tttwkz6SlvhXwZivK/BzHbnOFmX9w/zw8viPd5AMbKi7Y1sOdli8lYw3/22WcLi2Eb+Vx11VX6h3/4B/3Hf/yH7r33XmFmNkSZe2+V8j82E3NTqLmr+kdWYyVC5LKTSU9xXn92sZoArNxwww0rmN8jjzwy+njHHXes/NM//dPKG97whpUnPOEJWR1/Z7GsvAX5e0+D4EGpOMf3yFa/cLua7kDxSlX2XIBKvlnv/4igM888c7QNbYpH+uZoZerpgda7v/POO0eT+b71rW/py1/+8mj//qqqhIXI4d6xna58JTE2HHu+ULegeJ3jobZYgr9/m/+TlQwKxVHIf9nJSo22zWhHLWdLAK1cvVennHLK6PG79iheSybs4UIW9jje0047bbTKYC/zDFYiPsZ38t+2jXmOHj2qH/zgB/r+97+vI0eOjD7/zne+oxtvvHHU6N9666164IEHjj1aGAvTV/5j1d7uJzwDxYdC8Ww5ZLbd3bLQuAoQQ381fkf+BeUzZOHepHGebhQnX9u/f7+e/OQnj3rMIQTNy9bLX3311Tr55JN10kknjWLy37aPk39b8vGnf/qnmoc19jY73zbmsfF625d/u9eEaHLv/Qf5u5/k/p42RV/xkkPr/Q81JyuBxxpzyqm0bknQCpEmyrJc2Y1er3fsv2FzFraK1eRiZV72N+X0HjY0lpW/rny9p9cKXpSKd5y3nMy+b+u/J+qGQDEfeLBobAyUGeuNbxXIVhOuw4584cl/PsR8KqS14Vs+4Gm7BMDEXG7jbSvMrQzFOBlQp77yL1Nbp6eQL1cJHhSKZ9s2fKcEYKh4Yq55XLSeANSlCb1/bx2eSux46kXMtnCw3TfrTABibnu4aNVqfEQAUuurGZPUvHV4KP/7USiePVUAYs8DyGm73Z62GUsBEEUTev92r/NWAegLHhSKZ9vxf7NTAmCYBzBmbyRVACAda/wr5a+QL5Uo/3vRVTw7tt2zJAAxJ4rkNA/A2DMCKgGIrVL+j/yd8NbRGQpeXKB4dmy7Z0kAdiwj7EFQXvtQ2/vwTgGIrafmDLl56+iwqsmHoLjt33CnH5glAYg5D8DkNAxgLKsaCkAsdr9pSiNl9zdPk50rcf/yImbbN5zlh2ZJAEzMGaO5DQOYHLYxBnL1/9QclP+xlZht30xt9qwJQMx5AIXyWQ44UYkdAoEYmjLxbyLmGO9uUP73ISju5NDhLD80awJQKe5F2VV+mBAILFalZm26VcjXHKdKVAC8KBRPpRmH7WdNAAzDAOvZ3AiGAoDFadr11JUvQ8GLmM+FGM76g/MkAAwDnGgo9gYAFqGv5jVQ3sr/7P3vQ1DcCsDMwzzzJAAxlwOarvLUE0MBwF5Uat7y2kK+yv9272b7Xx8KxWPHeTjrD8+TAMReDpjjMIBhKADYG7t+mrbNdle+0Pv3I2b5f66de+dJAEzMGaSF8hwGMEMxFADshs36H6p5KP9jM0FxKwBXzvPD8yYAsU+irvL1DrG/NjCPSs181HYhfzucUv73oVBcUSsAc40v7EKuwwATtoFJ00qZQAx2nbxSzeRt8x8afz9iz/6v5vh57df87GQqFEeh8TBAro1opfFkpmVhV77xjW/o9ttv17xuvfXWmX7uwQcf1Fe+8hXN47bbbhMWzipmlZrJW0dmrrIwogmKWwHoKwFroFciRk/5s02CVgiC2DSa8pS/zRyUv/c717lVTWNJb8zjHJTIQIr2Iko1w7Wq52InCM9Rqtm8Jf9M/vPDzv1Yx3mgXZh3DsBEzDGloPgTJVKw+QCVAExUau64/8QF8oXyvw+F4vbQ+0oo9jBAU0qEHsuBBFFX2PXQZEH+3vMgeNBXw47zQPFezBE1Z9wq9rgPQeQQdh00nbdrfSB4YG2ZtWnujvNuhwBMzGEAe8O6agarZvDoYLSZnf9Nnvg30ZEvfcEDWxYas0PbVw3cZjVO9VVPL4Ag6oy+2iHI33sfBA9iTwivrVp+peK+sELNYQeJlQFEm8LO97YsQevK13s/EDyIPQ9sWXuwlyEAE3v/e287au3FZOezSkDzVWrXzpgd+dIXPIg996X2ZZ4xhwGaNBlwIijuelCCqDtKtav8HOTvGAShbkFx28dSe7TXCoCJWQVo0mTAiUpUAtBcldp3fhfyxR5KVgl1KxS3AzuUA7HHOK5VMwVRCSCaFaXa2fMcyNdxaMOSyxzY9RDzOAc5MVDcF1qomYJIAohmRKl2Nv5B/o5FEOpWKO4xHmgBFjEEYGI/bnJJzVSJ4QDkr1J7z+NCvlD+9+ESxdWXI7H3BLBo8jaiQVQCiDyjVLt7nAP5Oh49oW5BcY/xwibHL6oCYEt9rlBcXTVXJSoByE+ldp+3dhMu5AtP/6tfT3HZMXa3vLZQJlmPY0FUAog8ohRjzV35OyaoV1D84xy0IIuqAJih4i5LsMa/6bNbK417VIcE+GXnJxUr6UL5EnsuFnbWUVxDOb7uuoqb+bShCmDsNcbeZpkgdhN2XrZle9/txH4k+m6i6Y9bzkGpuMe4I8dSTAbsqT16Sn8TIYitog1P9JuVbVPu6diUQt264hhHb7SOqF16Sn8zIYiNweYy6/Xl6/gsC3UrxTFOUhrrqF0KMTmQqCcs4S6EjWJXOueNQqhTV/GPcVAmYo9fl2qfIJIAIm2UYqb/Zij/YyM7BjGP8bIyUij+Sd9R+1h1xcZhVwgicvTFZL+t9OXrWC0Ldeoq/jHOboLnQHHfkFLtZeOxKwQRIay0zXj/9kr5OmaFUKfY58NAGSoU/8TvqL2CGBIgFhulWEq2k0L+jhnq01X8Y9xRpuzk5OSPhyEBYlFh5xEl/5315eu4LQt1KhX3+JbKWIpSdUfoimoAsbuwkr9NasNsSvk6ft52I2yTruIf344ylmJjoFL0XEyQv94J4TvY1W8+hXwdv7btieJNqbjHt1QD9BT/QugJE11RDSC2D3r9u9OXr+O4LNSlq/jHt6MGSFEFaMszAmYVRDWA2DwY69+9Ur6OJeX/egSl6f0HNURP8S+GnrCRzei2E2mFaH1cK5aL7UUhf8cU9VhS/GPbU4NQBaiXTcYslf4GRdQfrOtfDG+rba4S6hAU/9iWauAOnD3Ff+OWha0EMSzQtqDcvzilfB3bjlCHvuIf254aKEUVwKIQthNEItD0GIgNfRbJ3ktvx5jELr2g+Me1VIOfv9FT/DdwIMyiUPztmom0MRAJcAyU/2Hs+op9bHtqMKoA/hQiEcg9BuKcj8kmUHo63h0hta7iH9dSLXj6Zk9p3khKZPMpRCKQWwxEwx9bkL/jHoTUSsU/rj21QKoqQE/YDRvv7CvtDY2YLwai4U/F25M3B0JqS4p/XEu1KLHrKf4baklGEHYraJwI2Im5QtQedj73xDmdGuX/dgviuC5cqirAQFiErvzdCNsSg9W4RAxp1SHI3/kQhJT6in9MS7VQV2kumEJYlMnwgJ2wK0S0sOTYZp4XQp268nVeDISUukpzXDtqqRS9ylL0nmLoavw0uRViYTHQ+CE9nK8+2PHwdH50hJRKxT+mpVqsUJoLpyfEEjROBgZKezNsQhwRJX6vgvydL0FIZUlpjmlHLTcQF09TWCNmPdi+GCbYKqzRX9Y4aaLR96srX+fNtUIqQWmO6UA1e5TqVyjNGzFcjVcKKRVrcYHaPZ49XI0vrn0cCjmwORjnyY+PiB0AUymVpsN4zmpUQrKtNnkqWn2st1toPBxjCV+KVSB1xKSs31t7vfTygXzYcFyK+8SyHPBQATB2kywV/2Z5dDXOF1mXFwen4ry1jzk1mHY+HVqN69Y+TgJAfoLGQy2x70GVxtXoSjXbLx/sRmolriXFZQfWMi+GAnzYrMG0YzRJCM5Z+zj5Wh2O6nhDf1jjRPXw2ueVADRFT2k6IFfIyb3DSwVgItXYyzs1HnZAXuziDFMfw9rXD6x9DBt+dquLudrk34enPj+64SOAZusqTVm+0rhjg00USjdOGwQAaLugdKuWOsK2BkpzIAYCALRdqjZnWdhRULoZ4qwKAID2SjXr3yIIM+kpzQFhKAAA2ikoXWezJ8ylVJoDww5bANA+qdqYUphboTQHx+IyAQDaYknp2pe6ljBnL9UOgRaFAABNVyhdu7Is7Jqt4041RlOKbVsBoMmC0pb+g7AnFyldtnalAABN1Ve69qQjLMRA6Q4aSwMBoHmWlK4dWRYWJijt0+OYtAEAzRGUrv0oRel/4axnnvIAMh8AAPIXlG7c36IjRDFQuoM4EAAgdza3K1W7sSxEE5R2KGBJAIBc2T08VXtRitJ/dClXBVgUAgDkJnVb0RGSSFnS4XkBAJCXoLTj/stCMjZBL+XBvVZMCgSAHKRuH+x3BSGpQukOMBkeAOShr7RtQyHUIuWzAiyWBADwyu7RKduEnlArK8+nPOAdAQC8ST3prxRqF5R2aaD9LnYKBAA/gtK3A0FwIeUugZPMLwgAULegtJP+LHhmjDOp5wOwMgAA6pV6xr/FsuBOHScCjw8GgPqk3BPGohQdP7eC0o4DWVwmAEBqS0p7r2fcPwOp5wNYLAkAkIrdc1Pf5xn3z0Tq+QCcHACQxiVKf3+/XMiGjdGk3h/AoiMAQCx2j019Xy+F7ASlnw/AHgEAEIfdW1Pf00sx7p+tQmlPFpIAAFi8oPSNv0UhZK2OSYGlyBoBYBGC0i/xtugJjdAXSQAA5CaonsafSX8NUtekwFIkAQCwG0H1NP6l0DhB9Z1MQQCAWQVxv8aC1TGLlJMKAGYXVE/jz05/LdBV+hOLJAAAdhZUT+NvcZHQCj2RBACAJ0H1Nf49oVXq2C6YJAAAThRUX+PPjP+WGogkAADqFFRf488j3VusruWBJAEAUG/jb7/3dKHVguo9AYMAoH1sVRb3XtQuqL4TkWcHAGibupZk0/hjU3WekPZ7OwKA5rN7XZ33Wjpc2FShek7KSbxDANBcl6jeeyyNP7bVVb0n6JIAoHns3lbnvbUrYAZ1PEKYJABAU12meu+pVFcxl57qPWFtfSpLVADkzO5hdi+r817aE7ALPdV74pZitiqAPAXVt88KjT8WoieSAACYR51r/Gn8sVA91Xsi29IVnlQFIAcd1bfMj8YfUfRU7wltsSQA8MvuUXXfJ3sCIuip/pN7WUwOBOCL3ZPs3lT3/bEnIKKe6j/JSzEvAIAPQfVP9qPxRzI9+UgCmBcAoE6F6h/vp/FHcj3Vf9JbLAkA0rN7j4d7YE9ADXrycQHYRhtBABCfjfcP5OPe1xNQo7q3DZ5EKZIAAHF5WN8/Cbb3hQtd+bggLJYEAItX95P8pqMrwBHLjD1MhrFYFtUAAIvhYT//Sdg9thDgkKfymP0dhQBg9wr5uqcdFOBYkJ8LxmJJADC/uh/hu7HxDwIyEOQrCeDiATCrIB8b+0zC/pYgICOexs0sbOyMWbMAtmMT/bzMZbIYiK3PkbHL5edimlxQQQBwXJCftf2TuFxAA/Tk68IqNX5kJwB46/Vb9AQ0iO3b7+0iWxbVAKCtgvz1+u0e2RXQQEG+JgdOLjjmBgDt4rHXX4plfmi4IH9JwOTiCwLQZEH+ev0WzPRHq3ibHDiJJQFoGptJb9e2x3tOX8z0Rwv15POCLMUkQaApCvmsOlow/IhWK+T34lwWZTkgV0E+y/0W7OkPrAnymwRYLAlALiblfm+T/CbBeD+wCa/zAixKMSwAeFfId2fC7nGM9wNbsDExr5m7xUBk74A3hfyW+y1YbgzMKMh3Fm+xLBIBoG7Wm+7L972iFPcKYC45XNgWS+LiBlLzPs4/CUr+wB54HxKYZPgdAYgtl4afkj+wIEH+hwRIBIC4usrjPsAsfyCCnvxf/CQCwGJ1lUfDb8EjfIGICuVzM7C/syMAu9FVXtd6IQDRBeUxQZBEAJhfV/k0/BZXiol+QHJd5XWjsL+1IwAb5TK5bzrsb71IAGoTlFc1YJIILImJQkCODb/FQFy/gBtd5VUNmMSyuJGgfQ5qPGEut4af5X2AU0H5VQMmYeOIhYBmK+R7y97tYiCSdcC9rvKsBqzo+DyBIKAZrMx/icbr43O4BjcGY/1AZoLyrQZMbjrLGpdKgRwVyrPMPx1s5QtkzBrQUnnddDaG9Zw64kYE/ya9/YHyusY2RimG5IDG6CmvG9BmMakKFAJ8KZR/b39yjfUEoHGC8h4WmI5S455WEFCPyRI+Oxe9Xy+zxEBcT0DjddWcm9bkxtURNy/E15QS/3SUoqoGtE5PzUoESAYQQxMbfQvK/UDLBTVnWIBkAIvS1EZ/EszuB3BMUHNvdpNkgDkD2E5Qsxv9yXVQCAA20VXzhgU2RilWE2DcAy407g3bOeH9vN1LXCvOdwAz6qr5N8VJDDTu+bHpUPMFHe/l575kb5aw19gRAOxCV+1JBFZ0vDrQEcMFTRA0PoftmLahwZ9u+HtinB/AHgU1c8XArAmBPaioIyoEObBjZD38ZbXzfKXhx8weJWB2QePeVEft7R0fXY1Dq/HFtY/Dta8hvckYvsV5Gjf+bW347Bz8iMbzGTgfMRMSAOxGEInAtErjZOC6tY+H1r6GxQkaN/AHNG7wD4pzz9DwY9dIALAXQSQCW5lUCiwpKHU8OeAmvb2wFtajP0f07LdCw489IwHAIgSNe2VLIhHYySQxsI/TSUGl9lQNgsYN+qQXf2Dq3zT026Phx8KQAGDRuiIR2IvphOCwxpO6Dk997aj83vhPX4uwFqdp3Is/beprQdiNSuNG/wrR8GNBSAAQS1fjoYFCiKHS+mSgWvt4eMPPaJvPNzNpxKeFqX8f2PBzYZOfweIMV+PStY8AkBUr7faV11Iqgqg7bOlpISAiKgBIJWi8PvkC0VsENsP4PpIiAUAdumJ4AJgYalwlu1o0/EiIBAB1ChpXBS4Us7/RLtbQ24S+q8T4PmpCAgAPrPG/SFQF0HxDjRt9ZvOjdiQA8CaIuQJolsnYvjX8hwQ4QQIAzy7S8coAkBNr9IcaN/xDAQ6RACAHDBEgF0NR4kcmSACQm6BxEkAyAC+GotFHhkgAkLMgkgHUYygafWSOBABNETROAi5c+8iyQizS5CFOk6V7NPrIHgkAmqrQeMMhVhNgtyqNN+eZzN6n0UejkACgDex5BJYI2ETCQsDmJr18a/C/KJbsoeFIANBGhcbJgCUFB4U2s0beGnt6+WgdEgC0nc0VKNaChKD5Jg3+cC1o8NFaJADAepYQWBJQ6HhCwITCPE1K+teJHj5wAhIAYGcHdTwpOE9UCbw6NBWM4QM7IAEAdqfQOBk4R8eTAioFaVgvvtL6xr4SvXtgLiQAwOJYEhDWPp439W/szsaG/vDax0oA9owEAIhvUh2YVAwOaJwcBFE1OKrjY/XWwJeioQeSIAEA6jWZdGgfLTE4Q+NE4fS1CMo3SZg07tVa3K3jDfzka5TtgZqQAAB5CDqeFEwnB+bA1M9MTH5Gm3xvJ5OGe1q1yfcOb/hepfWNPgDH/j+CmS9xTGJMagAAAABJRU5ErkJggg==;" vertex="1" parent="BE3_SHiMCwZjSVx6Z5An-34">
          <mxGeometry x="22" width="36" height="36" as="geometry" />
        </mxCell>
        <mxCell id="BE3_SHiMCwZjSVx6Z5An-20" value="&lt;font face=&quot;Tahoma&quot; style=&quot;font-size: 18px;&quot;&gt;&lt;span style=&quot;font-size: 18px;&quot;&gt;&lt;span style=&quot;font-size: 18px;&quot;&gt;Official&lt;br&gt;Program&lt;/span&gt;&lt;/span&gt;&lt;/font&gt;" style="text;html=1;strokeColor=none;fillColor=none;align=center;verticalAlign=middle;whiteSpace=wrap;rounded=0;spacing=0;spacingLeft=0;textOpacity=90;fontSize=18;" vertex="1" parent="BE3_SHiMCwZjSVx6Z5An-34">
          <mxGeometry y="43" width="80" height="30" as="geometry" />
        </mxCell>
        <mxCell id="BE3_SHiMCwZjSVx6Z5An-39" value="" style="group" vertex="1" connectable="0" parent="1">
          <mxGeometry x="684" y="594" width="70" height="86" as="geometry" />
        </mxCell>
        <mxCell id="BE3_SHiMCwZjSVx6Z5An-36" value="" style="shape=image;verticalLabelPosition=bottom;labelBackgroundColor=default;verticalAlign=top;aspect=fixed;imageAspect=0;image=https://upload.wikimedia.org/wikipedia/commons/thumb/9/91/Octicons-mark-github.svg/2048px-Octicons-mark-github.svg.png;" vertex="1" parent="BE3_SHiMCwZjSVx6Z5An-39">
          <mxGeometry x="14" width="36" height="36" as="geometry" />
        </mxCell>
        <mxCell id="BE3_SHiMCwZjSVx6Z5An-37" value="&lt;font face=&quot;Tahoma&quot; style=&quot;font-size: 18px;&quot;&gt;&lt;span style=&quot;font-size: 18px;&quot;&gt;&lt;span style=&quot;font-size: 18px;&quot;&gt;Official&lt;br&gt;Github&lt;/span&gt;&lt;/span&gt;&lt;/font&gt;" style="text;html=1;strokeColor=none;fillColor=none;align=center;verticalAlign=middle;whiteSpace=wrap;rounded=0;spacing=0;spacingLeft=0;textOpacity=90;fontSize=18;" vertex="1" parent="BE3_SHiMCwZjSVx6Z5An-39">
          <mxGeometry y="37" width="70" height="42" as="geometry" />
        </mxCell>
        <mxCell id="BE3_SHiMCwZjSVx6Z5An-40" value="" style="shape=flexArrow;endArrow=classic;html=1;rounded=0;" edge="1" parent="1">
          <mxGeometry width="50" height="50" relative="1" as="geometry">
            <mxPoint x="676" y="660" as="sourcePoint" />
            <mxPoint x="202" y="660" as="targetPoint" />
          </mxGeometry>
        </mxCell>
        <mxCell id="BE3_SHiMCwZjSVx6Z5An-41" value="&lt;font style=&quot;font-size: 13px;&quot;&gt;&lt;b style=&quot;font-size: 13px;&quot;&gt;Step7:&amp;nbsp;&lt;/b&gt;&lt;/font&gt;Contribute code and get $orcp tokens reward" style="edgeLabel;html=1;align=center;verticalAlign=middle;resizable=0;points=[];fontSize=13;" vertex="1" connectable="0" parent="BE3_SHiMCwZjSVx6Z5An-40">
          <mxGeometry x="-0.1414" y="3" relative="1" as="geometry">
            <mxPoint x="-31" y="-19" as="offset" />
          </mxGeometry>
        </mxCell>
        <mxCell id="BE3_SHiMCwZjSVx6Z5An-52" value="" style="group" vertex="1" connectable="0" parent="1">
          <mxGeometry x="130" y="460" width="148" height="75" as="geometry" />
        </mxCell>
        <mxCell id="BE3_SHiMCwZjSVx6Z5An-44" value="&lt;span style=&quot;font-size: 16px;&quot;&gt;Community&lt;/span&gt;" style="shape=umlActor;verticalLabelPosition=bottom;verticalAlign=top;html=1;outlineConnect=0;strokeWidth=2;" vertex="1" parent="BE3_SHiMCwZjSVx6Z5An-52">
          <mxGeometry y="3" width="30" height="50" as="geometry" />
        </mxCell>
        <mxCell id="BE3_SHiMCwZjSVx6Z5An-45" value="" style="shape=umlActor;verticalLabelPosition=bottom;verticalAlign=top;html=1;outlineConnect=0;strokeWidth=2;" vertex="1" parent="BE3_SHiMCwZjSVx6Z5An-52">
          <mxGeometry x="10" y="3" width="30" height="50" as="geometry" />
        </mxCell>
        <mxCell id="BE3_SHiMCwZjSVx6Z5An-50" value="" style="group" vertex="1" connectable="0" parent="BE3_SHiMCwZjSVx6Z5An-52">
          <mxGeometry x="70" width="78" height="75" as="geometry" />
        </mxCell>
        <mxCell id="BE3_SHiMCwZjSVx6Z5An-48" value="" style="shape=image;verticalLabelPosition=bottom;labelBackgroundColor=default;verticalAlign=top;aspect=fixed;imageAspect=0;image=data:image/png,iVBORw0KGgoAAAANSUhEUgAAAgAAAAIACAYAAAD0eNT6AAAACXBIWXMAAAsTAAALEwEAmpwYAAAAAXNSR0IArs4c6QAAAARnQU1BAACxjwv8YQUAAD8LSURBVHgB7d17rGxnXf/xD6eHlnJrC7SAYM9TuZRb6KmAeCF2IX+AILS/KEaiOCM0ATWxQCJiSNxTjCAqtGCi4Q/dU4IRidBWQlTQzBANEAr0NBTaJpS1jqW0tMVzSm3T0sv+7e/MnnNm77MvM3vP86zvs9b7lXzZZ1/o3jPr8nyf73NZjxKAHITVOH0twtTXzIG1j5PvT39Pm3xvFtXUv4+uxcbvHZ76/OiGqATAtUcJQJ0mDbqFNeTnrMZpU1+bt+H2ZJIITJKC61bjiMaJg31+SOsTCwAJkQAA8YXVOKjjDfyBtc9zbtwXZZIkWFhiUGqcKEwSBACRkAAAixN0vKE/uBb2tbY38nthSUClcVIw+TeJAbAAJADA/CZl+wtEQ1+HSXXAkoJJxWAoAHMhAQB2Zg38dGN/UPDo0FoMdbxiAGALJADAetaLtwb+otU4T8fH6pGfSaXgixonBUw6BKaQAKDtrHEv1mLSy0dzTScEFiQEaC0SALTNdA+fBh+ThOAqMY8ALUMCgDaYjOFfJEr62N5Q42TAkgLmEKDRSADQRNO9/At14q54wCwqjROCK0R1AA1EAoCmsEbfGvyO6OVj8WyuwFDHqwOVgMyRACBn1shbg28NfyEgneFq9EUygIyRACA3NPrwZiiSAWSIBAA5oNFHLoYaJwNXiyWGcI4EAJ4Vq3HJ2kfG9JGbvsaJwFUCHCIBgDeFxkv23iEafTRDpXFl4FIxRABHSADgASV+tMVQDBHACRIA1KnQ8aV79PbRJtb429AAVQHUhgQAqU2v1y8EYKhxVeAKAQmRACAVa/htQh9j+8DmKjFXAECDFKtx5WqsEAQxcyyLB1UhMioAiKVYjSVR5o+lmvp4VMcnlB3e5Gcmpn9uO2Gbzw9s+NrpaxGEGIZieACRkABgkSaz+a3MH4TdqKbi7tUo1z5OvjZrI16H6WTAPlqycMbax8nX6NXuTrUaPZEIYIFIALAIjO/PzhrvSuNHzR6e+vfk620QtD4hOG/q35w/26s0TgTYdhh7RgKAvaDh35o16NawX6dxL94+VuKmvZPppOCctY8kBieqdHxooBKwCyQA2A0a/vUqjRv7oca9+kPiprxoQeNEYJIcHBTDTKYSiQB2iQQA86DhX9+zH64FO7rVw87BQuNk4AK1u1JQiUQAQAR2U7UZ/UeU11KqRUSp8ZIsS3yYwOafHaOuxktP7dh5P79inK9LojoCYI/a2PDba13WuBEJQu6Cxseyr3YlBKXGK3IAYG5dtaPht9c40LiHH4SmswqBHWs75jmcnyQCAJIpVuNa5XWT281N8fK118okxnYr1I7qQCkSAQBbKNTsXtFA9PKxvaDmVwcG4hoAsMZ6wJcpr5vYvI0+vXzMK2g8DGbnUA7n+ryxLBIBoNWW1Lxx/oFo9LFYQc1MBkqN7wEAWqRQs8Y8B6LRRxpBzUsGSjE/AGi8oObcuEqN90Sn0UddgsbnoJ2LOVwzO8WyGBYAGmlJ+Zf77e+fzN4HPCk0Xk3QhCG1JQFohEL591AGosSPPNg52lX+S2lLsfMlkK3cZ/fT20furAHtK++qwLIYFgCycpHyvelYz4nePpokaFwVKJXXtTiJUkwSBNwLyneS30D09tF8hcYPKsrlupyOZVENAFyyXnNuvf5JmZ+xRrRN0Hh4IKfr1aIU1QDAjaD8ev3W8PdEmR8IynMp4bKoBgC1ym2sn4Yf2FpXeSUC9rd2BCApa0BzGkcsxY0CmFVXeSUCy6IaACRRKJ+bg/2dHQHYja7yutYLAYgml3X9djPoCMAidJVPIrAkAAsVlMfOYjbG3xGAGLrKIxGwvzEIwJ7lsLyPyX1AOl35TwTsnvAOAdiVHLbypeEH6hE0vvY83x8slsX9AZhLkP8MnwsbqF+Q/w2FSjEkAMzEe8l/IGb7At4E+d4QjCEBYBveS/6laPgB77ryXT28TADWCfI7y59xfiA/Pfm8n0w6E0EARr1qryX/gbhQgVwF+Z0fUIqKIlrOxvu5OAHE1JXfYYElAS1j5fRl+bwge6LcDzRRTz7vOcwLQGsE+RzvH4hyP9B0QT6rAaW4/6DhDsrfxcfyHKB97Jr3NveoFEkAGqojfxfcQFxwQFsF+ZskaPfIiwQ0yJL8XWT0+gGYrvxVJpcENIC3zX0GotcPYL0gfzsJMjkQ2bKZ9J4uKHr9AHbibW7AlWJVEjIT5Gum/7Wi1w9gNkG+hgRKcf9CJoJ8XTyXCwDm15Of+1gpkgA452mZn/0dhQBg9wr5uqcdFOBQIT9jZ4ybAViUID/LBe0eSxIAVzrycXFYMNEPQAw9+bnPdQQ44OWBPqXIjAHEFeRnSIDODmq1JB8XwkCU/AGkETQeZvRw71sSUAM78TxcAD0BQHo9+bgHLglIyE64uk96mwxTCADqY/v2lyIJQEvYiVb3yc7GPgC8CCIJQAvYCVb3Sd4X4/0AfLF7Ul8kAWgoO7HqPrl7AgC/eiIJQMPYCVXnCW3j/V0BgH82L6DuTdGWBCyAnUh1nsilWN8PIC9B9c8LWBKwB3YC1XkCM9kPQK6CSAKQKTtx6jxx2c8fQO7sHlb3pkFLAuZQ9/a+PMIXQJP0VO89lW2DMZOO6j1RewKA5ump3ntrR8A2bLJdnScoWSqAJrN7XJ332ELAJqzxr2vpCsv8ALRFV/Xea1lVhXWC6putygkJoG3q7HCVYnUV1gTV1/jb76XxB9BGQfXee4PQarZEhRMQAOoRVN892PZZYal1i9W1PrUUjT8AmKD6koCB0EqXicYfADwIqi8JuExolSXR+AOAJ0H1JQFLQivYk6po/AHAn6D6koCO0GhB9Sw9KUXjDwCzCKonCWBJdoMF1XNS0fgDwHyCuF9jgTiZACAfQfXct1ke2DB1zPgvReMPAHsRVE8SsCw0wpJo/AEgV0H1JAE8nC1zhdKfNDaRJAgAsCh1PTugELIUlD5rZBYpAMRRRxJAhy5TpdKeKBZdAQBi6Sr9fZ1JgZmpY9If40UAEJ/da1Pf39kuOBOXKP3J0RMAIJWe0t/n6eQ5F5R+jKgnAEBqlyvtvZ75AI7ZGE2ptCfElQIA1CX1I91LMR/Apb44EQCgTewebJP0Ut77mQ/gTOpx/1KUggDAg6D01V/mAzgRlHbcn3EgAPAl9R4BtANOlEp30C0uEgDAm67StgXXCrVaUtoD3hMAwKue0rYJzAeoSaG0B3pZAADv+krbNhRCUkFpS//2u5jxDwD+pV4ZQPuQWF9pD24QACAXQWknBbInTCJdpTuoFkz6A4D8FKKtaJSgtKX/ngAAueopXXvB0sDI+kp3MCnpAED+BkrXbgyEKLpKdxBLkckBQBOkfk4MuwQuWFDaAxgEAGgK2ykwVfvBUMCC9ZXu4PUEAGga65mnakcGwkJ0le6gLQsA0FQpHx/MqoA9CkpX+i9F2QYAmizlfIAjYoOgPekrXbZWCADQdIXStSs8K2CXUk7a6AkA0BaXK137UghzK5Xm4JQCALRNqucF0MbMaUlpDgzLNQCgnYLSPS+gJ8wkKM0BsWDDBgBor1RLA+lszqivNAdkIABA21lbQJvjQFdpDkQpsjEAQNqhgELYkjXMKQ5CRwAAjKUaCiiFTS0pzQFYFgAA6w2Upg3qCesEpen9MxEDALCZoDRDAewQuEFfaTIvZv0DALaSaiiAHQLXBKV5w0sBALC9gdK0SYWQ7M0OAgBge0Fp2qSBWq6rNG90TwAAzKanNG1ToRo9SvUqFb9nXq3GOUITnb5FzKpa+3h0LSoBwPg+Ys8KCIrr0Gqcr5rsV326SlOW7wm5Cho/FfKAxkncaWuf76axn0e1FpYUHNY4Ub1u7fNDAtB0dq3/juKX6e1+1lmNK1SDOisAKXr/fY0PInwLGpfCJo39Qfmes2FJQKVxUjD5N4kB0DyWABSKy5KNc9Y+tkJXacZXguCN9dov0vh53HZxpdqCM3YcWXs9l6+9viAAuQtKc4/qqSWC0mz60xM8sAa/q3HDmOK4ewobQ1wWCQGQs57i3ytasznQkuK/maVQp0Lj4zxQ2gY3h4TgcrH+F8iJNcyl4t8fekos9RyAoHGjEBRXVzVNqmgpu0Bs3N56uh2xzeUsqtUYrsbVq3GVgGYo5CvBtYZ7EW1BofgTAhs/F2BJ8bOo2AcJxxUa92ibMo5fV9j7tywqA8jfQL6urY4WJ8Vr66mhgtKUUYIQU6FxIkejHydKjZOBICAvQf6up6DFKaTof29j5wIsKf6btyzEYCfkJWJMP3XYnIGOgDx05e/6WbS+FP3v7qlhguj95yiI3r6HKEVVAP4N5Ou6eYcWzzpDse+HjasCLCn+we4Ji1KI3r7XuFLMFYA/Qf6ulaA4elL0v72nhgiK3/svRe9oEQrR8OcSpRgegB9d+bo+YpT/J6gCzKGr+Ae7I+xFVzT8uUYpzn/UbyBf10VPcfUk5f4akigV/waI3SnUvt35mhqlSARQD+uperseDiouqgAz6Cr+ge4I8ypEj7+pUYprAml15e8aSKErKfZriTGRMRk7EE040E1hWfFA6S9IIn0MxLwYpGETUz2d+5crnVJxX0upTHUV/0B3hFlYGekypb8QifpjWSQCiKeN5f9pXcV/PYUyNFDcN6UUZmEb+LCOv91RKvNSItyy5394O9dTKxX3NQ2UGcvAYh/ojrCdQpT7ifVRimoAFqsvX+f4stLrKv7rKpSRvuLfyLA5yv3ETmHnB09sxCJ4qy4WqkepuK/rSmUiKP5B7gibKcSyPmK2KMWOgtgbyv/HdRX/9WWRtPfV3IPsFb1+YrdBNQC71Zevc3lZ9YpdDekpA6XivgkdYZrNt4j9nhPNjlLMDcD87LzxdB4XqldPcV+f+42Buop/o8JxNsN/hSAWFEsCZlPI17lbqn4pdgfsyLGB4r74nmDsRIv9XhPtDJtsFARsry9f5+2yfOgp7uscyKmg+Ac5CIUo+RNxo1TazVSQHztHPJ2zF8qHFFWAQg71FfdFLwuU/ImUsSTgRIV8nadH5IttRRzz9abc6ngmKbKeoPZilj9RV7BKABv15escXZYvsTfCczcZsKu4L/gqtVdYjWuV/qIiiEmUYvgNx9n54On89FL+nzZQ3Nfsamvv2C+2UDuxxI/wEqVIAuCv/L8inwrFfc0DOREU/8bTRrbLFg/xITyFnY92XqK9Yo9vzxueq8OxK7d7nqi7T3vXU1w9tY9N9rPlWIy9whM7H+28XBLaylu53fMe+VcoLhfJeKm4PY6gdrGb6wpBOI8loW1SPOV13vDcSYo9Ob721Q+xHwaxrHZZUvoLiCB2G0tCm1D+n1/s96xQjfqK++LatBkJy/yIHGNZaAtvq5E68q9Q3PegtiGQ0xX3hV2r9lhW+ouHIBYVy0LTBfk774LyMFC892BPewLsZRJg7AkI7nY7imRZ430UgFx1RRLQdN5WfwxXo1IerlY81vh3VQO3WU1G7Ka5QhANiWWhqSj/717syYADJRbEjWSvGPMnmhjLQtME+TvPgvISezLgrjrMux0CKBRX7PWTdVuSs60cgQXpitUBTVPIl6HyKf9PxF6x0FVCA8XLZEo1m90cVwii4bEkNMVAvs6tjvJUKt57MlAiQXEPbk/NtaT0FwtB1BVLQu6C/J1XQXnqKe77kmTeXFeK+iKCmin2pkkE4TE6Qs668nU+5bw8PPbS+STDygMp2gsYqJlsQyMe7EO0Mey8b9OGXk0zkK/zKfe5UzHfz4EiC1K0P96io+YJ4pG+RLujFI8SzlGQv3MpKG+WwMR8f+YaBph3FUChuL6oZrGDMRA3P7Rb0Pg64OmWeSnkyyHlN/t/o77immvDpnkTgJiPghwq/4O7ka39DAIQNN77AvnoyJeYO+qlclTjti6WqMcs5ji2t5Ntr5ZUT4mMIDzHkpCD2BPWdhNNmUsScxgg2i66hRTtj7YIao5C6S8OgsglCsG7rnydM6WaI3ZyVWhG8wwBdBXPUM0p/wexHSqwHXuEaRA8izncuxtNKP9PxB4GiPLgJsvAYmUsHTWHt4dmEITHGAheUf6PL+YwQKkFO6h4f6xFUDMsKf2FQRC5BpMCffK2aVmp5omdZIVZ/ohZhwAKxTNUM8r/liT1BGBW1gsqBG+ilJD3YKjmcTEMMGsCEHM8qAljO0HjcU0A81kW+wN44238v6lPh43Z9i30GNZeqnCur/RlMYJoSiwLXlD+Tyco3vs203LAWSoAheKplH/5vyseeALsRVf+ys5tRfk/nUrx2j9r/HecODlLAhDzhBgqb0FsbAIswrIYCvDgAvnS1PL/RMxhgB3b7v3aWcwTIveD2xPrmRfqrLPO0m7ce++9o4j1O+644w4hKmv8LZl+p1CXQr7uZ5WaXQEwV63GJYpjx7b7UTt83y7KI4pnp9/vWSHWMi/ct7/9bZ199tma1wc+8AH92Z/92Y4/F0LQ9ddfr3kcPnxYL3zhC4UkXqnm3/S96svXcGZ/NX5HzWZtbKl41a8zNF5xsKmdKgCF4hkqb0xciuDUU0/V4x73OM3r0Y9+9Mw/O+9//7GPfayQjF1X52ubmxai8Vb+v0rNZ+e5PeWwUBx2TLccZthpDkCheHJe/melyiAAixY03h8AaRXydU+zhrFJ2/9uJ+brfOV239wpAYiZEQ6VpyA2/AFisjHRIKTUlS9t6P1PxHyt27bh2yUAMy0j2KVK47JHjnoCEJPdexhiS4vyf30qxRvysjZ8y/kF+3b4P8YyVJ4KseYfSKEQ2wSnUshfxaUt5f+JmK93y7Z8uwSgUDxD5YleCZAOe2yk4W3zn7Y1/maoeLY8vtslADFLQl9UfrpiXBJIqRAVtxS87f3fxueqDBXPeVt9o44hgEp5bv9LbwRIryd2CIzJ7vNBvrSxAlApXrs49xDAthMH9ug65acrev9AHYJYFhhTV75Y49/WPSBiVca3nNC/XQIQS47lHXr/QH1sWSBVgDi8zf5v82PVY66MKzb74r55fnhBcqsAdEXvH6iTNf5UARYvKG5nbzdynB+2KEPFs+k8gH3z/PACTLY9zAm9f6B+VAEWz+Ojfyu1l7WNMfcDOEHqIYDcGv+u6P0DHlAFWDxvKyz6Qqw2ctN5fZslAIXiya28Q+8f8CPWY1PbKIjyv0cxh8jDxi9slgDEPCmuVT66ovcPeGI9GPYFWIxCvgzV7vL/xFDxFBu/sFkCEBRPThkevX/An66wCJT/fRoqnhPm9u2b5YcWpFI+6zsL0fsHPCrEMwL2Ksjfe0j5f8zayEpxnFDdTzkEkNPyv64AeEV1bm8K+WIT3yphItZEwLDxCxsTgJg7AOayAiCIcUbAs0IsCdwLb/e3K4RpMXcEDNNf2JgABMWTywTArgB4x5LA3QnyVwG4SphWKZ51Q/z7N3wz5gqAXIYA6P1v4lGPetS2319ZWVHs37Gdpz71qXr5y1+uk08+WaeccsooHvOYx4w+P+mkk7Rv375RnH767juO9vct4nViIWxJYE+YVyFfKP+fKGa1/JzpTzbecW0f5hi7Q9nEhjPkn732Nu9FvSlr+P7yL/9SRVEcawAfeeSRTT8+/PDDo5/Z+HHy/WnWIJtJQ71//3699KUv1W5s1zDvJbEw99xzj6655hrdeuutuvHGG/Wd73xHt99+u77//e/rtttu07333ivU4pWKO2u6iQbylQRcKhK5zRxRnGGu/mr8zuSTjRWAoDhyGf/3tjWmG+eee65e8pKXyKu9NvLbecITnqBf+qVfOvb5dLLxwx/+UDfddJO++tWv6ktf+pJuvvlmXX/99XrwwQeF6Gwy4FCYlTUohXyh/L85azMLLd62Vf6VSHG5/AuK9/qzjtXGdeWzn/3sCra3WuUYffze97638rnPfW7l7W9/+8ozn/nMrI51hsFkwNl15evYlcJWrM2M8Z4fmf4l05MAY47/V/KvELAHkyrEM57xDL32ta/V3/zN34yGDP7zP/9Tb3zjG/XoRz9aWLiuMKsL5cvVwlYqxbFuJcC+Dd+IJYchgI6ABbKE4HGPe9xo+OBTn/qUbrnlFr3nPe/Z00REnMBbo+aVnXTehjj7wlZitpnHVgKkqgB4TwCCqAAgMlup8IEPfEBlWeqP//iP9RM/8RPCnhViGGAWhXyplN/TYVOqFM+xlQDTCUBQHEflfwvgQkAiVgF4//vfr6985SujoQHsWVfYibfe/1DYTqV47WaY/GM6ATigOCj/A5v4yZ/8ydHQwMc//nE9+clPFnaNYYCdeXuP2P1vZ5XiCJN/pKgA3C3fgqgAoEZvfvOb9W//9m96znOeI+xKIYYBtmO9f0/vTyUqALOItXnepnMAguLwXgEoBNTMNkD6/Oc/P5ongF1hD4+tUf7PU6U4jiWD+6a+ECtD9P4MAMqHcCGEoMFgoKc//enC3EgAtnaBfKH8P5tKcRxr7ycJQMwVAN6HAAoBTjz/+c/XX//1Xwtz89bIeVEo7kPe5lWJCsCsYlbPg/3PdAUglkp+FWLsEM786q/+qn73d39XmIvHbW496MqXoTCrmKvnRpP+J88CCIqnkl+FMBN7EI7tcb8d2/jGHuxj49i2AU7M/fmb7n3ve99oYqDtGYCZFaKB2chbZYS9/2dXKZ51TwXsKc6+w97H/weqZw/sRsfTnva0lU6ns3LNNdeseGX79k/27vfq0ksvzeq4O4iBMK2Qr+NzRJhXqTjHYvR8nkkXLdZjgIcaP7LTqxUhqre97W26/PLLR5WBmD7zmc/o05/+tB566CE98MAD+vGPfzwKexyxfc2ezmd78VucccYZOuuss0bx+Mc/Xmeeeaae/exn61nPepZWkxc3lYujR4+Onitw3333CTOxkuk58r/xWCp9+drjpK+pR9FiJgPFqVT3NXUs7JfEyDKW5VeherLg1sVv/dZvrcTW6/Xm/rvsKYcWk89POeWUlXPPPXfl9a9//crf//3fr9x55521Vgnsd1988cWuj63DKISJUr6ODSuu5tdXnGMxsP947EmAh+VXzJUPmPKJT3xCw+FQ3qy2saOYsMrBTTfdpM9+9rN6y1veMtqr3x7k88///M9abYyVmlUi3vSmNzGXYj5c12OFfM3+Nzz9b35RtwPeN/1JBJ5LcRcIyfT7/XWNbQ5s2MASF9uv30rxtmVv6tfwspe9jH0B5lMIxtu+CDT+u1MpjnX7AMSqAJTyqxCSufnmm5Wz22+/XZ1OR6973ev0ve99T6nYHAXbIAgzI7Ef81Zuv1LYjVid6GMJQFA8XjcBCmL9f1L33nuvmuBf//Vf9epXv1p33XWXUrDy/8tf/nJhZnZdB7WbDYME+UIFYHcqxRMsAWjjJkCME2LXvv3tb6vb7SqV5z3vecwDmE+hduvKF2v8WZmxO5XiOT12AuD1oJMAYE8+97nP6R//8R+Vgi1PxFzafn17Gwah/L97MdvQ1iYA5wnYoz/8wz/U//3f/yk2W42AuQS1V5C/BOiLwm7FbEOjDgFU8isI2CPbHtk2IIrtKU95SnYrKGrW5gTf46N/K2EvKkUScxKg5zEfhgCwEF/4wheiN86PfexjhbkEtXeSb0e+9AWvwj7Fw/g/Gu9rX/uaYqP3vytB7RNE+b+JKkUSexmgR0HAgnz3u99VbD/60Y9YBTC/Nib6hXwZivL/IsTqTB+IWQGo5BMVACyMPXDo/vvvV0w/+MEPhLkFtQ/l/2aKtp+OJQAH1C5BwILs379/9ITBmGznQYYB5tbG+1ohXyj/+3ZGzAqA1wcBte3GgIgOHDigk046STEdOnRImFtQuxTyxU7aSliESnGcFjMB8IotgLEwtklPzPF56/l/9atfFeYW1C7eyv9XCO7F3gjIoyBgQYqiUEwPPfSQrr/+emFubbqvBfmrAFwleNe6jYBOFxUALMjTnvY0vfWtb1VMX/7yl3X4sNfRNNfadK0X8oXy/2JViqRtQwA0/liYiy++WGeddZZi+tjHPsYEwN1ry/XurfzPk/8y0bYEIAhYAHtE75/8yZ8oJttq+N///d+FXQtqPktyCvlC+T8TbdwICNiT173udaMtgGMv//urv/or/fCHPxR2Laj5vO39X2k8BAD/Tm/bRkBBwC6dcsop+vCHP6yrr75aT3jCExTTDTfcoOXlZQE7uFC+UP5fvFg7AZ6+X+3CHADsys/93M/pox/9qF760pcqtkceeURve9vbdPfd0TYAa4umX+/2+rxVAPrCokV7rg4JALCNV73qVXrnO9+pV77ylcmeyvfud79b//Vf/yXsWdOv90K+VKL8n5W2JQDAls4444zRuv5zzz131OBbr//xj3980gfx/Pmf/7k+9KEPCZiBt97/UMgKFQA0gi3He9GLXjTaOMfi4YcfHn193759Ovnkk0e9d2vMn/jEJ47i1FNPHX1ujf5P/dRPjWb1P/vZzx79f+p48t4DDzygD37wg1paWhIWpunbfnsb/2f3vwytRIpC/vQV7/US28T555+/sjq2vZKC/Z7VBGAUk99pHycx/XOp/qbt3HPPPSvdbjer45lJLKu5rPfv6b0uhVgKRTpuDAGgcawHv7EXv1mvvo6e/kb//d//rd/7vd/TN7/5TQFzoPyPPWvjw4CA2tn6/t/8zd/UL/7iL9L4YzcukC+U/zNEBQCogc1B+P3f/309/elPH834v+aaa9jyF7Mq5GtPk0pUALIUMwE4TQA2ZZMSf/7nf34U1vB/4xvf0Mc//nF96lOf0u233y5gG135MhSyZEMAsTYZOEMAdmRzEV7ykpfoIx/5iG666abRMsAzzzxTwBa8lf/Z+z+uoEhiJgAA5mRLFN/1rnfplltuGS0J9DBREa4U8lX+t/aD7X/zVDEJEHDInjvQ6/VGQwPPfe5zBazpyhd6/xlrWwJQCcjIwYMHR6sEXvva1wpza+LDFCj/Y2FiJgBBAPbMdjL8l3/5F733ve8V5tK04c1C/u6rlP/jC4rjqCUAlQC4dtJJJ+l973uf3v72twut5W3zHxr/vB1lCADIhD3X4G//9m9HDyrCTCo1i7e9/68Usmb7AMQqkx0QkNgjjzxy7IFA0w8Gsq9P7N+/fzTJztbiW6Nqpjfh8T7z/pOf/KRe8IIXjHYTRGscFOX/tgqKxBKAJk6U2UolNJKtob/88suPJQDW6G+VAFg5ffoJgfYkQQt7MuBpp52mJz3pSXrxi1+sF77whTr77LNH/x9PSYH9rR/72Mf0a7/2a8K2KjVHV75Y488S8rxVMXcC9LgRUCU00tGjR1VV1Tz/l2M96BtuuOGE71mDb1WBZz3rWXre856nV7/61XrDG96gAwd8FLZe85rX6BWveMXoYUJoBW+z/yn/pxPtphNzEiBbASNbkyGBm2++WZ/73Of0B3/wB6P1+C972ctG6/MPHTpU6979j3vc4/Tud79b2FalZggaDwF48kUhd4fbtgywErBLP/7xj/W1r31Nl1566SgRuOiii/T1r39ddXn9618/Gg7Alio1g8dH/1ZCKqcrkjYuA6wE7JHNLbC1+S996Ut18cUX66677lId3vKWtwibatL4dEe+9IWUYiUAVRs3AmLiChbq7/7u73TBBReoLEulZvMAeF7Apg6pGYIo/7ddUBxHYlcAopUu9uA6AQv27W9/e7Q+/4477lBKP/MzPzN6gBBO0JTVTYV8GYoqakox29C7Yz8N0GMCQAUAURw+fFgXXnih7rnnHqXylKc8ZbRKASeo1AyU/9stZht6NHYCEORPU0qDcOgrX/mKlpeXlYqV/88991zhBJXyF+SvAkD5P62geKI/CyDIHxIARGXLBP/3f/9XKdhSRFYCbKoJ13khX+w9rYSUYlYAjk0CjFUFYAgArXPkyBFdccUVSsEqALZ7IU7QhATAW/k/zUmNaUFxjNrB2AlAkD+VSAIQ2ZVXptsozbYzZiXAOkeV/zUe5K8CcJWQWrQlgPY/+6Y/icBr14RhAET1rW99S3feeadSOPXUU4V1KP8vHuX/egTFsa4CcFhxBPnEUkBEZcMAd9+dZiXa5ImGOKYJ17e38j9P/qtHrOcAjG5ObRwCMFQAEN3999+vFGyLYqxTKW9W9i3kC+X/esQaAhi1gbGHAIJ8IgFAdKnG5e+77z5hndyvb297/1finlmXWLtArhsCqBRPkD+VmAiIiPbv359sdv6PfvSjWp9M6NBQebtQvlD+r0dQPKN9y1MkAF6XAlYCIjn77LP19Kc/XSmk3HkwA7n3VO1+6a0C0BfqEBTPujkAleLx9iCLCXa0QjT2qN4Uk/Os559qtUEmcr+uC/lSifJ/XWJ2ntfNAYi5bjbIJ05qRGEN/5vf/OZkcwDsQUQ4ZqC8eev9D4W6xBz/XzcHYPLFGGItY9grZrUiil//9V/X+eefrxTuvfdeffe73xWOyX0JoLfxf3b/q895iqOa/GM6AYjVI/Y6BMA8ACzc0572NL3//e9P1vv/5je/yRyA4yrlfU1b79/TnKlKVADqFOtcOLbvz77NvrhgQX4xuxULY43+hz/8YZ1zzjlK5atf/SorAI4bKm+U/zEtVue5mvxj32ZfXDDLYoJ8Yh4AFuKUU05Rv9/Xm970JqViDf+Xv/xl4Zjch/UukC+U/+tzuiI/B8CkSABMkE/MA8Ce2Xj/ddddp9/+7d9WSrb+//Of/7xwTM7j/4V83ScrUQGoU8yh82Md3xRzAIzneQBDIbrHPOYxjXti3U//9E/rE5/4hL7+9a/r3HPPVWpf+tKXdPQo+1mtGSrv8f+ufBkKdYrZZh67aeyf+mK19o0YZYcgv2zdcCFEdfDgwVHJOvckwJb4/fIv/7Le+ta36ld+5Vf06Ec/WnVZXl5m/P+43Nf/eyv/Ux2tV1A8xzr7+zd8o1KczCPWcoZFGK7GkhDNq171qqQz4xfB/lZrXG1L3wMHDugXfuEXRq/jNa95jc4888zaX8uNN96oK6+8Ujgm5warkK9OknUEmSBdr1ht5rpK/8YEwMbQYiQAXocAzFDxKh+N87rXvU4vf/nLd/y5k046SWeccYZe8YpX6DnPec5oCCC2SaO8Xa94s5+ZfM327n/+85+vF7/4xXruc5+rn/3Znx1t5/vUpz5Vj33sY+WJ9f4feughYaRS3hN6u/KF3n/9YrWZ61b7bUwA7CKK8RzqyUqASj7ZbNdLhG1ZQ/mOd7xj1BOe5WdTeuMb36gXvvCFo0ZxOh5++OFjPfmTTz551JBbMnL66afrKU95ik499VQ98YlPHH3dvj/p+XuuVtxyyy366Ec/KhwzVN4o/2NaUOTHAE9sNgQQy3nymwDYCU8CMIOzzjrLZeP4ghe8YBSL4H2o4r3vfa/uv/9+4Zicl6sV8jdHivJ/vWJWzK+d/mTj00piltHS7Y4yv6F4PPCOHv/4x+uZz3ymUJ/Pfvaz+uQnPykcUynvCoC3zX9o/OsXMwFYNwSwMQGoFK8hLOQbm17s4FnPepae9KQnCfX4n//5H11yySV68MEHhWOGypu3vf+ZWVq/WBMArW1f18nf7HmlleLwvBLAMO61A5scx7KzethchosvvlhlWQrr5Jy4W08vyBcqAPWLVQE4ocK/WQIQazetIN8z7Ydi84ttveQlL2ncZj65+KM/+iN94QtfENaplPc125Uv1vgzFFqvmFvnn9C2b5YAxJwH4G2260a5byYSlQ0BIC1byfCe97xHH/rQh4QT9JQ3b/dDyv/1KxRPtfELmyUAQ8XzSvl2ubAp6/k/4xnPENK5++679Ru/8Rv64Ac/KGwq54Q9yN/+KHSA6pfkGQATKecAGO/zAHg2wBZsnbyts0ca11xzzWgTpU9/+tPCpqxcXSlfHh/9Wwl1i1kVGm78wmYJwAkzBRfI846AE5cKJ3jRi15U6773bXHXXXfpXe9612i3xeuvv17YUu7Vuhgbru1FX/Ag2QRAs2+LH441EdAmOHhPAobKe1vRKKz3zwqAeO677z79xV/8hV72spfpsssu473eXqW8K3VBlP9xIjsnkuwAOLF/mx+OlaEW8t/AWnkxh2pFMs973vNYARCBbev7mc98ZjTOf9tttwkz6SlvhXwZivK/BzHbnOFmX9w/zw8viPd5AMbKi7Y1sOdli8lYw3/22WcLi2Eb+Vx11VX6h3/4B/3Hf/yH7r33XmFmNkSZe2+V8j82E3NTqLmr+kdWYyVC5LKTSU9xXn92sZoArNxwww0rmN8jjzwy+njHHXes/NM//dPKG97whpUnPOEJWR1/Z7GsvAX5e0+D4EGpOMf3yFa/cLua7kDxSlX2XIBKvlnv/4igM888c7QNbYpH+uZoZerpgda7v/POO0eT+b71rW/py1/+8mj//qqqhIXI4d6xna58JTE2HHu+ULegeJ3jobZYgr9/m/+TlQwKxVHIf9nJSo22zWhHLWdLAK1cvVennHLK6PG79iheSybs4UIW9jje0047bbTKYC/zDFYiPsZ38t+2jXmOHj2qH/zgB/r+97+vI0eOjD7/zne+oxtvvHHU6N9666164IEHjj1aGAvTV/5j1d7uJzwDxYdC8Ww5ZLbd3bLQuAoQQ381fkf+BeUzZOHepHGebhQnX9u/f7+e/OQnj3rMIQTNy9bLX3311Tr55JN10kknjWLy37aPk39b8vGnf/qnmoc19jY73zbmsfF625d/u9eEaHLv/Qf5u5/k/p42RV/xkkPr/Q81JyuBxxpzyqm0bknQCpEmyrJc2Y1er3fsv2FzFraK1eRiZV72N+X0HjY0lpW/rny9p9cKXpSKd5y3nMy+b+u/J+qGQDEfeLBobAyUGeuNbxXIVhOuw4584cl/PsR8KqS14Vs+4Gm7BMDEXG7jbSvMrQzFOBlQp77yL1Nbp6eQL1cJHhSKZ9s2fKcEYKh4Yq55XLSeANSlCb1/bx2eSux46kXMtnCw3TfrTABibnu4aNVqfEQAUuurGZPUvHV4KP/7USiePVUAYs8DyGm73Z62GUsBEEUTev92r/NWAegLHhSKZ9vxf7NTAmCYBzBmbyRVACAda/wr5a+QL5Uo/3vRVTw7tt2zJAAxJ4rkNA/A2DMCKgGIrVL+j/yd8NbRGQpeXKB4dmy7Z0kAdiwj7EFQXvtQ2/vwTgGIrafmDLl56+iwqsmHoLjt33CnH5glAYg5D8DkNAxgLKsaCkAsdr9pSiNl9zdPk50rcf/yImbbN5zlh2ZJAEzMGaO5DQOYHLYxBnL1/9QclP+xlZht30xt9qwJQMx5AIXyWQ44UYkdAoEYmjLxbyLmGO9uUP73ISju5NDhLD80awJQKe5F2VV+mBAILFalZm26VcjXHKdKVAC8KBRPpRmH7WdNAAzDAOvZ3AiGAoDFadr11JUvQ8GLmM+FGM76g/MkAAwDnGgo9gYAFqGv5jVQ3sr/7P3vQ1DcCsDMwzzzJAAxlwOarvLUE0MBwF5Uat7y2kK+yv9272b7Xx8KxWPHeTjrD8+TAMReDpjjMIBhKADYG7t+mrbNdle+0Pv3I2b5f66de+dJAEzMGaSF8hwGMEMxFADshs36H6p5KP9jM0FxKwBXzvPD8yYAsU+irvL1DrG/NjCPSs181HYhfzucUv73oVBcUSsAc40v7EKuwwATtoFJ00qZQAx2nbxSzeRt8x8afz9iz/6v5vh57df87GQqFEeh8TBAro1opfFkpmVhV77xjW/o9ttv17xuvfXWmX7uwQcf1Fe+8hXN47bbbhMWzipmlZrJW0dmrrIwogmKWwHoKwFroFciRk/5s02CVgiC2DSa8pS/zRyUv/c717lVTWNJb8zjHJTIQIr2Iko1w7Wq52InCM9Rqtm8Jf9M/vPDzv1Yx3mgXZh3DsBEzDGloPgTJVKw+QCVAExUau64/8QF8oXyvw+F4vbQ+0oo9jBAU0qEHsuBBFFX2PXQZEH+3vMgeNBXw47zQPFezBE1Z9wq9rgPQeQQdh00nbdrfSB4YG2ZtWnujvNuhwBMzGEAe8O6agarZvDoYLSZnf9Nnvg30ZEvfcEDWxYas0PbVw3cZjVO9VVPL4Ag6oy+2iHI33sfBA9iTwivrVp+peK+sELNYQeJlQFEm8LO97YsQevK13s/EDyIPQ9sWXuwlyEAE3v/e287au3FZOezSkDzVWrXzpgd+dIXPIg996X2ZZ4xhwGaNBlwIijuelCCqDtKtav8HOTvGAShbkFx28dSe7TXCoCJWQVo0mTAiUpUAtBcldp3fhfyxR5KVgl1KxS3AzuUA7HHOK5VMwVRCSCaFaXa2fMcyNdxaMOSyxzY9RDzOAc5MVDcF1qomYJIAohmRKl2Nv5B/o5FEOpWKO4xHmgBFjEEYGI/bnJJzVSJ4QDkr1J7z+NCvlD+9+ESxdWXI7H3BLBo8jaiQVQCiDyjVLt7nAP5Oh49oW5BcY/xwibHL6oCYEt9rlBcXTVXJSoByE+ldp+3dhMu5AtP/6tfT3HZMXa3vLZQJlmPY0FUAog8ohRjzV35OyaoV1D84xy0IIuqAJih4i5LsMa/6bNbK417VIcE+GXnJxUr6UL5EnsuFnbWUVxDOb7uuoqb+bShCmDsNcbeZpkgdhN2XrZle9/txH4k+m6i6Y9bzkGpuMe4I8dSTAbsqT16Sn8TIYitog1P9JuVbVPu6diUQt264hhHb7SOqF16Sn8zIYiNweYy6/Xl6/gsC3UrxTFOUhrrqF0KMTmQqCcs4S6EjWJXOueNQqhTV/GPcVAmYo9fl2qfIJIAIm2UYqb/Zij/YyM7BjGP8bIyUij+Sd9R+1h1xcZhVwgicvTFZL+t9OXrWC0Ldeoq/jHOboLnQHHfkFLtZeOxKwQRIay0zXj/9kr5OmaFUKfY58NAGSoU/8TvqL2CGBIgFhulWEq2k0L+jhnq01X8Y9xRpuzk5OSPhyEBYlFh5xEl/5315eu4LQt1KhX3+JbKWIpSdUfoimoAsbuwkr9NasNsSvk6ft52I2yTruIf344ylmJjoFL0XEyQv94J4TvY1W8+hXwdv7btieJNqbjHt1QD9BT/QugJE11RDSC2D3r9u9OXr+O4LNSlq/jHt6MGSFEFaMszAmYVRDWA2DwY69+9Ur6OJeX/egSl6f0HNURP8S+GnrCRzei2E2mFaH1cK5aL7UUhf8cU9VhS/GPbU4NQBaiXTcYslf4GRdQfrOtfDG+rba4S6hAU/9iWauAOnD3Ff+OWha0EMSzQtqDcvzilfB3bjlCHvuIf254aKEUVwKIQthNEItD0GIgNfRbJ3ktvx5jELr2g+Me1VIOfv9FT/DdwIMyiUPztmom0MRAJcAyU/2Hs+op9bHtqMKoA/hQiEcg9BuKcj8kmUHo63h0hta7iH9dSLXj6Zk9p3khKZPMpRCKQWwxEwx9bkL/jHoTUSsU/rj21QKoqQE/YDRvv7CvtDY2YLwai4U/F25M3B0JqS4p/XEu1KLHrKf4baklGEHYraJwI2Im5QtQedj73xDmdGuX/dgviuC5cqirAQFiErvzdCNsSg9W4RAxp1SHI3/kQhJT6in9MS7VQV2kumEJYlMnwgJ2wK0S0sOTYZp4XQp268nVeDISUukpzXDtqqRS9ylL0nmLoavw0uRViYTHQ+CE9nK8+2PHwdH50hJRKxT+mpVqsUJoLpyfEEjROBgZKezNsQhwRJX6vgvydL0FIZUlpjmlHLTcQF09TWCNmPdi+GCbYKqzRX9Y4aaLR96srX+fNtUIqQWmO6UA1e5TqVyjNGzFcjVcKKRVrcYHaPZ49XI0vrn0cCjmwORjnyY+PiB0AUymVpsN4zmpUQrKtNnkqWn2st1toPBxjCV+KVSB1xKSs31t7vfTygXzYcFyK+8SyHPBQATB2kywV/2Z5dDXOF1mXFwen4ry1jzk1mHY+HVqN69Y+TgJAfoLGQy2x70GVxtXoSjXbLx/sRmolriXFZQfWMi+GAnzYrMG0YzRJCM5Z+zj5Wh2O6nhDf1jjRPXw2ueVADRFT2k6IFfIyb3DSwVgItXYyzs1HnZAXuziDFMfw9rXD6x9DBt+dquLudrk34enPj+64SOAZusqTVm+0rhjg00USjdOGwQAaLugdKuWOsK2BkpzIAYCALRdqjZnWdhRULoZ4qwKAID2SjXr3yIIM+kpzQFhKAAA2ikoXWezJ8ylVJoDww5bANA+qdqYUphboTQHx+IyAQDaYknp2pe6ljBnL9UOgRaFAABNVyhdu7Is7Jqt4041RlOKbVsBoMmC0pb+g7AnFyldtnalAABN1Ve69qQjLMRA6Q4aSwMBoHmWlK4dWRYWJijt0+OYtAEAzRGUrv0oRel/4axnnvIAMh8AAPIXlG7c36IjRDFQuoM4EAAgdza3K1W7sSxEE5R2KGBJAIBc2T08VXtRitJ/dClXBVgUAgDkJnVb0RGSSFnS4XkBAJCXoLTj/stCMjZBL+XBvVZMCgSAHKRuH+x3BSGpQukOMBkeAOShr7RtQyHUIuWzAiyWBADwyu7RKduEnlArK8+nPOAdAQC8ST3prxRqF5R2aaD9LnYKBAA/gtK3A0FwIeUugZPMLwgAULegtJP+LHhmjDOp5wOwMgAA6pV6xr/FsuBOHScCjw8GgPqk3BPGohQdP7eC0o4DWVwmAEBqS0p7r2fcPwOp5wNYLAkAkIrdc1Pf5xn3z0Tq+QCcHACQxiVKf3+/XMiGjdGk3h/AoiMAQCx2j019Xy+F7ASlnw/AHgEAEIfdW1Pf00sx7p+tQmlPFpIAAFi8oPSNv0UhZK2OSYGlyBoBYBGC0i/xtugJjdAXSQAA5CaonsafSX8NUtekwFIkAQCwG0H1NP6l0DhB9Z1MQQCAWQVxv8aC1TGLlJMKAGYXVE/jz05/LdBV+hOLJAAAdhZUT+NvcZHQCj2RBACAJ0H1Nf49oVXq2C6YJAAAThRUX+PPjP+WGogkAADqFFRf488j3VusruWBJAEAUG/jb7/3dKHVguo9AYMAoH1sVRb3XtQuqL4TkWcHAGibupZk0/hjU3WekPZ7OwKA5rN7XZ33Wjpc2FShek7KSbxDANBcl6jeeyyNP7bVVb0n6JIAoHns3lbnvbUrYAZ1PEKYJABAU12meu+pVFcxl57qPWFtfSpLVADkzO5hdi+r817aE7ALPdV74pZitiqAPAXVt88KjT8WoieSAACYR51r/Gn8sVA91Xsi29IVnlQFIAcd1bfMj8YfUfRU7wltsSQA8MvuUXXfJ3sCIuip/pN7WUwOBOCL3ZPs3lT3/bEnIKKe6j/JSzEvAIAPQfVP9qPxRzI9+UgCmBcAoE6F6h/vp/FHcj3Vf9JbLAkA0rN7j4d7YE9ADXrycQHYRhtBABCfjfcP5OPe1xNQo7q3DZ5EKZIAAHF5WN8/Cbb3hQtd+bggLJYEAItX95P8pqMrwBHLjD1MhrFYFtUAAIvhYT//Sdg9thDgkKfymP0dhQBg9wr5uqcdFOBYkJ8LxmJJADC/uh/hu7HxDwIyEOQrCeDiATCrIB8b+0zC/pYgICOexs0sbOyMWbMAtmMT/bzMZbIYiK3PkbHL5edimlxQQQBwXJCftf2TuFxAA/Tk68IqNX5kJwB46/Vb9AQ0iO3b7+0iWxbVAKCtgvz1+u0e2RXQQEG+JgdOLjjmBgDt4rHXX4plfmi4IH9JwOTiCwLQZEH+ev0WzPRHq3ibHDiJJQFoGptJb9e2x3tOX8z0Rwv15POCLMUkQaApCvmsOlow/IhWK+T34lwWZTkgV0E+y/0W7OkPrAnymwRYLAlALiblfm+T/CbBeD+wCa/zAixKMSwAeFfId2fC7nGM9wNbsDExr5m7xUBk74A3hfyW+y1YbgzMKMh3Fm+xLBIBoG7Wm+7L972iFPcKYC45XNgWS+LiBlLzPs4/CUr+wB54HxKYZPgdAYgtl4afkj+wIEH+hwRIBIC4usrjPsAsfyCCnvxf/CQCwGJ1lUfDb8EjfIGICuVzM7C/syMAu9FVXtd6IQDRBeUxQZBEAJhfV/k0/BZXiol+QHJd5XWjsL+1IwAb5TK5bzrsb71IAGoTlFc1YJIILImJQkCODb/FQFy/gBtd5VUNmMSyuJGgfQ5qPGEut4af5X2AU0H5VQMmYeOIhYBmK+R7y97tYiCSdcC9rvKsBqzo+DyBIKAZrMx/icbr43O4BjcGY/1AZoLyrQZMbjrLGpdKgRwVyrPMPx1s5QtkzBrQUnnddDaG9Zw64kYE/ya9/YHyusY2RimG5IDG6CmvG9BmMakKFAJ8KZR/b39yjfUEoHGC8h4WmI5S455WEFCPyRI+Oxe9Xy+zxEBcT0DjddWcm9bkxtURNy/E15QS/3SUoqoGtE5PzUoESAYQQxMbfQvK/UDLBTVnWIBkAIvS1EZ/EszuB3BMUHNvdpNkgDkD2E5Qsxv9yXVQCAA20VXzhgU2RilWE2DcAy407g3bOeH9vN1LXCvOdwAz6qr5N8VJDDTu+bHpUPMFHe/l575kb5aw19gRAOxCV+1JBFZ0vDrQEcMFTRA0PoftmLahwZ9u+HtinB/AHgU1c8XArAmBPaioIyoEObBjZD38ZbXzfKXhx8weJWB2QePeVEft7R0fXY1Dq/HFtY/Dta8hvckYvsV5Gjf+bW347Bz8iMbzGTgfMRMSAOxGEInAtErjZOC6tY+H1r6GxQkaN/AHNG7wD4pzz9DwY9dIALAXQSQCW5lUCiwpKHU8OeAmvb2wFtajP0f07LdCw489IwHAIgSNe2VLIhHYySQxsI/TSUGl9lQNgsYN+qQXf2Dq3zT026Phx8KQAGDRuiIR2IvphOCwxpO6Dk997aj83vhPX4uwFqdp3Is/beprQdiNSuNG/wrR8GNBSAAQS1fjoYFCiKHS+mSgWvt4eMPPaJvPNzNpxKeFqX8f2PBzYZOfweIMV+PStY8AkBUr7faV11Iqgqg7bOlpISAiKgBIJWi8PvkC0VsENsP4PpIiAUAdumJ4AJgYalwlu1o0/EiIBAB1ChpXBS4Us7/RLtbQ24S+q8T4PmpCAgAPrPG/SFQF0HxDjRt9ZvOjdiQA8CaIuQJolsnYvjX8hwQ4QQIAzy7S8coAkBNr9IcaN/xDAQ6RACAHDBEgF0NR4kcmSACQm6BxEkAyAC+GotFHhkgAkLMgkgHUYygafWSOBABNETROAi5c+8iyQizS5CFOk6V7NPrIHgkAmqrQeMMhVhNgtyqNN+eZzN6n0UejkACgDex5BJYI2ETCQsDmJr18a/C/KJbsoeFIANBGhcbJgCUFB4U2s0beGnt6+WgdEgC0nc0VKNaChKD5Jg3+cC1o8NFaJADAepYQWBJQ6HhCwITCPE1K+teJHj5wAhIAYGcHdTwpOE9UCbw6NBWM4QM7IAEAdqfQOBk4R8eTAioFaVgvvtL6xr4SvXtgLiQAwOJYEhDWPp439W/szsaG/vDax0oA9owEAIhvUh2YVAwOaJwcBFE1OKrjY/XWwJeioQeSIAEA6jWZdGgfLTE4Q+NE4fS1CMo3SZg07tVa3K3jDfzka5TtgZqQAAB5CDqeFEwnB+bA1M9MTH5Gm3xvJ5OGe1q1yfcOb/hepfWNPgDH/j+CmS9xTGJMagAAAABJRU5ErkJggg==;" vertex="1" parent="BE3_SHiMCwZjSVx6Z5An-50">
          <mxGeometry x="21" width="36" height="36" as="geometry" />
        </mxCell>
        <mxCell id="BE3_SHiMCwZjSVx6Z5An-49" value="&lt;font style=&quot;font-size: 16px;&quot; face=&quot;Tahoma&quot;&gt;Official Foundation&lt;/font&gt;" style="text;html=1;strokeColor=none;fillColor=none;align=center;verticalAlign=middle;whiteSpace=wrap;rounded=0;spacing=0;spacingLeft=0;textOpacity=90;fontSize=18;" vertex="1" parent="BE3_SHiMCwZjSVx6Z5An-50">
          <mxGeometry y="38" width="78" height="37" as="geometry" />
        </mxCell>
        <mxCell id="BE3_SHiMCwZjSVx6Z5An-51" value="" style="shape=cross;whiteSpace=wrap;html=1;rotation=45;" vertex="1" parent="BE3_SHiMCwZjSVx6Z5An-52">
          <mxGeometry x="55" y="30" width="15" height="15" as="geometry" />
        </mxCell>
        <mxCell id="BE3_SHiMCwZjSVx6Z5An-54" value="" style="shape=flexArrow;endArrow=classic;html=1;rounded=0;" edge="1" parent="1">
          <mxGeometry width="50" height="50" relative="1" as="geometry">
            <mxPoint x="278" y="510" as="sourcePoint" />
            <mxPoint x="650" y="510" as="targetPoint" />
          </mxGeometry>
        </mxCell>
        <mxCell id="BE3_SHiMCwZjSVx6Z5An-55" value="&lt;font style=&quot;font-size: 13px;&quot;&gt;&lt;b style=&quot;font-size: 13px;&quot;&gt;Step5:&amp;nbsp;&lt;/b&gt;&lt;/font&gt;Push $orcp listing oncryptocurrency exchange" style="edgeLabel;html=1;align=center;verticalAlign=middle;resizable=0;points=[];fontSize=13;" vertex="1" connectable="0" parent="BE3_SHiMCwZjSVx6Z5An-54">
          <mxGeometry x="-0.1414" y="3" relative="1" as="geometry">
            <mxPoint x="14" y="-15" as="offset" />
          </mxGeometry>
        </mxCell>
        <mxCell id="BE3_SHiMCwZjSVx6Z5An-62" value="" style="group" vertex="1" connectable="0" parent="1">
          <mxGeometry x="658" y="485" width="121" height="50" as="geometry" />
        </mxCell>
        <mxCell id="BE3_SHiMCwZjSVx6Z5An-59" value="" style="shape=image;verticalLabelPosition=bottom;labelBackgroundColor=default;verticalAlign=top;aspect=fixed;imageAspect=0;image=https://upload.wikimedia.org/wikipedia/commons/thumb/e/e8/Binance_Logo.svg/1024px-Binance_Logo.svg.png;" vertex="1" parent="BE3_SHiMCwZjSVx6Z5An-62">
          <mxGeometry width="50" height="50" as="geometry" />
        </mxCell>
        <mxCell id="BE3_SHiMCwZjSVx6Z5An-60" value="" style="shape=image;verticalLabelPosition=bottom;labelBackgroundColor=default;verticalAlign=top;aspect=fixed;imageAspect=0;image=https://seeklogo.com/images/C/coinbase-coin-logo-C86F46D7B8-seeklogo.com.png;" vertex="1" parent="BE3_SHiMCwZjSVx6Z5An-62">
          <mxGeometry x="33" width="50" height="50" as="geometry" />
        </mxCell>
        <mxCell id="BE3_SHiMCwZjSVx6Z5An-61" value="" style="shape=image;verticalLabelPosition=bottom;labelBackgroundColor=default;verticalAlign=top;aspect=fixed;imageAspect=0;image=https://altcoinsbox.com/wp-content/uploads/2023/03/okx-logo-black-and-white.png;" vertex="1" parent="BE3_SHiMCwZjSVx6Z5An-62">
          <mxGeometry x="71" width="50" height="50" as="geometry" />
        </mxCell>
        <mxCell id="BE3_SHiMCwZjSVx6Z5An-63" value="" style="rounded=1;whiteSpace=wrap;html=1;fillColor=none;strokeWidth=2;dashed=1;" vertex="1" parent="1">
          <mxGeometry x="80" y="70" width="750" height="660" as="geometry" />
        </mxCell>
        <mxCell id="BE3_SHiMCwZjSVx6Z5An-64" value="" style="group" vertex="1" connectable="0" parent="1">
          <mxGeometry x="315" width="280" height="50" as="geometry" />
        </mxCell>
        <mxCell id="BE3_SHiMCwZjSVx6Z5An-65" value="" style="group" vertex="1" connectable="0" parent="BE3_SHiMCwZjSVx6Z5An-64">
          <mxGeometry width="280" height="50" as="geometry" />
        </mxCell>
        <mxCell id="BE3_SHiMCwZjSVx6Z5An-66" value="&lt;font face=&quot;Tahoma&quot; style=&quot;font-size: 28px;&quot;&gt;&lt;b style=&quot;&quot;&gt;ORC Protocol&lt;/b&gt;&lt;/font&gt;" style="text;html=1;strokeColor=none;fillColor=none;align=center;verticalAlign=middle;whiteSpace=wrap;rounded=0;spacing=0;spacingLeft=0;textOpacity=90;" vertex="1" parent="BE3_SHiMCwZjSVx6Z5An-65">
          <mxGeometry x="50" y="10" width="220" height="30" as="geometry" />
        </mxCell>
        <mxCell id="BE3_SHiMCwZjSVx6Z5An-67" value="" style="shape=image;verticalLabelPosition=bottom;labelBackgroundColor=default;verticalAlign=top;aspect=fixed;imageAspect=0;image=data:image/png,iVBORw0KGgoAAAANSUhEUgAAAgAAAAIACAYAAAD0eNT6AAAACXBIWXMAAAsTAAALEwEAmpwYAAAAAXNSR0IArs4c6QAAAARnQU1BAACxjwv8YQUAAD8LSURBVHgB7d17rGxnXf/xD6eHlnJrC7SAYM9TuZRb6KmAeCF2IX+AILS/KEaiOCM0ATWxQCJiSNxTjCAqtGCi4Q/dU4IRidBWQlTQzBANEAr0NBTaJpS1jqW0tMVzSm3T0sv+7e/MnnNm77MvM3vP86zvs9b7lXzZZ1/o3jPr8nyf73NZjxKAHITVOH0twtTXzIG1j5PvT39Pm3xvFtXUv4+uxcbvHZ76/OiGqATAtUcJQJ0mDbqFNeTnrMZpU1+bt+H2ZJIITJKC61bjiMaJg31+SOsTCwAJkQAA8YXVOKjjDfyBtc9zbtwXZZIkWFhiUGqcKEwSBACRkAAAixN0vKE/uBb2tbY38nthSUClcVIw+TeJAbAAJADA/CZl+wtEQ1+HSXXAkoJJxWAoAHMhAQB2Zg38dGN/UPDo0FoMdbxiAGALJADAetaLtwb+otU4T8fH6pGfSaXgixonBUw6BKaQAKDtrHEv1mLSy0dzTScEFiQEaC0SALTNdA+fBh+ThOAqMY8ALUMCgDaYjOFfJEr62N5Q42TAkgLmEKDRSADQRNO9/At14q54wCwqjROCK0R1AA1EAoCmsEbfGvyO6OVj8WyuwFDHqwOVgMyRACBn1shbg28NfyEgneFq9EUygIyRACA3NPrwZiiSAWSIBAA5oNFHLoYaJwNXiyWGcI4EAJ4Vq3HJ2kfG9JGbvsaJwFUCHCIBgDeFxkv23iEafTRDpXFl4FIxRABHSADgASV+tMVQDBHACRIA1KnQ8aV79PbRJtb429AAVQHUhgQAqU2v1y8EYKhxVeAKAQmRACAVa/htQh9j+8DmKjFXAECDFKtx5WqsEAQxcyyLB1UhMioAiKVYjSVR5o+lmvp4VMcnlB3e5Gcmpn9uO2Gbzw9s+NrpaxGEGIZieACRkABgkSaz+a3MH4TdqKbi7tUo1z5OvjZrI16H6WTAPlqycMbax8nX6NXuTrUaPZEIYIFIALAIjO/PzhrvSuNHzR6e+vfk620QtD4hOG/q35w/26s0TgTYdhh7RgKAvaDh35o16NawX6dxL94+VuKmvZPppOCctY8kBieqdHxooBKwCyQA2A0a/vUqjRv7oca9+kPiprxoQeNEYJIcHBTDTKYSiQB2iQQA86DhX9+zH64FO7rVw87BQuNk4AK1u1JQiUQAQAR2U7UZ/UeU11KqRUSp8ZIsS3yYwOafHaOuxktP7dh5P79inK9LojoCYI/a2PDba13WuBEJQu6Cxseyr3YlBKXGK3IAYG5dtaPht9c40LiHH4SmswqBHWs75jmcnyQCAJIpVuNa5XWT281N8fK118okxnYr1I7qQCkSAQBbKNTsXtFA9PKxvaDmVwcG4hoAsMZ6wJcpr5vYvI0+vXzMK2g8DGbnUA7n+ryxLBIBoNWW1Lxx/oFo9LFYQc1MBkqN7wEAWqRQs8Y8B6LRRxpBzUsGSjE/AGi8oObcuEqN90Sn0UddgsbnoJ2LOVwzO8WyGBYAGmlJ+Zf77e+fzN4HPCk0Xk3QhCG1JQFohEL591AGosSPPNg52lX+S2lLsfMlkK3cZ/fT20furAHtK++qwLIYFgCycpHyvelYz4nePpokaFwVKJXXtTiJUkwSBNwLyneS30D09tF8hcYPKsrlupyOZVENAFyyXnNuvf5JmZ+xRrRN0Hh4IKfr1aIU1QDAjaD8ev3W8PdEmR8IynMp4bKoBgC1ym2sn4Yf2FpXeSUC9rd2BCApa0BzGkcsxY0CmFVXeSUCy6IaACRRKJ+bg/2dHQHYja7yutYLAYgml3X9djPoCMAidJVPIrAkAAsVlMfOYjbG3xGAGLrKIxGwvzEIwJ7lsLyPyX1AOl35TwTsnvAOAdiVHLbypeEH6hE0vvY83x8slsX9AZhLkP8MnwsbqF+Q/w2FSjEkAMzEe8l/IGb7At4E+d4QjCEBYBveS/6laPgB77ryXT28TADWCfI7y59xfiA/Pfm8n0w6E0EARr1qryX/gbhQgVwF+Z0fUIqKIlrOxvu5OAHE1JXfYYElAS1j5fRl+bwge6LcDzRRTz7vOcwLQGsE+RzvH4hyP9B0QT6rAaW4/6DhDsrfxcfyHKB97Jr3NveoFEkAGqojfxfcQFxwQFsF+ZskaPfIiwQ0yJL8XWT0+gGYrvxVJpcENIC3zX0GotcPYL0gfzsJMjkQ2bKZ9J4uKHr9AHbibW7AlWJVEjIT5Gum/7Wi1w9gNkG+hgRKcf9CJoJ8XTyXCwDm15Of+1gpkgA452mZn/0dhQBg9wr5uqcdFOBQIT9jZ4ybAViUID/LBe0eSxIAVzrycXFYMNEPQAw9+bnPdQQ44OWBPqXIjAHEFeRnSIDODmq1JB8XwkCU/AGkETQeZvRw71sSUAM78TxcAD0BQHo9+bgHLglIyE64uk96mwxTCADqY/v2lyIJQEvYiVb3yc7GPgC8CCIJQAvYCVb3Sd4X4/0AfLF7Ul8kAWgoO7HqPrl7AgC/eiIJQMPYCVXnCW3j/V0BgH82L6DuTdGWBCyAnUh1nsilWN8PIC9B9c8LWBKwB3YC1XkCM9kPQK6CSAKQKTtx6jxx2c8fQO7sHlb3pkFLAuZQ9/a+PMIXQJP0VO89lW2DMZOO6j1RewKA5ump3ntrR8A2bLJdnScoWSqAJrN7XJ332ELAJqzxr2vpCsv8ALRFV/Xea1lVhXWC6putygkJoG3q7HCVYnUV1gTV1/jb76XxB9BGQfXee4PQarZEhRMQAOoRVN892PZZYal1i9W1PrUUjT8AmKD6koCB0EqXicYfADwIqi8JuExolSXR+AOAJ0H1JQFLQivYk6po/AHAn6D6koCO0GhB9Sw9KUXjDwCzCKonCWBJdoMF1XNS0fgDwHyCuF9jgTiZACAfQfXct1ke2DB1zPgvReMPAHsRVE8SsCw0wpJo/AEgV0H1JAE8nC1zhdKfNDaRJAgAsCh1PTugELIUlD5rZBYpAMRRRxJAhy5TpdKeKBZdAQBi6Sr9fZ1JgZmpY9If40UAEJ/da1Pf39kuOBOXKP3J0RMAIJWe0t/n6eQ5F5R+jKgnAEBqlyvtvZ75AI7ZGE2ptCfElQIA1CX1I91LMR/Apb44EQCgTewebJP0Ut77mQ/gTOpx/1KUggDAg6D01V/mAzgRlHbcn3EgAPAl9R4BtANOlEp30C0uEgDAm67StgXXCrVaUtoD3hMAwKue0rYJzAeoSaG0B3pZAADv+krbNhRCUkFpS//2u5jxDwD+pV4ZQPuQWF9pD24QACAXQWknBbInTCJdpTuoFkz6A4D8FKKtaJSgtKX/ngAAueopXXvB0sDI+kp3MCnpAED+BkrXbgyEKLpKdxBLkckBQBOkfk4MuwQuWFDaAxgEAGgK2ykwVfvBUMCC9ZXu4PUEAGga65mnakcGwkJ0le6gLQsA0FQpHx/MqoA9CkpX+i9F2QYAmizlfIAjYoOgPekrXbZWCADQdIXStSs8K2CXUk7a6AkA0BaXK137UghzK5Xm4JQCALRNqucF0MbMaUlpDgzLNQCgnYLSPS+gJ8wkKM0BsWDDBgBor1RLA+lszqivNAdkIABA21lbQJvjQFdpDkQpsjEAQNqhgELYkjXMKQ5CRwAAjKUaCiiFTS0pzQFYFgAA6w2Upg3qCesEpen9MxEDALCZoDRDAewQuEFfaTIvZv0DALaSaiiAHQLXBKV5w0sBALC9gdK0SYWQ7M0OAgBge0Fp2qSBWq6rNG90TwAAzKanNG1ToRo9SvUqFb9nXq3GOUITnb5FzKpa+3h0LSoBwPg+Ys8KCIrr0Gqcr5rsV326SlOW7wm5Cho/FfKAxkncaWuf76axn0e1FpYUHNY4Ub1u7fNDAtB0dq3/juKX6e1+1lmNK1SDOisAKXr/fY0PInwLGpfCJo39Qfmes2FJQKVxUjD5N4kB0DyWABSKy5KNc9Y+tkJXacZXguCN9dov0vh53HZxpdqCM3YcWXs9l6+9viAAuQtKc4/qqSWC0mz60xM8sAa/q3HDmOK4ewobQ1wWCQGQs57i3ytasznQkuK/maVQp0Lj4zxQ2gY3h4TgcrH+F8iJNcyl4t8fekos9RyAoHGjEBRXVzVNqmgpu0Bs3N56uh2xzeUsqtUYrsbVq3GVgGYo5CvBtYZ7EW1BofgTAhs/F2BJ8bOo2AcJxxUa92ibMo5fV9j7tywqA8jfQL6urY4WJ8Vr66mhgtKUUYIQU6FxIkejHydKjZOBICAvQf6up6DFKaTof29j5wIsKf6btyzEYCfkJWJMP3XYnIGOgDx05e/6WbS+FP3v7qlhguj95yiI3r6HKEVVAP4N5Ou6eYcWzzpDse+HjasCLCn+we4Ji1KI3r7XuFLMFYA/Qf6ulaA4elL0v72nhgiK3/svRe9oEQrR8OcSpRgegB9d+bo+YpT/J6gCzKGr+Ae7I+xFVzT8uUYpzn/UbyBf10VPcfUk5f4akigV/waI3SnUvt35mhqlSARQD+uperseDiouqgAz6Cr+ge4I8ypEj7+pUYprAml15e8aSKErKfZriTGRMRk7EE040E1hWfFA6S9IIn0MxLwYpGETUz2d+5crnVJxX0upTHUV/0B3hFlYGekypb8QifpjWSQCiKeN5f9pXcV/PYUyNFDcN6UUZmEb+LCOv91RKvNSItyy5394O9dTKxX3NQ2UGcvAYh/ojrCdQpT7ifVRimoAFqsvX+f4stLrKv7rKpSRvuLfyLA5yv3ETmHnB09sxCJ4qy4WqkepuK/rSmUiKP5B7gibKcSyPmK2KMWOgtgbyv/HdRX/9WWRtPfV3IPsFb1+YrdBNQC71Zevc3lZ9YpdDekpA6XivgkdYZrNt4j9nhPNjlLMDcD87LzxdB4XqldPcV+f+42Buop/o8JxNsN/hSAWFEsCZlPI17lbqn4pdgfsyLGB4r74nmDsRIv9XhPtDJtsFARsry9f5+2yfOgp7uscyKmg+Ac5CIUo+RNxo1TazVSQHztHPJ2zF8qHFFWAQg71FfdFLwuU/ImUsSTgRIV8nadH5IttRRzz9abc6ngmKbKeoPZilj9RV7BKABv15escXZYvsTfCczcZsKu4L/gqtVdYjWuV/qIiiEmUYvgNx9n54On89FL+nzZQ3Nfsamvv2C+2UDuxxI/wEqVIAuCv/L8inwrFfc0DOREU/8bTRrbLFg/xITyFnY92XqK9Yo9vzxueq8OxK7d7nqi7T3vXU1w9tY9N9rPlWIy9whM7H+28XBLaylu53fMe+VcoLhfJeKm4PY6gdrGb6wpBOI8loW1SPOV13vDcSYo9Ob721Q+xHwaxrHZZUvoLiCB2G0tCm1D+n1/s96xQjfqK++LatBkJy/yIHGNZaAtvq5E68q9Q3PegtiGQ0xX3hV2r9lhW+ouHIBYVy0LTBfk774LyMFC892BPewLsZRJg7AkI7nY7imRZ430UgFx1RRLQdN5WfwxXo1IerlY81vh3VQO3WU1G7Ka5QhANiWWhqSj/717syYADJRbEjWSvGPMnmhjLQtME+TvPgvISezLgrjrMux0CKBRX7PWTdVuSs60cgQXpitUBTVPIl6HyKf9PxF6x0FVCA8XLZEo1m90cVwii4bEkNMVAvs6tjvJUKt57MlAiQXEPbk/NtaT0FwtB1BVLQu6C/J1XQXnqKe77kmTeXFeK+iKCmin2pkkE4TE6Qs668nU+5bw8PPbS+STDygMp2gsYqJlsQyMe7EO0Mey8b9OGXk0zkK/zKfe5UzHfz4EiC1K0P96io+YJ4pG+RLujFI8SzlGQv3MpKG+WwMR8f+YaBph3FUChuL6oZrGDMRA3P7Rb0Pg64OmWeSnkyyHlN/t/o77immvDpnkTgJiPghwq/4O7ka39DAIQNN77AvnoyJeYO+qlclTjti6WqMcs5ji2t5Ntr5ZUT4mMIDzHkpCD2BPWdhNNmUsScxgg2i66hRTtj7YIao5C6S8OgsglCsG7rnydM6WaI3ZyVWhG8wwBdBXPUM0p/wexHSqwHXuEaRA8izncuxtNKP9PxB4GiPLgJsvAYmUsHTWHt4dmEITHGAheUf6PL+YwQKkFO6h4f6xFUDMsKf2FQRC5BpMCffK2aVmp5omdZIVZ/ohZhwAKxTNUM8r/liT1BGBW1gsqBG+ilJD3YKjmcTEMMGsCEHM8qAljO0HjcU0A81kW+wN44238v6lPh43Z9i30GNZeqnCur/RlMYJoSiwLXlD+Tyco3vs203LAWSoAheKplH/5vyseeALsRVf+ys5tRfk/nUrx2j9r/HecODlLAhDzhBgqb0FsbAIswrIYCvDgAvnS1PL/RMxhgB3b7v3aWcwTIveD2xPrmRfqrLPO0m7ce++9o4j1O+644w4hKmv8LZl+p1CXQr7uZ5WaXQEwV63GJYpjx7b7UTt83y7KI4pnp9/vWSHWMi/ct7/9bZ199tma1wc+8AH92Z/92Y4/F0LQ9ddfr3kcPnxYL3zhC4UkXqnm3/S96svXcGZ/NX5HzWZtbKl41a8zNF5xsKmdKgCF4hkqb0xciuDUU0/V4x73OM3r0Y9+9Mw/O+9//7GPfayQjF1X52ubmxai8Vb+v0rNZ+e5PeWwUBx2TLccZthpDkCheHJe/melyiAAixY03h8AaRXydU+zhrFJ2/9uJ+brfOV239wpAYiZEQ6VpyA2/AFisjHRIKTUlS9t6P1PxHyt27bh2yUAMy0j2KVK47JHjnoCEJPdexhiS4vyf30qxRvysjZ8y/kF+3b4P8YyVJ4KseYfSKEQ2wSnUshfxaUt5f+JmK93y7Z8uwSgUDxD5YleCZAOe2yk4W3zn7Y1/maoeLY8vtslADFLQl9UfrpiXBJIqRAVtxS87f3fxueqDBXPeVt9o44hgEp5bv9LbwRIryd2CIzJ7vNBvrSxAlApXrs49xDAthMH9ug65acrev9AHYJYFhhTV75Y49/WPSBiVca3nNC/XQIQS47lHXr/QH1sWSBVgDi8zf5v82PVY66MKzb74r55fnhBcqsAdEXvH6iTNf5UARYvKG5nbzdynB+2KEPFs+k8gH3z/PACTLY9zAm9f6B+VAEWz+Ojfyu1l7WNMfcDOEHqIYDcGv+u6P0DHlAFWDxvKyz6Qqw2ctN5fZslAIXiya28Q+8f8CPWY1PbKIjyv0cxh8jDxi9slgDEPCmuVT66ovcPeGI9GPYFWIxCvgzV7vL/xFDxFBu/sFkCEBRPThkevX/An66wCJT/fRoqnhPm9u2b5YcWpFI+6zsL0fsHPCrEMwL2Ksjfe0j5f8zayEpxnFDdTzkEkNPyv64AeEV1bm8K+WIT3yphItZEwLDxCxsTgJg7AOayAiCIcUbAs0IsCdwLb/e3K4RpMXcEDNNf2JgABMWTywTArgB4x5LA3QnyVwG4SphWKZ51Q/z7N3wz5gqAXIYA6P1v4lGPetS2319ZWVHs37Gdpz71qXr5y1+uk08+WaeccsooHvOYx4w+P+mkk7Rv375RnH767juO9vct4nViIWxJYE+YVyFfKP+fKGa1/JzpTzbecW0f5hi7Q9nEhjPkn732Nu9FvSlr+P7yL/9SRVEcawAfeeSRTT8+/PDDo5/Z+HHy/WnWIJtJQ71//3699KUv1W5s1zDvJbEw99xzj6655hrdeuutuvHGG/Wd73xHt99+u77//e/rtttu07333ivU4pWKO2u6iQbylQRcKhK5zRxRnGGu/mr8zuSTjRWAoDhyGf/3tjWmG+eee65e8pKXyKu9NvLbecITnqBf+qVfOvb5dLLxwx/+UDfddJO++tWv6ktf+pJuvvlmXX/99XrwwQeF6Gwy4FCYlTUohXyh/L85azMLLd62Vf6VSHG5/AuK9/qzjtXGdeWzn/3sCra3WuUYffze97638rnPfW7l7W9/+8ozn/nMrI51hsFkwNl15evYlcJWrM2M8Z4fmf4l05MAY47/V/KvELAHkyrEM57xDL32ta/V3/zN34yGDP7zP/9Tb3zjG/XoRz9aWLiuMKsL5cvVwlYqxbFuJcC+Dd+IJYchgI6ABbKE4HGPe9xo+OBTn/qUbrnlFr3nPe/Z00REnMBbo+aVnXTehjj7wlZitpnHVgKkqgB4TwCCqAAgMlup8IEPfEBlWeqP//iP9RM/8RPCnhViGGAWhXyplN/TYVOqFM+xlQDTCUBQHEflfwvgQkAiVgF4//vfr6985SujoQHsWVfYibfe/1DYTqV47WaY/GM6ATigOCj/A5v4yZ/8ydHQwMc//nE9+clPFnaNYYCdeXuP2P1vZ5XiCJN/pKgA3C3fgqgAoEZvfvOb9W//9m96znOeI+xKIYYBtmO9f0/vTyUqALOItXnepnMAguLwXgEoBNTMNkD6/Oc/P5ongF1hD4+tUf7PU6U4jiWD+6a+ECtD9P4MAMqHcCGEoMFgoKc//enC3EgAtnaBfKH8P5tKcRxr7ycJQMwVAN6HAAoBTjz/+c/XX//1Xwtz89bIeVEo7kPe5lWJCsCsYlbPg/3PdAUglkp+FWLsEM786q/+qn73d39XmIvHbW496MqXoTCrmKvnRpP+J88CCIqnkl+FMBN7EI7tcb8d2/jGHuxj49i2AU7M/fmb7n3ve99oYqDtGYCZFaKB2chbZYS9/2dXKZ51TwXsKc6+w97H/weqZw/sRsfTnva0lU6ns3LNNdeseGX79k/27vfq0ksvzeq4O4iBMK2Qr+NzRJhXqTjHYvR8nkkXLdZjgIcaP7LTqxUhqre97W26/PLLR5WBmD7zmc/o05/+tB566CE98MAD+vGPfzwKexyxfc2ezmd78VucccYZOuuss0bx+Mc/Xmeeeaae/exn61nPepZWkxc3lYujR4+Onitw3333CTOxkuk58r/xWCp9+drjpK+pR9FiJgPFqVT3NXUs7JfEyDKW5VeherLg1sVv/dZvrcTW6/Xm/rvsKYcWk89POeWUlXPPPXfl9a9//crf//3fr9x55521Vgnsd1988cWuj63DKISJUr6ODSuu5tdXnGMxsP947EmAh+VXzJUPmPKJT3xCw+FQ3qy2saOYsMrBTTfdpM9+9rN6y1veMtqr3x7k88///M9abYyVmlUi3vSmNzGXYj5c12OFfM3+Nzz9b35RtwPeN/1JBJ5LcRcIyfT7/XWNbQ5s2MASF9uv30rxtmVv6tfwspe9jH0B5lMIxtu+CDT+u1MpjnX7AMSqAJTyqxCSufnmm5Wz22+/XZ1OR6973ev0ve99T6nYHAXbIAgzI7Ef81Zuv1LYjVid6GMJQFA8XjcBCmL9f1L33nuvmuBf//Vf9epXv1p33XWXUrDy/8tf/nJhZnZdB7WbDYME+UIFYHcqxRMsAWjjJkCME2LXvv3tb6vb7SqV5z3vecwDmE+hduvKF2v8WZmxO5XiOT12AuD1oJMAYE8+97nP6R//8R+Vgi1PxFzafn17Gwah/L97MdvQ1iYA5wnYoz/8wz/U//3f/yk2W42AuQS1V5C/BOiLwm7FbEOjDgFU8isI2CPbHtk2IIrtKU95SnYrKGrW5gTf46N/K2EvKkUScxKg5zEfhgCwEF/4wheiN86PfexjhbkEtXeSb0e+9AWvwj7Fw/g/Gu9rX/uaYqP3vytB7RNE+b+JKkUSexmgR0HAgnz3u99VbD/60Y9YBTC/Nib6hXwZivL/IsTqTB+IWQGo5BMVACyMPXDo/vvvV0w/+MEPhLkFtQ/l/2aKtp+OJQAH1C5BwILs379/9ITBmGznQYYB5tbG+1ohXyj/+3ZGzAqA1wcBte3GgIgOHDigk046STEdOnRImFtQuxTyxU7aSliESnGcFjMB8IotgLEwtklPzPF56/l/9atfFeYW1C7eyv9XCO7F3gjIoyBgQYqiUEwPPfSQrr/+emFubbqvBfmrAFwleNe6jYBOFxUALMjTnvY0vfWtb1VMX/7yl3X4sNfRNNfadK0X8oXy/2JViqRtQwA0/liYiy++WGeddZZi+tjHPsYEwN1ry/XurfzPk/8y0bYEIAhYAHtE75/8yZ8oJttq+N///d+FXQtqPktyCvlC+T8TbdwICNiT173udaMtgGMv//urv/or/fCHPxR2Laj5vO39X2k8BAD/Tm/bRkBBwC6dcsop+vCHP6yrr75aT3jCExTTDTfcoOXlZQE7uFC+UP5fvFg7AZ6+X+3CHADsys/93M/pox/9qF760pcqtkceeURve9vbdPfd0TYAa4umX+/2+rxVAPrCokV7rg4JALCNV73qVXrnO9+pV77ylcmeyvfud79b//Vf/yXsWdOv90K+VKL8n5W2JQDAls4444zRuv5zzz131OBbr//xj3980gfx/Pmf/7k+9KEPCZiBt97/UMgKFQA0gi3He9GLXjTaOMfi4YcfHn193759Ovnkk0e9d2vMn/jEJ47i1FNPHX1ujf5P/dRPjWb1P/vZzx79f+p48t4DDzygD37wg1paWhIWpunbfnsb/2f3vwytRIpC/vQV7/US28T555+/sjq2vZKC/Z7VBGAUk99pHycx/XOp/qbt3HPPPSvdbjer45lJLKu5rPfv6b0uhVgKRTpuDAGgcawHv7EXv1mvvo6e/kb//d//rd/7vd/TN7/5TQFzoPyPPWvjw4CA2tn6/t/8zd/UL/7iL9L4YzcukC+U/zNEBQCogc1B+P3f/309/elPH834v+aaa9jyF7Mq5GtPk0pUALIUMwE4TQA2ZZMSf/7nf34U1vB/4xvf0Mc//nF96lOf0u233y5gG135MhSyZEMAsTYZOEMAdmRzEV7ykpfoIx/5iG666abRMsAzzzxTwBa8lf/Z+z+uoEhiJgAA5mRLFN/1rnfplltuGS0J9DBREa4U8lX+t/aD7X/zVDEJEHDInjvQ6/VGQwPPfe5zBazpyhd6/xlrWwJQCcjIwYMHR6sEXvva1wpza+LDFCj/Y2FiJgBBAPbMdjL8l3/5F733ve8V5tK04c1C/u6rlP/jC4rjqCUAlQC4dtJJJ+l973uf3v72twut5W3zHxr/vB1lCADIhD3X4G//9m9HDyrCTCo1i7e9/68Usmb7AMQqkx0QkNgjjzxy7IFA0w8Gsq9P7N+/fzTJztbiW6Nqpjfh8T7z/pOf/KRe8IIXjHYTRGscFOX/tgqKxBKAJk6U2UolNJKtob/88suPJQDW6G+VAFg5ffoJgfYkQQt7MuBpp52mJz3pSXrxi1+sF77whTr77LNH/x9PSYH9rR/72Mf0a7/2a8K2KjVHV75Y488S8rxVMXcC9LgRUCU00tGjR1VV1Tz/l2M96BtuuOGE71mDb1WBZz3rWXre856nV7/61XrDG96gAwd8FLZe85rX6BWveMXoYUJoBW+z/yn/pxPtphNzEiBbASNbkyGBm2++WZ/73Of0B3/wB6P1+C972ctG6/MPHTpU6979j3vc4/Tud79b2FalZggaDwF48kUhd4fbtgywErBLP/7xj/W1r31Nl1566SgRuOiii/T1r39ddXn9618/Gg7Alio1g8dH/1ZCKqcrkjYuA6wE7JHNLbC1+S996Ut18cUX66677lId3vKWtwibatL4dEe+9IWUYiUAVRs3AmLiChbq7/7u73TBBReoLEulZvMAeF7Apg6pGYIo/7ddUBxHYlcAopUu9uA6AQv27W9/e7Q+/4477lBKP/MzPzN6gBBO0JTVTYV8GYoqakox29C7Yz8N0GMCQAUAURw+fFgXXnih7rnnHqXylKc8ZbRKASeo1AyU/9stZht6NHYCEORPU0qDcOgrX/mKlpeXlYqV/88991zhBJXyF+SvAkD5P62geKI/CyDIHxIARGXLBP/3f/9XKdhSRFYCbKoJ13khX+w9rYSUYlYAjk0CjFUFYAgArXPkyBFdccUVSsEqALZ7IU7QhATAW/k/zUmNaUFxjNrB2AlAkD+VSAIQ2ZVXptsozbYzZiXAOkeV/zUe5K8CcJWQWrQlgPY/+6Y/icBr14RhAET1rW99S3feeadSOPXUU4V1KP8vHuX/egTFsa4CcFhxBPnEUkBEZcMAd9+dZiXa5ImGOKYJ17e38j9P/qtHrOcAjG5ObRwCMFQAEN3999+vFGyLYqxTKW9W9i3kC+X/esQaAhi1gbGHAIJ8IgFAdKnG5e+77z5hndyvb297/1finlmXWLtArhsCqBRPkD+VmAiIiPbv359sdv6PfvSjWp9M6NBQebtQvlD+r0dQPKN9y1MkAF6XAlYCIjn77LP19Kc/XSmk3HkwA7n3VO1+6a0C0BfqEBTPujkAleLx9iCLCXa0QjT2qN4Uk/Os559qtUEmcr+uC/lSifJ/XWJ2ntfNAYi5bjbIJ05qRGEN/5vf/OZkcwDsQUQ4ZqC8eev9D4W6xBz/XzcHYPLFGGItY9grZrUiil//9V/X+eefrxTuvfdeffe73xWOyX0JoLfxf3b/q895iqOa/GM6AYjVI/Y6BMA8ACzc0572NL3//e9P1vv/5je/yRyA4yrlfU1b79/TnKlKVADqFOtcOLbvz77NvrhgQX4xuxULY43+hz/8YZ1zzjlK5atf/SorAI4bKm+U/zEtVue5mvxj32ZfXDDLYoJ8Yh4AFuKUU05Rv9/Xm970JqViDf+Xv/xl4Zjch/UukC+U/+tzuiI/B8CkSABMkE/MA8Ce2Xj/ddddp9/+7d9WSrb+//Of/7xwTM7j/4V83ScrUQGoU8yh82Md3xRzAIzneQBDIbrHPOYxjXti3U//9E/rE5/4hL7+9a/r3HPPVWpf+tKXdPQo+1mtGSrv8f+ufBkKdYrZZh67aeyf+mK19o0YZYcgv2zdcCFEdfDgwVHJOvckwJb4/fIv/7Le+ta36ld+5Vf06Ec/WnVZXl5m/P+43Nf/eyv/Ux2tV1A8xzr7+zd8o1KczCPWcoZFGK7GkhDNq171qqQz4xfB/lZrXG1L3wMHDugXfuEXRq/jNa95jc4888zaX8uNN96oK6+8Ujgm5warkK9OknUEmSBdr1ht5rpK/8YEwMbQYiQAXocAzFDxKh+N87rXvU4vf/nLd/y5k046SWeccYZe8YpX6DnPec5oCCC2SaO8Xa94s5+ZfM327n/+85+vF7/4xXruc5+rn/3Znx1t5/vUpz5Vj33sY+WJ9f4feughYaRS3hN6u/KF3n/9YrWZ61b7bUwA7CKK8RzqyUqASj7ZbNdLhG1ZQ/mOd7xj1BOe5WdTeuMb36gXvvCFo0ZxOh5++OFjPfmTTz551JBbMnL66afrKU95ik499VQ98YlPHH3dvj/p+XuuVtxyyy366Ec/KhwzVN4o/2NaUOTHAE9sNgQQy3nymwDYCU8CMIOzzjrLZeP4ghe8YBSL4H2o4r3vfa/uv/9+4Zicl6sV8jdHivJ/vWJWzK+d/mTj00piltHS7Y4yv6F4PPCOHv/4x+uZz3ymUJ/Pfvaz+uQnPykcUynvCoC3zX9o/OsXMwFYNwSwMQGoFK8hLOQbm17s4FnPepae9KQnCfX4n//5H11yySV68MEHhWOGypu3vf+ZWVq/WBMArW1f18nf7HmlleLwvBLAMO61A5scx7KzethchosvvlhlWQrr5Jy4W08vyBcqAPWLVQE4ocK/WQIQazetIN8z7Ydi84ttveQlL2ncZj65+KM/+iN94QtfENaplPc125Uv1vgzFFqvmFvnn9C2b5YAxJwH4G2260a5byYSlQ0BIC1byfCe97xHH/rQh4QT9JQ3b/dDyv/1KxRPtfELmyUAQ8XzSvl2ubAp6/k/4xnPENK5++679Ru/8Rv64Ac/KGwq54Q9yN/+KHSA6pfkGQATKecAGO/zAHg2wBZsnbyts0ca11xzzWgTpU9/+tPCpqxcXSlfHh/9Wwl1i1kVGm78wmYJwAkzBRfI846AE5cKJ3jRi15U6773bXHXXXfpXe9612i3xeuvv17YUu7Vuhgbru1FX/Ag2QRAs2+LH441EdAmOHhPAobKe1vRKKz3zwqAeO677z79xV/8hV72spfpsssu473eXqW8K3VBlP9xIjsnkuwAOLF/mx+OlaEW8t/AWnkxh2pFMs973vNYARCBbev7mc98ZjTOf9tttwkz6SlvhXwZivK/BzHbnOFmX9w/zw8viPd5AMbKi7Y1sOdli8lYw3/22WcLi2Eb+Vx11VX6h3/4B/3Hf/yH7r33XmFmNkSZe2+V8j82E3NTqLmr+kdWYyVC5LKTSU9xXn92sZoArNxwww0rmN8jjzwy+njHHXes/NM//dPKG97whpUnPOEJWR1/Z7GsvAX5e0+D4EGpOMf3yFa/cLua7kDxSlX2XIBKvlnv/4igM888c7QNbYpH+uZoZerpgda7v/POO0eT+b71rW/py1/+8mj//qqqhIXI4d6xna58JTE2HHu+ULegeJ3jobZYgr9/m/+TlQwKxVHIf9nJSo22zWhHLWdLAK1cvVennHLK6PG79iheSybs4UIW9jje0047bbTKYC/zDFYiPsZ38t+2jXmOHj2qH/zgB/r+97+vI0eOjD7/zne+oxtvvHHU6N9666164IEHjj1aGAvTV/5j1d7uJzwDxYdC8Ww5ZLbd3bLQuAoQQ381fkf+BeUzZOHepHGebhQnX9u/f7+e/OQnj3rMIQTNy9bLX3311Tr55JN10kknjWLy37aPk39b8vGnf/qnmoc19jY73zbmsfF625d/u9eEaHLv/Qf5u5/k/p42RV/xkkPr/Q81JyuBxxpzyqm0bknQCpEmyrJc2Y1er3fsv2FzFraK1eRiZV72N+X0HjY0lpW/rny9p9cKXpSKd5y3nMy+b+u/J+qGQDEfeLBobAyUGeuNbxXIVhOuw4584cl/PsR8KqS14Vs+4Gm7BMDEXG7jbSvMrQzFOBlQp77yL1Nbp6eQL1cJHhSKZ9s2fKcEYKh4Yq55XLSeANSlCb1/bx2eSux46kXMtnCw3TfrTABibnu4aNVqfEQAUuurGZPUvHV4KP/7USiePVUAYs8DyGm73Z62GUsBEEUTev92r/NWAegLHhSKZ9vxf7NTAmCYBzBmbyRVACAda/wr5a+QL5Uo/3vRVTw7tt2zJAAxJ4rkNA/A2DMCKgGIrVL+j/yd8NbRGQpeXKB4dmy7Z0kAdiwj7EFQXvtQ2/vwTgGIrafmDLl56+iwqsmHoLjt33CnH5glAYg5D8DkNAxgLKsaCkAsdr9pSiNl9zdPk50rcf/yImbbN5zlh2ZJAEzMGaO5DQOYHLYxBnL1/9QclP+xlZht30xt9qwJQMx5AIXyWQ44UYkdAoEYmjLxbyLmGO9uUP73ISju5NDhLD80awJQKe5F2VV+mBAILFalZm26VcjXHKdKVAC8KBRPpRmH7WdNAAzDAOvZ3AiGAoDFadr11JUvQ8GLmM+FGM76g/MkAAwDnGgo9gYAFqGv5jVQ3sr/7P3vQ1DcCsDMwzzzJAAxlwOarvLUE0MBwF5Uat7y2kK+yv9272b7Xx8KxWPHeTjrD8+TAMReDpjjMIBhKADYG7t+mrbNdle+0Pv3I2b5f66de+dJAEzMGaSF8hwGMEMxFADshs36H6p5KP9jM0FxKwBXzvPD8yYAsU+irvL1DrG/NjCPSs181HYhfzucUv73oVBcUSsAc40v7EKuwwATtoFJ00qZQAx2nbxSzeRt8x8afz9iz/6v5vh57df87GQqFEeh8TBAro1opfFkpmVhV77xjW/o9ttv17xuvfXWmX7uwQcf1Fe+8hXN47bbbhMWzipmlZrJW0dmrrIwogmKWwHoKwFroFciRk/5s02CVgiC2DSa8pS/zRyUv/c717lVTWNJb8zjHJTIQIr2Iko1w7Wq52InCM9Rqtm8Jf9M/vPDzv1Yx3mgXZh3DsBEzDGloPgTJVKw+QCVAExUau64/8QF8oXyvw+F4vbQ+0oo9jBAU0qEHsuBBFFX2PXQZEH+3vMgeNBXw47zQPFezBE1Z9wq9rgPQeQQdh00nbdrfSB4YG2ZtWnujvNuhwBMzGEAe8O6agarZvDoYLSZnf9Nnvg30ZEvfcEDWxYas0PbVw3cZjVO9VVPL4Ag6oy+2iHI33sfBA9iTwivrVp+peK+sELNYQeJlQFEm8LO97YsQevK13s/EDyIPQ9sWXuwlyEAE3v/e287au3FZOezSkDzVWrXzpgd+dIXPIg996X2ZZ4xhwGaNBlwIijuelCCqDtKtav8HOTvGAShbkFx28dSe7TXCoCJWQVo0mTAiUpUAtBcldp3fhfyxR5KVgl1KxS3AzuUA7HHOK5VMwVRCSCaFaXa2fMcyNdxaMOSyxzY9RDzOAc5MVDcF1qomYJIAohmRKl2Nv5B/o5FEOpWKO4xHmgBFjEEYGI/bnJJzVSJ4QDkr1J7z+NCvlD+9+ESxdWXI7H3BLBo8jaiQVQCiDyjVLt7nAP5Oh49oW5BcY/xwibHL6oCYEt9rlBcXTVXJSoByE+ldp+3dhMu5AtP/6tfT3HZMXa3vLZQJlmPY0FUAog8ohRjzV35OyaoV1D84xy0IIuqAJih4i5LsMa/6bNbK417VIcE+GXnJxUr6UL5EnsuFnbWUVxDOb7uuoqb+bShCmDsNcbeZpkgdhN2XrZle9/txH4k+m6i6Y9bzkGpuMe4I8dSTAbsqT16Sn8TIYitog1P9JuVbVPu6diUQt264hhHb7SOqF16Sn8zIYiNweYy6/Xl6/gsC3UrxTFOUhrrqF0KMTmQqCcs4S6EjWJXOueNQqhTV/GPcVAmYo9fl2qfIJIAIm2UYqb/Zij/YyM7BjGP8bIyUij+Sd9R+1h1xcZhVwgicvTFZL+t9OXrWC0Ldeoq/jHOboLnQHHfkFLtZeOxKwQRIay0zXj/9kr5OmaFUKfY58NAGSoU/8TvqL2CGBIgFhulWEq2k0L+jhnq01X8Y9xRpuzk5OSPhyEBYlFh5xEl/5315eu4LQt1KhX3+JbKWIpSdUfoimoAsbuwkr9NasNsSvk6ft52I2yTruIf344ylmJjoFL0XEyQv94J4TvY1W8+hXwdv7btieJNqbjHt1QD9BT/QugJE11RDSC2D3r9u9OXr+O4LNSlq/jHt6MGSFEFaMszAmYVRDWA2DwY69+9Ur6OJeX/egSl6f0HNURP8S+GnrCRzei2E2mFaH1cK5aL7UUhf8cU9VhS/GPbU4NQBaiXTcYslf4GRdQfrOtfDG+rba4S6hAU/9iWauAOnD3Ff+OWha0EMSzQtqDcvzilfB3bjlCHvuIf254aKEUVwKIQthNEItD0GIgNfRbJ3ktvx5jELr2g+Me1VIOfv9FT/DdwIMyiUPztmom0MRAJcAyU/2Hs+op9bHtqMKoA/hQiEcg9BuKcj8kmUHo63h0hta7iH9dSLXj6Zk9p3khKZPMpRCKQWwxEwx9bkL/jHoTUSsU/rj21QKoqQE/YDRvv7CvtDY2YLwai4U/F25M3B0JqS4p/XEu1KLHrKf4baklGEHYraJwI2Im5QtQedj73xDmdGuX/dgviuC5cqirAQFiErvzdCNsSg9W4RAxp1SHI3/kQhJT6in9MS7VQV2kumEJYlMnwgJ2wK0S0sOTYZp4XQp268nVeDISUukpzXDtqqRS9ylL0nmLoavw0uRViYTHQ+CE9nK8+2PHwdH50hJRKxT+mpVqsUJoLpyfEEjROBgZKezNsQhwRJX6vgvydL0FIZUlpjmlHLTcQF09TWCNmPdi+GCbYKqzRX9Y4aaLR96srX+fNtUIqQWmO6UA1e5TqVyjNGzFcjVcKKRVrcYHaPZ49XI0vrn0cCjmwORjnyY+PiB0AUymVpsN4zmpUQrKtNnkqWn2st1toPBxjCV+KVSB1xKSs31t7vfTygXzYcFyK+8SyHPBQATB2kywV/2Z5dDXOF1mXFwen4ry1jzk1mHY+HVqN69Y+TgJAfoLGQy2x70GVxtXoSjXbLx/sRmolriXFZQfWMi+GAnzYrMG0YzRJCM5Z+zj5Wh2O6nhDf1jjRPXw2ueVADRFT2k6IFfIyb3DSwVgItXYyzs1HnZAXuziDFMfw9rXD6x9DBt+dquLudrk34enPj+64SOAZusqTVm+0rhjg00USjdOGwQAaLugdKuWOsK2BkpzIAYCALRdqjZnWdhRULoZ4qwKAID2SjXr3yIIM+kpzQFhKAAA2ikoXWezJ8ylVJoDww5bANA+qdqYUphboTQHx+IyAQDaYknp2pe6ljBnL9UOgRaFAABNVyhdu7Is7Jqt4041RlOKbVsBoMmC0pb+g7AnFyldtnalAABN1Ve69qQjLMRA6Q4aSwMBoHmWlK4dWRYWJijt0+OYtAEAzRGUrv0oRel/4axnnvIAMh8AAPIXlG7c36IjRDFQuoM4EAAgdza3K1W7sSxEE5R2KGBJAIBc2T08VXtRitJ/dClXBVgUAgDkJnVb0RGSSFnS4XkBAJCXoLTj/stCMjZBL+XBvVZMCgSAHKRuH+x3BSGpQukOMBkeAOShr7RtQyHUIuWzAiyWBADwyu7RKduEnlArK8+nPOAdAQC8ST3prxRqF5R2aaD9LnYKBAA/gtK3A0FwIeUugZPMLwgAULegtJP+LHhmjDOp5wOwMgAA6pV6xr/FsuBOHScCjw8GgPqk3BPGohQdP7eC0o4DWVwmAEBqS0p7r2fcPwOp5wNYLAkAkIrdc1Pf5xn3z0Tq+QCcHACQxiVKf3+/XMiGjdGk3h/AoiMAQCx2j019Xy+F7ASlnw/AHgEAEIfdW1Pf00sx7p+tQmlPFpIAAFi8oPSNv0UhZK2OSYGlyBoBYBGC0i/xtugJjdAXSQAA5CaonsafSX8NUtekwFIkAQCwG0H1NP6l0DhB9Z1MQQCAWQVxv8aC1TGLlJMKAGYXVE/jz05/LdBV+hOLJAAAdhZUT+NvcZHQCj2RBACAJ0H1Nf49oVXq2C6YJAAAThRUX+PPjP+WGogkAADqFFRf488j3VusruWBJAEAUG/jb7/3dKHVguo9AYMAoH1sVRb3XtQuqL4TkWcHAGibupZk0/hjU3WekPZ7OwKA5rN7XZ33Wjpc2FShek7KSbxDANBcl6jeeyyNP7bVVb0n6JIAoHns3lbnvbUrYAZ1PEKYJABAU12meu+pVFcxl57qPWFtfSpLVADkzO5hdi+r817aE7ALPdV74pZitiqAPAXVt88KjT8WoieSAACYR51r/Gn8sVA91Xsi29IVnlQFIAcd1bfMj8YfUfRU7wltsSQA8MvuUXXfJ3sCIuip/pN7WUwOBOCL3ZPs3lT3/bEnIKKe6j/JSzEvAIAPQfVP9qPxRzI9+UgCmBcAoE6F6h/vp/FHcj3Vf9JbLAkA0rN7j4d7YE9ADXrycQHYRhtBABCfjfcP5OPe1xNQo7q3DZ5EKZIAAHF5WN8/Cbb3hQtd+bggLJYEAItX95P8pqMrwBHLjD1MhrFYFtUAAIvhYT//Sdg9thDgkKfymP0dhQBg9wr5uqcdFOBYkJ8LxmJJADC/uh/hu7HxDwIyEOQrCeDiATCrIB8b+0zC/pYgICOexs0sbOyMWbMAtmMT/bzMZbIYiK3PkbHL5edimlxQQQBwXJCftf2TuFxAA/Tk68IqNX5kJwB46/Vb9AQ0iO3b7+0iWxbVAKCtgvz1+u0e2RXQQEG+JgdOLjjmBgDt4rHXX4plfmi4IH9JwOTiCwLQZEH+ev0WzPRHq3ibHDiJJQFoGptJb9e2x3tOX8z0Rwv15POCLMUkQaApCvmsOlow/IhWK+T34lwWZTkgV0E+y/0W7OkPrAnymwRYLAlALiblfm+T/CbBeD+wCa/zAixKMSwAeFfId2fC7nGM9wNbsDExr5m7xUBk74A3hfyW+y1YbgzMKMh3Fm+xLBIBoG7Wm+7L972iFPcKYC45XNgWS+LiBlLzPs4/CUr+wB54HxKYZPgdAYgtl4afkj+wIEH+hwRIBIC4usrjPsAsfyCCnvxf/CQCwGJ1lUfDb8EjfIGICuVzM7C/syMAu9FVXtd6IQDRBeUxQZBEAJhfV/k0/BZXiol+QHJd5XWjsL+1IwAb5TK5bzrsb71IAGoTlFc1YJIILImJQkCODb/FQFy/gBtd5VUNmMSyuJGgfQ5qPGEut4af5X2AU0H5VQMmYeOIhYBmK+R7y97tYiCSdcC9rvKsBqzo+DyBIKAZrMx/icbr43O4BjcGY/1AZoLyrQZMbjrLGpdKgRwVyrPMPx1s5QtkzBrQUnnddDaG9Zw64kYE/ya9/YHyusY2RimG5IDG6CmvG9BmMakKFAJ8KZR/b39yjfUEoHGC8h4WmI5S455WEFCPyRI+Oxe9Xy+zxEBcT0DjddWcm9bkxtURNy/E15QS/3SUoqoGtE5PzUoESAYQQxMbfQvK/UDLBTVnWIBkAIvS1EZ/EszuB3BMUHNvdpNkgDkD2E5Qsxv9yXVQCAA20VXzhgU2RilWE2DcAy407g3bOeH9vN1LXCvOdwAz6qr5N8VJDDTu+bHpUPMFHe/l575kb5aw19gRAOxCV+1JBFZ0vDrQEcMFTRA0PoftmLahwZ9u+HtinB/AHgU1c8XArAmBPaioIyoEObBjZD38ZbXzfKXhx8weJWB2QePeVEft7R0fXY1Dq/HFtY/Dta8hvckYvsV5Gjf+bW347Bz8iMbzGTgfMRMSAOxGEInAtErjZOC6tY+H1r6GxQkaN/AHNG7wD4pzz9DwY9dIALAXQSQCW5lUCiwpKHU8OeAmvb2wFtajP0f07LdCw489IwHAIgSNe2VLIhHYySQxsI/TSUGl9lQNgsYN+qQXf2Dq3zT026Phx8KQAGDRuiIR2IvphOCwxpO6Dk997aj83vhPX4uwFqdp3Is/beprQdiNSuNG/wrR8GNBSAAQS1fjoYFCiKHS+mSgWvt4eMPPaJvPNzNpxKeFqX8f2PBzYZOfweIMV+PStY8AkBUr7faV11Iqgqg7bOlpISAiKgBIJWi8PvkC0VsENsP4PpIiAUAdumJ4AJgYalwlu1o0/EiIBAB1ChpXBS4Us7/RLtbQ24S+q8T4PmpCAgAPrPG/SFQF0HxDjRt9ZvOjdiQA8CaIuQJolsnYvjX8hwQ4QQIAzy7S8coAkBNr9IcaN/xDAQ6RACAHDBEgF0NR4kcmSACQm6BxEkAyAC+GotFHhkgAkLMgkgHUYygafWSOBABNETROAi5c+8iyQizS5CFOk6V7NPrIHgkAmqrQeMMhVhNgtyqNN+eZzN6n0UejkACgDex5BJYI2ETCQsDmJr18a/C/KJbsoeFIANBGhcbJgCUFB4U2s0beGnt6+WgdEgC0nc0VKNaChKD5Jg3+cC1o8NFaJADAepYQWBJQ6HhCwITCPE1K+teJHj5wAhIAYGcHdTwpOE9UCbw6NBWM4QM7IAEAdqfQOBk4R8eTAioFaVgvvtL6xr4SvXtgLiQAwOJYEhDWPp439W/szsaG/vDax0oA9owEAIhvUh2YVAwOaJwcBFE1OKrjY/XWwJeioQeSIAEA6jWZdGgfLTE4Q+NE4fS1CMo3SZg07tVa3K3jDfzka5TtgZqQAAB5CDqeFEwnB+bA1M9MTH5Gm3xvJ5OGe1q1yfcOb/hepfWNPgDH/j+CmS9xTGJMagAAAABJRU5ErkJggg==;" vertex="1" parent="BE3_SHiMCwZjSVx6Z5An-65">
          <mxGeometry x="2" width="50" height="50" as="geometry" />
        </mxCell>
      </root>
    </mxGraphModel>
  </diagram>
</mxfile>
